<svg xmlns="http://www.w3.org/2000/svg" version="1.1" xmlns:xlink="http://www.w3.org/1999/xlink" xmlns:svgjs="http://svgjs.dev/svgjs" width="32" height="32"><svg width="32" height="32" viewBox="0 0 32 32" fill="none" xmlns="http://www.w3.org/2000/svg">
<rect width="32" height="32" rx="4" fill="#543EFA"></rect>
<path d="M24.3707 18.5096C24.3707 18.8769 24.072 19.1756 23.7047 19.1756C23.3364 19.1756 23.0367 18.8769 23.0367 18.5096C23.0367 18.1413 23.3353 17.8416 23.7047 17.8416C24.072 17.8416 24.3707 18.1413 24.3707 18.5096Z" fill="#EFEFEF"></path>
<path d="M29.6877 20.4262C29.5315 20.4262 29.3901 20.4895 29.2856 20.5909L25.9707 16.897L28.0931 14.1013L24.5902 15.2379L26.2883 11.8364L23.1739 13.5694L24.1649 9.95996L21.441 12.3662L21.6531 8.47292L19.2816 11.5525L19.0853 7.62439L17.1572 10.7378L16.1472 7.00488L15.0696 10.8454L13.2807 7.14419L12.6982 11.1631L10.3626 7.90724L10.6096 11.7995L7.7083 8.75577L8.76052 12.8612L5.29991 10.6671L7.20277 14.3208L3.20497 12.6501L5.62075 15.8585C5.62075 15.8585 1.83297 15.1989 1.72743 15.2379C1.6219 15.277 5.12577 18.6669 5.12577 18.6669C5.12577 19.3803 5.41706 20.0294 5.88671 20.5001C6.35635 20.9697 7.00541 21.2631 7.71991 21.2631H8.15051C8.21172 21.2631 8.26238 21.3138 8.26238 21.375V23.0161H9.57633V21.375C9.57633 21.3138 9.62699 21.2631 9.6882 21.2631H10.9779C11.0391 21.2631 11.0887 21.3138 11.0887 21.375V23.0161H12.4027V21.375C12.4027 21.3138 12.4533 21.2631 12.5145 21.2631H18.0247C18.0859 21.2631 18.1366 21.3138 18.1366 21.375V23.0161H19.4505V21.375C19.4505 21.3138 19.4991 21.2631 19.5613 21.2631H20.8521C20.9133 21.2631 20.9639 21.3138 20.9639 21.375V23.0161H22.2779V21.375C22.2779 21.3138 22.3285 21.2631 22.3898 21.2631H30.1922C30.2344 21.184 30.2587 21.0943 30.2587 20.9993C30.2587 20.6827 30.0022 20.4262 29.6877 20.4262ZM23.7048 19.6505C23.0747 19.6505 22.5618 19.1397 22.5618 18.5096C22.5618 17.8796 23.0747 17.3667 23.7048 17.3667C24.3327 17.3667 24.8456 17.8796 24.8456 18.5096C24.8456 19.1397 24.3327 19.6505 23.7048 19.6505Z" fill="#BEF941"></path>
<path d="M29.6877 20.4262C29.5315 20.4262 29.3901 20.4895 29.2856 20.5909L25.9707 16.897L28.0931 14.1013L24.5902 15.2379L26.2883 11.8364L23.1739 13.5694L24.1649 9.95996L21.441 12.3662L21.6531 8.47292L19.2816 11.5525L19.0853 7.62439L17.1572 10.7378L16.1472 7.00488L15.0696 10.8454L13.2807 7.14419L12.6982 11.1631L10.3626 7.90724L10.6096 11.7995L7.7083 8.75577L8.76052 12.8612L5.29991 10.6671L7.20277 14.3208L3.20497 12.6501L5.62075 15.8585C5.62075 15.8585 1.83297 15.1989 1.72743 15.2379C1.6219 15.277 5.12577 18.6669 5.12577 18.6669C5.12577 19.3803 5.41706 20.0294 5.88671 20.5001C6.35635 20.9697 7.00541 21.2631 7.71991 21.2631H8.15051C8.21172 21.2631 8.26238 21.3138 8.26238 21.375V23.0161H9.57633V21.375C9.57633 21.3138 9.62699 21.2631 9.6882 21.2631H10.9779C11.0391 21.2631 11.0887 21.3138 11.0887 21.375V23.0161H12.4027V21.375C12.4027 21.3138 12.4533 21.2631 12.5145 21.2631H18.0247C18.0859 21.2631 18.1366 21.3138 18.1366 21.375V23.0161H19.4505V21.375C19.4505 21.3138 19.4991 21.2631 19.5613 21.2631H20.8521C20.9133 21.2631 20.9639 21.3138 20.9639 21.375V23.0161H22.2779V21.375C22.2779 21.3138 22.3285 21.2631 22.3898 21.2631H30.1922C30.2344 21.184 30.2587 21.0943 30.2587 20.9993C30.2587 20.6827 30.0022 20.4262 29.6877 20.4262ZM23.7048 19.6505C23.0747 19.6505 22.5618 19.1397 22.5618 18.5096C22.5618 17.8796 23.0747 17.3667 23.7048 17.3667C24.3327 17.3667 24.8456 17.8796 24.8456 18.5096C24.8456 19.1397 24.3327 19.6505 23.7048 19.6505Z" fill="#EFEFEF"></path>
<path d="M11.2386 15.0742V16.3533H10.656V15.2768C10.656 15.2251 10.6539 15.1586 10.6475 15.0784C10.6423 14.9982 10.6254 14.9159 10.5958 14.8346C10.5652 14.7523 10.5167 14.6837 10.4502 14.6288C10.3837 14.5739 10.2887 14.5465 10.1673 14.5465C10.1177 14.5465 10.065 14.5549 10.008 14.5708C9.95309 14.5866 9.90032 14.6151 9.85072 14.6594C9.80112 14.7038 9.76207 14.7692 9.72935 14.8547C9.69874 14.9402 9.68291 15.0552 9.68291 15.1977V16.3533H9.10034V13.6558H9.68291V14.2373C9.71774 14.2067 9.75362 14.1792 9.79267 14.1518C9.94043 14.0558 10.1251 14.0061 10.3499 14.0061C10.5283 14.0061 10.6739 14.0368 10.7858 14.0969C10.8987 14.1581 10.9863 14.2341 11.0496 14.327C11.1108 14.4209 11.1562 14.517 11.1837 14.6183C11.209 14.7175 11.2269 14.8104 11.2312 14.8927C11.2354 14.976 11.2386 15.0362 11.2386 15.0742Z" fill="#EFEFEF"></path>
<path d="M11.2301 17.735C11.2354 17.8195 11.2385 17.8786 11.2385 17.9166V19.1957H10.656V18.1192C10.656 18.0675 10.6539 18.001 10.6475 17.9208C10.6423 17.8406 10.6254 17.7582 10.5958 17.677C10.5652 17.5947 10.5167 17.5261 10.4502 17.4712C10.3837 17.4163 10.2887 17.3889 10.1673 17.3889C10.1177 17.3889 10.065 17.3973 10.008 17.4131C9.95309 17.429 9.90032 17.4575 9.85072 17.5018C9.80111 17.5461 9.76206 17.6115 9.72935 17.697C9.69874 17.7825 9.68291 17.8976 9.68291 18.04V19.1957H9.10034V16.4939H9.68291V17.0807C9.71774 17.0501 9.75362 17.0226 9.79267 16.9952C9.94042 16.8992 10.1251 16.8496 10.3499 16.8496C10.5283 16.8496 10.6739 16.8802 10.7858 16.9403C10.8987 17.0015 10.9863 17.0775 11.0496 17.1704C11.1108 17.2643 11.1562 17.3604 11.1837 17.4617C11.2079 17.5609 11.2248 17.6527 11.2301 17.735Z" fill="#EFEFEF"></path>
<path d="M13.7946 14.6542C13.7144 14.4505 13.5909 14.2922 13.4221 14.1793C13.2543 14.0674 13.0516 14.0115 12.8121 14.0115C12.5873 14.0115 12.3888 14.0632 12.2158 14.1645C12.0427 14.2669 11.9076 14.4094 11.8073 14.593C11.7092 14.7777 11.6596 14.994 11.6596 15.2442C11.6596 15.4721 11.7092 15.6726 11.8105 15.85C11.9118 16.0262 12.0501 16.1655 12.2284 16.2668C12.4068 16.3681 12.6126 16.4178 12.8458 16.4178C13.0653 16.4178 13.268 16.3597 13.4527 16.2447C13.6374 16.1296 13.7735 15.9671 13.859 15.7592L13.2849 15.5946C13.2416 15.6874 13.1825 15.7592 13.1012 15.8067C13.021 15.8563 12.925 15.8806 12.811 15.8806C12.6326 15.8806 12.4975 15.8225 12.4047 15.7075C12.3382 15.622 12.2949 15.5101 12.278 15.375H13.878C13.9033 15.0985 13.8738 14.8579 13.7946 14.6542ZM12.296 14.9476C12.3181 14.8431 12.354 14.7555 12.4057 14.6869C12.4986 14.5687 12.6421 14.5086 12.8374 14.5086C13.0052 14.5086 13.1255 14.5603 13.1994 14.6616C13.2469 14.7281 13.2785 14.8262 13.2954 14.9476H12.296Z" fill="#EFEFEF"></path>
<path d="M15.8221 13.6558V14.1497C15.6796 14.0589 15.5097 14.0104 15.3081 14.0104C15.0907 14.0104 14.8997 14.0621 14.7392 14.1666C14.5767 14.271 14.4511 14.4135 14.3625 14.594C14.2738 14.7755 14.2284 14.9813 14.2284 15.2125C14.2284 15.4404 14.2717 15.6462 14.3604 15.8277C14.448 16.0082 14.5714 16.1517 14.7276 16.2583C14.8849 16.3628 15.0685 16.4156 15.2796 16.4156C15.5055 16.4156 15.6944 16.3628 15.8474 16.2583C15.8643 16.2467 15.8801 16.2309 15.8949 16.2193V16.3533H16.4025V13.6558H15.8221ZM15.8442 15.5766C15.8094 15.681 15.7556 15.7613 15.6775 15.8204C15.6004 15.8773 15.4991 15.9058 15.3704 15.9058C15.2469 15.9058 15.1456 15.8752 15.0664 15.813C14.9873 15.7518 14.9292 15.6673 14.8902 15.5628C14.8522 15.4584 14.8332 15.3412 14.8332 15.2135C14.8332 15.0879 14.8532 14.9718 14.8933 14.8673C14.9324 14.7629 14.9925 14.6784 15.0749 14.6151C15.1572 14.5539 15.2617 14.5222 15.3904 14.5222C15.5107 14.5222 15.6068 14.5497 15.6807 14.6077C15.7545 14.6658 15.8094 14.747 15.8432 14.8515C15.8759 14.9539 15.8928 15.0763 15.8928 15.2135C15.8938 15.3518 15.877 15.4721 15.8442 15.5766Z" fill="#EFEFEF"></path>
<path d="M18.5323 14.0748V14.2014C18.5186 14.1909 18.507 14.1793 18.4911 14.1687C18.3434 14.0642 18.1619 14.0115 17.9455 14.0115C17.726 14.0115 17.5371 14.0632 17.3745 14.1677C17.2131 14.2722 17.0885 14.4146 16.9988 14.5951C16.9081 14.7766 16.8637 14.9824 16.8637 15.2136C16.8637 15.4415 16.9081 15.6473 16.9957 15.8288C17.0843 16.0093 17.2067 16.1529 17.364 16.2594C17.5212 16.3639 17.7049 16.4167 17.9149 16.4167C18.1313 16.4167 18.3128 16.3671 18.4605 16.2711V16.5011C18.4637 16.5856 18.4415 16.6573 18.3951 16.7133C18.3508 16.7703 18.2885 16.8125 18.2136 16.842C18.1386 16.8716 18.0563 16.8853 17.9698 16.8853C17.8906 16.8853 17.8157 16.8684 17.7471 16.8325C17.6806 16.7987 17.6268 16.747 17.5909 16.6795L17.059 16.937C17.116 17.0352 17.1909 17.1206 17.2838 17.1956C17.3745 17.2694 17.479 17.3254 17.5962 17.3665C17.7144 17.4098 17.8358 17.4299 17.9666 17.4299C18.1344 17.4299 18.2885 17.4077 18.4331 17.3634C18.5766 17.319 18.6969 17.2515 18.7962 17.1607C18.8954 17.0721 18.964 16.9571 18.9998 16.8177C19.0115 16.7681 19.022 16.7185 19.0252 16.6689C19.0304 16.6193 19.0336 16.5666 19.0336 16.5096V14.0748H18.5323ZM18.4806 15.5766C18.4479 15.6811 18.3919 15.7613 18.316 15.8204C18.2389 15.8774 18.1355 15.9059 18.0078 15.9059C17.8843 15.9059 17.783 15.8753 17.7038 15.813C17.6247 15.7518 17.5666 15.6674 17.5286 15.5629C17.4906 15.4584 17.4716 15.3413 17.4716 15.2136C17.4716 15.088 17.4906 14.9719 17.5297 14.8674C17.5687 14.7629 17.631 14.6785 17.7133 14.6152C17.7956 14.5539 17.9001 14.5223 18.0289 14.5223C18.1492 14.5223 18.2452 14.5497 18.3191 14.6078C18.393 14.6658 18.4479 14.7471 18.4806 14.8516C18.5144 14.9539 18.5323 15.0764 18.5323 15.2136C18.5323 15.3518 18.5154 15.4721 18.4806 15.5766Z" fill="#EFEFEF"></path>
<path d="M21.6331 14.6542C21.5529 14.4505 21.4294 14.2922 21.2606 14.1793C21.0938 14.0674 20.8901 14.0115 20.6506 14.0115C20.4258 14.0115 20.2274 14.0632 20.0543 14.1645C19.8812 14.2669 19.7461 14.4094 19.648 14.593C19.5487 14.7777 19.4991 14.994 19.4991 15.2442C19.4991 15.4721 19.5509 15.6726 19.6501 15.85C19.7514 16.0262 19.8896 16.1655 20.068 16.2668C20.2464 16.3681 20.4522 16.4178 20.6854 16.4178C20.9049 16.4178 21.1076 16.3597 21.2922 16.2447C21.4769 16.1296 21.6131 15.9671 21.6986 15.7592L21.1244 15.5946C21.0833 15.6874 21.0221 15.7592 20.9408 15.8067C20.8606 15.8563 20.7646 15.8806 20.6506 15.8806C20.4722 15.8806 20.3371 15.8225 20.2464 15.7075C20.1778 15.622 20.1366 15.5101 20.1176 15.375H21.7176C21.7408 15.0985 21.7133 14.8579 21.6331 14.6542ZM20.1345 14.9476C20.1566 14.8431 20.1925 14.7555 20.2464 14.6869C20.3371 14.5687 20.4817 14.5086 20.677 14.5086C20.8448 14.5086 20.9651 14.5603 21.039 14.6616C21.0864 14.7281 21.1181 14.8262 21.135 14.9476H20.1345Z" fill="#EFEFEF"></path>
<path d="M13.8242 17.4341C13.726 17.2526 13.5909 17.1122 13.4178 17.0088C13.2426 16.9064 13.0421 16.8547 12.8121 16.8547C12.5873 16.8547 12.3888 16.9043 12.2158 17.0057C12.0427 17.107 11.9076 17.2495 11.8073 17.4289C11.7092 17.6104 11.6596 17.8194 11.6596 18.0568C11.6596 18.2922 11.7071 18.5011 11.8031 18.6806C11.9013 18.8621 12.0342 19.0024 12.2073 19.1059C12.3804 19.2082 12.5809 19.26 12.811 19.26C13.039 19.26 13.2395 19.2082 13.4147 19.1069C13.5878 19.0046 13.7228 18.8631 13.821 18.6816C13.9192 18.5011 13.9688 18.2922 13.9688 18.0558C13.9698 17.8215 13.9202 17.6136 13.8242 17.4341ZM13.2258 18.536C13.135 18.6616 12.9978 18.7228 12.8121 18.7228C12.6337 18.7228 12.4986 18.6626 12.4057 18.5423C12.315 18.422 12.2685 18.2595 12.2685 18.0558C12.2685 17.9238 12.2875 17.8088 12.3255 17.7075C12.3646 17.6083 12.4247 17.5291 12.5039 17.4742C12.5841 17.4173 12.6875 17.3888 12.8121 17.3888C12.9936 17.3888 13.1308 17.45 13.2237 17.5703C13.3144 17.6917 13.3609 17.8531 13.3609 18.0558C13.3609 18.251 13.3165 18.4125 13.2258 18.536Z" fill="#EFEFEF"></path>
<path d="M15.974 16.917V17.0458C15.9603 17.0342 15.9487 17.0215 15.935 17.012C15.7862 16.9075 15.6036 16.8547 15.3883 16.8547C15.1709 16.8547 14.9798 16.9064 14.8173 17.0109C14.6558 17.1154 14.5313 17.2579 14.4416 17.4384C14.3529 17.6199 14.3076 17.8257 14.3076 18.0568C14.3076 18.2848 14.3508 18.4906 14.4374 18.6721C14.526 18.8526 14.6485 18.9961 14.8057 19.1027C14.963 19.2072 15.1466 19.26 15.3566 19.26C15.573 19.26 15.7545 19.2104 15.9022 19.1143V19.3444C15.9054 19.4288 15.8833 19.5006 15.8389 19.5565C15.7925 19.6135 15.7313 19.6557 15.6553 19.6853C15.5793 19.7148 15.4991 19.7285 15.4115 19.7285C15.3323 19.7285 15.2574 19.7117 15.1899 19.6758C15.1213 19.642 15.0685 19.5903 15.0326 19.5227L14.5007 19.7803C14.5577 19.8784 14.6326 19.9639 14.7255 20.0388C14.8184 20.1127 14.9229 20.1686 15.0389 20.2098C15.155 20.2531 15.2785 20.2731 15.4073 20.2731C15.5751 20.2731 15.7292 20.251 15.8738 20.2066C16.0173 20.1623 16.1397 20.0948 16.2368 20.004C16.336 19.9154 16.4046 19.8003 16.4405 19.661C16.4542 19.6114 16.4627 19.5618 16.4679 19.5122C16.4711 19.4626 16.4753 19.4098 16.4753 19.3528V16.9181H15.974V16.917ZM15.9223 18.4199C15.8896 18.5244 15.8337 18.6046 15.7577 18.6637C15.6806 18.7207 15.5772 18.7492 15.4505 18.7492C15.325 18.7492 15.2247 18.7185 15.1455 18.6563C15.0664 18.5951 15.0083 18.5106 14.9703 18.4062C14.9324 18.3017 14.9134 18.1845 14.9134 18.0568C14.9134 17.9312 14.9324 17.8151 14.9735 17.7107C15.0115 17.6062 15.0727 17.5217 15.155 17.4584C15.2374 17.3972 15.3418 17.3655 15.4706 17.3655C15.5909 17.3655 15.687 17.393 15.7608 17.451C15.8347 17.5091 15.8896 17.5903 15.9223 17.6948C15.9561 17.7972 15.974 17.9196 15.974 18.0568C15.974 18.1951 15.9571 18.3154 15.9223 18.4199Z" fill="#EFEFEF"></path>
</svg><style>@media (prefers-color-scheme: light) { :root { filter: none; } }
@media (prefers-color-scheme: dark) { :root { filter: none; } }
</style></svg>