<svg width="488" height="600" viewBox="0 0 488 600" fill="none" xmlns="http://www.w3.org/2000/svg">
<path d="M457.903 142.156C456.307 143.735 454.71 145.314 453.151 146.857C455.014 153.592 460.836 155.472 463.975 160.559C459.661 163.51 456.653 158.024 452.335 159.397C452.825 161.441 453.628 163.263 453.584 165.056C453.542 166.724 452.431 168.317 452.096 170.026C451.692 172.091 451.489 174.238 451.416 176.359C451.308 179.538 451.388 182.726 451.388 187.575C452.715 189.263 455.086 192.112 457.281 195.137C458.467 196.772 460.506 199.099 460.176 200.44C458.613 206.779 463.34 211.129 463.359 216.809L463.486 216.653C460.901 218.592 459.354 220.813 460.833 224.776C461.776 227.302 462.079 230.157 462.693 232.976C460.041 234.947 457.949 236.446 455.907 238.034C453.077 240.235 452.585 243.062 454.595 246.293C451.091 248.366 447.894 250.679 444.442 252.2C439.178 254.52 435.509 258.412 433.537 265.159C437.645 269.545 439.545 275.551 440.798 282.663C438.705 284.499 436.652 286.685 434.305 288.278C429.211 291.736 427.797 297.011 429.093 303.179C429.922 307.122 430.677 310.812 430.017 314.929C429.697 316.925 430.171 319.283 430.794 321.258C431.834 324.558 431.808 327.573 430.477 330.728C429.811 332.304 428.799 334.413 429.206 335.755C431.223 342.404 427.489 344.875 423.652 347.618C418.96 350.973 413.315 352.907 410.559 359.267C407.065 360.618 403.571 361.969 400.078 363.32L400.137 363.453C398.817 363.454 397.497 363.454 396.177 363.455L396.234 363.318C392.508 363.802 388.934 364.627 386.462 369.228C388.391 371.711 390.109 374.218 392.084 376.407C397.532 382.444 399.563 389.515 397.413 398.103C396.895 400.174 395.988 402.595 396.455 404.438C398.366 411.972 395.352 416.836 390.86 421.371C388.712 423.54 388.642 426.978 387.735 429.948C384.849 439.396 387.542 448.589 387.521 457.839C387.509 463.017 386.419 467.029 383.407 470.538C382.676 471.712 381.947 472.885 381.218 474.059C381.155 478.131 378.904 480.737 376.568 483.148C371.904 487.964 367.186 492.713 362.38 497.334C340.267 518.595 318.143 539.841 295.946 560.981C293.15 563.644 290.599 566.102 291.607 570.136C287.657 572.591 284.036 574.471 280.756 576.966C275.265 581.146 269.891 585.415 263.278 586.907C261.168 587.383 259.165 588.531 257.126 589.415C251.584 591.82 246.15 593.934 239.934 593.102C235.026 592.444 230.046 593.702 225.931 597.76C224.864 598.813 223.206 599.043 221.022 600C220.851 596.822 220.725 594.494 220.632 592.754C222.864 589.309 227.776 592.918 228.319 586.642C225.949 585.543 223.502 583.926 220.882 583.305C216.928 582.369 213.419 581.688 210.188 577.808C208.074 575.269 203.528 575.496 200.063 574.524C195.538 573.256 195.143 572.984 195.716 568.445C196.614 561.336 195.709 553.88 199.197 547.205C200.168 545.345 199.458 542.265 199.49 539.744C199.629 529.025 200.887 518.657 206.527 509.727C207.346 508.431 208.462 507.393 210.697 504.749C209.717 512.848 203.508 516.412 204.679 523.082C207.731 524.359 209.188 522.257 210.007 519.928C213.181 510.906 217.414 502.341 218.84 492.545C219.025 491.963 219.21 491.38 219.395 490.797C219.258 491.426 219.121 492.055 218.984 492.684C217.572 494.07 216.13 495.417 214.755 496.851C212.752 498.94 210.492 499.627 207.889 498.844C210.078 491.025 212.356 486.298 215.834 482.276C217.401 480.465 218.989 478.369 221.429 479.103C225.86 480.434 228.474 477.321 231.012 474.062C232.562 472.073 234.762 470.428 234.915 466.525C228.898 467.782 225.654 477.003 218.271 472.727C219.525 468.037 222.355 464.415 225.912 462.733C230.606 460.514 233.221 456.205 236.224 452.115C239.174 448.094 242.077 444.026 245.487 439.304C240.31 437.194 235.83 436.901 231.236 437.467C228.822 437.765 226.396 438.138 223.978 438.117C217.784 438.062 211.59 437.885 205.4 437.612C196.458 437.216 187.52 436.687 178.579 436.229C177.029 436.149 175.41 435.78 173.937 436.157C169.368 437.326 165.54 435.348 161.419 433.381C155.412 430.514 149.059 428.648 142.854 426.349C140.565 425.5 138.281 424.635 135.952 423.762C136.111 420.076 139.598 416.996 136.082 414.023C136.749 408.851 131.278 410.02 130.165 405.668C132.009 403.945 134.041 402.047 136.478 399.769C134.881 396.096 133.238 392.317 131.317 387.898C133.009 386.663 134.412 385.453 135.953 384.57C137.298 383.798 138.796 383.396 141.431 382.354C139.199 380.401 137.842 379.213 136.313 377.875C136.612 374.674 136.933 371.233 137.263 367.686C140.085 365.188 143.231 367.146 146.216 366.83C147.273 366.718 148.638 365.777 149.173 364.73C150.184 362.752 148.94 361.063 147.503 360.367C144.953 359.134 142.258 358.277 139.582 357.449C137.597 356.835 135.546 356.515 133.28 356.009C133.901 349.813 138.788 347.635 140.638 342.227C137.874 341.35 135.281 340.626 132.742 339.696C130.316 338.807 129.716 335.474 131.716 333.697C133.688 331.943 135.887 330.543 137.951 328.926C138.915 328.171 139.794 327.269 141.416 325.792C138.148 323.694 135.548 322.024 132.455 320.038C133.068 317.425 133.696 314.749 134.383 311.819C133.793 311.264 133.188 310.293 132.41 310.028C127.055 308.213 121.645 306.623 116.298 304.778C114.867 304.285 113.595 303.159 111.772 302.026C112.131 299.804 112.593 297.767 112.769 295.697C113.24 290.147 114.747 284.971 112.548 278.954C110.655 273.775 111.345 267.347 116.931 264.056C110.401 257.349 110.401 257.349 113.007 248.642C109.808 243.191 106.305 237.494 107.805 229.934C107.929 229.306 107.643 228.48 107.376 227.845C104.63 221.306 104.468 214.542 106.647 207.525C102.977 205.24 99.5452 206.28 96.255 206.105C92.5382 205.908 88.7943 206.029 85.1079 205.538C80.7498 204.958 77.4038 202.781 77.1412 196.761C77.0648 195.013 76.3803 193.301 76.0462 191.877C72.4249 189.894 69.1809 188.119 64.8808 185.766C68.3577 183.537 70.6834 182.046 73.8815 179.995C70.6144 178.076 68.2203 176.669 65.8235 175.259C65.8881 174.969 65.9548 174.682 66.0216 174.395C65.9954 174.726 65.9692 175.056 65.9431 175.387C63.5459 171.399 63.2004 167.556 65.8471 163.343C67.6662 160.448 68.9144 157.061 70.6882 153.323C66.197 146.29 64.404 137.97 64.6287 129.162C64.6749 127.339 66.4229 125.576 67.675 123.248C67.0638 122.391 66.2908 121.405 65.6124 120.337C63.4709 116.969 63.6885 114.936 66.8487 113.765C74.2322 111.03 81.6528 108.35 89.1816 106.26C101.574 102.82 114.044 99.7508 126.524 96.7713C130.496 95.823 134.321 94.9088 137.945 92.4958C140.29 90.9341 143.206 90.3568 145.936 89.8164C162.157 86.6063 178.393 83.5063 194.635 80.442C198.268 79.7566 201.898 79.1879 206.166 76.8077C204.648 75.1413 203.768 73.3363 202.661 73.1175C199.308 72.4548 195.861 72.4911 192.464 72.0976C189.075 71.7048 185.705 71.1038 182.323 70.6268C179.784 70.2686 178.863 68.9517 178.955 65.6856C178.996 64.2206 176.786 62.6681 175.211 60.6636C180.866 56.1574 187.065 58.6586 192.569 56.9248C198.25 55.1358 204.123 54.1704 209.923 52.921C215.661 51.6857 221.482 50.8593 227.266 48.5241C226.306 44.4455 223.903 44.4255 221.977 44.6955C219.243 45.0786 216.622 46.5231 213.888 46.9529C212.314 47.2005 210.613 46.3427 208.896 45.2354C218.119 40.8964 225.534 33.9446 232.983 26.9814C235.37 24.751 238.368 23.4218 241.09 21.6824C246.214 21.5632 251.164 20.3825 255.99 18.4478C250.704 17.4834 245.613 17.6751 241.195 21.8209C238.231 22.4324 235.241 22.9108 232.308 23.6835C226.688 25.1634 221.117 26.9592 215.262 26.2821L215.367 26.4197C216.956 25.3058 218.433 23.7276 220.154 23.1493C237.186 17.4235 254.306 12.2801 272.118 10.9058C280.152 10.286 288.127 8.62394 296.127 7.4192C297.051 7.2803 297.965 6.87098 298.882 6.87972C313.236 7.02168 327.298 3.5473 341.53 2.18666C349.579 1.41696 357.624 0.174698 365.682 0.0361943C388.149 -0.349922 410.332 2.31857 432.012 9.71117C438.271 11.8454 444.616 13.8002 451.031 15.0988C458.786 16.6687 463.614 22.5023 467.968 29.328C469.951 32.4372 470.424 35.9051 468.643 39.3485C472.874 43.4728 479.012 44.7252 479.823 51.142C480.479 56.3274 479.332 61.8259 478.925 68.1012C480.45 67.7526 481.764 67.452 483.079 67.1493C483.329 67.7356 483.874 68.3969 483.783 68.9009C482.848 74.0947 479.231 76.6212 475.772 78.9049C471.598 81.6611 469.306 85.4191 469.099 91.7677C470.498 91.8943 471.914 92.0227 473.991 92.2105C473.724 97.3977 476.007 101.479 478.832 105.401C480.186 107.28 481.834 110.015 481.604 112.098C480.959 117.968 484.055 122.461 485 127.139C484.059 130.339 482.429 128.967 481 128.989C478.52 129.027 477.096 131.027 476.214 133.477C473.828 140.106 469.274 142.279 463.554 142.179L463.622 142.335C461.682 140.152 459.742 140.308 457.802 142.333L457.903 142.156ZM160.401 378.618C161.972 378.379 163.684 378.63 164.817 377.798C165.904 377.001 167.068 374.982 166.933 373.681C166.815 372.548 165.033 371.145 163.802 370.816C162.49 370.467 160.961 371.239 159.503 371.527C159.503 373.12 159.402 374.157 159.531 375.155C159.661 376.168 160.018 377.142 160.401 378.618ZM149.744 321.989C150.394 321.424 151.077 320.831 151.76 320.237C151.158 319.645 150.555 319.053 149.953 318.461C149.44 319.18 148.885 319.87 148.475 320.662C148.428 320.752 149.193 321.421 149.744 321.989ZM158.226 361.803C157.249 361.932 156.453 361.947 155.72 362.21C155.578 362.26 155.687 363.274 155.68 363.843C156.227 363.771 156.853 363.867 157.294 363.576C157.661 363.334 157.812 362.638 158.226 361.803ZM204.868 57.8006C204.982 58.0754 205.118 58.5961 205.206 58.5853C205.751 58.5166 206.286 58.3292 206.824 58.1811C206.711 57.9052 206.576 57.3822 206.489 57.3927C205.942 57.4613 205.407 57.6487 204.868 57.8006Z" fill="#6C59FF"/>
<path d="M148.876 284.95C148.876 284.95 144.025 279.368 134.211 281.512C124.398 283.655 101.648 280.632 101.648 280.632L86.6797 300.16L88.3126 312.476C111.622 314.411 141.224 311.212 149.837 296.546" fill="#98D517"/>
<path d="M148.602 285.189C145.384 283.126 141.574 282.486 137.86 282.918C135.922 283.142 134.017 283.765 132.064 284.053C125.901 284.965 119.673 284.757 113.493 284.341C109.411 284.021 105.393 283.589 101.342 282.886L103.44 282.022C99.213 287.764 93.0654 295.953 88.6629 301.711L89.1592 299.855C89.7195 303.966 90.2318 308.06 90.568 312.203C90.568 312.203 88.4868 310.219 88.5028 310.235C106.369 311.419 137.411 311.515 149.514 296.401C149.739 296.049 150.331 296.385 150.139 296.768C146.441 304.685 137.844 308.876 129.871 311.323C116.375 315.321 102.079 315.945 88.1186 314.778C86.9979 314.762 86.1494 313.866 86.0534 312.81C85.6691 310.779 85.3489 308.732 85.0448 306.685C84.7566 304.637 84.4524 302.59 84.1963 300.527C84.1002 299.855 84.2923 299.184 84.6926 298.672C89.1752 292.93 95.3228 284.853 99.8374 279.271C100.366 278.599 101.15 278.343 101.935 278.407C108.931 278.967 118.808 279.879 125.725 279.943C128.158 279.959 130.559 279.959 132.913 279.623C134.45 279.431 136.131 279.159 137.7 279.207C142.118 279.255 146.697 281.126 149.13 284.741C149.354 285.077 148.922 285.445 148.602 285.189Z" fill="#402DD4"/>
<path d="M68.7471 255.888C68.7471 255.888 79.8576 246.931 80.7221 242.549C81.5866 238.166 78.3367 235.895 68.9232 236.199C59.5257 236.503 52.9459 225.883 48.6714 226.635C44.3969 227.387 43.5324 230.345 44.701 237.351C44.701 237.351 42.5558 240.102 34.2309 239.238C25.9061 238.374 26.7065 243.844 28.1954 247.347C29.6843 250.85 43.1321 255.088 45.4535 261.182C47.7748 267.275 44.5089 285.812 36.4242 292.418C28.3395 299.023 -5.12005 323.302 4.10133 361.959C13.3227 400.617 63.7522 398.825 87.6541 389.597C111.556 380.368 132.064 335.377 94.5221 306.205C56.9802 277.032 68.7471 255.888 68.7471 255.888Z" fill="#F580F7"/>
<path d="M56.0022 397.626C44.4915 397.626 32.8527 395.547 23.4392 390.605C12.0085 384.591 4.67624 375.155 1.66648 362.551C-7.44283 324.374 23.2951 299.743 33.397 291.65C33.9413 291.219 34.4216 290.835 34.8379 290.483C42.0901 284.549 45.0838 267.26 43.0987 262.078C42.0901 259.423 37.3673 256.688 33.5891 254.513C29.8109 252.337 26.8332 250.61 25.8726 248.339C24.3357 244.708 24.3677 241.525 25.9527 239.382C27.5536 237.223 30.4193 236.343 34.4856 236.759C38.6 237.191 40.8574 236.631 41.962 236.183C41.3216 231.785 41.1135 225.452 48.2217 224.188C51.1354 223.676 53.8089 225.739 56.8987 228.139C60.3728 230.825 64.295 233.848 68.8417 233.72C75.5976 233.496 79.7441 234.568 81.8573 237.047C82.7858 238.135 83.7624 240.07 83.1861 243.061C82.2735 247.731 73.9647 254.896 70.7628 257.503C70.2025 258.799 68.6656 263.229 70.1064 270.075C71.7234 277.72 77.5508 289.843 96.0736 304.222C112.419 316.921 119.928 334.098 117.206 352.619C114.612 370.261 102.846 386.43 88.5812 391.948C79.5039 395.435 67.8171 397.626 56.0022 397.626ZM32.5965 241.669C31.0757 241.669 30.2592 241.989 30.003 242.357C29.6188 242.869 29.6348 244.308 30.5153 246.372C30.9636 247.171 34.0694 248.979 36.1186 250.162C40.8254 252.881 46.1565 255.968 47.8054 260.286C50.5911 267.58 46.8128 287.172 38.0237 294.353C37.5915 294.705 37.0952 295.105 36.5508 295.553C27.0573 303.15 -1.80755 326.277 6.56534 361.368C9.22289 372.5 15.6907 380.849 25.7766 386.143C43.5309 395.467 69.8983 393.756 86.7722 387.246C99.2114 382.432 109.922 367.558 112.243 351.868C114.692 335.218 107.856 319.704 92.9998 308.172C54.1931 278.024 66.0241 255.616 66.5524 254.672C66.7125 254.385 66.9206 254.145 67.1767 253.937C72.1717 249.906 77.839 244.228 78.2552 242.069C78.4953 240.822 78.1591 240.422 78.0311 240.278C77.5668 239.734 75.7737 238.503 69.0018 238.711C62.6461 238.902 57.5551 234.968 53.8249 232.073C52.256 230.857 49.8546 229.018 49.1022 229.098C47.4212 229.402 45.9643 229.658 47.1811 236.919C47.2931 237.607 47.117 238.327 46.6848 238.87C46.1885 239.51 43.2268 242.661 33.9894 241.717C33.4771 241.701 33.0128 241.669 32.5965 241.669Z" fill="#402DD4"/>
<path d="M56.9945 263.199C56.9945 263.199 55.3295 260.416 50.3346 259.84C45.3397 259.264 40.9211 258.449 39.5923 262.543C38.2635 266.638 40.793 270.06 40.793 270.06C40.793 270.06 36.5665 271.26 37.351 276.25C38.1355 281.24 40.2007 281.592 40.2007 281.592C40.2007 281.592 36.6786 283.655 38.2475 287.845C39.8164 292.036 48.8137 290.692 50.9109 290.229C54.5931 289.413 56.098 283.943 52.0636 281.624C52.0636 281.624 56.3221 280.52 56.9625 277.018C57.8109 272.395 54.7051 270.764 54.7051 270.764C54.7051 270.764 60.4525 266.813 56.9945 263.199Z" fill="#EFEFEF"/>
<path d="M45.3875 293.345C41.6253 293.345 37.3027 292.465 35.8939 288.739C34.7733 285.764 35.4617 283.365 36.5983 281.685C35.8779 280.582 35.2375 278.982 34.8693 276.647C34.293 272.921 35.7659 270.49 37.4789 269.082C36.7905 267.291 36.2621 264.668 37.2067 261.773C39.0798 255.951 44.9712 256.671 49.71 257.231L50.6225 257.343C55.9216 257.966 58.307 260.685 58.9634 261.629C60.5163 263.356 60.7084 265.116 60.5803 266.315C60.3882 268.155 59.3636 269.722 58.339 270.873C59.3316 272.393 59.988 274.584 59.4437 277.479C59.0434 279.686 57.6826 281.302 56.1938 282.389C56.8662 283.685 57.1383 285.172 56.8982 286.707C56.4499 289.666 54.2566 292.065 51.455 292.689C50.8947 292.817 48.3172 293.345 45.3875 293.345ZM46.0599 281.078L41.4812 283.765C41.0009 284.068 39.8963 285.044 40.6167 286.979C41.177 288.499 46.4281 288.659 50.3824 287.779C51.2949 287.571 51.8232 286.691 51.9353 285.94C52.0313 285.316 51.9193 284.436 50.8306 283.813L46.0599 281.078ZM41.0009 279.19L47.3726 280.278L51.455 279.222C51.471 279.222 54.1766 278.423 54.5128 276.583C54.9771 274.024 53.7443 273.113 53.4882 272.953L49.4218 271.129L53.2961 268.714C54.1926 268.091 55.4894 266.715 55.5854 265.819C55.6014 265.691 55.6174 265.42 55.1692 264.956L54.929 264.7L54.849 264.54C54.6569 264.284 53.3761 262.749 50.0462 262.365L49.1176 262.253C43.7545 261.613 42.4898 261.805 41.9935 263.356C41.097 266.139 42.7619 268.538 42.842 268.65L44.8912 271.545L41.4972 272.537C40.9048 272.729 39.464 273.48 39.8482 275.928C40.2004 278.119 40.7768 278.95 41.0009 279.19Z" fill="#402DD4"/>
<path d="M37.8516 268.845C43.4869 271.164 49.5704 270.509 54.9655 267.854L54.5173 273.692C51.1233 270.989 46.5286 270.749 42.5903 272.172C41.3096 272.684 39.9968 273.388 38.9722 274.603L37.8516 268.845Z" fill="#402DD4"/>
<path d="M38.8047 278.76C43.5435 280.871 48.6664 281.111 53.4532 278.76L52.2205 284.486C49.595 280.6 43.7836 280.871 40.5817 283.766C40.3576 283.974 40.1014 284.23 39.9734 284.502L38.8047 278.76Z" fill="#402DD4"/>
<path d="M68.3926 268.749C68.4086 268.733 68.4086 268.733 68.3926 268.749C68.4086 268.733 68.4086 268.749 68.3926 268.765C68.3446 269.357 67.5281 279.273 76.9416 286.15L88.9326 299.793L94.5519 306.191C102.092 296.243 111.122 271.404 94.696 273.339C94.0236 273.403 93.2871 273.531 92.5187 273.707C92.5187 273.707 91.8303 272.572 90.6936 271.004C89.4929 269.341 87.7799 267.198 85.8108 265.342C81.9685 261.744 78.5105 254.323 71.3223 254.546C64.1341 254.77 59.9877 261.136 55.393 263.359C52.8795 269.197 63.4297 274.523 68.3926 268.749Z" fill="#EFEFEF"/>
<path d="M94.5369 308.702C93.8485 308.702 93.1761 308.414 92.7118 307.918L75.3097 289.445C68.7138 284.519 66.6646 277.738 66.0723 273.244C62.9184 274.299 59.3804 273.643 56.7228 271.996C53.0407 269.709 51.5838 265.838 53.0727 262.384C53.3128 261.84 53.7451 261.392 54.2894 261.12C55.5862 260.48 56.995 259.329 58.4838 258.113C61.6697 255.49 65.64 252.244 71.2273 252.068C77.7591 251.876 81.6494 256.594 84.7552 260.4C85.7158 261.584 86.6443 262.704 87.5088 263.535C90.2464 266.094 92.4877 269.165 93.6884 270.956C100.06 270.013 103.166 272.444 104.671 274.779C109.826 282.776 102.237 300.209 96.5381 307.727C96.0898 308.318 95.4014 308.67 94.665 308.718C94.6329 308.702 94.5849 308.702 94.5369 308.702ZM70.9071 268.973C70.8591 269.437 70.1066 279.417 78.4795 285.543C78.6076 285.639 78.7197 285.735 78.8317 285.847L94.2647 302.225C99.4998 294.02 103.262 281.816 100.476 277.482C99.3557 275.755 96.8743 275.307 93.0801 276.171C92.0234 276.41 90.9348 275.947 90.3745 275.019C90.3424 274.971 87.6369 270.509 84.1148 267.198C82.9942 266.142 81.9696 264.895 80.8969 263.583C78.1753 260.241 75.5978 257.09 71.6595 257.09C71.5795 257.09 71.4995 257.09 71.4194 257.09C67.5451 257.218 64.5834 259.649 61.7017 262C60.3089 263.135 58.9801 264.239 57.5553 265.087C57.4913 266.43 58.9161 267.438 59.4124 267.742C61.1414 268.813 64.4553 269.533 66.5205 267.118C67.241 266.286 68.4097 266.014 69.4182 266.43C70.3948 266.846 71.0032 267.886 70.9071 268.973Z" fill="#402DD4"/>
<path d="M94.8903 272.906C95.6747 277.865 94.362 283.079 91.6404 287.237C91.4323 287.589 90.8559 287.317 90.984 286.933C91.5763 284.774 91.8165 282.567 91.6404 280.36C91.4963 278.52 91.1121 276.729 90.3917 275.05C90.2956 274.842 90.1835 274.57 90.1035 274.49C89.1589 273.37 89.287 271.707 90.4077 270.763C91.8485 269.468 94.2979 270.299 94.6982 272.171C94.7142 272.203 94.8903 272.906 94.8903 272.906Z" fill="#402DD4"/>
<path d="M47.1324 236.726L49.3737 253.663C49.4378 254.063 48.8294 254.239 48.6853 253.839L42.2816 238.005C41.7533 236.71 42.3776 235.238 43.6744 234.711C45.1793 234.071 46.9403 235.11 47.1324 236.726Z" fill="#402DD4"/>
<path d="M61.1395 277.304C65.6701 288.228 69.3523 299.871 73.4987 310.971C73.5948 311.211 73.2425 311.419 73.0825 311.211C71.0653 308.892 69.3843 306.301 67.9595 303.614C65.1098 298.224 63.0766 292.434 61.8119 286.484C61.6358 285.861 59.8427 275.816 61.1395 277.304Z" fill="#402DD4"/>
<path d="M55.3142 281.638C55.1061 288.915 53.201 295.952 50.5434 302.686C49.6149 304.909 48.5903 307.116 47.2295 309.179C47.1495 309.291 47.0054 309.323 46.8933 309.243C46.8133 309.195 46.7812 309.099 46.7812 309.019C47.0214 306.572 47.4696 304.221 47.9499 301.886C48.4622 299.551 49.0226 297.248 49.6789 294.945C51.0237 290.322 52.5446 285.796 54.8339 281.51C54.962 281.302 55.3142 281.398 55.3142 281.638Z" fill="#402DD4"/>
<path d="M63.0955 244.437C61.7187 251.091 58.4047 257.264 55.6351 263.406C55.5551 263.63 55.2029 263.598 55.1548 263.358C54.4184 259.791 55.427 256.145 56.7558 252.882C58.1646 249.619 59.9897 246.596 62.6792 244.197C62.8553 244.037 63.1435 244.213 63.0955 244.437Z" fill="#402DD4"/>
<path d="M85.6699 347.759C86.1502 362.505 77.281 373.477 62.5204 373.941C47.7598 374.421 35.4005 362.841 34.9363 348.095C34.456 333.348 46.0468 321.001 60.8074 320.537C75.568 320.073 85.1896 333.013 85.6699 347.759Z" fill="#ED56F0"/>
<path d="M64.4565 367.861C63.9922 367.397 63.64 366.645 63.3999 365.557C63.2398 364.934 62.8396 364.63 62.1672 364.63C59.8938 364.758 57.9407 364.598 56.2917 364.166C54.6428 363.718 53.346 363.046 52.4015 362.135C51.4569 361.223 50.8806 360.152 50.6725 358.904C50.5284 358.008 50.5764 357.113 50.8486 356.233C51.1207 355.353 51.585 354.602 52.2894 353.962C52.9778 353.338 53.8743 352.922 54.963 352.746C55.9075 352.586 56.724 352.57 57.3644 352.714C58.0207 352.858 58.6131 353.162 59.1414 353.658C59.6697 354.138 60.246 354.858 60.8544 355.801C61.5108 356.841 62.2312 357.545 62.9997 357.912C63.7681 358.28 64.7447 358.376 65.9134 358.184C67.2261 357.96 68.1387 357.449 68.683 356.649C69.2273 355.833 69.4034 354.889 69.2273 353.802C69.0832 352.938 68.667 352.219 67.9946 351.643C67.3222 351.067 66.5217 350.619 65.6092 350.267C64.6966 349.915 63.3519 349.484 61.5908 348.956C59.1894 348.268 57.2043 347.596 55.6514 346.925C54.0985 346.253 52.6896 345.277 51.4249 343.966C50.1762 342.67 49.3757 340.975 49.0235 338.88C48.5912 336.321 49.0555 334.129 50.4163 332.322C51.7611 330.515 53.6982 329.139 56.1957 328.228C56.804 328.02 57.0602 327.62 56.9641 326.996C56.804 326.068 56.9001 325.317 57.2043 324.773C57.5245 324.229 58.1328 323.877 59.0133 323.733C60.4382 323.493 61.4147 324.277 61.943 326.084C62.0391 326.42 62.1672 326.66 62.3593 326.82C62.5514 326.964 62.8075 327.044 63.1437 327.044C65.0008 327.028 66.5857 327.3 67.8985 327.844C69.2273 328.388 70.2359 329.091 70.9563 329.955C71.6767 330.819 72.109 331.73 72.2691 332.69C72.4452 333.714 72.3491 334.609 72.0289 335.409C71.6927 336.209 71.1804 336.848 70.508 337.344C69.8196 337.84 69.0192 338.144 68.1226 338.304C66.7298 338.528 65.6412 338.384 64.8407 337.84C64.0403 337.296 63.3519 336.401 62.7915 335.153C62.4233 334.209 61.959 333.554 61.3987 333.202C60.8384 332.85 60.0379 332.754 58.9973 332.93C57.9087 333.106 57.0602 333.538 56.4678 334.225C55.8755 334.913 55.6514 335.729 55.8115 336.672C55.9876 337.696 56.4518 338.544 57.2203 339.215C57.9887 339.887 58.9173 340.431 59.9579 340.847C61.0145 341.263 62.4553 341.727 64.2964 342.27C66.6978 342.942 68.667 343.614 70.2359 344.27C71.7888 344.941 73.1976 345.917 74.4303 347.196C75.663 348.492 76.4635 350.187 76.7997 352.282C77.232 354.858 76.7837 357.113 75.4709 359.016C74.1582 360.919 72.0449 362.359 69.1472 363.334C68.5229 363.542 68.2507 363.974 68.3628 364.646C68.5549 365.845 68.5229 366.725 68.2507 367.285C67.9786 367.829 67.3542 368.196 66.3776 368.356C65.5772 368.468 64.9208 368.308 64.4565 367.861Z" fill="#FBCCFC"/>
<g opacity="0.7">
<path d="M17.7583 378.258C-5.03901 341.856 18.8149 312.971 37.1456 297.457C31.3502 317.465 3.7181 330.196 17.7583 378.258Z" fill="#EFEFEF"/>
</g>
<path d="M265.674 428.062C265.674 428.062 259.606 420.433 258.694 389.325C257.781 358.201 292.393 387.95 292.393 387.95C292.393 387.95 291.721 409.413 297.212 425.935C302.687 442.457 270.156 437.131 270.156 437.131" fill="#98D517"/>
<path d="M280.74 440.473C275.377 440.473 270.75 439.769 269.742 439.609C268.381 439.385 267.453 438.089 267.661 436.73C267.885 435.37 269.182 434.427 270.542 434.651C277.875 435.85 290.842 436.186 294.38 432.028C294.765 431.564 295.965 430.172 294.813 426.702C289.946 412.035 289.802 393.946 289.85 389.084C282.693 383.182 270.35 375.521 264.811 378.16C261.593 379.696 261.065 385.038 261.193 389.244C262.057 418.593 267.597 426.462 267.661 426.542C268.525 427.629 268.333 429.181 267.244 430.044C266.156 430.908 264.571 430.716 263.706 429.629C263.034 428.781 257.094 420.464 256.182 389.404C255.942 381.103 258.119 375.809 262.666 373.634C273.248 368.596 291.931 384.238 294.028 386.045C294.604 386.541 294.925 387.261 294.909 388.028C294.909 388.236 294.316 409.252 299.599 425.134C301.28 430.22 299.775 433.467 298.223 435.29C294.652 439.465 287.176 440.473 280.74 440.473Z" fill="#402DD4"/>
<path d="M233.465 387.949C233.465 387.949 236.282 404.855 242.27 420.209C248.257 435.563 242.35 439.626 241.277 439.626C240.205 439.626 214.574 436.203 213.789 435.419C213.005 434.636 207.914 424.368 207.914 424.368C207.914 424.368 200.037 402.632 198.452 386.686C196.867 370.74 233.465 387.949 233.465 387.949Z" fill="#98D517"/>
<path d="M241.277 442.12C240.316 442.12 231.655 440.937 227.06 440.281C213.116 438.282 212.716 437.882 212.011 437.162C211.723 436.874 210.939 436.09 205.672 425.438C205.624 425.359 205.592 425.263 205.56 425.183C205.24 424.287 197.555 402.967 195.954 386.893C195.522 382.607 197.379 380.336 199.012 379.184C207.305 373.346 230.07 383.55 234.537 385.646C235.289 385.997 235.801 386.685 235.945 387.501C235.977 387.661 238.795 404.342 244.607 419.265C248.977 430.493 247.456 436.378 245.423 439.353C244.27 441.081 242.669 442.12 241.277 442.12ZM215.389 433.307C219.2 434.219 237.178 436.682 240.828 437.066C241.613 436.298 244.382 432.572 239.932 421.104C234.825 407.989 232.023 393.978 231.239 389.676C221.169 385.118 206.104 380.352 201.926 383.31C201.605 383.534 200.741 384.142 200.965 386.429C202.438 401.24 209.594 421.552 210.25 423.375C212.156 427.262 214.461 431.74 215.389 433.307Z" fill="#402DD4"/>
<path d="M303.348 435.13C323.424 425.694 343.98 443.095 337.288 464.607C336.375 467.534 333.622 469.485 330.548 469.485H273.363C269.824 469.485 266.703 467.102 265.838 463.679C262.492 450.292 262.492 426.173 262.492 426.173C273.443 434.298 296.576 431.387 298.177 422.191C298.209 422.191 303.348 420.512 303.348 435.13Z" fill="#EFEFEF"/>
<path d="M330.561 471.994H273.376C268.637 471.994 264.554 468.828 263.418 464.285C260.04 450.754 260.008 427.163 260.008 426.172C260.008 425.228 260.536 424.348 261.385 423.933C262.233 423.501 263.258 423.597 264.01 424.157C270.766 429.179 283.061 429.451 290.313 426.556C293.483 425.292 295.404 423.581 295.725 421.741C295.885 420.83 296.541 420.078 297.422 419.79C297.774 419.678 299.663 419.166 301.68 420.622C304.017 422.317 305.362 425.884 305.747 431.482C315.064 428.411 324.894 430.186 332.098 436.456C340.151 443.445 343.048 454.529 339.686 465.357C338.454 469.339 334.787 471.994 330.561 471.994ZM265.099 430.57C265.275 438.087 265.915 453.521 268.301 463.07C268.877 465.373 270.958 466.972 273.392 466.972H330.577C332.562 466.972 334.339 465.693 334.916 463.869C337.717 454.833 335.444 446.004 328.816 440.246C322.236 434.521 312.887 433.433 304.434 437.4C303.665 437.767 302.753 437.703 302.016 437.24C301.296 436.776 300.848 435.976 300.848 435.128C300.848 429.642 300.095 426.972 299.471 425.724C298.062 427.979 295.565 429.866 292.187 431.226C284.79 434.169 273.504 434.457 265.099 430.57Z" fill="#402DD4"/>
<path d="M304.195 437.497C297.887 439.48 292.027 443.383 287.961 448.613C286.52 450.388 285.448 452.419 284.439 454.499C284.279 454.914 283.623 454.707 283.767 454.259C285.656 447.205 290.282 441.112 296.078 436.713C298.127 435.194 300.176 433.834 302.514 432.747C305.843 431.435 307.637 436.409 304.195 437.497Z" fill="#402DD4"/>
<path d="M192.558 469.485C175.684 456.082 183.097 436.618 206.662 436.618C206.662 436.618 205.542 433.707 204.581 428.493C203.621 423.263 207.895 424.35 207.895 424.35C210.169 432.571 241.339 431.564 242.251 420.208C242.251 420.208 245.821 418.896 248.927 429.42C252.033 439.944 257.764 462.944 251.216 469.501H192.558V469.485Z" fill="#EFEFEF"/>
<path d="M251.232 471.997H192.557C191.997 471.997 191.437 471.805 190.989 471.453C182.456 464.672 179.014 455.875 181.799 447.91C184.505 440.185 192.589 435.115 203.3 434.251C202.932 432.876 202.515 431.101 202.115 428.941C201.635 426.334 202.115 424.351 203.508 423.04C205.477 421.2 208.215 421.824 208.519 421.904C209.399 422.128 210.088 422.8 210.328 423.663C210.856 425.599 217.244 427.886 226.017 427.054C233.83 426.318 239.481 423.408 239.769 419.985C239.849 419.009 240.489 418.162 241.402 417.826C241.786 417.682 243.163 417.298 244.908 418.178C247.55 419.505 249.647 422.944 251.36 428.67C255.97 444.232 259.989 464.256 253.009 471.245C252.528 471.741 251.888 471.997 251.232 471.997ZM193.454 466.991H250.047C253.169 462.241 251.856 448.07 246.541 430.125C245.516 426.686 244.524 424.815 243.787 423.807C241.098 428.878 233.525 431.405 226.497 432.06C219.053 432.764 210.584 431.612 207.014 427.694C207.03 427.806 207.046 427.918 207.062 428.046C207.958 432.94 208.999 435.707 209.015 435.739C209.303 436.507 209.207 437.386 208.743 438.058C208.279 438.746 207.494 439.146 206.678 439.146C196.512 439.146 188.811 443.144 186.554 449.574C184.569 455.235 187.146 461.681 193.454 466.991Z" fill="#402DD4"/>
<path d="M206.521 434.125C216.559 434.461 226.629 437.756 234.585 443.929C237.243 445.896 239.468 448.36 241.549 450.839C241.821 451.159 241.341 451.638 241.021 451.334C234.361 444.521 225.316 440.523 215.934 439.371C212.973 439.035 209.707 438.843 206.761 439.147C203.271 439.387 202.999 434.237 206.521 434.125Z" fill="#402DD4"/>
<path d="M369.911 375.89L319.417 387.678L314.342 387.95L288.84 389.325L166.16 375.89C141.618 280.039 167.104 157.765 209.513 60.7141C209.513 60.7141 267.659 54.3645 340.23 66.7758C361.954 70.4864 384.976 75.8763 408.125 83.6174C408.125 83.6174 411.743 113.622 425.319 134.654C387.441 195.143 346.281 263.133 369.911 375.89Z" fill="#98D517"/>
<path d="M288.845 391.835C288.749 391.835 288.669 391.835 288.573 391.819L165.893 378.368C164.853 378.256 163.988 377.504 163.732 376.497C152.061 330.978 150.893 277.766 160.242 218.349C168.471 166.033 184.72 111.174 207.214 59.6892C207.582 58.8575 208.35 58.2977 209.247 58.2018C210.239 58.0898 309.129 47.8217 408.931 81.217C409.844 81.5209 410.516 82.3366 410.628 83.2962C410.66 83.5841 414.343 112.981 427.438 133.277C427.967 134.093 427.967 135.149 427.454 135.964C390.489 194.998 348.608 261.9 372.382 375.361C372.654 376.689 371.822 378.016 370.493 378.32L319.983 390.108C319.839 390.14 319.695 390.156 319.551 390.172L288.989 391.835C288.941 391.835 288.893 391.835 288.845 391.835ZM168.167 373.57L288.909 386.797L319.055 385.166L366.955 373.986C356.837 324.021 358.534 278.502 372.158 234.903C384.469 195.446 405.345 161.81 422.363 134.621C410.917 116.036 406.786 91.885 405.858 85.4714C314.188 55.1949 223.671 61.9284 211.232 63.0319C163.236 173.534 147.195 289.346 168.167 373.57Z" fill="#402DD4"/>
<path d="M337.321 71.5572C351.361 75.0759 368.763 79.8581 382.852 83.5367L397.997 87.6311C398.909 87.871 399.357 88.9746 398.861 89.7743C396.107 94.6525 393.21 99.4187 390.392 104.233C346.703 176.445 320.607 255.871 314.124 340.079C314.108 340.239 313.963 340.367 313.803 340.351C313.643 340.335 313.531 340.207 313.531 340.047C313.755 335.105 313.947 328.132 314.364 323.318C318.99 250.641 341.916 179.532 378.897 116.884C384.533 107.224 390.552 97.7713 396.332 88.3029L397.196 90.4461C383.796 86.4796 365.514 80.8657 352.146 76.7873C347.135 75.2678 342.156 73.6845 337.161 72.133C337.001 72.0851 336.921 71.9091 336.969 71.7652C337.001 71.6052 337.161 71.5253 337.321 71.5572Z" fill="#402DD4"/>
<path d="M413.203 101.482C405.407 113.237 398.059 125.313 390.95 137.516C390.774 137.82 390.246 137.596 390.422 137.244C393.448 130.847 396.554 124.481 399.756 118.164C402.973 111.83 406.207 105.544 409.649 99.3067C411.106 96.8276 414.756 99.0348 413.203 101.482Z" fill="#402DD4"/>
<path d="M415.491 113.67C408.735 123.203 402.059 132.831 395.864 142.747C395.687 143.051 395.175 142.795 395.335 142.46C397.913 137.182 400.634 131.984 403.42 126.817C406.206 121.651 409.055 116.517 411.953 111.399C412.529 110.392 413.81 110.04 414.819 110.616C415.907 111.223 416.227 112.663 415.491 113.67Z" fill="#402DD4"/>
<path d="M338.999 382.002C338.167 367.096 338.167 352.189 338.727 337.299C338.727 337.139 338.871 337.011 339.031 337.011C339.191 337.011 339.32 337.139 339.32 337.299C339.624 344.72 340.104 352.125 340.728 359.514C341.369 366.872 342.137 374.293 343.162 381.586C343.498 384.417 339.271 384.865 338.999 382.002Z" fill="#402DD4"/>
<path d="M330.898 383.15C331.075 376.225 331.379 369.332 331.795 362.438C332.211 355.545 332.756 348.667 333.572 341.806C333.588 341.646 333.748 341.518 333.908 341.55C334.068 341.566 334.18 341.71 334.164 341.854C333.94 348.731 334.004 355.609 334.18 362.47C334.372 369.348 334.661 376.225 335.077 383.07C335.173 385.949 330.914 386.029 330.898 383.15Z" fill="#402DD4"/>
<path d="M371.434 187.641C361.909 220.301 353.84 253.376 349.966 287.187C349.646 290.578 349.293 294.353 348.877 297.727C348.861 297.935 348.669 298.079 348.477 298.063C348.301 298.047 348.173 297.903 348.157 297.727C347.981 295.36 347.853 292.993 347.741 290.626C346.86 264.508 351.871 238.406 359.956 213.647C362.981 204.659 366.423 195.798 370.762 187.353C370.858 187.177 371.066 187.113 371.242 187.193C371.418 187.289 371.498 187.481 371.434 187.641Z" fill="#402DD4"/>
<path d="M203.032 46.5107C203.032 46.5107 288.634 46.7666 365.511 58.2183C365.511 58.2183 366.375 73.4125 378.126 89.3585C381.904 94.4925 382.096 101.418 378.478 106.664C333.988 171.263 308.405 294.593 314.073 390.012C246.561 393.403 182.732 392.299 123.689 385.358C107.728 285.028 134.127 99.8665 203.032 46.5107Z" fill="#98D517"/>
<g opacity="0.7">
<path d="M209.95 50.9399C229.498 51.2758 300.067 53.0031 345.79 61.192L212.048 54.5226C208.061 54.3306 204.235 56.01 201.657 59.0488C168.182 98.7298 158.448 131.709 142.055 174.045C150.892 125.919 178.716 76.3223 200.633 54.6665C203.114 52.2194 206.476 50.876 209.95 50.9399Z" fill="#EFEFEF"/>
</g>
<path d="M365.51 99.3687C318.89 171.741 297.71 258.172 296.141 355.463C282.645 345.627 268.685 361.077 277.282 371.393C226.068 372.769 159.661 361.941 159.661 361.941C161.022 333.056 136.32 339.198 136.32 339.198C121.095 272.855 154.795 127.086 196.259 76.0656C206.585 84.6383 229.462 79.2164 228.422 62.9666C258.807 63.9262 320.908 66.8691 353.951 75.3139L365.51 99.3687Z" fill="#BEF941"/>
<path d="M242.591 394.379C199.99 394.379 160.607 392.204 123.417 387.837C122.296 387.709 121.4 386.846 121.224 385.742C113.043 334.37 116.053 262.365 129.084 197.83C144.069 123.522 169.796 69.0785 201.495 44.5278C201.943 44.1919 202.471 44 203.048 44C203.912 44 289.706 44.3839 365.895 55.7235C367.079 55.8995 367.96 56.8751 368.04 58.0586C368.056 58.2026 369.049 72.7571 380.175 87.8553C384.61 93.869 384.77 101.978 380.575 108.072C338.215 169.584 310.726 290.722 316.618 389.837C316.65 390.508 316.426 391.164 315.978 391.66C315.529 392.156 314.905 392.46 314.233 392.492C289.322 393.755 265.484 394.379 242.591 394.379ZM125.899 383.071C180.875 389.405 243.263 390.924 311.447 387.613C308.949 340.847 313.752 287.22 325.039 236.231C336.886 182.667 355.136 136.157 376.429 105.225C379.407 100.906 379.279 95.1166 376.125 90.8302C366.471 77.7472 363.894 65.2239 363.237 60.4098C292.028 49.9977 213.037 49.0861 203.912 49.0221C136.689 102.154 110.818 284.101 125.899 383.071Z" fill="#402DD4"/>
<path d="M268.111 374.035C218.802 374.035 159.888 364.535 159.263 364.423C157.999 364.215 157.102 363.095 157.166 361.832C157.566 353.531 155.725 347.645 151.739 344.351C145.896 339.536 137.026 341.632 136.93 341.648C136.274 341.808 135.586 341.696 135.009 341.344C134.433 340.992 134.033 340.432 133.873 339.776C126.668 308.38 129.918 256.624 142.582 201.349C155.197 146.25 174.536 98.8278 194.308 74.5011C194.724 73.9733 195.349 73.6534 196.021 73.5894C196.693 73.5255 197.35 73.7334 197.878 74.1652C202.841 78.2916 211.678 78.8194 218.434 75.3808C221.428 73.8613 226.375 70.2467 225.91 63.1614C225.862 62.4577 226.118 61.7539 226.615 61.2581C227.111 60.7463 227.799 60.4744 228.504 60.4904C261.531 61.53 321.806 64.5369 354.577 72.9177C355.298 73.0936 355.906 73.5894 356.226 74.2612L367.769 98.332C368.153 99.1157 368.089 100.043 367.609 100.779C322.831 170.273 300.274 253.617 298.641 355.562C298.625 356.506 298.096 357.354 297.248 357.769C296.416 358.185 295.407 358.105 294.654 357.546C288.363 352.971 282.696 355.003 279.766 358.137C277.044 361.032 275.828 365.766 279.221 369.845C279.83 370.581 279.974 371.604 279.574 372.484C279.173 373.364 278.309 373.939 277.348 373.955C274.339 373.987 271.249 374.035 268.111 374.035ZM162.241 359.801C173.704 361.56 228.44 369.573 272.994 368.965C271.185 364.183 272.241 358.745 276.1 354.635C280.054 350.428 286.698 348.125 293.71 351.164C294.767 303.022 300.754 258.047 311.496 217.407C322.927 174.159 340.137 134.382 362.63 99.1797L352.192 77.444C320.478 69.6229 263.788 66.6481 230.905 65.5445C230.393 71.6222 226.775 76.7243 220.707 79.8111C212.991 83.7296 203.353 83.5057 196.757 79.4752C177.946 103.754 159.616 149.433 147.481 202.436C135.281 255.68 131.887 305.421 138.259 336.322C142.037 335.89 149.258 335.826 154.877 340.432C159.792 344.463 162.257 350.972 162.241 359.801Z" fill="#402DD4"/>
<path d="M256.489 136.379C271.148 136.379 283.032 126.906 283.032 115.22C283.032 103.533 271.148 94.0596 256.489 94.0596C241.829 94.0596 229.945 103.533 229.945 115.22C229.945 126.906 241.829 136.379 256.489 136.379Z" fill="#98D517"/>
<path d="M209.516 340.047C224.176 340.047 236.06 330.574 236.06 318.887C236.06 307.201 224.176 297.727 209.516 297.727C194.857 297.727 182.973 307.201 182.973 318.887C182.973 330.574 194.857 340.047 209.516 340.047Z" fill="#98D517"/>
<path d="M274.18 121.046C273.652 121.238 272.916 121.238 272.003 121.014C271.459 120.902 271.075 121.11 270.834 121.638C270.098 123.461 269.249 124.916 268.305 126.036C267.344 127.156 266.352 127.923 265.279 128.323C264.223 128.723 263.166 128.771 262.125 128.483C261.373 128.259 260.7 127.891 260.108 127.364C259.516 126.836 259.1 126.18 258.875 125.412C258.635 124.645 258.651 123.797 258.907 122.885C259.132 122.086 259.42 121.462 259.772 120.998C260.124 120.534 260.588 120.198 261.165 119.958C261.741 119.718 262.51 119.543 263.486 119.415C264.543 119.287 265.359 118.983 265.936 118.519C266.512 118.055 266.928 117.335 267.216 116.344C267.536 115.24 267.472 114.328 267.04 113.609C266.608 112.889 265.92 112.393 265.007 112.137C264.271 111.929 263.566 111.977 262.878 112.297C262.189 112.617 261.533 113.065 260.925 113.657C260.316 114.249 259.484 115.128 258.411 116.296C256.986 117.911 255.722 119.207 254.633 120.182C253.528 121.158 252.248 121.894 250.759 122.389C249.286 122.885 247.653 122.885 245.892 122.389C243.731 121.782 242.194 120.598 241.281 118.887C240.369 117.159 240.016 115.16 240.209 112.873C240.273 112.313 240.048 111.977 239.536 111.817C238.752 111.594 238.207 111.258 237.887 110.81C237.583 110.362 237.519 109.754 237.743 109.019C238.079 107.819 239.056 107.339 240.657 107.595C240.945 107.643 241.185 107.627 241.377 107.531C241.569 107.435 241.713 107.259 241.841 107.003C242.514 105.564 243.314 104.412 244.227 103.597C245.139 102.765 246.068 102.237 247.012 101.997C247.957 101.757 248.822 101.757 249.622 101.981C250.487 102.221 251.159 102.621 251.655 103.181C252.151 103.741 252.472 104.364 252.6 105.084C252.728 105.804 252.68 106.539 252.472 107.291C252.136 108.459 251.607 109.258 250.903 109.674C250.182 110.09 249.238 110.298 248.053 110.282C247.173 110.218 246.5 110.346 246.004 110.65C245.524 110.954 245.155 111.546 244.899 112.425C244.643 113.337 244.659 114.153 244.979 114.872C245.299 115.592 245.844 116.056 246.644 116.28C247.509 116.52 248.341 116.472 249.158 116.12C249.974 115.768 250.727 115.256 251.447 114.584C252.152 113.913 253.064 112.969 254.153 111.721C255.562 110.09 256.81 108.795 257.915 107.835C259.02 106.859 260.3 106.14 261.757 105.644C263.214 105.164 264.831 105.164 266.608 105.676C268.785 106.3 270.37 107.467 271.379 109.21C272.387 110.938 272.724 113.113 272.419 115.736C272.355 116.312 272.595 116.664 273.156 116.824C274.164 117.111 274.837 117.463 275.173 117.879C275.509 118.295 275.557 118.919 275.317 119.734C275.077 120.406 274.709 120.854 274.18 121.046Z" fill="#BEF941"/>
<path d="M286.872 151.078C282.165 149.527 278.099 155.092 282.453 158.931C283.35 159.715 284.454 160.226 285.607 160.514C289.273 161.442 290.986 162.642 292.491 164.897C292.939 165.568 293.98 165.297 294.044 164.513C294.348 160.354 292.795 156.324 288.969 152.437C288.393 151.83 287.672 151.334 286.872 151.078Z" fill="#402DD4"/>
<path d="M197.176 138.298C201.867 139.849 201.835 146.742 196.039 147.222C194.854 147.318 193.654 147.078 192.549 146.614C189.043 145.175 186.962 145.127 184.4 146.039C183.648 146.311 182.959 145.479 183.376 144.791C185.601 141.272 189.251 138.953 194.646 138.106C195.495 137.994 196.359 138.026 197.176 138.298Z" fill="#402DD4"/>
<path d="M231.611 263.707C261.85 263.707 286.363 239.217 286.363 209.008C286.363 178.798 261.85 154.309 231.611 154.309C201.373 154.309 176.859 178.798 176.859 209.008C176.859 239.217 201.373 263.707 231.611 263.707Z" fill="#98D517"/>
<path d="M172.215 269.003C172.215 269.003 175.689 283.83 182.221 287.141C188.769 290.435 204.153 273.37 204.153 273.37L225.83 275.705C225.83 275.705 233.435 293.042 241.711 293.794C250.004 294.546 263.772 279.607 263.772 279.607C263.772 279.607 200.583 258.959 172.215 269.003Z" fill="#EFEFEF"/>
<path d="M242.29 296.323C242.018 296.323 241.746 296.307 241.49 296.291C233.165 295.539 226.281 282.536 224.152 278.058L205.165 276.01C200.426 281.112 188.275 292.996 181.103 289.381C173.722 285.655 170.168 271.212 169.784 269.581C169.496 268.333 170.184 267.07 171.385 266.638C200.234 256.434 261.95 276.362 264.559 277.226C265.376 277.498 266 278.154 266.208 278.985C266.433 279.817 266.208 280.697 265.632 281.32C264.175 282.872 251.512 296.323 242.29 296.323ZM204.172 270.86C204.268 270.86 204.348 270.86 204.444 270.876L226.121 273.211C227.018 273.307 227.786 273.883 228.154 274.699C230.86 280.873 237.023 290.837 241.954 291.285C246.229 291.652 253.801 285.863 259.1 280.777C245.428 276.682 199.273 263.935 175.259 270.668C176.812 275.994 179.886 283.144 183.36 284.887C186.21 286.327 195.623 279.081 202.299 271.692C202.779 271.164 203.452 270.86 204.172 270.86Z" fill="#402DD4"/>
<path d="M219.415 282.938L231.518 354.639L210.082 375.879L186.18 356.462C186.18 356.462 197.482 305.778 208.865 280.091L219.415 282.938Z" fill="#F580F7"/>
<path d="M210.092 378.402C209.532 378.402 208.972 378.21 208.507 377.842L184.589 358.425C183.853 357.818 183.517 356.858 183.725 355.93C184.189 353.851 195.203 304.718 206.554 279.079C207.05 277.944 208.315 277.352 209.5 277.672L220.066 280.519C221.011 280.775 221.731 281.559 221.891 282.518L233.994 354.219C234.122 355.019 233.866 355.85 233.29 356.426L211.853 377.666C211.373 378.146 210.733 378.402 210.092 378.402ZM188.96 355.498L209.916 372.516L228.823 353.771L217.2 284.933L210.284 283.062C200.519 306.221 190.881 347.15 188.96 355.498Z" fill="#402DD4"/>
<path d="M204.155 273.371C204.155 273.371 201.85 281.368 207.837 285.03C213.312 288.389 221.525 287.861 225.832 275.706L204.155 273.371Z" fill="#F580F7"/>
<path d="M213.86 289.316C211.379 289.316 208.849 288.596 206.528 287.172C198.988 282.55 201.629 273.066 201.741 272.666C202.077 271.498 203.214 270.731 204.431 270.859L226.107 273.194C226.876 273.274 227.548 273.706 227.964 274.345C228.381 275.001 228.461 275.801 228.205 276.52C225.387 284.501 221.08 287.492 217.959 288.596C216.646 289.076 215.269 289.316 213.86 289.316ZM206.256 276.121C206.112 278.168 206.432 281.223 209.17 282.902C210.53 283.734 213.252 284.965 216.278 283.894C218.615 283.062 220.632 280.999 222.217 277.848L206.256 276.121Z" fill="#402DD4"/>
<path d="M380.558 229.419C380.125 230.923 379.709 232.474 379.309 234.058C375.819 247.477 372.825 263.358 371.112 273.083C370.824 274.698 370.584 276.154 370.36 277.385C369.895 280.152 367.558 282.215 364.772 282.359L314.615 284.998C313.447 285.062 312.262 285.03 311.093 284.902L118.309 264.094C118.309 261.119 118.389 258.08 118.533 255.01C119.829 228.556 126.201 199.223 129.691 184.78C131.068 179.087 131.997 175.696 131.997 175.696C228.821 175.696 313.703 192.761 331.793 196.664C334.115 197.16 336.34 198.039 338.389 199.255L377.852 222.622C380.189 224.013 381.31 226.812 380.558 229.419Z" fill="#EFEFEF"/>
<path d="M371.112 273.083C370.824 274.698 370.584 276.154 370.36 277.385C369.895 280.152 367.558 282.215 364.772 282.359L314.615 284.998C313.447 285.062 312.262 285.03 311.093 284.902L118.309 264.094C118.309 261.119 118.389 258.08 118.533 255.01C119.877 255.01 120.758 255.01 120.758 255.01L313.543 275.818C314.711 275.946 315.896 275.978 317.065 275.914L371.112 273.083Z" fill="#52AD9C"/>
<path d="M380.558 229.419C380.126 230.923 379.709 232.474 379.309 234.058C378.973 234.09 378.781 234.09 378.781 234.09L335.299 208.339C333.25 207.124 331.041 206.26 328.704 205.748C310.661 201.862 226.18 184.876 129.691 184.78C131.068 179.087 131.997 175.696 131.997 175.696C228.821 175.696 313.703 192.761 331.793 196.664C334.115 197.16 336.34 198.039 338.389 199.255L377.852 222.622C380.19 224.013 381.31 226.812 380.558 229.419Z" fill="#52AD9C"/>
<path d="M181.275 237.672C191.275 237.672 199.381 229.573 199.381 219.583C199.381 209.592 191.275 201.493 181.275 201.493C171.275 201.493 163.168 209.592 163.168 219.583C163.168 229.573 171.275 237.672 181.275 237.672Z" fill="#98D517"/>
<path d="M313.464 287.541C312.584 287.541 311.703 287.493 310.823 287.397L118.038 266.589C116.757 266.445 115.797 265.373 115.797 264.094C115.797 225.613 129.453 175.552 129.597 175.04C129.901 173.952 130.894 173.2 132.014 173.2C229.687 173.2 316.026 190.714 332.339 194.216C334.933 194.776 337.398 195.736 339.688 197.095L379.151 220.462C382.465 222.43 384.05 226.38 382.993 230.091C378.35 246.485 374.348 268.908 372.843 277.785C372.171 281.735 368.905 284.646 364.902 284.854L314.761 287.493C314.313 287.541 313.881 287.541 313.464 287.541ZM120.824 261.855L311.351 282.407C312.392 282.519 313.432 282.551 314.473 282.487L364.614 279.848C366.247 279.768 367.592 278.568 367.864 276.953C369.385 267.996 373.419 245.365 378.126 228.731C378.558 227.212 377.902 225.597 376.557 224.781L337.094 201.414C335.269 200.342 333.316 199.558 331.251 199.127C315.129 195.656 230.28 178.446 133.919 178.223C131.55 187.371 121.288 228.555 120.824 261.855Z" fill="#402DD4"/>
<path d="M177.285 240.759C176.949 240.199 176.789 239.367 176.837 238.264C176.837 237.624 176.517 237.224 175.876 237.064C173.651 236.632 171.794 235.993 170.305 235.161C168.816 234.329 167.728 233.354 167.039 232.234C166.351 231.114 166.063 229.931 166.159 228.683C166.239 227.772 166.511 226.924 166.991 226.14C167.471 225.357 168.112 224.733 168.944 224.301C169.777 223.869 170.737 223.693 171.826 223.789C172.786 223.869 173.571 224.061 174.163 224.349C174.756 224.637 175.252 225.085 175.652 225.692C176.052 226.3 176.421 227.132 176.789 228.203C177.173 229.371 177.685 230.235 178.342 230.794C178.998 231.338 179.911 231.674 181.095 231.77C182.424 231.882 183.433 231.61 184.169 230.954C184.89 230.299 185.306 229.419 185.402 228.331C185.482 227.452 185.258 226.652 184.745 225.948C184.233 225.229 183.577 224.589 182.776 224.029C181.976 223.469 180.791 222.718 179.206 221.758C177.045 220.494 175.3 219.359 173.955 218.319C172.61 217.28 171.49 215.984 170.593 214.417C169.697 212.849 169.344 211.01 169.521 208.899C169.745 206.308 170.737 204.309 172.498 202.885C174.259 201.462 176.469 200.614 179.11 200.342C179.751 200.294 180.103 199.958 180.151 199.35C180.231 198.407 180.503 197.703 180.935 197.255C181.367 196.807 182.056 196.615 182.936 196.695C184.377 196.823 185.13 197.815 185.194 199.686C185.194 200.038 185.274 200.31 185.418 200.502C185.562 200.694 185.802 200.838 186.122 200.918C187.915 201.366 189.388 202.021 190.525 202.869C191.678 203.717 192.478 204.66 192.974 205.668C193.455 206.692 193.663 207.667 193.567 208.643C193.471 209.667 193.166 210.53 192.654 211.218C192.142 211.906 191.485 212.401 190.701 212.705C189.916 213.009 189.068 213.121 188.155 213.041C186.747 212.913 185.722 212.497 185.082 211.778C184.441 211.058 184.009 210.018 183.753 208.675C183.641 207.667 183.337 206.916 182.888 206.436C182.424 205.956 181.672 205.668 180.631 205.572C179.526 205.476 178.614 205.684 177.861 206.196C177.109 206.708 176.709 207.443 176.613 208.403C176.517 209.427 176.773 210.37 177.349 211.218C177.941 212.066 178.678 212.817 179.606 213.473C180.519 214.129 181.816 214.945 183.449 215.92C185.61 217.168 187.355 218.303 188.7 219.327C190.045 220.366 191.165 221.646 192.03 223.213C192.91 224.765 193.246 226.604 193.07 228.731C192.846 231.338 191.854 233.401 190.109 234.921C188.364 236.44 185.962 237.32 182.92 237.544C182.264 237.592 181.896 237.944 181.848 238.615C181.736 239.831 181.48 240.679 181.079 241.143C180.679 241.606 179.991 241.798 178.998 241.718C178.214 241.638 177.621 241.318 177.285 240.759Z" fill="#402DD4"/>
<path d="M206.523 231.979C206.523 231.979 212.335 234.666 220.868 234.666C224.454 234.666 228.504 234.186 232.811 232.842C230.777 246.741 224.47 252.275 218.466 252.275C211.006 252.291 204.058 243.718 206.523 231.979ZM206.523 227.804C205.867 227.804 205.226 227.948 204.634 228.252C203.497 228.828 202.681 229.883 202.425 231.115C200.904 238.36 202.361 245.398 206.427 250.388C209.565 254.242 213.952 256.465 218.482 256.465C225.798 256.465 234.492 250.42 236.973 233.45C237.181 232.027 236.637 230.603 235.548 229.659C234.78 229.004 233.819 228.652 232.827 228.652C232.41 228.652 231.994 228.716 231.578 228.844C228.12 229.915 224.518 230.475 220.884 230.475C213.487 230.475 208.332 228.188 208.284 228.172C207.708 227.932 207.116 227.804 206.523 227.804Z" fill="#402DD4"/>
<path d="M205.208 238.84C207.929 240.903 211.147 242.551 214.525 243.27C215.63 244.214 209.434 243.062 209.082 242.886C207.257 242.407 205.576 241.799 203.847 240.951C203.223 240.631 202.966 239.88 203.287 239.256C203.639 238.536 204.599 238.328 205.208 238.84Z" fill="#402DD4"/>
<path d="M268.255 246.869C278.255 246.869 286.362 238.77 286.362 228.78C286.362 218.789 278.255 210.691 268.255 210.691C258.255 210.691 250.148 218.789 250.148 228.78C250.148 238.77 258.255 246.869 268.255 246.869Z" fill="#98D517"/>
<path d="M233.079 243.143C228.548 243.671 223.938 244.199 219.391 243.543C219.183 243.511 219.215 243.175 219.423 243.191C223.89 243.127 228.276 241.912 232.535 240.696C234.28 240.232 234.856 242.839 233.079 243.143Z" fill="#402DD4"/>
<path d="M183.122 248.692C183.546 245.602 179.608 242.511 174.326 241.788C169.044 241.064 164.419 242.981 163.995 246.07C163.57 249.159 167.508 252.25 172.79 252.974C178.072 253.698 182.698 251.781 183.122 248.692Z" fill="#BEF941"/>
<path d="M264.266 249.972C263.929 249.412 263.769 248.581 263.817 247.477C263.817 246.837 263.497 246.437 262.857 246.277C260.631 245.846 258.774 245.206 257.285 244.374C255.797 243.543 254.708 242.567 254.02 241.447C253.331 240.328 253.043 239.144 253.139 237.897C253.219 236.985 253.491 236.137 253.972 235.354C254.452 234.57 255.092 233.946 255.925 233.514C256.757 233.082 257.718 232.907 258.806 233.003C259.767 233.082 260.551 233.274 261.144 233.562C261.736 233.85 262.232 234.298 262.633 234.906C263.033 235.514 263.401 236.345 263.769 237.417C264.154 238.584 264.666 239.448 265.322 240.008C265.979 240.552 266.891 240.888 268.076 240.983C269.405 241.095 270.413 240.824 271.15 240.168C271.87 239.512 272.286 238.632 272.382 237.545C272.462 236.665 272.238 235.865 271.726 235.162C271.214 234.458 270.557 233.802 269.757 233.242C268.956 232.683 267.772 231.931 266.187 230.971C264.025 229.708 262.28 228.572 260.936 227.533C259.591 226.493 258.47 225.197 257.574 223.63C256.677 222.063 256.325 220.223 256.501 218.112C256.725 215.521 257.718 213.522 259.479 212.098C261.24 210.675 263.449 209.827 266.091 209.555C266.731 209.507 267.083 209.172 267.131 208.564C267.211 207.62 267.483 206.916 267.916 206.469C268.348 206.021 269.036 205.829 269.917 205.909C271.358 206.037 272.11 207.028 272.174 208.9C272.174 209.252 272.254 209.523 272.398 209.715C272.542 209.907 272.783 210.051 273.103 210.131C274.896 210.579 276.369 211.235 277.505 212.082C278.658 212.93 279.458 213.874 279.955 214.881C280.435 215.905 280.643 216.881 280.547 217.856C280.451 218.88 280.147 219.744 279.635 220.431C279.122 221.119 278.466 221.615 277.681 221.919C276.897 222.223 276.048 222.335 275.136 222.255C273.727 222.127 272.702 221.711 272.062 220.991C271.422 220.271 270.989 219.232 270.733 217.888C270.621 216.881 270.317 216.129 269.869 215.649C269.405 215.169 268.652 214.881 267.612 214.785C266.507 214.689 265.594 214.897 264.842 215.409C264.089 215.921 263.689 216.657 263.593 217.616C263.497 218.64 263.753 219.584 264.33 220.431C264.922 221.279 265.658 222.031 266.587 222.686C267.499 223.342 268.796 224.158 270.429 225.134C272.59 226.381 274.335 227.517 275.68 228.54C277.025 229.58 278.146 230.859 279.01 232.427C279.891 233.978 280.227 235.817 280.051 237.945C279.827 240.552 278.834 242.615 277.089 244.134C275.344 245.654 272.943 246.533 269.901 246.757C269.244 246.805 268.876 247.157 268.828 247.829C268.716 249.044 268.46 249.892 268.06 250.356C267.66 250.82 266.971 251.012 265.979 250.932C265.194 250.836 264.618 250.516 264.266 249.972Z" fill="#402DD4"/>
<path d="M270.099 257.896C270.523 254.807 266.585 251.716 261.303 250.992C256.021 250.269 251.395 252.186 250.971 255.275C250.547 258.364 254.485 261.455 259.767 262.179C265.049 262.903 269.675 260.986 270.099 257.896Z" fill="#BEF941"/>
<path d="M365.51 115.557C364.741 99.1791 344.698 96.2842 326.047 92.3976L354.8 62.521L367.255 87.0877C374.491 98.5713 369.752 107 365.51 115.557Z" fill="#98D517"/>
<path d="M355.06 62.7764C346.655 73.7962 337.369 84.0803 327.86 94.1245L326.563 89.95C334.728 91.6134 342.973 93.1168 350.801 96.3156C356.645 98.6987 362.936 102.777 365.065 109.143C365.77 111.222 366.026 113.413 365.866 115.524C365.85 115.716 365.674 115.876 365.482 115.86C365.306 115.844 365.178 115.716 365.146 115.556C363.897 106.936 356.901 102.665 349.312 100.282C341.612 97.8031 333.479 96.5715 325.506 94.8282C323.633 94.4763 322.881 91.9813 324.242 90.6698C331.478 83.2326 338.906 75.9873 346.623 69.062C349.216 66.7588 351.81 64.4717 354.515 62.2806C354.852 62.0246 355.316 62.4405 355.06 62.7764Z" fill="#402DD4"/>
<path d="M334.212 204.993C332.259 223.21 328.016 240.995 323.101 258.588C321.388 264.426 319.611 270.264 317.418 275.99C317.29 276.357 316.666 276.245 316.714 275.83C318.347 257.581 322.429 239.699 327.52 222.122C329.281 216.284 331.17 210.478 333.507 204.801C333.651 204.449 334.26 204.577 334.212 204.993Z" fill="#402DD4"/>
<path d="M400.092 323.046L398.459 335.361C375.15 337.296 345.565 334.113 336.936 319.431C335.351 314.985 334.31 310.714 337.896 307.835C337.896 307.835 342.747 302.254 352.561 304.397C362.374 306.54 385.124 303.517 385.124 303.517L400.092 323.046Z" fill="#98D517"/>
<path d="M337.624 307.597C340.698 303.023 347.021 301.391 352.368 302.303L353.857 302.495C358.164 303.055 362.598 302.799 366.969 302.607C371.163 302.399 380.833 301.567 385.139 301.279C385.86 301.279 386.516 301.631 386.949 302.143C389.51 305.358 392.055 308.573 394.569 311.803L402.093 321.528C402.51 322.071 402.67 322.743 402.59 323.383C402.333 325.43 402.029 327.477 401.741 329.541C401.421 331.588 401.117 333.635 400.733 335.666C400.62 336.754 399.74 337.633 398.667 337.633C382.226 338.913 364.151 338.113 348.99 331.092C343.931 328.613 339.033 324.854 336.663 319.624C336.503 319.24 337.015 318.921 337.288 319.256C349.391 334.371 380.417 334.275 398.299 333.091C398.315 333.091 396.234 335.058 396.234 335.058C396.57 330.932 397.082 326.822 397.643 322.711L398.139 324.566C393.704 318.793 387.621 310.668 383.362 304.878L385.46 305.742C381.409 306.445 377.375 306.893 373.309 307.197C366.12 307.645 358.708 307.965 351.632 306.269C350.831 306.045 349.759 305.886 348.942 305.774C345.228 305.342 341.418 305.982 338.2 308.045C337.88 308.349 337.384 307.949 337.624 307.597Z" fill="#402DD4"/>
<path d="M416.276 279.158C416.276 279.158 404.877 270.569 403.885 266.219C402.876 261.868 406.062 259.501 415.476 259.501C424.889 259.501 431.117 248.673 435.407 249.297C439.714 249.921 440.658 252.848 439.714 259.885C439.714 259.885 441.939 262.556 450.232 261.436C458.525 260.317 457.9 265.787 456.524 269.337C455.147 272.888 441.843 277.558 439.714 283.716C437.584 289.874 441.443 308.299 449.736 314.648C458.028 320.998 492.24 344.189 484.268 383.118C476.295 422.031 425.834 421.871 401.644 413.411C377.453 404.95 355.505 360.631 392.118 330.274C428.699 299.902 416.276 279.158 416.276 279.158Z" fill="#F580F7"/>
<path d="M430.444 420.45C419.701 420.45 409.183 418.69 400.81 415.763C386.386 410.709 374.107 394.939 370.937 377.378C367.623 358.969 374.571 341.552 390.5 328.325C408.559 313.354 413.986 301.039 415.363 293.362C416.596 286.469 414.915 282.102 414.306 280.823C411.04 278.312 402.491 271.418 401.435 266.78C400.746 263.805 401.675 261.854 402.571 260.734C404.605 258.175 408.703 256.992 415.475 256.992C420.006 256.992 423.832 253.825 427.226 251.026C430.252 248.531 432.845 246.388 435.775 246.804C442.931 247.843 442.915 254.177 442.419 258.591C443.523 259.007 445.797 259.487 449.911 258.943C453.961 258.399 456.859 259.183 458.524 261.294C460.173 263.389 460.301 266.572 458.892 270.251C457.996 272.554 455.082 274.361 451.384 276.664C447.67 278.967 443.043 281.846 442.115 284.533C440.305 289.779 443.844 306.957 451.288 312.651C451.72 312.971 452.216 313.354 452.761 313.77C463.119 321.527 494.625 345.166 486.749 383.616C484.139 396.315 477.127 405.991 465.888 412.357C455.771 418.067 442.947 420.45 430.444 420.45ZM434.99 251.762C434.19 251.762 431.917 253.633 430.412 254.881C426.778 257.887 421.799 261.998 415.459 261.998C408.687 261.998 406.926 263.293 406.494 263.853C406.366 264.013 406.045 264.413 406.334 265.66C406.83 267.804 412.657 273.29 417.796 277.16C418.053 277.352 418.277 277.592 418.437 277.88C418.997 278.807 431.532 300.831 393.718 332.195C379.246 344.207 372.906 359.929 375.884 376.482C378.702 392.092 389.876 406.615 402.475 411.013C419.541 416.979 445.957 417.859 463.407 407.974C473.333 402.345 479.528 393.82 481.818 382.592C489.054 347.261 459.453 325.062 449.735 317.769C449.159 317.337 448.662 316.953 448.214 316.617C439.201 309.708 434.798 290.259 437.344 282.87C438.849 278.504 444.084 275.241 448.71 272.378C450.728 271.13 453.769 269.227 454.202 268.395C455.002 266.332 454.97 264.893 454.57 264.397C454.218 263.949 452.985 263.597 450.584 263.917C441.394 265.165 438.32 262.11 437.792 261.486C437.344 260.942 437.136 260.239 437.232 259.551C438.208 252.242 436.751 252.034 435.054 251.794C435.022 251.778 435.006 251.762 434.99 251.762Z" fill="#402DD4"/>
<path d="M428.245 286.084C428.245 286.084 429.814 283.253 434.793 282.518C439.772 281.782 444.158 280.822 445.615 284.885C447.072 288.947 444.655 292.45 444.655 292.45C444.655 292.45 448.913 293.522 448.289 298.528C447.664 303.534 445.615 303.95 445.615 303.95C445.615 303.95 449.201 305.901 447.761 310.139C446.32 314.378 437.29 313.322 435.177 312.922C431.463 312.234 429.782 306.796 433.736 304.365C433.736 304.365 429.446 303.39 428.693 299.919C427.701 295.329 430.743 293.585 430.743 293.585C430.743 293.585 424.899 289.811 428.245 286.084Z" fill="#EFEFEF"/>
<path d="M439.998 315.864C437.42 315.864 435.243 315.48 434.698 315.384C431.881 314.856 429.607 312.521 429.063 309.578C428.775 308.043 428.999 306.555 429.623 305.244C428.103 304.204 426.694 302.637 426.214 300.445C425.589 297.567 426.181 295.359 427.11 293.808C426.053 292.704 424.965 291.153 424.725 289.33C424.565 288.146 424.693 286.371 426.197 284.595C426.838 283.636 429.127 280.837 434.394 280.037L435.307 279.893C440.014 279.174 445.889 278.278 447.954 284.036C448.979 286.899 448.547 289.522 447.906 291.345C449.667 292.704 451.22 295.088 450.756 298.83C450.468 301.165 449.875 302.797 449.187 303.916C450.372 305.548 451.124 307.931 450.115 310.937C448.771 314.984 443.936 315.864 439.998 315.864ZM439.741 303.612L435.051 306.491C433.978 307.147 433.898 308.027 434.01 308.65C434.154 309.386 434.714 310.266 435.627 310.442C439.597 311.193 444.864 310.81 445.361 309.322C446.017 307.371 444.88 306.427 444.352 306.123L439.741 303.612ZM440.67 284.372C439.629 284.372 438.172 284.548 436.091 284.851L435.163 284.995C431.625 285.523 430.456 287.282 430.44 287.298L430.296 287.538L430.104 287.746C429.672 288.226 429.704 288.498 429.72 288.626C429.832 289.522 431.176 290.849 432.105 291.457L435.787 293.872L431.977 295.743C431.785 295.871 430.584 296.815 431.128 299.358C431.529 301.165 434.25 301.885 434.266 301.901L438.301 302.813L444.704 301.549C444.912 301.293 445.473 300.445 445.761 298.206C446.097 295.487 444.224 294.928 444.016 294.88L440.51 294L442.559 291.025C442.607 290.945 444.208 288.482 443.215 285.731C442.911 284.787 442.303 284.372 440.67 284.372Z" fill="#402DD4"/>
<path d="M446.639 296.895C442.669 292.913 435.304 292.913 431.078 296.496L430.438 290.674C434.552 292.609 438.73 293.105 443.117 292.497C444.542 292.257 445.919 291.889 447.568 291.122L446.639 296.895Z" fill="#402DD4"/>
<path d="M445.921 306.828C442.975 303.245 436.3 303.005 433.69 307.196L432.281 301.518C435.963 303.197 439.357 303.277 443.136 302.462C444.448 302.158 445.665 301.662 446.93 301.054C446.914 301.054 445.921 306.828 445.921 306.828Z" fill="#402DD4"/>
<path d="M417.027 291.986C417.011 291.97 417.011 291.986 417.027 292.002C417.091 292.594 418.228 302.478 409.039 309.659L397.496 323.686L392.085 330.259C384.224 320.551 374.41 296.032 390.9 297.424C391.572 297.472 392.309 297.568 393.093 297.728C393.093 297.728 393.734 296.576 394.822 294.961C395.975 293.266 397.608 291.058 399.529 289.155C403.243 285.429 406.477 277.911 413.665 277.911C420.854 277.911 425.208 284.133 429.867 286.212C432.556 291.938 422.166 297.616 417.027 291.986Z" fill="#EFEFEF"/>
<path d="M392.098 332.769C392.082 332.769 392.066 332.769 392.05 332.769C391.313 332.753 390.609 332.417 390.145 331.841C384.205 324.516 376.056 307.323 380.955 299.166C382.38 296.783 385.422 294.256 391.809 294.991C392.962 293.168 395.091 290.033 397.749 287.378C398.597 286.53 399.478 285.379 400.406 284.163C403.384 280.261 407.098 275.399 413.662 275.399C419.233 275.399 423.316 278.533 426.582 281.045C428.119 282.212 429.56 283.332 430.872 283.923C431.417 284.163 431.865 284.595 432.121 285.139C433.722 288.546 432.393 292.448 428.791 294.863C426.198 296.591 422.676 297.358 419.49 296.415C419.041 300.925 417.216 307.77 410.781 312.904L393.987 331.921C393.506 332.465 392.818 332.769 392.098 332.769ZM389.6 299.869C387.471 299.869 386.014 300.493 385.262 301.741C382.604 306.155 386.767 318.23 392.258 326.259L407.146 309.402C407.243 309.29 407.355 309.178 407.483 309.082C415.663 302.684 414.559 292.704 414.511 292.288C414.383 291.201 414.959 290.161 415.952 289.697C416.944 289.249 418.113 289.473 418.849 290.289C420.995 292.64 424.276 291.808 425.973 290.689C426.454 290.369 427.847 289.313 427.75 287.97C426.294 287.17 424.933 286.115 423.508 285.027C420.562 282.756 417.521 280.421 413.646 280.421C409.564 280.421 407.05 283.716 404.393 287.202C403.352 288.562 402.376 289.841 401.287 290.929C397.877 294.336 395.3 298.894 395.284 298.942C394.755 299.885 393.683 300.397 392.61 300.189C391.489 299.981 390.497 299.869 389.6 299.869Z" fill="#402DD4"/>
<path d="M395.492 298.466C393.731 302.32 393.795 306.879 395.028 310.909C395.092 311.101 394.98 311.325 394.787 311.373C394.627 311.421 394.467 311.357 394.387 311.229C391.634 307.31 390.209 302.4 390.593 297.602C390.593 297.298 390.753 296.643 390.817 296.307C391.105 294.867 392.498 293.94 393.923 294.227C395.86 294.547 396.725 296.978 395.492 298.466Z" fill="#402DD4"/>
<path d="M442.161 260.428L436.27 276.454C436.141 276.838 435.517 276.71 435.565 276.294L437.262 259.293C437.406 257.901 438.639 256.894 440.032 257.022C441.649 257.182 442.737 258.909 442.161 260.428Z" fill="#402DD4"/>
<path d="M425.017 300.398C424.953 309.562 422.488 318.583 418.565 326.819C417.221 329.554 415.636 332.209 413.683 334.577C413.522 334.784 413.17 334.593 413.266 334.353C415.972 326.116 418.838 317.047 421.511 308.826C422.44 305.995 423.4 303.148 424.537 300.318C424.633 300.078 425.033 300.142 425.017 300.398Z" fill="#402DD4"/>
<path d="M430.988 304.334C434.558 310.635 436.719 317.513 438.529 324.47C439.089 326.789 439.601 329.124 439.921 331.555C439.953 331.795 439.617 331.939 439.473 331.731C435.423 325.67 433.117 318.712 431.5 311.659C431.004 309.308 430.604 306.925 430.508 304.462C430.508 304.222 430.86 304.11 430.988 304.334Z" fill="#402DD4"/>
<path d="M421.961 267.277C426.876 271.547 431.07 279.576 430.093 286.198C430.061 286.437 429.709 286.469 429.613 286.262C427.404 281.863 424.89 277.113 423.113 272.539C422.505 270.939 421.929 269.308 421.544 267.549C421.496 267.293 421.785 267.117 421.961 267.277Z" fill="#402DD4"/>
<path d="M453.034 371.523C453.034 386.286 443.829 396.954 429.052 396.954C414.276 396.954 402.301 384.99 402.301 370.228C402.301 355.465 414.276 343.502 429.052 343.502C443.829 343.502 453.034 356.761 453.034 371.523Z" fill="#ED56F0"/>
<path d="M431.18 390.939C430.732 390.475 430.396 389.691 430.204 388.604C430.075 387.98 429.675 387.66 429.003 387.644C426.73 387.708 424.776 387.484 423.159 386.988C421.526 386.493 420.262 385.773 419.349 384.829C418.437 383.886 417.892 382.798 417.732 381.55C417.62 380.639 417.7 379.759 417.988 378.879C418.277 378 418.789 377.264 419.493 376.656C420.198 376.049 421.11 375.681 422.199 375.537C423.159 375.409 423.96 375.425 424.6 375.585C425.241 375.745 425.833 376.081 426.345 376.576C426.858 377.088 427.418 377.824 427.994 378.784C428.619 379.839 429.307 380.575 430.075 380.975C430.828 381.375 431.805 381.486 432.973 381.327C434.286 381.151 435.23 380.671 435.791 379.871C436.351 379.071 436.559 378.128 436.415 377.04C436.303 376.176 435.919 375.441 435.247 374.849C434.59 374.257 433.806 373.777 432.909 373.394C432.013 373.01 430.684 372.53 428.939 371.954C426.553 371.186 424.6 370.451 423.063 369.731C421.526 369.011 420.15 367.988 418.933 366.644C417.716 365.301 416.98 363.589 416.692 361.478C416.355 358.903 416.884 356.728 418.293 354.969C419.701 353.209 421.671 351.898 424.2 351.066C424.824 350.874 425.081 350.474 425.001 349.866C424.872 348.923 424.985 348.187 425.321 347.643C425.657 347.1 426.265 346.78 427.162 346.652C428.603 346.46 429.547 347.275 430.011 349.083C430.092 349.419 430.22 349.675 430.412 349.819C430.604 349.978 430.86 350.058 431.18 350.074C433.037 350.122 434.606 350.442 435.903 351.018C437.2 351.61 438.208 352.346 438.897 353.225C439.585 354.121 440.001 355.033 440.129 355.992C440.257 357.016 440.161 357.927 439.793 358.711C439.441 359.495 438.913 360.119 438.208 360.582C437.504 361.046 436.703 361.334 435.791 361.462C434.382 361.654 433.293 361.462 432.525 360.886C431.74 360.327 431.084 359.399 430.556 358.135C430.22 357.176 429.771 356.504 429.227 356.136C428.667 355.768 427.882 355.656 426.842 355.784C425.753 355.928 424.888 356.328 424.28 357C423.672 357.656 423.416 358.471 423.544 359.431C423.672 360.454 424.12 361.318 424.872 362.022C425.625 362.726 426.521 363.301 427.562 363.733C428.603 364.181 430.027 364.693 431.853 365.285C434.222 366.036 436.191 366.756 437.728 367.476C439.265 368.196 440.626 369.219 441.826 370.547C443.011 371.874 443.763 373.601 444.036 375.713C444.372 378.304 443.86 380.543 442.483 382.398C441.106 384.269 438.961 385.629 436.031 386.509C435.391 386.7 435.118 387.132 435.214 387.788C435.375 389.004 435.311 389.883 435.022 390.427C434.734 390.971 434.094 391.307 433.117 391.435C432.285 391.579 431.644 391.403 431.18 390.939Z" fill="#FBCCFC"/>
<g opacity="0.7">
<path d="M415.236 312.811C415.236 312.811 407.919 323.687 399.419 330.261C390.902 336.834 377.47 349.885 376.941 368.566C376.941 368.566 377.406 381.745 382.128 389.326C382.128 389.326 375.933 363.4 391.718 347.63C407.519 331.844 412.386 318.953 415.236 312.811Z" fill="#EFEFEF"/>
</g>
<path d="M349.984 427.663L378.225 416.867C378.225 416.867 390.984 448.567 413.493 453.285L386.085 466.208C372.558 466.224 354.243 447.719 349.984 427.663Z" fill="#98D517"/>
<path d="M378.222 416.885C378.222 416.885 390.981 448.585 413.49 453.303L386.082 466.226C372.554 466.226 354.24 447.721 349.981 427.665L378.222 416.885ZM378.222 411.863C377.629 411.863 377.021 411.975 376.429 412.199L348.188 422.995C345.883 423.874 344.554 426.305 345.066 428.72C349.709 450.584 369.641 471.264 386.082 471.264C386.819 471.264 387.555 471.104 388.228 470.784L415.636 457.861C417.589 456.934 418.725 454.87 418.485 452.743C418.229 450.6 416.644 448.857 414.531 448.409C394.952 444.298 383.009 415.318 382.88 415.014C382.096 413.046 380.207 411.863 378.222 411.863Z" fill="#402DD4"/>
<path d="M358.707 430.493L371.418 425.263C371.418 425.263 373.532 429.869 378.399 427.966C378.399 427.966 387.252 443.192 396.169 448.294C396.169 448.294 393.719 453.604 398.41 453.604L387.108 460.001C387.108 460.001 382.609 456.371 378.975 460.001C378.975 460.001 364.646 451.829 358.707 437.754C362.549 436.81 361.765 431.98 358.707 430.493Z" fill="#A6E828"/>
<path d="M379.304 446.659C381.022 445.298 381.129 442.573 379.542 440.573C377.956 438.572 375.276 438.052 373.557 439.413C371.839 440.773 371.732 443.498 373.318 445.499C374.905 447.5 377.585 448.019 379.304 446.659Z" fill="#98D517"/>
<path d="M385.235 452.198C386.508 452.198 387.54 451.439 387.54 450.502C387.54 449.566 386.508 448.807 385.235 448.807C383.962 448.807 382.93 449.566 382.93 450.502C382.93 451.439 383.962 452.198 385.235 452.198Z" fill="#98D517"/>
<path d="M370.01 435.515C371.309 435.515 372.363 434.649 372.363 433.58C372.363 432.511 371.309 431.645 370.01 431.645C368.71 431.645 367.656 432.511 367.656 433.58C367.656 434.649 368.71 435.515 370.01 435.515Z" fill="#98D517"/>
<path d="M68.9065 126.575L97.179 137.275C97.179 137.275 85.6203 169.423 99.2762 187.912L70.2033 179.355C60.1014 170.383 58.7406 144.376 68.9065 126.575Z" fill="#98D517"/>
<path d="M68.9055 126.577L97.178 137.277C97.178 137.277 85.6193 169.425 99.2753 187.914L70.2023 179.357C60.1004 170.385 58.7396 144.379 68.9055 126.577ZM68.9055 121.555C67.1445 121.555 65.4475 122.483 64.535 124.082C53.4565 143.499 54.5772 172.192 66.8723 183.1C67.4327 183.596 68.089 183.964 68.7935 184.172L97.8664 192.728C98.3307 192.872 98.811 192.936 99.2913 192.936C100.908 192.936 102.445 192.153 103.406 190.793C104.638 189.034 104.606 186.667 103.326 184.939C91.4307 168.849 101.805 139.277 101.917 138.989C102.845 136.414 101.533 133.567 98.9711 132.607L70.6986 121.907C70.0902 121.667 69.4979 121.555 68.9055 121.555Z" fill="#402DD4"/>
<path d="M73.5327 134.478L86.5002 139.02C86.5002 139.02 85.0114 143.866 89.9102 145.674C89.9102 145.674 86.3882 162.931 89.6541 172.671C89.6541 172.671 84.2909 175.006 87.797 178.125L75.1016 175.39C75.1016 175.39 74.157 169.68 69.018 169.984C69.018 169.984 63.751 154.358 68.6818 139.916C72.2199 141.755 74.8294 137.629 73.5327 134.478Z" fill="#A6E828"/>
<path d="M82.3846 155.862C82.5312 153.313 80.8752 151.145 78.686 151.019C76.4968 150.894 74.6032 152.858 74.4567 155.407C74.3102 157.955 75.9661 160.123 78.1554 160.249C80.3446 160.375 82.2381 158.41 82.3846 155.862Z" fill="#98D517"/>
<path d="M81.7626 168.576C81.1383 169.28 79.8575 169.152 78.913 168.304C77.9684 167.457 77.6963 166.209 78.3206 165.505C78.945 164.802 80.2257 164.929 81.1703 165.777C82.1148 166.625 82.387 167.872 81.7626 168.576Z" fill="#98D517"/>
<path d="M81.6805 145.864C80.9761 146.664 79.6153 146.6 78.6387 145.752C77.6782 144.888 77.454 143.545 78.1744 142.745C78.8789 141.945 80.2396 142.009 81.2162 142.857C82.1928 143.721 82.4009 145.064 81.6805 145.864Z" fill="#98D517"/>
<path d="M473.049 179.003L443.176 183.625C443.176 183.625 447.835 217.469 430.641 232.727L460.85 230.376C472.585 223.674 479.309 198.516 473.049 179.003Z" fill="#98D517"/>
<path d="M473.046 179.006C479.306 198.518 472.582 223.677 460.847 230.378L430.637 232.729C447.831 217.471 443.172 183.628 443.172 183.628L473.046 179.006ZM473.046 173.984C472.79 173.984 472.534 174 472.277 174.048L442.404 178.67C439.698 179.086 437.825 181.597 438.193 184.316C438.242 184.62 442.26 215.696 427.291 228.987C425.674 230.426 425.162 232.713 426.01 234.713C426.811 236.568 428.636 237.767 430.637 237.767C430.765 237.767 430.893 237.767 431.037 237.751L461.247 235.4C461.983 235.336 462.704 235.128 463.344 234.761C477.625 226.62 484.669 198.79 477.849 177.502C477.16 175.359 475.207 173.984 473.046 173.984Z" fill="#402DD4"/>
<path d="M466.866 185.771L453.242 187.531C453.242 187.531 453.69 192.585 448.519 193.337C448.519 193.337 448.391 210.946 443.172 219.807C443.172 219.807 447.943 223.197 443.86 225.532L456.844 225.484C456.844 225.484 458.957 220.094 463.92 221.454C463.92 221.454 472.309 207.251 470.484 192.105C466.658 193.161 464.945 188.586 466.866 185.771Z" fill="#A6E828"/>
<path d="M461.648 206.079C462.032 203.555 460.586 201.242 458.418 200.913C456.251 200.583 454.182 202.362 453.797 204.886C453.413 207.409 454.859 209.722 457.027 210.052C459.194 210.381 461.263 208.602 461.648 206.079Z" fill="#98D517"/>
<path d="M454.599 217.781C455.705 217.15 456.224 215.979 455.759 215.166C455.294 214.353 454.021 214.206 452.916 214.837C451.81 215.468 451.291 216.638 451.756 217.451C452.221 218.264 453.494 218.412 454.599 217.781Z" fill="#98D517"/>
<path d="M456.543 195.222C457.071 196.149 458.416 196.373 459.537 195.733C460.657 195.094 461.137 193.814 460.609 192.902C460.081 191.991 458.736 191.751 457.615 192.391C456.495 193.03 456.015 194.31 456.543 195.222Z" fill="#98D517"/>
</svg>
