<svg width="610" height="504" viewBox="0 0 610 504" fill="none" xmlns="http://www.w3.org/2000/svg">
<path d="M516.687 139.573C517.012 140.679 517.324 141.788 517.662 142.89C518.516 145.67 520.091 147 522.783 147.369C532.565 148.709 541.495 153.408 550.272 158.652C557.935 163.231 561.24 170.425 560.41 179.474C559.821 185.903 558.425 192.198 557.095 198.452C556.122 203.023 553.5 206.961 553.863 212.097C553.931 213.06 553.142 214.152 552.535 214.982C550.39 217.916 549.466 221.176 550.251 225.194C550.642 227.192 550.575 229.391 548.705 230.364C545.145 232.218 543.969 236.093 543.444 239.848C542.674 245.354 540.37 249.093 536.238 251.633C534.523 252.687 532.898 253.917 531.254 255.104C530.435 255.695 529.15 256.183 528.96 257.034C527.848 262.012 523.255 263.823 521.527 268.175L521.617 268.045C520.835 269.207 520.052 270.37 519.269 271.532L519.203 271.55C518.556 275.991 515.166 277.589 512.436 279.8C508.671 282.847 505.396 286.318 502.725 291.97C509.832 291.481 516.058 291.792 521.732 288.606C524.855 286.853 528.197 285.773 531.944 287.07C536.178 288.535 537.342 291.095 535.436 295.509C531.443 304.754 527.383 313.959 523.274 323.132C519.877 330.714 514.874 336.75 508.941 341.816C504.047 345.995 499.082 350.073 494.141 354.187C489.198 358.304 484.024 361.929 478.383 364.921C470.793 368.948 463.687 374.003 456.201 378.266C449.162 382.275 441.937 385.911 434.729 389.566C424.586 394.71 414.536 400.106 404.165 404.689C391.494 410.289 379.013 416.436 365.655 420.25C360.107 421.834 354.881 424.555 349.347 426.201C340.912 428.708 332.319 430.667 323.828 432.989C320.687 433.848 317.521 434.784 314.589 436.203C310.279 438.289 306.314 440.189 301.015 439.506C296.131 438.876 291.141 440.924 286.197 441.792C284.156 446.565 280.23 444.274 276.919 444.247C271.614 444.203 266.308 444.159 260.997 443.957C260.652 443.943 260.264 442.582 259.729 441.515C258.362 441.205 256.42 440.763 254.481 440.324C254.683 440.145 254.882 439.966 255.081 439.786C254.919 439.992 254.756 440.199 254.593 440.405C250.81 439.609 247.026 438.813 243.239 438.021C243.05 437.966 242.864 437.881 242.675 437.855C242.546 437.838 242.413 437.903 242.282 437.931C242.622 437.916 242.961 437.901 243.301 437.887C241.248 440.539 238.581 440.658 235.684 439.565C231.507 437.99 227.265 436.59 223.217 434.615C220.9 433.486 218.494 431.76 216.861 429.611C213.15 424.729 209.048 419.97 208.156 413.222C207.821 410.685 205.985 409.321 204.054 408.217C199.037 405.348 193.796 404.333 188.377 404.359C179.508 404.403 170.635 404.43 161.754 404.231C158.739 404.164 155.692 403.406 152.662 402.931C151.651 402.773 150.641 402.369 149.638 402.326C141.012 401.959 132.39 401.742 123.763 401.297C115.422 400.867 107.074 400.397 98.7338 399.605C92.965 399.057 87.3595 397.764 82.0829 393.952C78.3831 391.279 73.9688 389.998 70.0043 387.765C67.9659 386.616 65.7369 385.129 64.4097 383.134C56.7765 371.66 47.9517 361.856 36.88 354.611C31.3248 350.975 27.3822 345.396 25.0171 338.572C24.071 335.843 22.9324 333.186 21.913 330.484C20.4399 326.58 19.9577 322.704 21.0835 318.714C21.6807 316.598 22.1935 314.303 22.1107 312.069C21.9604 308.019 22.9365 304.899 25.8131 302.588C27.5036 301.229 28.2093 299.229 27.8239 296.647C27.0609 291.536 28.8304 286.597 27.4855 281.321C26.8084 278.666 29.0323 276.693 31.5912 276.6C31.8438 276.591 32.102 276.551 32.3503 276.602C35.0611 277.147 38.0759 278.711 40.393 277.978C42.6587 277.26 44.6889 275.786 47.2852 275.459C49.1161 275.229 50.8194 273.722 52.3959 272.498C54.139 271.146 55.7362 271.4 57.1985 273.036C59.0458 275.103 60.721 277.365 62.3763 279.426C66.4385 279.38 70.1983 279.337 73.9579 279.293C79.0337 284.358 79.0337 284.358 80.4932 289.523C80.7313 289.689 80.995 290.014 81.1707 289.973C82.5867 289.645 83.9864 289.247 85.8125 288.758C88.7562 293.01 90.101 298.893 94.7443 302.853C95.9431 299.612 97.0259 296.683 98.0842 293.821C105.233 296.435 105.266 296.478 106.112 303.759C106.693 308.76 108.125 310.564 112.5 310.734C118.006 310.948 123.692 312.27 129.498 309.211C126.9 308.248 124.833 307.483 122.765 306.717C127.906 305.475 132.936 304.79 138.125 304.939C152.086 305.343 166.042 305.579 179.988 305.687C183.253 305.713 186.506 305.13 189.705 304.536C192.972 303.931 195.777 302.478 197.842 299.323C199.734 296.433 202.508 295.122 205.784 293.967C210.656 292.249 215.068 288.794 217.295 283.049L217.217 283.179C218.075 282.31 218.933 281.44 219.791 280.57L219.769 280.704C223.966 276.473 228.124 272.191 232.372 268.025C235.871 264.594 239.203 260.843 243.091 258.035C253.461 250.544 262.899 241.695 272.931 233.72C274.735 232.286 276.598 230.939 278.469 229.61C283.04 226.364 287.929 223.566 292.143 219.827C297.97 214.655 305.036 211.946 311.221 207.548C318.504 202.37 325.772 197.168 333.062 192.002C334.724 190.824 336.464 189.778 338.14 188.624C339.608 187.614 341.44 186.886 342.402 185.419C344.547 182.149 346.957 180.103 350.864 179.754C352.94 179.569 354.819 177.61 356.708 176.315C372.06 165.792 387.646 155.694 404.148 147.409C414.308 142.307 424.56 137.318 435.106 133.213C443.29 130.027 451.976 128.226 460.485 125.985C461.501 125.717 463.625 126.269 463.842 126.927C464.83 129.93 466.747 130.186 468.82 129.9C473.933 129.195 479.045 130.342 483.987 131.737C491.819 133.949 499.655 134.63 507.53 135.186C509.531 135.327 511.502 135.315 513.816 137.526C511.568 138.129 509.993 138.551 508 139.085C508.576 139.773 509.063 140.747 509.415 140.714C511.889 140.483 514.334 140.046 516.788 139.674L516.687 139.573ZM107.118 391.803C105.931 391.569 104.744 391.335 103.557 391.101C99.45 387.986 95.3465 384.864 91.2349 381.758C89.7031 380.6 87.9553 379.059 86.3235 380.359C84.0083 382.204 82.1036 380.819 79.9527 379.776C74.4519 377.107 74.4352 377.158 69.2994 377.365C71.4666 379.082 73.0016 380.942 74.8183 381.627C83.6218 384.95 92.497 387.977 101.361 391.04C102.057 391.281 102.865 391 103.625 390.956C104.808 391.194 105.991 391.433 107.174 391.671C107.769 391.962 108.358 392.276 108.967 392.517C109.063 392.555 109.243 392.265 109.385 392.126C108.63 392.018 107.875 391.909 107.118 391.803ZM231.284 423.292C232.095 423.732 232.907 424.172 233.718 424.611C233.785 424.344 233.852 424.076 233.919 423.809C233.021 423.679 232.122 423.549 231.224 423.419C227.172 420.413 226.637 420.185 222.414 419.702C225.084 422.286 227.73 424.489 231.284 423.292ZM245.907 409.779C246.219 413.425 247.853 414.822 251.584 415.283C249.054 412.83 247.481 411.305 245.907 409.779ZM267.43 437.38C269.31 438.494 271.27 440.789 273.256 437.76C271.118 437.621 269.274 437.5 267.43 437.38ZM246.963 430.213C245.839 427.988 244.522 427.113 242.304 428.959C244.193 429.467 245.578 429.84 246.963 430.213ZM74.7809 386.164C74.4788 385.808 74.2651 385.557 74.0514 385.306C74.0341 385.527 73.931 385.85 74.0191 385.945C74.153 386.089 74.4201 386.074 74.7809 386.164ZM239.175 431.901C239.249 432.109 239.322 432.317 239.396 432.525C239.644 432.345 239.892 432.166 240.14 431.987C239.981 431.846 239.823 431.605 239.663 431.591C239.501 431.578 239.338 431.788 239.175 431.901Z" fill="#6C59FF"/>
<path d="M282.219 271.665C282.219 271.665 279.327 250.993 288.476 248.581C297.625 246.182 305.558 254.076 305.558 254.076C305.558 254.076 302.901 235.181 315.241 231.986C327.581 228.791 337.835 243.36 337.835 243.36C337.835 243.36 345.942 208.305 368.039 212.643C390.136 216.994 393.588 244.119 393.588 244.119C393.588 244.119 409.391 230.295 419.384 239.606C429.365 248.917 421.396 267.725 421.396 267.725C421.396 267.725 429.887 262.044 437.05 272.759C444.213 283.475 433.624 306.037 433.624 306.037L282.219 271.665Z" fill="#98D517"/>
<path d="M372.595 271.665C372.595 271.665 375.487 250.993 366.338 248.581C357.189 246.182 349.256 254.076 349.256 254.076C349.256 254.076 351.913 235.181 339.573 231.986C327.233 228.791 316.979 243.36 316.979 243.36C316.979 243.36 308.872 208.305 286.775 212.643C264.678 216.994 261.226 244.119 261.226 244.119C261.226 244.119 245.423 230.295 235.43 239.606C225.449 248.917 233.419 267.725 233.419 267.725C233.419 267.725 224.927 262.044 217.764 272.759C210.601 283.475 221.19 306.037 221.19 306.037L372.595 271.665Z" fill="#BEF941"/>
<path d="M499.907 321.987C499.895 322.223 499.87 322.447 499.845 322.683C499.001 330.664 492.074 336.631 484.066 336.631H396.707L336.088 315.535C336.088 315.535 334.487 301.215 339.229 295.136C340.197 293.905 341.414 293.01 342.978 292.638C344.232 292.339 345.461 292.24 346.641 292.277C354.151 292.538 359.899 298.604 359.899 298.604C359.899 298.604 359.675 296.653 359.787 293.905C359.837 292.824 359.936 291.606 360.11 290.35C360.905 284.856 363.325 278.367 370.19 276.8C382.617 273.954 392.462 288.796 392.462 288.796C392.462 288.796 401.536 253.977 423.497 258.925C445.458 263.885 448.164 291.096 448.164 291.096C448.164 291.096 464.34 277.72 474.073 287.305C474.197 287.429 474.321 287.553 474.433 287.678C483.495 297.262 475.476 315.1 475.314 315.461C475.65 315.187 491.056 302.719 497.834 313.509C499.572 316.219 500.093 319.14 499.907 321.987Z" fill="#BEF941"/>
<path d="M170.118 324.645C170.13 324.881 170.155 325.105 170.18 325.341C171.024 333.322 177.951 339.289 185.958 339.289H273.317L333.936 318.194C333.936 318.194 335.538 303.873 330.796 297.794C329.827 296.564 328.611 295.669 327.046 295.296C325.793 294.997 324.564 294.898 323.384 294.935C315.874 295.196 310.126 301.263 310.126 301.263C310.126 301.263 310.349 299.311 310.238 296.564C310.188 295.482 310.089 294.264 309.915 293.008C309.12 287.514 306.699 281.025 299.834 279.459C287.408 276.612 277.563 291.455 277.563 291.455C277.563 291.455 268.488 256.635 246.528 261.583C224.567 266.543 221.86 293.754 221.86 293.754C221.86 293.754 205.685 280.379 195.952 289.963C195.828 290.087 195.704 290.211 195.592 290.336C186.529 299.92 194.549 317.758 194.71 318.119C194.375 317.845 178.969 305.377 172.191 316.167C170.453 318.877 169.931 321.799 170.118 324.645Z" fill="#98D517"/>
<path d="M425.221 327.867C425.209 328.054 425.196 328.24 425.184 328.426C424.712 333.125 420.603 336.618 415.886 336.618H312.798V337.986H282.507C282.507 337.986 277.889 324.486 285.586 322.174C293.282 319.862 300.992 324.486 300.992 324.486C300.992 324.486 296.758 312.142 307.149 309.059C317.552 305.976 327.943 314.839 327.943 314.839C327.943 314.839 329.904 301.339 339.203 295.124C341.288 293.732 343.734 292.7 346.614 292.277C347.992 292.066 349.469 292.004 351.046 292.091C354.323 292.29 357.216 292.936 359.761 293.893C372.461 298.679 376.47 310.986 376.47 310.986C376.47 310.986 388.798 300.569 398.431 305.976C407.978 311.334 403.136 324.287 403.062 324.486C403.335 324.262 415.079 314.541 422.316 321.018C424.625 323.069 425.333 325.493 425.221 327.867Z" fill="#ADCA41"/>
<path d="M156.923 337.351C155.123 343.604 145.241 348.775 129.773 348.775C114.305 348.775 97.2227 348.775 97.2227 337.102C97.2227 325.927 112.79 324.249 118.203 301.736C125.229 272.511 117.272 239.594 126.111 239.594C141.579 239.594 165.675 306.907 156.923 337.351Z" fill="#F580F7"/>
<path d="M125.627 317.038C127.204 311.233 128.346 303.886 126.087 298.081C124.671 294.451 122.635 292.188 120.19 290.535C119.718 294.277 119.085 298.031 118.191 301.723C112.778 324.248 97.2109 325.914 97.2109 337.089C97.2109 339.289 97.8441 341.055 98.9365 342.509C111.338 340.371 122.362 329.084 125.627 317.038Z" fill="#F580F7"/>
<path d="M126.11 239.594C118.885 239.594 122.87 261.572 120.734 285.551C134.427 292.512 145.55 305.416 144.57 321.452C143.949 331.633 139.592 342.162 131.498 348.75C145.96 348.377 155.196 343.38 156.922 337.363C165.674 306.907 141.578 239.594 126.11 239.594Z" fill="#ED56F0"/>
<path d="M210.937 261.858C210.093 265.525 207.821 268.72 204.345 271.43C198.684 275.868 189.771 279.075 178.387 281.226C172.006 282.431 164.843 283.289 157.034 283.848C149.722 284.383 141.827 284.632 133.497 284.632C121.741 284.632 110.779 283.948 101.034 282.643C92.1077 281.462 84.2122 279.796 77.5954 277.683C65.1563 273.742 57.3353 268.297 56.1436 261.846C55.3615 257.607 57.8071 251.056 62.6859 243.846C66.8695 237.655 72.8532 230.967 80.1155 224.851C88.2469 217.989 97.9797 211.836 108.619 207.858C116.514 204.887 124.931 203.109 133.534 203.109C145.415 203.109 156.861 206.764 167.152 212.283C174.898 216.423 181.975 221.644 188.107 227.151C195.581 233.888 201.614 241.061 205.611 247.301C209.634 253.579 211.62 258.912 210.937 261.858Z" fill="#543EFA"/>
<path d="M143.232 245.877C143.232 253.013 137.447 258.806 130.321 258.806C123.195 258.806 117.41 253.013 117.41 245.877C117.41 238.742 123.183 232.949 130.321 232.949C137.459 232.949 143.232 238.73 143.232 245.877Z" fill="#F580F7"/>
<path d="M103.204 275.456C103.204 278.129 102.41 280.59 101.02 282.641C92.0937 281.46 84.1982 279.795 77.5814 277.681C77.4449 276.96 77.3828 276.215 77.3828 275.444C77.3828 268.308 83.1679 262.516 90.2936 262.516C97.4194 262.528 103.204 268.308 103.204 275.456Z" fill="#F580F7"/>
<path d="M83.6272 233.751C83.6272 240.887 77.8421 246.68 70.7163 246.68C67.6624 246.68 64.8692 245.623 62.6719 243.858C66.8555 237.667 72.8392 230.979 80.1015 224.863C82.274 227.163 83.6272 230.296 83.6272 233.751Z" fill="#F580F7"/>
<path d="M133.522 203.109C133.522 210.245 127.737 216.038 120.611 216.038C115.161 216.038 110.481 212.656 108.594 207.858C116.489 204.899 124.906 203.109 133.522 203.109Z" fill="#F580F7"/>
<path d="M188.096 227.151C185.899 231.091 181.666 233.751 176.837 233.751C169.711 233.751 163.926 227.959 163.926 220.823C163.926 217.554 165.142 214.546 167.141 212.283C174.888 216.423 181.964 221.644 188.096 227.151Z" fill="#F580F7"/>
<path d="M179.751 275.457C179.751 277.521 179.267 279.498 178.386 281.225C172.005 282.431 164.842 283.289 157.033 283.848C155.097 281.598 153.93 278.665 153.93 275.457C153.93 268.322 159.715 262.529 166.841 262.529C173.966 262.529 179.751 268.31 179.751 275.457Z" fill="#F580F7"/>
<path d="M210.938 261.857C210.094 265.525 207.822 268.719 204.346 271.429C199.802 269.44 196.637 264.891 196.637 259.607C196.637 253.839 200.423 248.954 205.612 247.301C209.634 253.578 211.621 258.911 210.938 261.857Z" fill="#F580F7"/>
<path d="M378.828 334.84C374.347 350.441 349.68 363.319 311.096 363.319C272.513 363.319 229.895 363.319 229.895 334.193C229.895 306.311 268.714 302.146 282.221 245.983C299.75 173.088 279.887 90.9941 301.959 90.9941C340.543 91.0066 400.64 258.911 378.828 334.84Z" fill="#F580F7"/>
<path d="M300.764 284.172C304.687 269.702 307.543 251.354 301.894 236.897C298.356 227.847 293.291 222.216 287.183 218.076C286.004 227.399 284.427 236.772 282.205 245.996C268.698 302.159 229.879 306.324 229.879 334.206C229.879 339.688 231.455 344.101 234.174 347.719C265.123 342.398 292.621 314.217 300.764 284.172Z" fill="#F580F7"/>
<path d="M301.957 91.0078C283.932 91.0078 293.876 145.816 288.562 205.634C322.714 223 350.448 255.183 348.027 295.161C346.487 320.57 335.6 346.824 315.415 363.233C351.503 362.301 374.519 349.845 378.839 334.841C400.638 258.913 340.541 91.0078 301.957 91.0078Z" fill="#ED56F0"/>
<path d="M513.534 146.549C511.423 155.698 505.762 163.654 497.085 170.428C482.957 181.492 460.723 189.485 432.344 194.855C416.429 197.851 398.565 200.014 379.075 201.381C360.838 202.712 341.137 203.346 320.368 203.346C291.033 203.346 263.684 201.643 239.377 198.398C217.106 195.439 197.417 191.288 180.918 186.042C149.882 176.221 130.392 162.622 127.4 146.549C125.451 135.982 131.559 119.623 143.725 101.648C154.153 86.2087 169.075 69.5263 187.187 54.2611C207.472 37.1561 231.73 21.8039 258.284 11.8591C277.985 4.45028 298.965 0 320.442 0C350.075 0 378.615 9.11189 404.3 22.8854C423.617 33.2031 441.283 46.2307 456.577 59.9545C475.236 76.7611 490.269 94.6617 500.25 110.213C510.293 125.913 515.247 139.189 513.534 146.549Z" fill="#543EFA"/>
<path d="M344.561 106.23C344.561 124.044 330.149 138.476 312.359 138.476C294.569 138.476 280.156 124.044 280.156 106.23C280.156 88.4167 294.569 73.9844 312.359 73.9844C330.136 73.972 344.561 88.4167 344.561 106.23Z" fill="#F580F7"/>
<path d="M244.815 180.459C244.815 187.122 242.828 193.275 239.377 198.397C217.106 195.438 197.417 191.286 180.918 186.04C180.583 184.25 180.422 182.373 180.422 180.459C180.422 162.645 194.835 148.213 212.624 148.213C230.402 148.213 244.815 162.645 244.815 180.459Z" fill="#F580F7"/>
<path d="M195.991 76.4385C195.991 94.2521 181.566 108.684 163.789 108.684C156.179 108.684 149.202 106.061 143.715 101.649C154.143 86.2093 169.065 69.5269 187.177 54.2617C192.627 60.0048 195.991 67.8239 195.991 76.4385Z" fill="#F580F7"/>
<path d="M320.443 0C320.443 17.8136 306.03 32.2459 288.241 32.2459C274.66 32.2459 262.978 23.8053 258.285 11.8591C277.974 4.46272 298.954 0 320.443 0Z" fill="#F580F7"/>
<path d="M456.566 59.9656C451.079 69.786 440.526 76.449 428.472 76.449C410.683 76.449 396.27 62.0043 396.27 44.2031C396.27 36.0484 399.299 28.565 404.289 22.8965C423.618 33.2017 441.284 46.2294 456.566 59.9656Z" fill="#F580F7"/>
<path d="M435.745 180.459C435.745 185.618 434.541 190.528 432.331 194.854C416.416 197.85 398.552 200.013 379.062 201.38C374.245 195.761 371.34 188.439 371.34 180.459C371.34 162.645 385.753 148.213 403.542 148.213C421.332 148.213 435.745 162.645 435.745 180.459Z" fill="#F580F7"/>
<path d="M513.531 146.548C511.42 155.697 505.76 163.653 497.082 170.428C485.735 165.48 477.84 154.118 477.84 140.929C477.84 126.534 487.275 114.339 500.235 110.225C510.291 125.912 515.244 139.189 513.531 146.548Z" fill="#F580F7"/>
<path d="M282.359 409.487C281.304 413.154 275.506 416.175 266.444 416.175C257.382 416.175 247.363 416.175 247.363 409.325C247.363 402.774 256.488 401.792 259.653 388.591C263.775 371.461 259.107 352.168 264.296 352.168C273.371 352.193 287.486 391.649 282.359 409.487Z" fill="#F580F7"/>
<path d="M264.023 397.58C264.941 394.174 265.612 389.872 264.283 386.466C263.451 384.341 262.26 383.011 260.832 382.041C260.559 384.229 260.187 386.442 259.665 388.605C256.487 401.806 247.375 402.788 247.375 409.339C247.375 410.632 247.747 411.664 248.381 412.509C255.643 411.266 262.098 404.653 264.023 397.58Z" fill="#F580F7"/>
<path d="M264.298 352.193C260.065 352.193 262.398 365.072 261.145 379.131C269.164 383.209 275.694 390.779 275.123 400.177C274.763 406.144 272.206 412.322 267.463 416.175C275.942 415.952 281.355 413.03 282.373 409.5C287.488 391.649 273.373 352.193 264.298 352.193Z" fill="#ED56F0"/>
<path d="M314.015 365.247C313.518 367.397 312.19 369.262 310.154 370.853C306.839 373.451 301.613 375.328 294.946 376.596C291.21 377.305 287.014 377.815 282.433 378.125C278.15 378.436 273.519 378.585 268.641 378.585C261.751 378.585 255.32 378.188 249.609 377.417C244.371 376.721 239.753 375.751 235.867 374.508C228.567 372.196 223.986 369.001 223.291 365.235C222.832 362.748 224.272 358.907 227.127 354.681C229.573 351.051 233.086 347.135 237.344 343.543C242.111 339.527 247.809 335.922 254.054 333.585C258.684 331.845 263.613 330.801 268.665 330.801C275.63 330.801 282.333 332.939 288.367 336.183C292.91 338.607 297.057 341.665 300.657 344.897C305.039 348.851 308.577 353.052 310.924 356.707C313.257 360.399 314.424 363.519 314.015 365.247Z" fill="#FBCCFC"/>
<path d="M314.015 365.247C313.518 367.397 312.19 369.262 310.154 370.853C306.839 373.451 301.613 375.328 294.946 376.596C291.21 377.305 287.014 377.815 282.433 378.125C278.15 378.436 273.519 378.585 268.641 378.585C261.751 378.585 255.32 378.188 249.609 377.417C244.371 376.721 239.753 375.751 235.867 374.508C228.567 372.196 223.986 369.001 223.291 365.235C222.832 362.748 224.272 358.907 227.127 354.681C229.573 351.051 233.086 347.135 237.344 343.543C242.111 339.527 247.809 335.922 254.054 333.585C258.684 331.845 263.613 330.801 268.665 330.801C275.63 330.801 282.333 332.939 288.367 336.183C292.91 338.607 297.057 341.665 300.657 344.897C305.039 348.851 308.577 353.052 310.924 356.707C313.257 360.399 314.424 363.519 314.015 365.247Z" fill="#543EFA"/>
<path d="M274.337 357.507C274.337 361.696 270.948 365.09 266.764 365.09C262.581 365.09 259.191 361.696 259.191 357.507C259.191 353.317 262.581 349.924 266.764 349.924C270.948 349.924 274.337 353.317 274.337 357.507Z" fill="#F580F7"/>
<path d="M250.875 373.214C250.875 374.78 250.403 376.222 249.596 377.428C244.358 376.732 239.74 375.762 235.854 374.519C235.779 374.096 235.742 373.661 235.742 373.214C235.742 369.025 239.131 365.631 243.315 365.631C247.486 365.631 250.875 369.025 250.875 373.214Z" fill="#F580F7"/>
<path d="M239.392 348.763C239.392 352.953 236.003 356.346 231.819 356.346C230.031 356.346 228.393 355.725 227.102 354.693C229.547 351.063 233.06 347.147 237.319 343.555C238.61 344.91 239.392 346.749 239.392 348.763Z" fill="#F580F7"/>
<path d="M268.639 330.812C268.639 335.002 265.25 338.395 261.066 338.395C257.876 338.395 255.132 336.406 254.027 333.609C258.658 331.857 263.599 330.812 268.639 330.812Z" fill="#F580F7"/>
<path d="M300.63 344.896C299.339 347.208 296.856 348.774 294.026 348.774C289.842 348.774 286.453 345.381 286.453 341.191C286.453 339.277 287.161 337.512 288.34 336.182C292.884 338.606 297.042 341.664 300.63 344.896Z" fill="#F580F7"/>
<path d="M295.742 373.214C295.742 374.433 295.457 375.576 294.935 376.596C291.199 377.304 287.003 377.814 282.422 378.125C281.292 376.807 280.609 375.079 280.609 373.202C280.609 369.013 283.998 365.619 288.182 365.619C292.353 365.632 295.742 369.025 295.742 373.214Z" fill="#F580F7"/>
<path d="M314.012 365.247C313.516 367.398 312.188 369.262 310.152 370.853C307.483 369.685 305.633 367.025 305.633 363.917C305.633 360.536 307.855 357.664 310.896 356.707C313.255 360.399 314.422 363.519 314.012 365.247Z" fill="#F580F7"/>
<path d="M401.387 349.321C402.653 353.734 409.618 357.364 420.53 357.364C431.429 357.364 443.471 357.364 443.471 349.134C443.471 341.253 432.497 340.085 428.686 324.21C423.733 303.612 429.344 280.416 423.112 280.416C412.2 280.428 395.23 327.865 401.387 349.321Z" fill="#F580F7"/>
<path d="M423.448 335.002C422.343 330.912 421.536 325.729 423.125 321.639C424.119 319.078 425.559 317.487 427.284 316.318C427.619 318.954 428.066 321.602 428.687 324.212C432.498 340.086 443.472 341.255 443.472 349.136C443.472 350.69 443.026 351.933 442.256 352.952C433.516 351.461 425.745 343.492 423.448 335.002Z" fill="#ED56F0"/>
<path d="M423.112 280.43C428.202 280.43 425.396 295.919 426.898 312.812C417.253 317.723 409.407 326.81 410.102 338.109C410.536 345.294 413.615 352.703 419.313 357.34C409.121 357.079 402.616 353.561 401.399 349.322C395.23 327.866 412.2 280.43 423.112 280.43Z" fill="#F580F7"/>
<path d="M363.325 296.117C363.921 298.703 365.522 300.953 367.968 302.867C371.965 306 378.247 308.25 386.254 309.766C390.748 310.612 395.8 311.221 401.3 311.606C406.452 311.979 412.013 312.166 417.885 312.166C426.178 312.166 433.9 311.681 440.765 310.761C447.059 309.928 452.62 308.747 457.288 307.268C466.053 304.496 471.565 300.655 472.409 296.105C472.955 293.121 471.229 288.497 467.791 283.425C464.849 279.062 460.628 274.351 455.513 270.037C449.778 265.201 442.925 260.863 435.427 258.054C429.865 255.965 423.931 254.697 417.861 254.697C409.493 254.697 401.424 257.27 394.162 261.161C388.699 264.083 383.709 267.762 379.389 271.641C374.113 276.389 369.867 281.449 367.049 285.837C364.243 290.287 362.841 294.041 363.325 296.117Z" fill="#BEF941"/>
<path d="M363.325 296.117C363.921 298.703 365.522 300.953 367.968 302.867C371.965 306 378.247 308.25 386.254 309.766C390.748 310.612 395.8 311.221 401.3 311.606C406.452 311.979 412.013 312.166 417.885 312.166C426.178 312.166 433.9 311.681 440.765 310.761C447.059 309.928 452.62 308.747 457.288 307.268C466.053 304.496 471.565 300.655 472.409 296.105C472.955 293.121 471.229 288.497 467.791 283.425C464.849 279.062 460.628 274.351 455.513 270.037C449.778 265.201 442.925 260.863 435.427 258.054C429.865 255.965 423.931 254.697 417.861 254.697C409.493 254.697 401.424 257.27 394.162 261.161C388.699 264.083 383.709 267.762 379.389 271.641C374.113 276.389 369.867 281.449 367.049 285.837C364.243 290.287 362.841 294.041 363.325 296.117Z" fill="#543EFA"/>
<path d="M410.953 285.051C410.953 290.086 415.025 294.163 420.053 294.163C425.081 294.163 429.152 290.086 429.152 285.051C429.152 280.017 425.081 275.939 420.053 275.939C415.025 275.939 410.953 280.017 410.953 285.051Z" fill="#F580F7"/>
<path d="M439.25 305.702C439.25 307.579 439.809 309.319 440.789 310.774C447.083 309.941 452.645 308.76 457.313 307.28C457.412 306.771 457.449 306.249 457.449 305.702C457.449 300.667 453.377 296.59 448.35 296.59C443.322 296.59 439.25 300.667 439.25 305.702Z" fill="#F580F7"/>
<path d="M453.043 276.314C453.043 281.349 457.115 285.426 462.143 285.426C464.29 285.426 466.264 284.68 467.816 283.437C464.874 279.074 460.653 274.362 455.538 270.049C453.999 271.665 453.043 273.878 453.043 276.314Z" fill="#F580F7"/>
<path d="M417.887 254.709C417.887 259.744 421.959 263.821 426.986 263.821C430.822 263.821 434.125 261.434 435.453 258.065C429.879 255.977 423.957 254.709 417.887 254.709Z" fill="#F580F7"/>
<path d="M379.426 271.652C380.978 274.425 383.957 276.314 387.359 276.314C392.386 276.314 396.458 272.237 396.458 267.202C396.458 264.902 395.602 262.777 394.186 261.186C388.736 264.094 383.746 267.774 379.426 271.652Z" fill="#F580F7"/>
<path d="M385.297 305.7C385.297 307.155 385.632 308.547 386.265 309.765C390.759 310.611 395.812 311.22 401.311 311.605C402.677 310.014 403.496 307.951 403.496 305.688C403.496 300.654 399.424 296.576 394.397 296.576C389.381 296.589 385.297 300.666 385.297 305.7Z" fill="#F580F7"/>
<path d="M363.325 296.119C363.921 298.704 365.522 300.954 367.968 302.869C371.17 301.464 373.405 298.257 373.405 294.54C373.405 290.475 370.736 287.032 367.074 285.863C364.243 290.289 362.84 294.043 363.325 296.119Z" fill="#F580F7"/>
</svg>
