<svg width="638" height="566" viewBox="0 0 638 566" fill="none" xmlns="http://www.w3.org/2000/svg">
<path d="M201.212 54.7807C202.525 56.8121 202.156 60.2162 205.496 60.6734C206.056 60.7502 206.436 62.5201 206.446 63.579C206.468 66.0947 207.513 67.8625 208.816 69.5224C209.1 69.3906 209.383 69.2586 209.666 69.1264C209.185 67.539 208.705 65.9517 208.222 64.3602C211.67 62.9509 213.158 63.6275 214.362 67.6396C215.24 70.567 215.593 73.7347 216.437 76.6806C216.934 78.4128 217.647 80.2045 218.759 81.4793C223.018 86.3592 227.472 91.0471 231.879 95.78C232.219 96.1456 232.759 96.3057 233.598 96.7854C234.39 91.2702 229.179 90.6232 227.895 86.7367C228.863 86.1823 229.791 85.6508 231.172 84.8595C231.328 89.9283 234.906 92.0582 237.14 95.6246C236.352 95.8 235.667 95.9525 234.968 96.1076C236.062 99.7452 242.735 108.47 246.572 111.139C246.622 107.692 243.727 106.814 242.558 104.662C241.393 102.518 240.004 100.53 238.97 98.258C245.482 102.809 249.827 109.558 255.174 115.884C255.243 113.389 255.297 111.438 255.35 109.486C257.47 111.522 259.701 113.645 261.908 115.795C263.339 117.188 264.988 117.775 267.183 117.268C273.911 115.715 280.426 115.742 286.915 116.813C289.874 117.302 292.65 117.848 295.432 118.913C298.381 120.042 301.86 120.198 305.185 120.284C314.78 120.534 323.868 122.291 332.318 126.052C335.352 127.402 339.059 127.697 341.09 131.707C339.982 131.592 338.968 131.485 337.536 131.335C338.278 134 339.725 134.495 341.084 134.92C345.478 136.297 349.923 137.541 354.336 138.867C355.243 139.139 356.148 139.461 356.966 139.91C358.808 140.923 360.132 142.807 362.802 142.35C364.098 142.129 363.65 144.142 364.155 144.618C365.476 145.866 367.28 146.565 368.926 147.502C371.573 142.264 367.02 141.981 365.276 139.935C365.782 138.858 366.204 137.96 366.647 137.015C362.68 134.29 357.734 133.777 354.219 130.715C358.598 131.086 362.088 133.376 365.911 134.924C378.062 139.846 388.22 147.794 398.462 155.639C403.789 159.719 409.412 163.404 414.742 167.48C418.652 170.47 422.303 173.806 425.833 177.292C422.347 174.821 418.863 172.35 415.377 169.879C416.181 172.318 419.148 173.004 419.167 176.015C416.981 176.808 416.981 176.808 414.139 176.337C414.857 177.099 415.516 177.931 416.301 178.611C420.245 182.032 424.313 185.308 428.149 188.854C430.103 190.66 431.699 192.89 433.384 194.995C438.579 201.487 444.996 206.574 451.274 211.828C453.536 213.721 455.761 215.669 457.888 217.722C466.503 226.038 474.774 234.763 483.744 242.649C492.199 250.083 498.817 259.096 505.212 268.406C507.905 272.326 510.129 276.865 513.607 279.85C518.118 283.722 520.971 289.134 525.531 292.85C525.739 293.018 526.081 293.192 526.087 293.413C526.198 297.269 528.867 299.614 530.115 302.789C532.103 307.849 534.023 312.948 535.948 318.043C537.528 322.229 539.14 326.4 540.593 330.65C541.024 331.912 542.554 333.231 540.477 334.936C540.305 335.077 540.541 336.035 540.766 336.501C542.632 340.367 544.483 344.195 544.995 348.794C545.145 350.144 546.627 351.138 547.715 352.583C546.102 354.209 546.119 356.244 546.732 358.347C547.086 359.564 547.142 360.916 547.478 362.143C549.014 367.732 547.627 373.57 546.213 379.306C545.763 381.131 543.887 382.773 542.633 384.541C542.126 387.254 541.563 390.268 540.999 393.283C540.756 393.341 540.512 393.398 540.269 393.456C539.093 390.206 537.917 386.956 536.741 383.707C536.473 383.819 536.204 383.931 535.936 384.043C536.211 386.106 536.703 388.136 536.716 390.24C536.742 394.485 536.451 398.778 536.402 403.037C536.374 405.622 535.517 408.151 536.116 410.886C536.575 412.985 534.624 415.937 533.938 418.538C532.536 423.854 531.076 429.174 530 434.52C529.199 438.499 527.872 442.277 525.154 445.302C523.294 447.372 520.69 448.716 518.139 449.923C518.05 450.049 517.921 450.167 517.876 450.304C515.024 459.082 508.535 464.388 501.243 468.759C499.363 469.886 497.107 470.268 495.005 470.776C486.408 472.853 478.043 472.405 469.674 471.923C452.948 470.962 436.579 468.577 420.373 465.527C411.339 463.826 402.243 462.305 393.317 460.274C384.173 458.193 375.216 455.552 366.153 453.223C357.982 451.123 349.737 449.228 341.602 447.028C333.193 444.754 324.784 442.451 316.544 439.753C300.936 434.643 285.422 429.3 269.929 423.914C266.224 422.627 262.754 420.794 259.175 419.211C254.626 417.199 250.214 414.864 245.498 413.243C236.075 410.003 227.818 404.677 219.039 400.293C214.358 397.954 209.857 395.286 205.059 392.648C205.536 391.853 205.89 391.263 206.379 390.446C204.119 388.843 201.934 387.081 199.542 385.652C196.438 383.796 193.149 382.237 189.985 380.476C189.308 380.098 188.822 379.398 188.245 378.851C186.705 377.388 185.373 375.589 183.58 374.532C178.726 371.671 173.659 369.154 168.708 366.447C164.232 363.999 159.882 361.326 155.315 359.048C152.336 357.562 149.077 356.583 145.922 355.425C144.915 355.056 143.659 355.096 142.827 354.511C138.389 351.386 133.743 348.474 129.777 344.788C126.984 342.193 125.187 338.429 125.263 333.955C125.297 331.999 124.703 330.622 123.36 329.548C121.786 328.29 120.201 327.036 118.745 325.641C117.783 324.719 116.353 323.672 116.321 322.471C116.215 318.483 113.332 316.532 110.833 316.058C105.196 314.99 102.341 310.608 98.5927 307.308C94.6649 303.85 90.9797 300.077 87.431 296.193C84.0112 292.452 80.9016 288.394 78.2492 283.854C87.6227 291.253 96.9963 298.652 106.37 306.05C105.922 302.45 103.212 301.117 101.231 299.1C99.9193 297.764 98.4515 296.591 97.1949 295.202C94.9419 292.712 92.7923 290.256 89.8218 288.459C86.1048 286.211 82.9803 282.996 79.8831 278.652C81.7361 279.234 82.7842 279.563 84.6201 280.139C83.0749 277.326 81.9205 275.226 80.4136 272.483C84.2891 275.23 87.5532 277.558 90.8318 279.865C94.0162 282.107 97.1897 284.367 100.422 286.54C101.483 287.253 102.566 288.316 104.439 286.868C104.419 285.75 104.397 284.507 104.372 283.129C105.87 282.71 107.331 282.301 109.187 281.782C108.746 280.695 108.519 279.946 108.161 279.287C106.97 277.1 107.232 275.623 109.452 274.657C112.028 273.537 114.767 273.069 116.36 269.966C116.601 269.496 118.273 269.318 119.09 269.537C120.924 270.026 122.639 270.847 124.4 271.536C128.42 273.108 132.393 274.788 136.487 276.186C137.624 276.574 139.116 276.127 140.825 276.044C140.601 274.4 140.455 273.335 140.29 272.121C140.858 272.158 141.297 272.079 141.623 272.223C147.296 274.74 153.03 277.144 158.602 279.849C169.504 285.141 180.537 290.231 191.076 296.141C196.954 299.436 202.775 302.556 209.375 304.396C211.483 304.984 213.117 306.813 215.013 308.006C215.908 308.568 216.837 309.21 217.873 309.397C220.576 309.887 222.95 311.041 225.454 311.952C232.188 314.401 238.299 317.945 244.753 320.867C247.699 322.201 250.907 322.743 254.736 322.358C254.08 319.087 251.926 317.331 250.036 315.407C247.312 312.633 244.381 310.074 241.759 307.198C235.486 300.317 230.212 292.525 224.785 284.89C222.121 281.143 220.148 276.821 217.664 272.914C214.147 267.382 210.417 262.017 206.834 256.536C202.771 250.322 199.578 243.594 198.089 235.876C197.931 235.057 197.44 234.361 197.178 233.571C196.085 230.274 193.562 227.732 193.59 223.836C193.592 223.429 193.353 223.019 193.13 222.689C188.471 215.819 186.181 207.695 184.344 199.315C184.044 197.943 183.431 196.682 182.905 195.403C182.647 194.776 181.813 194.039 181.993 193.672C183.323 190.962 181.135 189.926 180.58 188.098C178.995 182.878 175.122 179.709 171.977 175.91C167.51 170.513 162.872 165.273 158.159 160.117C154.427 156.034 150.294 152.352 146.665 148.172C143.057 144.018 139.852 139.469 136.478 135.086C135.32 133.582 134.127 132.105 133.046 130.537C130.349 126.621 127.701 122.664 125.054 118.708C124.757 118.263 124.386 117.735 124.401 117.203C124.493 113.718 124.498 110.224 124.925 106.727C125.112 105.189 124.949 104.174 123.987 103.288C123.197 102.559 122.381 101.84 121.712 100.992C120.427 99.3631 118.392 98.3048 118.88 95.3411C119.028 94.4428 117.795 93.5215 117.252 92.5703C116.02 90.413 116.287 88.4783 117.909 87.5092C119.519 86.5479 121.816 87.3115 122.714 89.1364C122.948 89.6129 123.092 90.1477 123.378 90.9316C124.376 90.3895 125.224 89.9294 126.363 89.3114C125.272 86.8686 124.277 84.6411 123.23 82.2959C125.611 80.8979 126.719 81.4311 127.465 83.6442C128.15 85.6752 129.34 87.4554 130.934 88.9678C130.691 87.5745 130.448 86.1805 130.154 84.4937C132.412 83.0261 133.773 80.9783 133.115 78.4183C136.433 75.3984 139.021 78.9314 142.086 77.6642C142.074 75.1187 142.062 72.5428 142.048 69.4299C143.227 70.0921 144.067 70.5632 145.691 71.4748C145.206 69.1954 144.879 67.6567 144.471 65.7387C146.199 65.0144 148.013 64.254 150.476 63.2221C150.661 62.4857 151.058 60.9085 151.459 59.315C152.84 59.9655 154.128 60.9021 155.612 61.1947C157.91 61.6483 159.34 59.8513 158.42 57.6771C157.74 56.0693 156.657 54.6592 155.574 53.329C153.837 51.1971 153.924 49.2396 156.249 46.3099C158.005 48.1976 159.759 50.0818 161.513 51.9662C161.687 51.853 161.861 51.7393 162.035 51.6261C161.723 50.1656 161.411 48.7057 161.095 47.2257C164.202 45.6637 163.283 49.3123 164.745 49.8001C166.197 50.2848 167.597 50.8931 169.5 51.6341C169.844 51.3727 171.151 50.8513 171.376 50.1154C171.935 48.2896 172.064 46.3622 172.238 44.4818C172.334 43.4451 172.172 42.4206 172.087 40.48C176.227 42.8332 176.422 48.8481 181.912 48.2574C182.011 47.293 182.139 46.5815 182.139 45.889C182.138 45.3236 181.983 44.7816 181.82 43.7383C184.041 44.5802 184.199 40.474 186.156 41.6659C187.266 42.3426 187.781 44.019 188.447 45.3229C190.002 48.3675 189.973 48.3866 193.369 47.1822C193.622 49.0923 193.877 51.0129 194.109 52.7648C195.517 53.0364 196.556 53.2369 197.597 53.4321L197.699 53.333C197.773 56.7997 198.078 56.9166 201.313 54.7129L201.212 54.7807ZM198.717 343.04C200 343.653 201.283 344.266 202.566 344.879C201.767 343.068 200.561 342.232 198.711 343.094C197.522 341.059 197.522 341.059 194.866 341.122C196.487 341.929 197.602 342.484 198.717 343.04ZM187.473 340.166C187.339 340.456 187.205 340.746 187.07 341.036C194.427 346.248 202.998 349.295 210.834 353.652C211.045 353.278 211.255 352.906 211.466 352.532C203.468 348.41 195.47 344.288 187.473 340.166ZM385.783 154.854C387.945 158.654 393.559 162.761 396.908 163.268C396.967 162.533 397.315 161.435 397.031 161.236C393.722 158.92 390.818 155.898 385.783 154.854ZM183.057 339.106C179.659 334.833 175.71 331.448 170.117 330.595C170.977 331.887 171.961 333.028 173.202 333.753C176.427 335.635 179.765 337.334 183.057 339.106ZM508.585 456.237C505.28 458.043 503.688 459.904 502.257 463.427C504.919 461.579 507.41 460.092 508.585 456.237ZM393.136 154.186C395.312 156.422 397.278 158.927 400.718 159.172C398.76 156.659 396.158 155.083 393.136 154.186ZM302.493 339.785C302.237 340.071 301.981 340.358 301.725 340.644C303.693 342.133 305.709 343.545 307.847 344.765C308.024 344.496 308.201 344.227 308.378 343.958C306.416 342.567 304.454 341.176 302.493 339.785ZM265.247 296.771C266.93 298.279 268.612 299.788 270.295 301.296C269.104 299.253 269.223 295.835 265.247 296.771ZM249.856 113.812C249.614 114.063 249.372 114.315 249.13 114.566C250.611 116.118 252.092 117.669 253.573 119.221C253.826 118.956 254.079 118.691 254.331 118.427C252.84 116.889 251.347 115.35 249.856 113.812ZM159.738 158.825C159.897 158.659 160.056 158.493 160.215 158.327C158.91 156.855 157.605 155.382 156.3 153.909C156.111 154.103 155.921 154.296 155.732 154.49C157.067 155.935 158.403 157.38 159.738 158.825ZM209.045 345.356C208.245 345.594 207.757 345.739 207.269 345.884C207.325 346.232 207.269 346.782 207.463 346.878C207.754 347.023 208.28 346.971 208.59 346.769C208.805 346.63 208.823 346.098 209.045 345.356ZM211.254 347.573C211.136 347.804 211.017 348.035 210.899 348.266C211.491 348.536 212.084 348.806 212.676 349.076C212.792 348.843 212.908 348.61 213.024 348.377C212.434 348.109 211.844 347.841 211.254 347.573ZM181.247 333.628C181.117 333.849 180.986 334.069 180.855 334.29C181.84 334.889 182.824 335.488 183.808 336.087C183.966 335.821 184.124 335.554 184.282 335.287C183.271 334.734 182.259 334.181 181.247 333.628ZM519.588 437.929C519.874 438.198 520.159 438.468 520.444 438.737C521.062 437.864 521.681 436.991 522.299 436.119C522.111 435.948 521.924 435.777 521.736 435.605C521.02 436.38 520.304 437.155 519.588 437.929ZM521.078 444.007C521.207 444.036 521.336 444.065 521.466 444.094C521.842 443.562 522.219 443.031 522.596 442.5C522.526 442.449 522.456 442.398 522.386 442.347C521.95 442.901 521.514 443.454 521.078 444.007Z" fill="#6C59FF"/>
<path fill-rule="evenodd" clip-rule="evenodd" d="M462.722 222.319C497.083 222.319 524.937 194.465 524.937 160.105C524.937 125.745 497.083 97.8904 462.722 97.8904C428.362 97.8904 400.508 125.745 400.508 160.105C400.508 194.465 428.362 222.319 462.722 222.319ZM462.722 232.175C502.526 232.175 534.793 199.908 534.793 160.105C534.793 120.302 502.526 88.0347 462.722 88.0347C422.919 88.0347 390.652 120.302 390.652 160.105C390.652 199.908 422.919 232.175 462.722 232.175Z" fill="#4633DC"/>
<path d="M523.89 176.534C514.832 210.337 480.087 230.397 446.284 221.34C412.482 212.282 392.422 177.537 401.479 143.734C410.536 109.932 445.281 89.8715 479.084 98.929C512.887 107.986 532.947 142.731 523.89 176.534Z" fill="#BEF941"/>
<path fill-rule="evenodd" clip-rule="evenodd" d="M462.724 214.804C492.933 214.804 517.423 190.315 517.423 160.105C517.423 129.896 492.933 105.406 462.724 105.406C432.514 105.406 408.025 129.896 408.025 160.105C408.025 190.315 432.514 214.804 462.724 214.804ZM462.724 223.47C497.719 223.47 526.088 195.1 526.088 160.105C526.088 125.11 497.719 96.7407 462.724 96.7407C427.729 96.7407 399.359 125.11 399.359 160.105C399.359 195.1 427.729 223.47 462.724 223.47Z" fill="#F1FFD3"/>
<path d="M471.852 181.5L462.624 179.027L461.695 182.495L452.137 179.934L453.067 176.466L433.028 171.097L435.392 162.275L473.821 172.572C474.656 172.796 475.171 172.543 475.366 171.813L476.035 169.318C476.241 168.547 475.927 168.05 475.092 167.827L446.617 160.197C442.838 159.184 440.144 157.636 438.536 155.553C436.971 153.482 436.575 151.007 437.346 148.127L438.406 144.173C439.178 141.293 440.786 139.333 443.231 138.293C445.731 137.224 448.827 137.184 452.518 138.173L462.603 140.875L463.549 137.346L473.106 139.907L472.161 143.436L489.958 148.205L487.594 157.026L450.55 147.1C450.198 147.006 449.864 147.025 449.546 147.157C449.272 147.301 449.091 147.535 449.004 147.86L448.336 150.354C448.249 150.679 448.288 150.972 448.453 151.234C448.663 151.507 448.943 151.691 449.295 151.785L477.77 159.415C481.461 160.404 484.1 161.981 485.687 164.145C487.317 166.32 487.747 168.848 486.975 171.728L485.899 175.743C485.128 178.623 483.525 180.563 481.09 181.562C478.711 182.533 475.631 182.512 471.852 181.5Z" fill="#F1FFD3"/>
<path d="M140.676 336.601C140.676 345.204 142.269 353.383 145.137 361.03C155.015 386.947 180.082 405.323 209.398 405.323C239.457 405.323 264.949 386.098 274.296 359.225C329.742 363.261 361.5 338.406 374.671 291.14C408.023 282.111 432.453 251.627 432.453 215.407C432.453 192.04 422.15 171.009 405.899 156.563C392.091 144.348 373.822 136.913 353.959 136.913C331.122 136.913 310.516 146.685 296.283 162.299C286.618 156.032 275.146 152.315 262.825 152.315C254.222 152.315 245.937 154.12 238.501 157.307C216.939 166.654 201.75 187.897 201.432 212.858C201.432 213.177 201.432 213.389 201.432 213.708C201.432 214.026 201.432 214.345 201.432 214.77C198.245 214.133 195.059 213.708 191.66 213.708C176.683 213.708 163.406 220.824 155.015 231.977C149.173 239.625 145.774 249.29 145.774 259.593C145.774 270.852 149.81 281.049 156.502 289.016C157.033 289.653 157.564 290.29 158.095 290.821C147.261 302.93 140.676 318.969 140.676 336.601Z" fill="#F580F7"/>
<g opacity="0.3">
<path d="M145.141 360.923C155.019 386.84 180.086 405.216 209.402 405.216C239.461 405.216 264.953 385.991 274.3 359.118C329.745 363.154 361.504 338.299 374.675 291.033C408.027 282.004 432.457 251.52 432.457 215.3C432.457 191.932 422.154 170.902 405.903 156.456C413.55 175.894 389.97 201.28 359.274 185.241C359.274 185.241 358.636 183.01 356.724 180.567C353.432 176.425 346.846 178.018 345.784 183.223C342.704 198.412 325.072 205.21 315.512 177.487L303.722 167.927C316.256 203.51 291.401 217.106 266.228 208.609C264.103 207.865 262.085 209.989 263.041 212.114C275.893 240.58 249.977 276.587 208.233 264.691C222.466 294.219 213.969 331.183 175.943 322.367C174.244 321.942 173.076 324.066 174.35 325.235C178.386 328.952 186.247 333.732 199.842 334.369C218.324 367.403 191.664 413.926 145.141 360.923Z" fill="#402DD4"/>
</g>
<path d="M207.809 341.057C202.073 341.057 196.444 340.42 190.921 339.251C188.69 338.826 187.309 336.596 187.84 334.365C188.265 332.135 190.496 330.754 192.726 331.285C197.718 332.347 202.817 332.878 207.915 332.878C247.534 332.878 279.718 300.695 279.718 261.076C279.718 243.019 273.026 225.812 260.811 212.535C259.324 210.835 259.43 208.286 261.024 206.799C262.723 205.312 265.272 205.418 266.759 207.011C280.355 221.776 287.896 241.001 287.896 261.076C287.684 305.262 251.889 341.057 207.809 341.057Z" fill="#402DD4"/>
<path d="M304.786 238.455C302.556 238.455 300.75 236.65 300.75 234.419C300.75 232.188 302.556 230.383 304.786 230.383C330.278 230.383 351.522 210.52 353.327 185.134C353.434 182.904 355.452 181.204 357.682 181.311C359.913 181.417 361.612 183.435 361.506 185.666C359.382 215.194 334.527 238.455 304.786 238.455Z" fill="#402DD4"/>
<path d="M220.981 228.257C220.025 228.257 219.175 227.938 218.326 227.301C213.227 223.052 207.067 220.078 200.587 218.697C198.357 218.273 196.976 216.042 197.401 213.811C197.826 211.581 200.056 210.2 202.287 210.625C210.041 212.324 217.37 215.83 223.53 220.928C225.23 222.415 225.548 224.964 224.061 226.664C223.318 227.726 222.149 228.257 220.981 228.257Z" fill="#402DD4"/>
<path d="M317.315 189.377C315.828 189.377 314.447 188.527 313.704 187.146C309.137 178.436 302.445 171.001 294.16 165.584C292.248 164.31 291.717 161.867 292.992 159.955C294.266 158.043 296.709 157.512 298.621 158.786C308.074 164.947 315.828 173.444 321.033 183.429C322.095 185.447 321.245 187.89 319.333 188.952C318.59 189.271 317.953 189.377 317.315 189.377Z" fill="#402DD4"/>
<path d="M209.399 409.354C169.249 409.354 136.641 376.746 136.641 336.596C136.641 319.92 142.376 303.775 152.786 290.922C145.669 282.106 141.739 271.06 141.739 259.588C141.739 232.078 164.151 209.667 191.661 209.667C193.573 209.667 195.485 209.773 197.397 209.985C199.309 175.571 227.881 148.273 262.72 148.273C274.298 148.273 285.663 151.354 295.541 157.089C310.942 141.688 332.08 132.872 353.96 132.872C399.527 132.872 436.491 169.941 436.491 215.402C436.491 251.835 412.486 283.912 377.859 294.428C363.52 343.075 329.53 366.336 276.953 363.468C266.119 390.979 239.352 409.354 209.399 409.354ZM191.767 217.739C168.718 217.739 150.024 236.539 150.024 259.588C150.024 270.21 154.06 280.301 161.283 288.055C162.77 289.648 162.77 291.985 161.389 293.578C150.767 305.368 145.032 320.663 145.032 336.596C145.032 372.178 174.029 401.175 209.612 401.175C237.122 401.175 261.658 383.756 270.686 357.839C271.324 356.139 273.023 354.971 274.829 355.077C326.238 358.795 357.784 337.445 371.061 289.966C371.486 288.586 372.548 287.523 373.929 287.099C406.219 278.283 428.737 248.754 428.737 215.296C428.737 174.296 395.385 140.944 354.385 140.944C333.673 140.944 313.704 149.654 299.683 164.949C298.303 166.436 296.072 166.649 294.479 165.587C285.238 159.532 274.404 156.346 263.251 156.346C231.705 156.346 205.894 182.05 205.894 213.703C205.894 214.021 205.894 214.34 205.894 214.659V214.765C205.894 216.04 205.363 217.208 204.407 217.951C203.451 218.695 202.176 219.014 201.008 218.801C197.715 218.058 194.741 217.739 191.767 217.739Z" fill="#402DD4"/>
<path d="M158.203 294.85C157.141 294.85 156.185 294.425 155.335 293.682C153.742 292.088 153.636 289.539 155.229 287.946C155.442 287.733 160.859 282.104 168.294 276.262C170.099 274.881 172.649 275.2 174.029 276.899C175.41 278.705 175.092 281.254 173.392 282.635C166.382 288.158 161.283 293.469 161.177 293.575C160.327 294.531 159.265 294.85 158.203 294.85Z" fill="#402DD4"/>
<path d="M362.989 419.446C362.351 419.446 361.82 419.339 361.183 419.021C359.165 418.065 358.315 415.622 359.271 413.604C362.139 407.656 363.839 401.389 364.582 395.016C364.794 392.785 366.813 391.192 369.043 391.404C371.274 391.617 372.867 393.635 372.655 395.866C371.805 403.195 369.787 410.417 366.6 417.109C365.963 418.596 364.582 419.446 362.989 419.446Z" fill="#402DD4"/>
<path d="M228.306 367.618C225.969 374.203 224.695 381.32 224.695 388.649C224.695 425.506 256.985 455.353 296.922 455.353C326.45 455.353 351.942 438.889 363.095 415.416C372.336 421.682 383.276 425.294 395.173 425.294C421.727 425.294 444.139 407.024 451.149 382.064C456.035 383.338 461.239 383.975 466.444 383.975C501.071 383.975 529.218 355.828 529.218 321.201C529.218 294.541 512.648 271.81 489.174 262.676C490.13 258.852 490.555 254.922 490.555 250.886C490.555 219.446 461.346 193.954 425.232 193.954C404.52 193.954 386.038 202.345 374.142 215.516C364.582 210.417 353.536 207.443 341.746 207.443C305.207 207.443 275.572 235.803 275.572 270.748C275.572 271.598 275.572 272.448 275.679 273.191C245.513 278.715 222.57 306.437 222.57 339.789C222.57 349.561 224.588 359.121 228.306 367.618Z" fill="#F580F7"/>
<g opacity="0.3">
<path d="M283.647 340.532C314.237 366.343 368.514 354.447 363.097 298.046L369.576 322.051C387.633 323.538 391.032 336.921 391.457 352.96L399.317 364.006C399.317 364.006 381.578 348.711 348.758 362.732C315.937 376.752 306.589 381.426 299.367 395.446L295.118 394.49C277.592 376.646 265.802 358.908 276.424 341.701C277.911 339.152 281.31 338.62 283.647 340.532Z" fill="#402DD4"/>
</g>
<g opacity="0.3">
<path d="M424.597 313.654C396.131 311.529 374.462 290.286 392.626 274.778C415.993 280.62 422.048 268.193 422.048 268.193C436.387 247.799 454.762 249.499 474.519 258.739C439.786 262.457 432.563 309.086 464.959 317.265C463.578 317.902 439.786 324.488 439.786 324.488L430.014 317.265" fill="#402DD4"/>
</g>
<g opacity="0.3">
<path d="M306.8 216.784C290.337 243.02 289.912 265.75 320.077 281.895C306.588 274.885 292.78 270.105 277.697 271.38C274.723 245.569 288.212 229.637 306.8 216.784Z" fill="#402DD4"/>
</g>
<g opacity="0.3">
<path d="M422.368 193.847C403.249 202.556 389.972 213.391 395.07 230.385L379.031 214.453L392.202 203.937L401.549 198.839" fill="#402DD4"/>
</g>
<g opacity="0.3">
<path d="M227.032 367.615C221.509 341.274 224.483 319.499 233.936 301.124C229.262 324.704 232.024 339.149 248.275 336.919L237.76 348.496" fill="#402DD4"/>
</g>
<g opacity="0.3">
<path d="M224.699 388.646C224.699 425.503 256.989 455.35 296.927 455.35C326.455 455.35 351.947 438.887 363.1 415.413C372.341 421.679 383.281 425.291 395.177 425.291C421.731 425.291 444.143 407.022 451.153 382.061C458.057 383.76 465.599 384.397 473.14 383.548C505.324 380.149 529.435 353.17 529.223 320.773C529.223 317.268 528.904 313.869 528.373 310.577C523.381 340.317 497.57 362.835 466.449 362.835C461.138 362.835 456.039 362.198 451.153 360.923C444.143 385.884 421.731 404.154 395.177 404.154C385.936 404.154 377.12 401.923 369.366 397.993C365.968 396.294 361.719 397.356 359.701 400.648C347.273 420.723 323.906 434.213 297.033 434.213C261.025 434.213 231.178 409.889 225.655 378.024C225.018 381.529 224.699 385.035 224.699 388.646Z" fill="#402DD4"/>
</g>
<path d="M228.306 371.749C227.882 371.749 227.351 371.643 226.926 371.537C224.801 370.793 223.739 368.457 224.483 366.332C229.156 353.374 237.76 341.902 249.337 333.405C251.143 332.024 253.692 332.449 255.073 334.255C256.454 336.061 256.029 338.61 254.223 339.991C243.92 347.638 236.273 357.623 232.236 369.094C231.599 370.687 230.006 371.749 228.306 371.749Z" fill="#402DD4"/>
<path d="M451.039 386.09C450.721 386.09 450.296 386.09 449.977 385.984C447.853 385.346 446.578 383.116 447.109 380.991C448.49 375.999 449.233 370.688 449.233 365.484C449.233 344.028 437.656 324.803 418.855 315.349C416.837 314.287 415.988 311.844 417.05 309.826C418.112 307.808 420.555 306.958 422.573 308.021C444.029 318.855 457.412 340.948 457.412 365.484C457.412 371.538 456.562 377.486 454.969 383.222C454.438 384.921 452.845 386.09 451.039 386.09Z" fill="#402DD4"/>
<path d="M489.17 266.708C488.639 266.708 488.214 266.602 487.683 266.389C482.797 264.477 477.699 263.203 472.388 262.672C470.158 262.459 468.564 260.441 468.777 258.21C468.989 255.98 471.007 254.387 473.238 254.599C479.292 255.236 485.134 256.617 490.657 258.848C492.782 259.697 493.844 262.034 492.994 264.159C492.357 265.646 490.764 266.708 489.17 266.708Z" fill="#402DD4"/>
<path d="M374.145 219.442C373.083 219.442 372.02 219.017 371.277 218.273C369.684 216.68 369.684 214.131 371.277 212.537C372.87 210.944 375.419 210.944 377.013 212.537C378.606 214.131 378.606 216.68 377.013 218.273C376.269 219.017 375.207 219.442 374.145 219.442Z" fill="#402DD4"/>
<path d="M395.069 237.073C393.795 237.073 392.626 236.542 391.883 235.48C386.678 228.788 379.88 223.053 372.339 218.91C370.321 217.848 369.577 215.405 370.639 213.387C371.701 211.369 374.144 210.625 376.163 211.687C384.766 216.361 392.414 222.84 398.362 230.488C399.743 232.293 399.424 234.843 397.618 236.224C396.769 236.861 395.919 237.073 395.069 237.073Z" fill="#402DD4"/>
<path d="M296.923 459.384C254.861 459.384 220.659 427.625 220.659 388.643C220.659 381.527 221.828 374.517 224.058 367.825C220.447 358.903 218.535 349.45 218.535 339.571C218.535 305.901 240.628 277.116 271.537 269.681C271.962 232.93 303.296 203.189 341.747 203.189C352.687 203.189 363.521 205.632 373.293 210.306C386.464 197.135 405.264 189.699 425.233 189.699C463.471 189.699 494.593 217.103 494.593 250.774C494.593 253.854 494.274 257.041 493.743 260.121C504.789 265.113 514.243 272.867 521.253 282.958C529.113 294.217 533.255 307.388 533.255 321.09C533.255 357.947 503.302 388.006 466.339 388.006C462.09 388.006 457.948 387.581 453.805 386.838C445.096 412.117 421.409 429.431 395.067 429.431C384.34 429.431 373.93 426.669 364.583 421.252C351.625 444.514 325.495 459.384 296.923 459.384ZM341.747 211.368C307.545 211.368 279.61 237.922 279.61 270.53C279.61 271.486 279.61 272.124 279.61 272.761C279.716 274.779 278.335 276.585 276.317 277.01C247.532 282.321 226.608 308.556 226.608 339.571C226.608 348.812 228.413 357.734 232.025 366.019C232.45 366.975 232.45 368.037 232.131 368.993C229.9 375.26 228.732 381.846 228.732 388.643C228.732 423.164 259.322 451.205 296.923 451.205C324.008 451.205 348.544 436.441 359.379 413.604C359.91 412.542 360.866 411.693 362.034 411.374C363.202 411.055 364.371 411.268 365.433 411.905C374.249 417.959 384.552 421.04 395.174 421.04C419.179 421.04 440.528 404.47 447.22 380.783C447.857 378.659 449.982 377.385 452.106 377.916C456.779 379.084 461.559 379.721 466.445 379.721C498.841 379.721 525.183 353.38 525.183 320.983C525.183 296.554 510.525 275.098 487.795 266.282C485.883 265.538 484.821 263.52 485.352 261.502C486.201 257.891 486.626 254.279 486.626 250.668C486.626 221.564 459.116 197.772 425.445 197.772C406.539 197.772 389.013 205.101 377.329 217.953C376.055 219.334 374.037 219.653 372.337 218.803C362.884 213.917 352.368 211.368 341.747 211.368Z" fill="#402DD4"/>
<path d="M332.08 295.81C331.018 295.81 329.956 295.385 329.106 294.535C317.741 282.639 302.658 276.053 286.726 276.053C283.22 276.053 279.715 276.372 276.423 277.009C274.192 277.434 272.068 275.947 271.643 273.716C271.218 271.486 272.705 269.362 274.936 268.937C278.759 268.193 282.796 267.875 286.726 267.875C304.995 267.875 322.096 275.31 335.054 288.905C336.647 290.499 336.541 293.154 334.948 294.641C334.098 295.491 333.036 295.81 332.08 295.81Z" fill="#402DD4"/>
<path d="M318.8 375.255C302.336 375.255 286.935 367.82 276.632 354.968C275.251 353.162 275.464 350.613 277.269 349.232C279.075 347.851 281.624 348.064 283.005 349.869C291.821 360.81 304.779 367.076 318.8 367.076C344.08 367.076 364.686 346.47 364.686 321.191C364.686 310.675 360.968 300.372 354.383 292.194C353.002 290.494 353.214 287.839 354.914 286.458C356.613 285.077 359.269 285.289 360.649 286.989C368.509 296.548 372.864 308.763 372.864 321.191C372.758 351.038 348.541 375.255 318.8 375.255Z" fill="#402DD4"/>
<path d="M296.712 400.006C294.481 400.006 292.676 398.2 292.676 395.969C292.676 385.879 295.225 375.788 300.005 366.972C301.067 364.954 303.51 364.21 305.528 365.273C307.546 366.335 308.29 368.778 307.227 370.796C303.085 378.444 300.854 387.153 300.854 395.969C300.748 398.2 298.943 400.006 296.712 400.006Z" fill="#402DD4"/>
<path d="M401.124 368.147C399.85 368.147 398.575 367.51 397.725 366.342C389.865 354.658 377.969 346.798 364.267 344.036C362.036 343.611 360.656 341.487 361.081 339.256C361.505 337.026 363.63 335.645 365.86 336.07C381.687 339.256 395.389 348.391 404.417 361.774C405.692 363.686 405.161 366.129 403.355 367.404C402.611 367.935 401.868 368.147 401.124 368.147Z" fill="#402DD4"/>
<path d="M439.678 330.969C438.404 330.969 437.129 330.332 436.279 329.164C435.005 327.358 435.43 324.809 437.342 323.534C447.007 316.843 458.372 313.337 470.163 313.337C477.491 313.337 484.714 314.718 491.512 317.374C493.636 318.223 494.592 320.56 493.849 322.684C492.999 324.809 490.662 325.765 488.538 325.021C482.696 322.684 476.429 321.516 470.163 321.516C459.966 321.516 450.3 324.596 441.909 330.332C441.272 330.651 440.528 330.969 439.678 330.969Z" fill="#402DD4"/>
<path d="M398.147 280.837C394.111 280.837 390.074 280.306 386.25 279.137C384.126 278.5 382.852 276.27 383.489 274.039C384.126 271.915 386.357 270.64 388.587 271.277C391.668 272.233 394.854 272.658 398.147 272.658C406.963 272.658 415.354 269.259 421.727 263.099C423.32 261.505 425.976 261.612 427.463 263.205C429.056 264.798 428.95 267.454 427.356 268.941C419.603 276.588 409.193 280.837 398.147 280.837Z" fill="#402DD4"/>
<g opacity="0.6">
<path d="M320.078 239.091C320.078 248.331 333.886 240.047 348.863 240.047C363.839 240.047 374.142 248.331 374.142 239.091C374.142 229.85 362.034 222.308 347.163 222.308C332.187 222.308 320.078 229.85 320.078 239.091Z" fill="white"/>
</g>
<g opacity="0.6">
<path d="M263.891 297.399C263.891 305.365 272.176 297.399 283.541 297.399C294.906 297.399 305.103 305.365 305.103 297.399C305.103 289.432 295.862 283.059 284.497 283.059C273.131 283.059 263.891 289.539 263.891 297.399Z" fill="white"/>
</g>
<g opacity="0.6">
<path d="M312.111 415.734C314.341 408.086 301.808 412.76 287.787 408.617C273.767 404.475 263.464 393.216 261.233 400.757C259.002 408.299 268.562 417.965 282.689 422.001C296.709 426.143 309.88 423.275 312.111 415.734Z" fill="white"/>
</g>
<g opacity="0.6">
<path d="M477.064 285.296C471.753 291.138 483.224 290.925 491.616 298.573C500.007 306.221 502.237 318.967 507.548 313.019C512.859 307.177 510.416 296.13 502.025 288.483C493.634 280.835 482.481 279.454 477.064 285.296Z" fill="white"/>
</g>
<g opacity="0.6">
<path d="M447.748 217.852C443.287 221.888 450.085 225.818 456.352 232.616C462.618 239.414 465.805 246.637 470.266 242.601C474.727 238.564 473.24 229.748 467.08 222.951C460.813 216.153 452.103 213.816 447.748 217.852Z" fill="white"/>
</g>
<g opacity="0.6">
<path d="M441.472 212.252C442.181 209.164 439.141 205.831 434.682 204.807C430.223 203.782 426.033 205.454 425.323 208.542C424.614 211.629 427.654 214.962 432.114 215.987C436.573 217.011 440.763 215.339 441.472 212.252Z" fill="white"/>
</g>
<g opacity="0.6">
<path d="M256.031 312.154C258.659 308.998 258.889 304.858 256.545 302.906C254.201 300.954 250.171 301.93 247.543 305.085C244.915 308.24 244.685 312.38 247.029 314.332C249.373 316.284 253.403 315.309 256.031 312.154Z" fill="white"/>
</g>
<g opacity="0.6">
<path d="M411.637 337.873C408.345 339.784 412.7 342.121 415.461 348.176C418.223 354.23 418.01 360.497 421.728 359.753C428.526 358.266 429.8 349.981 426.933 344.033C424.277 337.873 417.798 334.474 411.637 337.873Z" fill="white"/>
</g>
<path d="M223.524 276.798C222.674 276.798 221.825 276.586 221.081 275.948C216.514 272.55 211.097 270.744 205.467 270.744C203.874 270.744 202.281 270.85 200.794 271.169C198.563 271.594 196.439 270.107 196.014 267.876C195.589 265.645 197.076 263.521 199.307 263.096C201.325 262.778 203.343 262.565 205.467 262.565C212.902 262.565 220.019 264.902 225.967 269.363C227.773 270.744 228.198 273.293 226.817 275.099C225.967 276.267 224.799 276.798 223.524 276.798Z" fill="#402DD4"/>
<g opacity="0.3">
<path d="M145.883 259.594C145.883 270.853 149.919 281.049 156.611 289.016L172.968 278.713C175.092 277.438 174.88 274.252 172.756 273.189C147.264 260.125 155.23 231.977 155.23 231.977C149.282 239.625 145.883 249.184 145.883 259.594Z" fill="#402DD4"/>
</g>
<g opacity="0.3">
<path d="M201.434 212.749C209.612 214.98 218.11 220.078 223.845 223.902C225.863 225.283 228.413 223.265 227.669 220.928C217.791 192.25 226.288 173.662 240.734 158.366L238.609 157.198C216.941 166.545 201.752 187.895 201.434 212.749Z" fill="#402DD4"/>
</g>
<g opacity="0.6">
<path d="M245.617 174.193C245.617 180.778 253.796 176.529 263.886 176.529C273.977 176.529 282.156 180.778 282.156 174.193C282.156 167.607 273.977 162.19 263.886 162.19C253.796 162.19 245.617 167.607 245.617 174.193Z" fill="white"/>
</g>
<g opacity="0.6">
<path d="M173.391 241.108C173.391 247.693 181.569 243.445 191.66 243.445C201.75 243.445 209.929 247.693 209.929 241.108C209.929 234.523 201.75 229.105 191.66 229.105C181.569 229.105 173.391 234.416 173.391 241.108Z" fill="white"/>
</g>
<g opacity="0.6">
<path d="M190.491 367.614C194.421 362.304 185.393 360.817 177.32 354.762C169.248 348.708 165.212 340.317 161.282 345.628C157.352 350.938 160.644 360.179 168.717 366.234C176.789 372.288 186.561 372.925 190.491 367.614Z" fill="white"/>
</g>
<g opacity="0.6">
<path d="M350.775 156.769C348.863 163.142 359.485 161.868 370.956 165.267C382.534 168.666 390.606 175.57 392.518 169.197C394.43 162.824 386.57 154.857 375.099 151.458C363.521 148.059 352.687 150.396 350.775 156.769Z" fill="white"/>
</g>
<path d="M340.974 159.838C343.462 157.35 343.731 153.583 341.574 151.426C339.418 149.27 335.651 149.539 333.163 152.027C330.674 154.516 330.405 158.282 332.562 160.439C334.719 162.596 338.485 162.327 340.974 159.838Z" fill="white"/>
<g opacity="0.6">
<path d="M192.219 312.673C198.342 310.132 201.81 304.471 199.967 300.028C198.123 295.585 191.665 294.043 185.543 296.584C179.42 299.125 175.952 304.786 177.795 309.229C179.639 313.672 186.097 315.214 192.219 312.673Z" fill="white"/>
</g>
<path d="M236.178 168.81C243.095 199.057 224.183 229.184 193.936 236.102C163.689 243.019 133.562 224.107 126.644 193.86C119.727 163.613 138.639 133.486 168.886 126.568C199.133 119.651 229.26 138.563 236.178 168.81Z" fill="#F580F7" stroke="#FBCCFC" stroke-width="8"/>
<path fill-rule="evenodd" clip-rule="evenodd" d="M247.668 166.181C256.037 202.774 233.156 239.222 196.563 247.591C159.971 255.96 123.522 233.08 115.153 196.487C106.784 159.894 129.664 123.445 166.257 115.076C202.85 106.707 239.299 129.588 247.668 166.181ZM194.827 240C227.228 232.59 247.486 200.317 240.076 167.917C232.666 135.516 200.394 115.258 167.994 122.668C135.593 130.078 115.335 162.35 122.744 194.75C130.154 227.151 162.427 247.409 194.827 240Z" fill="#402DD4"/>
<path d="M189.61 196.828L197.908 212.512L202.44 175.408L189.61 196.828Z" fill="#FBCCFC"/>
<path d="M164.718 149.779L200.501 171.744L187.672 193.164L162.6 191.796" fill="#FBCCFC"/>
<path d="M164.718 149.779L176.97 172.937L162.6 191.796M164.539 195.46L189.61 196.828L197.908 212.512" fill="#FBCCFC"/>
<path d="M176.97 172.937L187.672 193.164L200.501 171.744" fill="#FBCCFC"/>
<path d="M162.6 191.796L176.97 172.937L187.672 193.164" fill="#FBCCFC"/>
<path fill-rule="evenodd" clip-rule="evenodd" d="M560.02 304.181C589.838 286.965 600.055 248.837 582.839 219.019C565.623 189.2 527.495 178.984 497.677 196.2C467.859 213.415 457.642 251.543 474.858 281.362C492.073 311.18 530.202 321.396 560.02 304.181ZM564.958 312.734C599.5 292.791 611.335 248.622 591.392 214.081C571.449 179.539 527.281 167.704 492.739 187.647C458.197 207.589 446.362 251.758 466.305 286.3C486.248 320.842 530.416 332.676 564.958 312.734Z" fill="#4633DC"/>
<path d="M590.16 233.801C599.236 267.674 579.135 302.491 545.262 311.567C511.389 320.643 476.572 300.541 467.496 266.669C458.42 232.796 478.522 197.979 512.394 188.903C546.267 179.827 581.084 199.928 590.16 233.801Z" fill="#FFC412"/>
<path fill-rule="evenodd" clip-rule="evenodd" d="M556.256 297.658C582.472 282.523 591.454 249 576.318 222.784C561.182 196.567 527.66 187.585 501.443 202.721C475.227 217.857 466.245 251.379 481.381 277.596C496.517 303.812 530.039 312.794 556.256 297.658ZM560.597 305.178C590.967 287.645 601.372 248.811 583.838 218.442C566.304 188.073 527.471 177.667 497.102 195.201C466.733 212.735 456.327 251.568 473.861 281.937C491.395 312.307 530.228 322.712 560.597 305.178Z" fill="#FFE8A1"/>
<path fill-rule="evenodd" clip-rule="evenodd" d="M515.363 226.896L521.025 225.379L519.496 219.672L530.82 216.638L532.349 222.345L537.525 220.958L548.929 227.602L552.49 240.889L550.068 245.121L554.281 247.576L557.842 260.863L551.288 272.319L546.111 273.706L547.64 279.413L536.316 282.447L534.787 276.74L529.125 278.257L530.654 283.964L519.33 286.998L517.801 281.292L512.139 282.809L509.081 271.395L514.743 269.878L507.097 241.344L501.435 242.861L498.377 231.448L504.039 229.93L502.51 224.224L513.834 221.189L515.363 226.896ZM526.067 266.844L543.539 262.162L545.251 259.17L544.224 255.337L541.245 253.602L523.773 258.284L526.067 266.844ZM520.715 246.87L518.421 238.31L535.893 233.628L538.872 235.364L539.899 239.196L538.187 242.188L520.715 246.87Z" fill="#FFE8A2"/>
</svg>
