<svg width="653" height="540" viewBox="0 0 653 540" fill="none" xmlns="http://www.w3.org/2000/svg">
<path d="M536.83 479.546C536.373 472.984 536.373 472.984 528.793 471.373C529.024 472.836 529.243 474.225 529.561 476.239C520.433 470.687 511.972 465.315 505.677 457.949C503.315 455.185 500.732 453.031 496.673 451.838C476.47 445.903 462.286 434.15 453.454 418.251C448.508 409.349 445.358 399.835 441.433 390.588C440.659 388.764 440.038 386.903 439.499 385.465C435.86 383.428 433.203 384.553 432.057 386.453C429.269 391.08 425.788 395.354 427.954 401.631C429.894 407.253 426.026 412.005 421.372 416.341C420.168 415.589 419.074 414.905 417.422 413.873C413.893 419.014 410.318 424.079 406.927 429.234C405.63 431.205 403.828 432.136 401.387 433.228C395.873 435.695 391.184 439.336 386.159 442.5L386.229 442.643C384.618 439.308 381.605 439.524 378.514 440.296C377.984 440.428 377.405 441.286 377.489 441.767C377.571 442.245 378.39 442.767 379.012 443.091C379.666 443.43 380.469 443.556 381.207 443.775L381.055 443.621C381.881 444.67 382.707 445.719 384.071 447.452C379.794 446.944 376.413 446.228 373.09 446.235C369.647 446.242 366.288 447.165 362.841 447.289C359.789 447.398 356.619 447.234 353.582 446.717C337.856 444.044 322.154 441.232 306.449 438.439C302.278 437.697 297.976 437.225 294.009 435.944C290.419 434.785 287.203 432.691 283.932 431.064C280.18 432.628 276.586 434.127 272.991 435.626L273.147 435.531C260.828 435.679 248.443 435.154 236.196 436.067C234.684 436.18 232.969 436.326 231.597 435.865C225.179 433.706 221.313 436.829 217.428 439.772C212.444 443.548 207.522 447.389 202.781 451.372C196.071 457.009 187.651 459.703 178.055 459.467C172.939 459.341 169.018 460.214 165.778 463.148C160.304 468.106 153.249 468.778 145.655 466.667C138.564 464.697 131.647 462.179 124.724 459.745C122.948 459.121 121.234 458.076 119.837 456.932C114.142 452.268 107.954 447.878 103.112 442.667C95.1308 434.077 85.0591 427.69 74.7519 421.409C69.3174 418.097 63.1152 415.308 62.5071 408.853C59.251 406.505 55.9946 404.157 52.4869 401.627C50.7415 396.438 48.8571 390.854 46.9894 385.266C46.6743 384.323 45.9025 383.179 46.2351 382.447C49.1106 376.121 45.6283 369.704 45.3681 363.347C45.155 358.146 43.331 353.218 41.4915 348.161C38.1193 338.89 35.4076 329.438 33.2905 319.972C26.535 289.772 30.1683 260.218 35.3423 230.813C35.8918 227.689 37.1504 224.665 38.3625 221.687C39.6275 218.579 41.9199 215.915 46.0107 215.332C52.4478 214.414 54.2705 210.808 55.2836 206.047C58.1488 192.583 61.362 179.189 64.4379 165.766C64.653 164.829 64.8927 163.897 65.0741 162.953C66.2642 156.769 70.5207 154.896 78.8006 158.107C82.2128 159.43 84.9865 162.03 88.9037 164.611C89.8838 162.53 91.0794 160.979 91.3385 159.281C93.062 147.982 98.5315 138.024 104.964 128.386C110.27 120.434 115.234 112.358 118.298 103.462C119.224 100.772 120.686 98.0214 122.794 95.9322C125.798 92.9554 127.756 90.031 127.97 85.8461C128.081 83.6681 130.623 81.4714 132.643 79.751C135.511 77.3095 139.212 75.538 142.022 73.0585C149.408 66.5406 159.295 64.4873 169.582 63.0738C171.433 62.8196 173.56 62.6845 175.33 63.179C183.133 65.3611 191.324 66.9977 197.251 72.5148C200.138 75.2019 203.166 75.6141 206.554 73.8438C211.835 71.0846 217.646 70.1533 224.107 70.5501C230.148 70.9212 234.669 73.0624 237.592 77.485C241 82.6427 244.146 87.9102 247.574 93.3996C250.079 92.4596 252.921 91.3936 256.803 89.9371C256.487 91.8316 256.521 92.7405 256.168 93.509C255.488 94.987 252.03 96.3897 255.711 97.9597C258.267 99.0494 259.847 97.0137 260.929 95.3367C262.71 92.5768 264.404 89.7715 266.024 86.9374C268.787 82.1059 271.746 77.5759 276.964 74.0672C280.33 71.8036 282.471 68.1767 284.666 64.9137C288.286 59.5329 293.342 56.4665 301.272 56.9998C302.792 57.1021 304.321 56.7216 305.844 56.566C305.843 56.8342 305.794 57.1065 305.862 57.3635C305.915 57.5615 306.114 57.7402 306.248 57.9275C306.057 57.5027 305.866 57.078 305.674 56.6528C306.979 55.0155 308.547 53.7508 311.278 54.1744C318.499 55.2953 325.72 56.4221 333.865 57.6903C335.204 55.9589 336.796 53.502 338.854 51.3631C340.683 49.462 342.788 47.6139 345.244 46.3315C346.542 45.6541 349.248 45.6501 350.626 46.3503C355.751 48.9552 360.455 51.9684 361.749 57.3807C362.813 61.8282 364.369 66.2197 365.849 71.107C372.483 72.8999 379.001 75.156 383.089 80.6014C383.812 81.5654 385.62 82.125 387.039 82.6125C393.535 84.8447 393.549 84.8118 397.567 89.7705C401.129 89.7982 404.869 89.8272 409.871 89.8661C409.059 91.9185 408.504 93.2327 408.017 94.5671C406.92 97.5706 407.84 100.674 410.476 102.671C414.256 105.537 415.144 108.546 414.514 112.277C414.123 114.595 415.668 116.091 417.597 118.034C419.859 120.314 420.029 123.987 421.236 127.423C424.234 127.543 426.858 127.647 429.854 127.767C431.427 125.199 432.929 122.747 434.7 119.856C437.08 120.417 439.53 120.543 441.334 121.532C443.701 122.829 445.505 123.304 448.253 120.912C448.335 125.253 448.501 128.913 448.445 132.558C448.391 136.011 449.328 138.818 453.563 140.692C457.249 142.323 457.768 145.166 457.27 148.299C456.871 150.809 456.784 153.403 456.969 155.961C457.045 157.007 458.2 158.058 459.391 159.937C461.247 158.218 462.619 157.254 463.534 156.037C465.587 153.31 468.488 152.359 472.353 153.052C477.86 154.039 482.459 153.604 484.747 148.473C484.765 150.35 484.833 152.229 484.792 154.102C484.718 157.423 485.65 160.343 488.47 163.133C492.324 166.945 495.652 171.046 495.214 176.366C495.098 177.775 496.208 179.504 497.261 180.823C501.427 186.038 505.673 191.219 510.131 196.272C512.915 199.428 513.371 202.886 513.854 206.441C514.367 210.209 516.32 212.647 520.985 214.667C526.829 217.197 531.83 221.159 537.661 224.04C542.619 226.49 544.624 231.306 545.995 235.738C547.372 240.194 550.06 243.456 555.46 245.299C554.609 248.241 553.331 250.847 553.217 253.548C553.098 256.383 554.051 259.314 554.611 262.198C556.419 271.501 558.246 280.803 560.098 290.103C560.744 293.341 561.029 296.731 566.684 296.997C567.645 297.042 569.256 298.764 569.481 299.815C570.369 303.963 571.506 308.226 571.193 312.302C570.996 314.863 568.383 317.169 566.534 320.096C567.713 322.081 568.901 324.494 570.513 326.71C574.122 331.672 575.507 337.062 576.45 342.545C577.013 345.816 576.012 346.185 570.778 344.87C570.866 343.641 571.183 342.399 570.976 341.192C570.748 339.861 571.01 338.062 567.546 337.636C568.797 340.278 569.867 342.536 570.937 344.796C569.692 350.271 570.956 355.717 573.047 361.011C578.448 374.689 584.384 388.249 589.614 401.962C592.339 409.111 594.165 416.463 596.139 423.758C597.906 430.29 596.841 436.526 594.181 442.584C593.033 445.2 592.61 448.061 591.694 450.765C591.21 452.193 590.821 453.954 589.604 454.807C587.063 456.588 586.278 458.633 586.213 461.406C586.137 464.673 584.809 468.055 580.4 468.474C575.312 468.956 577.615 472.114 576.655 474.881C574.608 474.301 572.514 473.216 570.599 473.315C568.955 473.4 567.664 475.305 565.96 475.59C560.782 476.456 555.472 476.902 550.226 477.561C545.711 478.127 541.214 478.761 536.709 479.365L536.83 479.546ZM149.788 459.952C152.693 461.674 155.071 464.623 158.799 462.913C159.273 462.697 159.284 461.836 159.79 460.572C156.283 460.355 153.036 460.154 149.788 459.952ZM137.24 460.499C136.578 460.308 135.92 460.1 135.247 459.959C135.191 459.948 135.03 460.398 134.917 460.633C135.572 460.822 136.222 461.031 136.889 461.166C136.954 461.179 137.12 460.734 137.24 460.499ZM511.589 458.695C511.737 458.464 512.072 458.175 511.99 458.016C511.873 457.792 511.448 457.664 511.155 457.496C511.006 457.728 510.672 458.018 510.754 458.18C510.866 458.402 511.296 458.528 511.589 458.695ZM564.332 306.935C564.225 307.316 564.117 307.697 564.009 308.079C564.244 307.937 564.625 307.828 564.675 307.643C564.728 307.446 564.466 307.175 564.332 306.935Z" fill="#6C59FF"/>
<path d="M62.66 301.59C62.5993 301.637 62.538 301.687 62.465 301.737C62.3765 301.808 62.2758 301.888 62.1758 301.967C62.2769 301.889 62.3786 301.809 62.4688 301.741C62.5383 301.689 62.5991 301.638 62.66 301.59Z" fill="#B7830F"/>
<path d="M53.7191 311.066C53.8 310.944 53.881 310.792 53.9519 310.681C53.9822 310.62 54.0126 310.57 54.0429 310.529C54.0227 310.55 54.0025 310.58 53.9923 310.6C53.9114 310.722 53.8405 310.873 53.7596 310.985C53.6483 311.147 53.5673 311.258 53.4863 311.41C53.4459 311.471 53.4155 311.541 53.375 311.612C53.4053 311.572 53.4256 311.531 53.456 311.491C53.5268 311.339 53.6483 311.217 53.7191 311.066Z" fill="#B7830F"/>
<path d="M56.5249 307.201C56.4743 307.252 56.4338 307.302 56.3933 307.353C56.3427 307.414 56.3022 307.474 56.2617 307.535C56.2921 307.505 56.3224 307.464 56.3528 307.434C56.4136 307.353 56.4743 307.272 56.5249 307.201Z" fill="#B7830F"/>
<path d="M55.6934 308.244C55.8148 308.092 55.9262 307.971 56.0476 307.819C56.0982 307.758 56.1387 307.697 56.1792 307.637C56.1488 307.667 56.1184 307.708 56.0881 307.738C56.0577 307.778 56.0274 307.809 55.997 307.849C55.9059 307.971 55.8249 308.082 55.7339 308.163C55.663 308.244 55.5922 308.335 55.5213 308.416C55.5042 308.445 55.488 308.466 55.4699 308.49C55.4877 308.466 55.5037 308.443 55.5221 308.418C55.5027 308.445 55.4856 308.469 55.467 308.494C55.4543 308.511 55.4384 308.531 55.4302 308.548C55.3999 308.588 55.3796 308.629 55.3594 308.659L55.3898 308.629C55.5011 308.517 55.5821 308.355 55.6934 308.244Z" fill="#B7830F"/>
<path d="M54.8047 309.436C54.8249 309.416 54.8351 309.385 54.8452 309.365C54.7338 309.517 54.6124 309.628 54.5415 309.79C54.4909 309.871 54.41 309.962 54.3594 310.053C54.41 309.993 54.4606 309.922 54.5011 309.861C54.6124 309.709 54.6934 309.598 54.8047 309.436Z" fill="#B7830F"/>
<path d="M53.0229 312.23C52.9723 312.311 52.9217 312.413 52.8711 312.504C52.9116 312.433 52.9521 312.362 52.9925 312.301C53.0027 312.281 53.0128 312.251 53.0229 312.23Z" fill="#B7830F"/>
<path d="M57.4041 306.231C57.5154 306.12 57.6268 305.998 57.7483 305.887C57.8596 305.766 58.0215 305.614 58.1328 305.492C58.2543 305.381 58.3656 305.26 58.487 305.148C58.6389 305.027 58.7502 304.875 58.9121 304.764C59.0639 304.642 59.1752 304.531 59.2967 304.41C59.4485 304.299 59.6003 304.147 59.7622 304.025C59.8735 303.914 60.0355 303.793 60.1468 303.681C60.2986 303.56 60.4605 303.408 60.6123 303.287C60.7237 303.175 60.8856 303.064 60.9969 302.943C61.1487 302.831 61.3511 302.67 61.5029 302.558C61.6547 302.437 61.7762 302.326 61.928 302.204C62.0798 302.093 62.2721 301.941 62.434 301.82C62.5858 301.749 62.6971 301.627 62.8591 301.516C63.0109 301.395 63.2031 301.243 63.3954 301.122C63.5473 301.01 63.6687 300.929 63.8205 300.818C64.0128 300.697 64.2051 300.545 64.4075 300.434C64.5593 300.312 64.6706 300.231 64.8326 300.12C65.0249 299.999 65.2172 299.847 65.4095 299.735C65.5208 299.614 65.6827 299.503 65.8345 299.422C66.1078 299.27 66.3405 299.118 66.5733 298.956C66.6846 298.886 66.8061 298.805 66.9174 298.724C67.302 298.491 67.6562 298.299 68.0408 298.066C69.8913 297.003 71.8314 296.021 73.845 295.13C72.8328 295.586 71.84 296.063 70.8679 296.56C69.9456 297.032 69.0382 297.518 68.1521 298.026C67.7675 298.258 67.3829 298.45 67.0388 298.683C66.9174 298.764 66.8061 298.845 66.6846 298.916C66.4114 299.078 66.1786 299.23 65.9458 299.381C65.8345 299.503 65.6827 299.574 65.5208 299.695C65.3285 299.806 65.1362 299.968 64.9439 300.079C64.886 300.126 64.8342 300.162 64.7819 300.199C64.6976 300.259 64.6146 300.318 64.519 300.39C64.4462 300.434 64.3734 300.485 64.3006 300.536C64.256 300.566 64.2115 300.594 64.1669 300.625C64.0908 300.678 64.0147 300.731 63.9386 300.777C63.8952 300.809 63.8583 300.835 63.8192 300.864C63.7186 300.935 63.6256 301.001 63.5169 301.081C63.3511 301.181 63.2159 301.297 63.068 301.404C63.0354 301.427 63.0058 301.453 62.9712 301.473C62.9328 301.493 62.9005 301.52 62.8657 301.543C62.7598 301.612 62.6597 301.695 62.5453 301.779C62.4973 301.818 62.4414 301.861 62.3875 301.904C62.27 301.995 62.1487 302.09 62.0425 302.169C61.9878 302.21 61.9406 302.251 61.8921 302.292C61.805 302.365 61.7191 302.439 61.6143 302.518C61.483 302.594 61.3724 302.689 61.2659 302.78C61.215 302.823 61.1635 302.867 61.1138 302.904C60.9977 303.021 60.843 303.137 60.7269 303.252C60.6844 303.284 60.6419 303.323 60.5994 303.359C60.4882 303.452 60.3761 303.552 60.2581 303.641C60.1468 303.752 59.995 303.874 59.8735 303.985C59.7662 304.071 59.6552 304.169 59.5442 304.264C59.4999 304.302 59.4556 304.341 59.4114 304.375C59.2583 304.489 59.1431 304.605 59.0283 304.719C59.0267 304.72 59.025 304.722 59.0234 304.723C58.8716 304.835 58.7502 304.997 58.5983 305.108C58.5807 305.127 58.5618 305.145 58.5437 305.164C58.4459 305.262 58.3482 305.36 58.2504 305.458C58.1975 305.511 58.1357 305.572 58.074 305.634C57.9998 305.707 57.9255 305.781 57.8596 305.846C57.7483 305.998 57.6268 306.12 57.5154 306.231C57.3699 306.338 57.2531 306.489 57.1454 306.6C57.1399 306.605 57.1338 306.613 57.1283 306.618C57.0814 306.712 57.0191 306.79 56.9525 306.864C56.9091 306.91 56.8649 306.956 56.8171 307C56.7634 307.078 56.7072 307.144 56.651 307.21C56.5908 307.28 56.5307 307.351 56.4705 307.43C56.3734 307.56 56.2997 307.661 56.2114 307.759C56.1936 307.779 56.1795 307.799 56.1593 307.819C56.1514 307.83 56.1428 307.839 56.1348 307.85C56.0275 307.988 55.92 308.1 55.8127 308.243C55.7442 308.312 55.6876 308.392 55.6301 308.471C55.5904 308.527 55.5513 308.583 55.5015 308.629C55.4771 308.681 55.4414 308.727 55.4076 308.775C55.3422 308.865 55.2701 308.953 55.1936 309.055C55.1529 309.116 55.1019 309.188 55.0511 309.259C55.0043 309.322 54.9583 309.385 54.9246 309.438C54.8032 309.6 54.7323 309.711 54.6109 309.863C54.54 309.985 54.4186 310.136 54.3377 310.258C54.2949 310.349 54.2362 310.429 54.1788 310.511C54.1408 310.565 54.1021 310.619 54.0714 310.68C54.0454 310.719 54.0195 310.765 53.9935 310.81C53.9612 310.862 53.9305 310.912 53.9 310.966C53.8798 311 53.8595 311.037 53.8392 311.067C53.7618 311.221 53.6458 311.338 53.5684 311.492C53.5154 311.572 53.4624 311.666 53.4094 311.757C53.3852 311.798 53.3613 311.841 53.3357 311.877C53.2548 312.038 53.1839 312.15 53.1029 312.302C53.0422 312.393 52.9862 312.498 52.9284 312.597C52.9096 312.629 52.8907 312.663 52.8718 312.692C52.8572 312.721 52.8425 312.745 52.8279 312.772C52.7914 312.839 52.7549 312.904 52.7183 312.969C52.6892 313.018 52.669 313.067 52.6406 313.115C52.6403 313.116 52.64 313.116 52.6397 313.117C52.6398 313.117 52.6396 313.117 52.6397 313.117C52.639 313.118 52.6382 313.12 52.6374 313.121C52.635 313.125 52.6334 313.13 52.6309 313.134C52.5668 313.238 52.5249 313.364 52.4634 313.47C52.4566 313.481 52.4525 313.494 52.4451 313.506C52.4057 313.653 52.3363 313.773 52.2582 313.919C52.2563 313.922 52.2546 313.925 52.2528 313.929C52.1754 314.046 52.1367 314.2 52.0594 314.316C52.0534 314.328 52.0501 314.337 52.0446 314.349C51.9911 314.454 51.95 314.551 51.9061 314.653C51.8927 314.682 51.8819 314.709 51.8658 314.741C51.8518 314.783 51.8304 314.833 51.81 314.881C51.7721 314.967 51.7322 315.053 51.7063 315.124C51.6928 315.197 51.6676 315.257 51.642 315.318C51.611 315.391 51.5804 315.465 51.559 315.547C51.5582 315.55 51.5569 315.552 51.5561 315.555C51.4788 315.709 51.4401 315.825 51.4015 315.98C51.3863 316.04 51.3633 316.093 51.341 316.146C51.3305 316.17 51.3235 316.198 51.3133 316.222C51.2884 316.281 51.2633 316.339 51.2467 316.405C51.21 316.552 51.1731 316.666 51.1363 316.81C51.1341 316.818 51.1317 316.825 51.1294 316.834C51.1014 316.939 51.0748 317.029 51.0501 317.126C51.0383 317.168 51.0264 317.209 51.0145 317.256C50.9874 317.365 50.9601 317.458 50.9329 317.555C50.9208 317.597 50.9087 317.636 50.8967 317.684C50.8801 317.746 50.8656 317.8 50.851 317.855C50.8282 317.936 50.8053 318.015 50.7824 318.107C50.7582 318.204 50.7341 318.288 50.7099 318.373C50.6946 318.425 50.6792 318.477 50.6639 318.534C50.6456 318.602 50.6296 318.664 50.6136 318.726C50.5925 318.8 50.5713 318.874 50.5502 318.958C50.5247 319.061 50.5133 319.149 50.4992 319.239C50.4916 319.286 50.4854 319.332 50.4716 319.384C50.4311 319.495 50.4311 319.657 50.3907 319.809C50.3803 319.861 50.3751 319.907 50.369 319.954C50.355 320.045 50.3435 320.133 50.318 320.235C50.3007 320.287 50.2841 320.349 50.2702 320.413C50.2522 320.492 50.2388 320.574 50.2388 320.659C50.2388 320.81 50.1984 320.932 50.1984 321.084C50.1984 321.152 50.1919 321.208 50.1856 321.265C50.1747 321.344 50.1632 321.422 50.1632 321.512C50.1245 321.666 50.1245 321.782 50.1245 321.937C50.0859 322.092 50.0859 322.207 50.0859 322.362C50.0859 322.518 50.0859 322.633 50.0859 322.788C50.0859 322.943 50.0859 323.059 50.0859 323.213C50.0859 323.548 50.1203 323.918 50.1231 324.255C50.124 324.265 50.1247 324.273 50.1257 324.282C50.1259 324.279 50.1263 324.276 50.1265 324.273C50.1265 324.282 50.1275 324.292 50.1275 324.301C50.1331 324.173 50.1486 324.044 50.1566 323.916C50.1788 323.561 50.2057 323.206 50.2464 322.852C50.2708 322.639 50.3045 322.426 50.3356 322.214C50.3775 321.927 50.4235 321.641 50.4774 321.355C50.5191 321.134 50.5639 320.913 50.6128 320.693C50.6763 320.406 50.7489 320.12 50.8246 319.835C50.8802 319.625 50.9322 319.414 50.9945 319.205C51.1083 318.821 51.2368 318.439 51.3726 318.058C51.4687 317.788 51.574 317.52 51.6811 317.251C51.7952 316.965 51.9099 316.678 52.0365 316.393C52.1475 316.144 52.2682 315.895 52.3889 315.647C52.4945 315.429 52.6028 315.211 52.7158 314.994C52.8609 314.716 53.0098 314.439 53.1671 314.163C53.235 314.043 53.3081 313.924 53.3782 313.805C53.6595 313.325 53.9617 312.847 54.2799 312.373C54.3893 312.21 54.4989 312.048 54.6127 311.886C54.912 311.458 55.231 311.035 55.5604 310.613C55.6907 310.447 55.815 310.279 55.95 310.113C56.3585 309.612 56.7904 309.115 57.242 308.622C57.3039 308.555 57.3589 308.486 57.4215 308.418C57.9334 307.869 58.4772 307.327 59.0429 306.79C59.2214 306.621 59.4133 306.455 59.5971 306.287C60.0032 305.916 60.4172 305.547 60.8494 305.183C61.0759 304.992 61.3103 304.804 61.544 304.615C61.9713 304.27 62.4099 303.928 62.8611 303.59C63.0976 303.413 63.3346 303.236 63.5778 303.06C64.0918 302.69 64.6235 302.325 65.1668 301.964C65.3625 301.834 65.5517 301.702 65.7512 301.573C66.5153 301.08 67.302 300.594 68.1217 300.12C74.7994 296.262 82.6416 293.484 90.9929 291.781C91.0498 291.77 91.1056 291.756 91.1626 291.744C93.8482 291.202 96.586 290.771 99.3542 290.451C118.731 288.213 139.605 291.427 154.548 300.09C154.565 300.1 154.583 300.109 154.6 300.12C154.988 300.345 155.353 300.577 155.728 300.807C156.032 300.993 156.347 301.176 156.642 301.365C166.537 307.698 171.757 315.619 172.29 323.628C172.291 323.631 172.291 323.634 172.291 323.637C172.299 323.752 172.316 323.868 172.322 323.983V322.207C172.322 322.176 172.312 322.146 172.312 322.116C172.292 322.004 172.282 321.903 172.282 321.792C172.282 321.792 172.282 321.792 172.282 321.782C172.241 321.63 172.241 321.509 172.241 321.357C172.241 321.278 172.233 321.208 172.225 321.137C172.216 321.071 172.207 321.006 172.207 320.931C172.207 320.776 172.168 320.621 172.168 320.506C172.15 320.432 172.141 320.367 172.131 320.303C172.121 320.232 172.11 320.161 172.089 320.082C172.049 319.93 172.049 319.809 172.008 319.657C171.998 319.602 171.993 319.557 171.987 319.51C171.973 319.419 171.961 319.331 171.936 319.229C171.921 319.169 171.914 319.118 171.906 319.066C171.893 318.982 171.881 318.901 171.857 318.807C171.857 318.701 171.839 318.615 171.818 318.527C171.806 318.479 171.794 318.432 171.781 318.378C171.781 318.223 171.742 318.069 171.704 317.952C171.691 317.902 171.679 317.859 171.666 317.814C171.638 317.722 171.611 317.632 171.583 317.522C171.575 317.478 171.564 317.441 171.553 317.401C171.526 317.304 171.498 317.211 171.471 317.101C171.459 317.053 171.447 317.012 171.435 316.969C171.425 316.932 171.414 316.891 171.404 316.855C171.388 316.797 171.372 316.741 171.356 316.675C171.338 316.606 171.321 316.537 171.303 316.471C171.294 316.437 171.284 316.403 171.274 316.371C171.263 316.329 171.251 316.285 171.239 316.25C171.2 316.095 171.123 315.98 171.085 315.824C171.071 315.768 171.049 315.713 171.028 315.658C170.99 315.565 170.951 315.474 170.925 315.397C170.919 315.365 170.906 315.338 170.897 315.308C170.862 315.2 170.816 315.102 170.784 314.983C170.774 314.983 170.774 314.982 170.774 314.973C170.774 314.974 170.774 314.973 170.774 314.973C170.766 314.952 170.754 314.923 170.744 314.898C170.704 314.796 170.655 314.678 170.622 314.588C170.607 314.56 170.597 314.536 170.585 314.509C170.547 314.43 170.511 314.351 170.477 314.273C170.462 314.237 170.448 314.202 170.43 314.163C170.349 314.001 170.308 313.85 170.237 313.738C170.197 313.576 170.116 313.465 170.045 313.313C169.964 313.192 169.924 313.04 169.843 312.919C169.772 312.767 169.691 312.656 169.61 312.494C169.539 312.382 169.458 312.231 169.377 312.109C169.306 311.958 169.225 311.836 169.144 311.684C169.073 311.573 168.992 311.411 168.922 311.3C168.8 311.148 168.719 311.027 168.648 310.875C168.567 310.754 168.497 310.602 168.416 310.49C168.335 310.329 168.223 310.217 168.142 310.066C168.061 309.944 167.95 309.792 167.869 309.671C167.825 309.609 167.788 309.556 167.745 309.503C167.739 309.495 167.734 309.486 167.727 309.479C167.706 309.449 167.681 309.414 167.659 309.381C167.629 309.336 167.601 309.293 167.565 309.246C167.53 309.197 167.487 309.138 167.445 309.08C167.402 309.02 167.362 308.962 167.323 308.905C167.313 308.891 167.301 308.875 167.292 308.862C167.287 308.851 167.278 308.84 167.272 308.83C167.193 308.688 167.091 308.54 166.978 308.437C166.927 308.38 166.882 308.317 166.837 308.254C166.818 308.228 166.796 308.204 166.777 308.179C166.744 308.135 166.712 308.089 166.675 308.052C166.553 307.931 166.442 307.779 166.321 307.668C166.241 307.58 166.173 307.48 166.102 307.384C166.074 307.346 166.048 307.307 166.017 307.273C165.961 307.221 165.906 307.158 165.852 307.094C165.79 307.021 165.728 306.948 165.663 306.889C165.592 306.737 165.471 306.615 165.359 306.504C165.238 306.383 165.126 306.231 165.005 306.12C164.919 305.994 164.827 305.9 164.738 305.807C164.712 305.78 164.686 305.752 164.661 305.725C164.55 305.614 164.388 305.452 164.276 305.341C164.24 305.307 164.204 305.271 164.169 305.236C164.087 305.156 164.007 305.074 163.922 304.997C163.796 304.896 163.678 304.777 163.569 304.669C163.547 304.647 163.518 304.623 163.497 304.602L163.153 304.258C163.067 304.172 162.965 304.075 162.86 303.984C162.816 303.947 162.773 303.906 162.728 303.874C162.667 303.813 162.598 303.754 162.531 303.696C162.464 303.638 162.399 303.58 162.343 303.519C162.278 303.474 162.215 303.421 162.152 303.367C162.115 303.336 162.078 303.307 162.042 303.276C161.987 303.228 161.932 303.179 161.878 303.135C161.756 303.054 161.605 302.943 161.493 302.831C161.492 302.831 161.491 302.83 161.49 302.829C161.488 302.828 161.487 302.826 161.484 302.824C161.326 302.704 161.177 302.556 161.028 302.437C160.866 302.326 160.754 302.204 160.603 302.093C160.504 302.019 160.397 301.936 160.292 301.856C160.224 301.804 160.156 301.752 160.097 301.708C160.083 301.701 160.071 301.688 160.058 301.68C159.925 301.602 159.81 301.505 159.671 301.395C159.6 301.353 159.535 301.302 159.468 301.252C159.356 301.167 159.246 301.08 159.125 301.01C159.072 300.968 159.027 300.936 158.981 300.902C158.892 300.837 158.806 300.776 158.7 300.697C158.658 300.672 158.616 300.642 158.574 300.614C158.455 300.536 158.335 300.455 158.216 300.375C158.185 300.354 158.154 300.332 158.123 300.312C158.069 300.272 158.02 300.238 157.971 300.203C157.946 300.185 157.919 300.165 157.894 300.146C157.831 300.101 157.768 300.054 157.698 299.999C157.506 299.847 157.273 299.735 157.081 299.574C157.062 299.556 157.04 299.549 157.02 299.533C156.91 299.446 156.789 299.37 156.686 299.311C156.453 299.149 156.19 298.997 155.957 298.845C155.927 298.83 155.889 298.805 155.851 298.782C155.835 298.772 155.821 298.764 155.804 298.753C155.754 298.721 155.7 298.686 155.644 298.653C155.299 298.42 154.915 298.228 154.561 297.995C153.822 297.56 153.073 297.145 152.314 296.751C152.285 296.736 152.256 296.722 152.228 296.707C151.04 296.087 149.825 295.503 148.59 294.95C148.509 294.919 148.438 294.889 148.367 294.849C147.272 294.37 146.143 293.924 145.004 293.488C144.796 293.409 144.599 293.318 144.39 293.24C144.39 293.24 144.39 293.24 144.379 293.24C144.277 293.202 144.173 293.167 144.071 293.129C143.545 292.937 143.021 292.748 142.487 292.562C142.119 292.437 141.74 292.324 141.368 292.202C140.991 292.079 140.613 291.955 140.232 291.837C139.277 291.541 138.311 291.262 137.335 290.998C137.15 290.948 136.968 290.891 136.782 290.842C136.733 290.83 136.686 290.814 136.637 290.802C136.637 290.802 136.627 290.791 136.617 290.791C128.632 288.687 120.009 287.635 111.377 287.635C110.395 287.635 109.423 287.645 108.442 287.675C106.61 287.726 104.778 287.827 102.956 287.969C99.7684 288.222 96.6108 288.626 93.5038 289.163C90.2821 289.73 87.1315 290.465 84.0748 291.346C84.1951 291.312 84.3179 291.281 84.4386 291.247C84.3058 291.284 84.1706 291.318 84.0381 291.357C78.2838 293.018 72.88 295.224 68.0812 297.995C67.6966 298.228 67.302 298.42 66.9579 298.653C66.8364 298.724 66.7251 298.805 66.6037 298.886C66.3742 299.018 66.1717 299.15 65.9682 299.283C65.937 299.303 65.9046 299.324 65.8735 299.345C65.8239 299.395 65.7646 299.436 65.7039 299.477C65.6224 299.535 65.5372 299.591 65.4499 299.654C65.3514 299.711 65.2527 299.782 65.1528 299.852C65.0577 299.918 64.9626 299.985 64.8675 300.041C64.8515 300.053 64.8378 300.063 64.8235 300.073C64.8105 300.084 64.7976 300.094 64.782 300.11C64.701 300.17 64.6099 300.231 64.529 300.292C64.5042 300.308 64.4825 300.322 64.4547 300.341C64.4502 300.345 64.4465 300.347 64.4418 300.351C64.2484 300.467 64.0548 300.622 63.8614 300.738C63.8219 300.768 63.7885 300.791 63.7528 300.817C63.6483 300.893 63.5491 300.96 63.436 301.051C63.3499 301.1 63.2728 301.16 63.1949 301.219C63.098 301.294 63.0015 301.37 62.894 301.434C62.839 301.462 62.7914 301.498 62.7426 301.534C62.7172 301.553 62.6887 301.569 62.6632 301.589C62.6012 301.638 62.5392 301.69 62.4684 301.743C62.3765 301.812 62.2726 301.893 62.1696 301.973C62.1001 302.028 62.0301 302.084 61.9685 302.133C61.8878 302.189 61.8097 302.247 61.7378 302.305C61.7339 302.308 61.731 302.311 61.7271 302.314C61.6592 302.369 61.5962 302.425 61.5434 302.477C61.4615 302.526 61.392 302.582 61.3233 302.636C61.2234 302.716 61.1285 302.797 61.0366 302.866C61.1232 302.801 61.2117 302.725 61.3051 302.649C61.2108 302.725 61.1226 302.799 61.0374 302.862C61.007 302.892 60.9767 302.923 60.9463 302.943C60.8856 303.003 60.8147 303.064 60.754 303.125C60.7135 303.155 60.6832 303.186 60.6528 303.216C60.4909 303.327 60.3391 303.489 60.1873 303.6C60.0355 303.712 59.914 303.833 59.8027 303.944C59.6408 304.066 59.4889 304.218 59.3372 304.339C59.1752 304.45 59.0639 304.572 58.9425 304.683C58.7906 304.804 58.6793 304.916 58.5174 305.067C58.406 305.189 58.2846 305.3 58.1733 305.422C58.062 305.533 57.9 305.685 57.7887 305.806C57.6673 305.917 57.556 306.039 57.4345 306.15C57.2827 306.271 57.1714 306.423 57.0499 306.545C57.0398 306.565 57.0195 306.595 57.0094 306.615C57.1309 306.504 57.2827 306.342 57.4041 306.231Z" fill="#B7830F"/>
<path d="M56.7461 306.93C56.6651 307.031 56.5943 307.112 56.5234 307.203C56.5842 307.132 56.6449 307.061 56.7056 307.001C56.7157 306.98 56.736 306.95 56.7461 306.93Z" fill="#B7830F"/>
<path d="M53.2568 311.804C53.2467 311.835 53.2366 311.855 53.2266 311.875C53.2669 311.815 53.2971 311.754 53.3373 311.684C53.3072 311.724 53.287 311.764 53.2568 311.804Z" fill="#B7830F"/>
<path d="M65.1466 299.855C65.0536 299.921 64.9596 299.986 64.8631 300.039C64.8486 300.053 64.8364 300.063 64.8242 300.073C64.8383 300.063 64.8518 300.053 64.8675 300.041C64.9605 299.986 65.0536 299.921 65.1466 299.855Z" fill="#B7830F"/>
<path d="M54.3575 310.055C54.3172 310.105 54.287 310.145 54.2669 310.176C54.2568 310.206 54.2366 310.226 54.2266 310.256C54.2669 310.196 54.3172 310.125 54.3575 310.055Z" fill="#B7830F"/>
<path d="M64.4439 300.35C64.448 300.347 64.4512 300.345 64.4551 300.342C64.4494 300.346 64.4468 300.347 64.4402 300.352C64.2479 300.463 64.0556 300.625 63.8633 300.736C63.8284 300.764 63.7981 300.785 63.7656 300.808C63.7981 300.785 63.8279 300.764 63.8635 300.737C64.0569 300.621 64.2505 300.467 64.4439 300.35Z" fill="#B7830F"/>
<path d="M63.1866 301.225C63.0933 301.296 62.9988 301.369 62.8905 301.434C62.8408 301.46 62.7981 301.494 62.7539 301.526C62.7995 301.493 62.8437 301.459 62.8949 301.433C62.9991 301.37 63.0928 301.297 63.1866 301.225Z" fill="#B7830F"/>
<path d="M68.9206 314.413C69.0152 314.657 69.1341 314.9 69.2548 315.142C69.5195 315.675 69.8229 316.203 70.2084 316.712C70.2295 316.74 70.257 316.766 70.2785 316.794C70.3429 316.665 70.4053 316.542 70.4687 316.417C73.2683 313.1 78.358 311.237 82.2047 310.369C88.8603 308.861 96.0189 309.403 102.326 312.11C104.377 313 106.389 314.121 107.937 315.707C108.206 316.015 108.474 316.285 108.705 316.629C109.349 315.789 109.824 314.916 110.127 314.027C110.733 312.249 110.658 310.409 109.896 308.652C109.475 307.681 108.832 306.738 107.991 305.841C107.056 304.844 105.873 303.905 104.416 303.064C101.343 301.28 97.5497 300.164 93.5739 299.716C89.8796 299.299 86.0345 299.473 82.4564 300.209C79.5989 300.798 76.9095 301.74 74.621 303.064C74.5739 303.09 74.5314 303.118 74.4851 303.144C74.043 303.394 73.6284 303.658 73.2344 303.924C70.1173 306.079 68.4879 308.73 68.3867 311.411V311.724C68.3867 312.574 68.5486 313.424 68.8522 314.264C68.8705 314.314 68.9012 314.363 68.9206 314.413Z" fill="#B7830F"/>
<path d="M65.9662 299.285C65.9376 299.304 65.9053 299.322 65.8768 299.341C65.8279 299.39 65.7716 299.43 65.7148 299.47C65.7719 299.431 65.8283 299.392 65.8751 299.345C65.905 299.325 65.9362 299.305 65.9662 299.285Z" fill="#B7830F"/>
<path d="M514.962 438.473C514.955 438.477 514.948 438.482 514.943 438.487L514.941 438.488L514.942 438.489C514.958 438.48 514.971 438.468 514.986 438.459C514.978 438.464 514.97 438.468 514.962 438.473Z" fill="#98D517"/>
<path d="M165.46 117.785C165.379 117.819 165.312 117.85 165.257 117.878L165.066 117.988C165.083 117.979 165.101 117.971 165.117 117.962C165.228 117.898 165.344 117.842 165.46 117.785Z" fill="#ED56F0"/>
<path d="M171.927 115.649L189.653 125.226L248.538 159.618L249.365 162.246L254.379 159.343L254.87 159.058L180.854 116.413C175.958 113.558 172.625 113.626 170.464 114.869L165.258 117.879L167.491 116.588L171.927 115.649Z" fill="#ED56F0"/>
<path d="M233.306 212.344L233.4 184.75C233.4 184.343 233.41 181.848 233.993 178.803L228.789 175.783L160.674 136.477V136.26L160.543 170.367L232.772 212.036L233.306 212.344Z" fill="#ED56F0"/>
<path d="M233.203 243.2L233.199 243.197L233.257 227.092L233.307 212.344L232.772 212.035L160.543 170.365L160.412 221.134C160.346 227.767 162.579 233.022 165.273 237.028C169.543 243.398 174.799 246.419 175.128 246.617L233.167 280.126L233.269 243.266L233.203 243.2Z" fill="#F580F7"/>
<path d="M228.79 175.781L233.998 178.787C234.378 176.808 235.007 174.603 236.024 172.584C236.04 172.554 236.053 172.523 236.069 172.493C236.213 172.21 236.37 171.934 236.53 171.66C236.568 171.596 236.602 171.532 236.64 171.469C236.79 171.222 236.951 170.983 237.115 170.746C237.173 170.662 237.228 170.576 237.288 170.494C237.444 170.278 237.611 170.071 237.78 169.866C237.859 169.77 237.935 169.673 238.017 169.58C238.18 169.393 238.354 169.215 238.53 169.038C238.63 168.938 238.728 168.837 238.831 168.74C239.004 168.58 239.185 168.429 239.368 168.28C239.49 168.181 239.61 168.082 239.737 167.988C239.918 167.854 240.108 167.729 240.3 167.606C240.444 167.513 240.588 167.422 240.738 167.337C240.929 167.228 241.127 167.128 241.328 167.031C241.496 166.95 241.666 166.871 241.841 166.798C242.041 166.715 242.247 166.64 242.457 166.569C242.651 166.503 242.848 166.442 243.05 166.387C243.259 166.33 243.473 166.28 243.691 166.234C243.796 166.213 243.892 166.18 243.999 166.161C243.863 166.184 243.728 166.207 243.596 166.234C243.362 166.281 243.126 166.327 242.903 166.387C242.663 166.453 242.435 166.533 242.208 166.613C242.031 166.675 241.849 166.729 241.68 166.798C241.29 166.961 240.915 167.14 240.562 167.344L240.58 167.334C240.573 167.338 240.565 167.341 240.558 167.345L249.196 162.339C249.037 162.247 185.969 125.831 177.141 120.705C170.029 116.576 166.551 117.332 165.461 117.785C165.345 117.842 165.228 117.898 165.118 117.962C165.102 117.971 165.084 117.979 165.067 117.988C160.794 120.424 160.676 127.656 160.676 128.003V136.259V136.476L228.79 175.781Z" fill="#F580F7"/>
<path d="M244.37 166.117C244.427 166.109 244.48 166.095 244.538 166.088C244.442 166.099 244.341 166.105 244.246 166.118C244.175 166.128 244.109 166.144 244.039 166.155C244.145 166.137 244.262 166.133 244.37 166.117Z" fill="#F580F7"/>
<path d="M245.092 166.033C245.071 166.035 245.049 166.035 245.028 166.036C245.001 166.038 244.976 166.042 244.949 166.044C244.976 166.042 245.005 166.042 245.031 166.04C245.052 166.038 245.071 166.035 245.092 166.033Z" fill="#F580F7"/>
<path d="M445.598 402.944L445.6 402.945L437.322 407.722L437.301 407.735L437.26 407.77V407.763L437.255 407.766V398.133L437.302 398.955L437.3 398.159L437.287 398.151L437.26 398.138V378.267L437.149 330.056L437.147 330.055L437.255 378.269L437.12 318.089L437.068 296.193L437.044 284.46L437.014 270.673L436.992 264.356L436.997 264.358V263.263L436.992 261.262L453.614 251.673V251.675L453.665 273.981L486.749 293.081L486.921 243.328C486.982 214.169 462.875 200.247 461.63 199.529L418.72 174.772L418.663 209.311L418.532 209.377V209.442C418.532 212.895 417.156 216.006 414.931 218.283C412.669 220.6 409.529 222.055 406.048 222.121H405.917C402.339 222.121 399.115 220.621 396.81 218.224C395.646 217.015 394.724 215.576 394.108 213.983C393.568 212.589 393.252 211.084 393.236 209.505L393.317 160.121L334.578 126.227C325.834 121.178 320.116 121.178 316.31 123.343L311.776 125.964L254.869 159.058L254.379 159.342L249.365 162.245L249.365 162.246L249.201 162.341C249.201 162.341 249.197 162.339 249.197 162.339L240.559 167.345C240.565 167.341 240.573 167.338 240.58 167.334C240.928 167.135 241.296 166.957 241.681 166.798C241.85 166.728 242.032 166.674 242.208 166.613C242.436 166.533 242.663 166.452 242.903 166.387C243.127 166.326 243.362 166.281 243.597 166.234C243.811 166.19 244.025 166.148 244.249 166.116C244.344 166.103 244.445 166.097 244.541 166.086C244.677 166.07 244.813 166.055 244.952 166.044C244.979 166.042 245.004 166.038 245.031 166.036C245.152 166.027 245.263 166.005 245.386 165.999C245.649 165.989 245.912 165.979 246.186 165.979H246.479C246.621 165.989 246.762 165.989 246.904 165.999C250.092 166.181 254.029 167.426 258.897 170.238L385.878 243.53C387.133 244.249 411.24 258.181 411.18 287.34L410.977 344.737L411.048 344.808L411.038 345.728L411.048 345.718L410.856 412.879L410.846 417.705C410.846 418.626 410.795 430.251 404.156 434.733L452.259 406.788L445.599 402.943L445.598 402.944ZM328.662 169.621C327.827 170.423 326.835 171.186 325.641 171.877C324.304 172.65 322.819 173.281 321.249 173.794C314.811 175.899 306.826 175.816 300.479 173.543C299.176 173.077 297.934 172.529 296.798 171.877C296.355 171.621 295.945 171.352 295.55 171.078C288.876 166.45 289.227 159.535 296.733 155.194C304.747 150.597 317.624 150.597 325.573 155.194C332.383 159.1 333.384 165.087 328.662 169.621Z" fill="#4633DC"/>
<path d="M453.867 365.297L453.867 365.334L485.056 383.304L485.058 383.3V383.296L485.059 383.297L485.061 383.292L453.867 365.297Z" fill="#4633DC"/>
<path d="M453.863 365.296L452.951 364.77V356.336L452.891 364.77L453.232 364.969L453.863 365.333L453.863 365.296Z" fill="#5040F5"/>
<path d="M410.843 417.707L410.853 412.88L411.035 345.73L411.045 344.809L410.974 344.738L411.177 287.341C411.237 258.182 387.13 244.25 385.875 243.532L258.894 170.24C254.026 167.427 250.089 166.183 246.901 166.001C246.76 165.991 246.618 165.991 246.476 165.98H246.183C245.909 165.98 245.646 165.991 245.383 166.001C245.282 166.007 245.191 166.026 245.092 166.034C245.071 166.036 245.052 166.039 245.031 166.041C244.807 166.061 244.586 166.086 244.37 166.117C244.262 166.133 244.145 166.137 244.039 166.155C244.025 166.158 244.011 166.16 243.997 166.163C243.89 166.182 243.793 166.214 243.689 166.236C243.471 166.281 243.256 166.331 243.047 166.388C242.845 166.444 242.648 166.505 242.455 166.571C242.245 166.642 242.039 166.717 241.838 166.8C241.663 166.872 241.493 166.951 241.326 167.032C241.125 167.129 240.927 167.229 240.736 167.338C240.586 167.423 240.441 167.515 240.297 167.607C240.105 167.73 239.916 167.855 239.735 167.989C239.608 168.083 239.487 168.182 239.366 168.281C239.183 168.43 239.001 168.581 238.829 168.741C238.725 168.838 238.627 168.939 238.527 169.04C238.352 169.216 238.178 169.394 238.014 169.581C237.933 169.674 237.856 169.771 237.778 169.867C237.609 170.073 237.442 170.279 237.285 170.495C237.226 170.578 237.171 170.663 237.113 170.747C236.949 170.984 236.788 171.223 236.638 171.47C236.6 171.533 236.565 171.598 236.528 171.661C236.367 171.935 236.211 172.211 236.066 172.494C236.051 172.525 236.037 172.555 236.022 172.586C235.005 174.604 234.38 176.811 233.998 178.789V178.799C233.411 181.845 233.401 184.344 233.401 184.749L233.309 212.339V212.349L233.256 227.094L233.198 243.198L233.202 243.202L233.268 243.268L233.269 243.269L233.168 280.127L233.067 315.114C233.006 344.283 257.113 358.205 258.368 358.923L385.349 432.225C394.528 437.517 400.398 437.274 404.153 434.735C410.792 430.252 410.843 418.627 410.843 417.707ZM360.995 230.519H362.843V232.649H360.995V230.519ZM401.582 340.206L401.512 340.145L401.38 417.514C401.38 420.792 400.267 426.833 398.233 426.833C397.372 426.833 394.883 426.509 390.217 423.818L263.155 350.516C261.06 349.332 242.6 337.97 242.661 314.983L242.732 247.538L242.792 247.599L242.924 184.688C242.924 181.471 244.037 175.42 246.081 175.42C246.932 175.42 249.431 175.754 254.097 178.445L381.078 251.737C383.254 252.921 401.714 264.283 401.643 287.27L401.582 340.206Z" fill="#6D69FF"/>
<path d="M405.915 222.119H406.046C409.523 222.053 412.664 220.599 414.927 218.284C417.152 216.006 418.528 212.896 418.528 209.443V209.378L418.659 209.312L418.716 174.773L418.791 129.448C418.923 93.195 393.367 48.9944 361.832 30.8019C352.907 25.6551 344.441 23.1402 336.881 23.0068C331.005 22.8924 325.675 24.2155 321.101 26.8613L308.488 34.217C308.488 34.217 291.67 43.3462 291.67 70.9305L291.539 95.1654H291.604V95.231C291.604 102.258 297.32 107.907 304.284 107.907C306.465 107.886 308.516 107.317 310.306 106.333C308.547 107.274 306.544 107.821 304.415 107.841L304.546 78.1552C304.612 64.1659 309.539 54.3144 317.488 49.6513C319.591 48.2721 324.452 47.0898 324.452 47.0898C324.438 47.1061 324.426 47.1249 324.412 47.1412C331.489 45.8588 339.929 47.5719 349.023 52.8037C373.593 66.9899 393.432 101.339 393.367 129.58L393.316 160.121L393.235 209.509C393.25 211.087 393.565 212.591 394.104 213.983C394.72 215.577 395.642 217.016 396.806 218.225C399.111 220.62 402.336 222.119 405.915 222.119Z" fill="#6D69FF"/>
<path d="M317.491 49.6494C309.541 54.3124 304.615 64.164 304.548 78.1533L304.418 107.839C306.547 107.819 308.55 107.272 310.309 106.331C314.305 104.192 317.031 99.997 317.031 95.1635V95.0322L317.097 94.9665L317.228 70.7317L317.097 70.7974C317.097 69.5496 317.163 68.3016 317.228 67.0538C317.817 58.5451 320.366 51.8653 324.415 47.1393C324.429 47.123 324.441 47.1042 324.455 47.0879C324.455 47.0879 319.594 48.2702 317.491 49.6494Z" fill="#4336D7"/>
<path d="M381.078 251.735L254.096 178.443C249.431 175.752 246.931 175.418 246.081 175.418C244.037 175.418 242.923 181.468 242.923 184.686L242.792 247.597L242.731 247.536L242.66 314.98C242.6 337.967 261.059 349.33 263.154 350.513L390.217 423.815C394.882 426.507 397.372 426.83 398.232 426.83C400.266 426.83 401.38 420.79 401.38 417.512L401.511 340.143L401.582 340.203L401.643 287.268C401.714 264.281 383.254 252.919 381.078 251.735ZM316.48 346.786C314.178 346.252 311.739 345.277 309.211 343.817H309.146L309.143 343.815H309.142C295.155 335.742 283.851 316.164 283.851 300.077C283.851 288.129 290.225 281.553 299.16 282.209L299.2 270.001L299.224 262.308C299.224 256.275 303.21 253.648 308.362 255.996C308.706 256.152 309.055 256.331 309.409 256.533C309.539 256.599 309.606 256.664 309.737 256.73C310.76 257.359 311.744 258.135 312.667 259.023C316.663 262.868 319.514 268.812 319.465 273.933L319.396 293.261L319.394 293.835C321.512 296.123 323.47 298.643 325.236 301.306C328.024 305.508 330.313 310.075 331.927 314.713C333.636 319.622 334.598 324.605 334.574 329.307C334.516 342.438 326.921 349.212 316.48 346.786Z" fill="#5040F5"/>
<path d="M334.569 329.305C334.595 324.606 333.634 319.624 331.926 314.715C330.311 310.076 328.023 305.509 325.235 301.308C323.469 298.646 321.511 296.127 319.393 293.84V293.836L319.394 293.263L319.459 273.939C319.512 268.817 316.661 262.872 312.665 259.025C311.743 258.137 310.759 257.36 309.736 256.732C309.604 256.666 309.538 256.6 309.408 256.534C309.054 256.333 308.705 256.154 308.361 255.998C303.208 253.652 299.224 256.281 299.224 262.314L299.199 270.002L299.159 282.211V282.214C290.224 281.558 283.852 288.126 283.852 300.078C283.852 316.168 295.15 335.739 309.142 343.817L309.145 343.819H309.21C311.738 345.279 314.176 346.253 316.479 346.787C326.918 349.209 334.515 342.435 334.569 329.305Z" fill="#4336D7"/>
<path d="M325.57 155.196C317.62 150.599 304.744 150.599 296.729 155.196C289.223 159.537 288.872 166.452 295.547 171.08C295.941 171.353 296.351 171.622 296.795 171.878C297.931 172.53 299.172 173.078 300.476 173.545C306.822 175.819 314.808 175.901 321.246 173.796C322.815 173.283 324.299 172.651 325.635 171.878C326.83 171.187 327.823 170.425 328.659 169.623C333.381 165.089 332.38 159.102 325.57 155.196Z" fill="#5040F5"/>
<path d="M515.047 438.425C515.026 438.436 515.006 438.447 514.986 438.459C514.97 438.468 514.957 438.481 514.941 438.49L515.115 438.391C515.113 438.391 515.11 438.392 515.107 438.393L515.103 438.397C515.085 438.406 515.066 438.415 515.047 438.425Z" fill="#98D517"/>
<path d="M519.36 394.436L519.338 426.775C519.338 426.775 519.519 430.861 518.293 434.281C517.79 435.685 517.058 436.979 515.968 437.828C515.718 438.022 515.45 438.194 515.163 438.338C515.162 438.356 515.154 438.366 515.145 438.375L520.422 435.374C524.627 432.944 524.627 425.785 524.627 425.259L524.758 374.529L519.374 377.642L519.36 394.436Z" fill="#98D517"/>
<path d="M519.371 377.639L519.374 377.641V377.642L524.758 374.529L524.89 340.602L519.436 343.754L519.371 377.639Z" fill="#4336D7"/>
<path d="M499.891 400.318L467.668 381.717V390.185L504.456 411.422L504.485 407.976L504.524 402.993L499.891 400.318Z" fill="#98D517"/>
<path d="M453.865 365.297L485.059 383.292L504.525 394.522V386.05L482.96 373.609L452.953 356.303L452.953 356.337V364.771L453.865 365.297Z" fill="#98D517"/>
<path d="M437.12 318.089L437.255 378.269L437.147 330.055L437.148 330.056L442.632 333.23L519.375 377.638L519.441 343.753L437.07 296.189L437.12 318.089Z" fill="#5040F5"/>
<path d="M453.614 251.674L436.992 261.263L436.997 263.264L436.999 264.36L453.664 273.981L453.614 251.676V251.674Z" fill="#5040F5"/>
<path d="M437.069 296.19L519.439 343.754V335.281C519.506 328.648 517.272 323.393 514.578 319.387C513.777 318.193 512.942 317.116 512.112 316.154C508.513 311.983 505.003 309.958 504.79 309.798L437.012 270.674L437.043 284.461L437.069 296.19Z" fill="#BEF941"/>
<path d="M313.212 426.229L178.285 347.814L172.406 351.223L173.896 352.088L175.319 352.914L175.322 352.915L178.284 351.221L313.212 429.594L313.069 429.677L307.343 432.952L307.331 429.656V429.654L307.331 429.654V429.636L302.341 432.499H261.323L261.317 432.495H261.283L245.144 423.12L245.144 423.101L245.14 423.1L244.251 422.578L244.142 422.515L244.142 422.515L244.139 422.513L245.11 414.469L245.111 414.466L245.109 414.16L230.792 405.803L212.102 403.637L212.142 413.772L230.792 415.938L244.107 423.653L244.142 432.612L261.323 442.592H302.377L307.369 439.73L313.212 436.364L318.552 433.269L318.514 423.173L313.212 426.229Z" fill="#B7830F"/>
<path d="M190.757 327.117C190.752 327.17 190.748 327.223 190.743 327.277C190.709 327.631 190.669 327.986 190.62 328.34C190.599 328.497 190.574 328.654 190.55 328.812C190.545 328.848 190.538 328.883 190.533 328.919C190.489 329.198 190.452 329.476 190.398 329.755C190.338 330.078 190.262 330.4 190.187 330.723C190.162 330.836 190.142 330.949 190.115 331.061C190.064 331.275 190.004 331.488 189.947 331.701C189.892 331.909 189.831 332.117 189.772 332.325C189.744 332.425 189.719 332.529 189.689 332.628L189.507 333.205C189.376 333.62 189.234 334.024 189.082 334.439C189.042 334.52 189.021 334.601 188.991 334.682C188.778 335.218 188.556 335.744 188.323 336.281C188.303 336.321 188.283 336.362 188.272 336.392C188.12 336.723 187.952 337.049 187.789 337.377C187.692 337.573 187.604 337.77 187.503 337.964C187.496 337.977 187.49 337.989 187.484 338.001C187.475 338.018 187.463 338.035 187.454 338.052C187.178 338.582 186.876 339.121 186.562 339.65C186.238 340.196 185.894 340.742 185.53 341.279C185.52 341.289 185.53 341.289 185.53 341.289C184.791 342.371 183.991 343.434 183.121 344.486L183.141 344.506L185.838 346.068L187.928 347.278L187.93 347.279C189.912 343.19 190.897 338.978 190.897 334.78L190.86 325.158C190.856 325.415 190.831 325.666 190.818 325.92C190.8 326.319 190.792 326.718 190.757 327.117Z" fill="#B7830F"/>
<path d="M196.39 376.325L169.46 379.694L145.899 365.994C145.899 365.994 145.869 366.005 145.859 366.005H145.848C145.778 366.025 145.707 366.045 145.626 366.065C143.875 366.551 142.094 366.986 140.292 367.391C140.232 367.411 140.161 367.421 140.1 367.431C134.524 368.665 128.775 369.515 122.946 369.991C122.764 370.001 122.592 370.011 122.42 370.021C120.628 370.163 118.827 370.274 117.025 370.335C116.813 370.345 116.6 370.345 116.378 370.355C113.625 370.446 110.872 370.456 108.119 370.375C107.34 370.355 106.571 370.315 105.802 370.284C105.589 370.274 105.367 370.264 105.154 370.254C104.668 370.234 104.183 370.193 103.697 370.163C102.209 370.072 100.731 369.971 99.2539 369.829C98.7478 369.778 98.2519 369.718 97.756 369.667C97.2804 369.617 96.7945 369.576 96.3189 369.515C96.1165 369.495 95.9141 369.465 95.7117 369.434C93.9709 369.222 92.2403 368.979 90.5199 368.706C89.8924 368.595 89.2649 368.483 88.6374 368.372C88.3136 368.311 87.9796 368.261 87.6558 368.2C86.9069 368.058 86.168 367.907 85.4293 367.745C85.2268 367.704 85.0245 367.674 84.8221 367.623C83.1218 367.259 81.4418 366.865 79.772 366.429C79.5999 366.379 79.4278 366.338 79.2558 366.298C78.5372 366.106 77.8288 365.903 77.1203 365.701C76.9281 365.64 76.7257 365.59 76.5233 365.529C76.0577 365.398 75.6023 365.246 75.1469 365.104C74.7117 364.973 74.2664 364.841 73.8413 364.699C69.6008 363.333 65.5526 361.715 61.7271 359.863C61.545 359.772 61.3527 359.691 61.1604 359.59C59.5715 358.801 58.0129 357.971 56.5151 357.101C56.0293 356.818 55.5739 356.524 55.0982 356.241C54.6731 355.978 54.238 355.715 53.8129 355.442C53.7218 355.391 53.6409 355.33 53.5599 355.28C53.145 355.007 52.73 354.734 52.3252 354.46C51.1006 353.631 49.9469 352.771 48.8438 351.911C48.6515 351.759 48.4693 351.607 48.2871 351.455C47.8418 351.091 47.3864 350.727 46.9613 350.343C39.9377 344.292 35.7175 337.473 34.2703 330.492C34.1994 330.158 34.1286 329.824 34.0679 329.48C34.0577 329.389 34.0375 329.298 34.0173 329.207C33.8553 328.175 33.7744 327.133 33.7339 326.101C33.6327 323.632 33.8857 321.163 34.4727 318.715C23.8867 359.378 73.8413 374.756 73.8413 374.756C88.0302 379.421 103.292 381.009 118.108 380.311C122.946 380.119 127.743 379.613 132.51 378.874C133.704 378.682 145.778 376.921 145.889 376.072L169.5 389.791L196.431 386.422L206.743 392.341L208.191 383.093L196.39 376.325Z" fill="#B7830F"/>
<path d="M52.6567 312.857C52.6567 312.877 52.6467 312.887 52.6367 312.907C52.6467 312.887 52.6567 312.867 52.6667 312.857H52.6567Z" fill="#B7830F"/>
<path d="M205.562 399.852L205.601 409.981L212.14 413.772L212.101 403.637L208.512 401.556L205.562 399.852Z" fill="#B7830F"/>
<path d="M307.371 429.632L307.369 429.633L307.373 429.636L307.333 429.656L307.345 432.952L313.071 429.677L313.214 429.594L178.286 351.221L175.324 352.915L235.962 388.146L307.371 429.632Z" fill="#FFD966"/>
<path d="M50.1234 324.254C50.1207 323.917 50.0863 323.547 50.0863 323.212C50.0863 323.058 50.0863 322.942 50.0863 322.788C50.0863 322.632 50.0863 322.517 50.0863 322.362C50.0863 322.206 50.0863 322.091 50.1249 321.936C50.1249 321.782 50.1249 321.665 50.1636 321.511C50.1636 321.421 50.175 321.343 50.186 321.264C50.1922 321.207 50.1987 321.151 50.1987 321.083C50.1987 320.931 50.2392 320.81 50.2392 320.658C50.2392 320.574 50.2526 320.491 50.2705 320.412C50.2844 320.348 50.301 320.286 50.3184 320.234C50.3439 320.132 50.3554 320.044 50.3694 319.953C50.3755 319.906 50.3806 319.86 50.391 319.808C50.4315 319.656 50.4315 319.494 50.472 319.383C50.4858 319.331 50.4919 319.285 50.4995 319.238C50.5136 319.148 50.525 319.06 50.5506 318.957C50.5717 318.873 50.5929 318.799 50.614 318.725C50.63 318.663 50.646 318.602 50.6643 318.533C50.6796 318.476 50.6949 318.424 50.7102 318.372C50.7344 318.287 50.7585 318.203 50.7828 318.106C50.8056 318.015 50.8285 317.935 50.8514 317.854C50.866 317.799 50.8805 317.745 50.897 317.683C50.9091 317.635 50.9212 317.596 50.9332 317.554C50.9605 317.457 50.9877 317.364 51.0149 317.255C51.0267 317.208 51.0386 317.167 51.0505 317.125C51.0751 317.029 51.1018 316.938 51.1298 316.833C51.1321 316.824 51.1344 316.818 51.1367 316.809C51.1735 316.666 51.2103 316.551 51.247 316.405C51.2637 316.338 51.2888 316.28 51.3136 316.221C51.3239 316.197 51.3308 316.169 51.3413 316.145C51.3636 316.092 51.3867 316.039 51.4018 315.979C51.4405 315.825 51.4792 315.708 51.5565 315.554C51.5572 315.551 51.5586 315.549 51.5593 315.546C51.5808 315.464 51.6113 315.39 51.6424 315.318C51.6679 315.256 51.6931 315.196 51.7067 315.124C51.7326 315.052 51.7725 314.966 51.8104 314.88C51.8308 314.832 51.8522 314.783 51.8662 314.74C51.8823 314.708 51.893 314.681 51.9065 314.652C51.9504 314.55 51.9914 314.453 52.045 314.348C52.0505 314.337 52.0538 314.327 52.0597 314.316C52.137 314.199 52.1758 314.045 52.2532 313.928C52.255 313.924 52.2567 313.922 52.2585 313.918C52.3367 313.772 52.4061 313.652 52.4455 313.505C52.4529 313.494 52.457 313.48 52.4637 313.469C52.5253 313.363 52.5672 313.237 52.6313 313.133C52.6337 313.129 52.6353 313.124 52.6378 313.12C52.6385 313.119 52.639 313.118 52.6398 313.117C52.6397 313.117 52.6399 313.116 52.6398 313.117C52.6401 313.116 52.6406 313.115 52.6409 313.114C52.6694 313.066 52.6896 313.017 52.7187 312.968C52.7552 312.903 52.7917 312.838 52.8282 312.771C52.8429 312.744 52.8576 312.72 52.8722 312.691C52.8911 312.662 52.91 312.628 52.9288 312.596C52.9866 312.497 53.0426 312.392 53.1033 312.301C53.1843 312.149 53.2551 312.038 53.3361 311.876C53.3617 311.84 53.3855 311.797 53.4098 311.756C53.4628 311.665 53.5158 311.571 53.5687 311.491C53.6461 311.337 53.7622 311.22 53.8396 311.066C53.8599 311.036 53.8801 310.999 53.9004 310.965C53.9309 310.911 53.9616 310.862 53.9939 310.809C54.0199 310.764 54.0458 310.718 54.0718 310.679C54.1025 310.618 54.1412 310.564 54.1792 310.511C54.2366 310.428 54.2952 310.349 54.338 310.257C54.419 310.135 54.5404 309.984 54.6113 309.862C54.7327 309.711 54.8036 309.599 54.925 309.437C54.9587 309.384 55.0047 309.322 55.0515 309.258C55.1023 309.187 55.1533 309.116 55.1939 309.054C55.2705 308.953 55.3426 308.865 55.408 308.774C55.4418 308.726 55.4775 308.68 55.5019 308.628C55.5517 308.582 55.5908 308.526 55.6305 308.47C55.688 308.391 55.7446 308.311 55.8131 308.242C55.9204 308.099 56.0279 307.987 56.1352 307.849C56.1432 307.838 56.1518 307.829 56.1597 307.819C56.1799 307.798 56.194 307.778 56.2118 307.759C56.3001 307.66 56.3738 307.559 56.4709 307.43C56.5311 307.35 56.5912 307.279 56.6514 307.209C56.7076 307.143 56.7638 307.077 56.8175 306.999C56.8653 306.955 56.9095 306.91 56.9529 306.863C57.0195 306.789 57.0819 306.711 57.1287 306.617C57.1342 306.612 57.1403 306.605 57.1458 306.599C57.2535 306.488 57.3703 306.337 57.5159 306.23C57.6272 306.119 57.7487 305.997 57.86 305.846C57.926 305.78 58.0003 305.706 58.0744 305.633C58.1361 305.572 58.1979 305.51 58.2509 305.457C58.3487 305.359 58.4464 305.261 58.5441 305.163C58.5622 305.144 58.5811 305.126 58.5988 305.107C58.7506 304.996 58.872 304.834 59.0239 304.723C59.0255 304.721 59.0271 304.72 59.0287 304.718C59.1435 304.604 59.2587 304.488 59.4118 304.374C59.456 304.341 59.5003 304.301 59.5446 304.263C59.6556 304.168 59.7666 304.07 59.874 303.984C59.9954 303.873 60.1472 303.751 60.2586 303.64C60.3765 303.552 60.4886 303.451 60.5998 303.358C60.6423 303.322 60.6848 303.283 60.7274 303.251C60.8435 303.136 60.9982 303.02 61.1143 302.904C61.1639 302.866 61.2154 302.822 61.2663 302.78C61.3728 302.689 61.4834 302.593 61.6147 302.517C61.7196 302.438 61.8054 302.364 61.8926 302.292C61.9411 302.251 61.9883 302.21 62.043 302.168C62.1492 302.089 62.2704 301.994 62.388 301.903C62.4419 301.861 62.4978 301.817 62.5458 301.778C62.6602 301.694 62.7603 301.611 62.8662 301.542C62.901 301.519 62.9333 301.492 62.9717 301.473C63.0063 301.452 63.0359 301.426 63.0685 301.403C63.2164 301.297 63.3516 301.18 63.5174 301.08C63.6261 301.001 63.719 300.934 63.8197 300.863C63.8588 300.835 63.8956 300.809 63.9391 300.776C64.0152 300.73 64.0913 300.677 64.1674 300.624C64.212 300.593 64.2565 300.565 64.301 300.535C64.3739 300.484 64.4467 300.433 64.5195 300.39C64.6151 300.317 64.6981 300.258 64.7824 300.198C64.8347 300.161 64.8865 300.125 64.9444 300.079C65.1367 299.967 65.329 299.805 65.5213 299.694C65.6832 299.573 65.835 299.502 65.9463 299.381C66.1791 299.229 66.4119 299.077 66.6851 298.915C66.8066 298.844 66.9179 298.763 67.0393 298.682C67.3834 298.45 67.768 298.257 68.1526 298.025C69.0387 297.517 69.9461 297.031 70.8685 296.56C71.8406 296.062 72.8334 295.585 73.8456 295.129C71.8319 296.02 69.8919 297.002 68.0413 298.065C67.6567 298.298 67.3025 298.49 66.9179 298.723C66.8066 298.804 66.6851 298.885 66.5738 298.956C66.341 299.117 66.1083 299.269 65.835 299.421C65.6832 299.502 65.5213 299.613 65.4099 299.735C65.2177 299.846 65.0254 299.998 64.8331 300.119C64.6711 300.23 64.5598 300.311 64.408 300.433C64.2056 300.544 64.0133 300.696 63.821 300.817C63.6692 300.928 63.5477 301.009 63.3959 301.121C63.2036 301.242 63.0114 301.394 62.8595 301.515C62.6976 301.627 62.5863 301.748 62.4345 301.819C62.2725 301.94 62.0802 302.092 61.9285 302.203C61.7766 302.325 61.6552 302.436 61.5034 302.557C61.3516 302.669 61.1492 302.831 60.9973 302.942C60.886 303.063 60.7241 303.175 60.6127 303.286C60.461 303.407 60.299 303.559 60.1472 303.681C60.0359 303.792 59.874 303.913 59.7627 304.024C59.6007 304.146 59.4489 304.298 59.2971 304.409C59.1756 304.53 59.0643 304.642 58.9125 304.763C58.7506 304.874 58.6393 305.026 58.4875 305.148C58.366 305.259 58.2547 305.38 58.1333 305.492C58.0219 305.613 57.86 305.765 57.7487 305.886C57.6272 305.997 57.5159 306.119 57.4045 306.23C57.2831 306.341 57.1313 306.503 57.0098 306.615C57.02 306.594 57.0402 306.564 57.0504 306.544C57.0301 306.584 56.9998 306.625 56.9694 306.665C56.9086 306.756 56.8277 306.837 56.7467 306.928C56.7366 306.948 56.7164 306.979 56.7062 306.999C56.6455 307.06 56.5848 307.131 56.5241 307.201C56.4735 307.272 56.4127 307.353 56.352 307.434C56.3216 307.464 56.2913 307.505 56.2609 307.535C56.2306 307.566 56.2103 307.606 56.18 307.636C56.1395 307.697 56.099 307.758 56.0484 307.819C55.927 307.97 55.8156 308.092 55.6942 308.244C55.5829 308.355 55.5019 308.517 55.3906 308.628L55.3602 308.658C55.3602 308.668 55.3501 308.668 55.3501 308.679C55.3298 308.689 55.3298 308.709 55.3096 308.719C55.2793 308.77 55.2287 308.83 55.1881 308.891C55.1679 308.921 55.1477 308.952 55.1173 308.982C55.0566 309.063 54.9857 309.164 54.925 309.255C54.8947 309.296 54.8643 309.336 54.8441 309.367C54.8339 309.387 54.8238 309.417 54.8036 309.437C54.6922 309.599 54.6113 309.711 54.4999 309.862C54.4595 309.923 54.4089 309.994 54.3582 310.055C54.3178 310.125 54.2672 310.196 54.2267 310.257C54.2368 310.227 54.2571 310.206 54.2672 310.176C54.2469 310.216 54.2166 310.257 54.1963 310.297C54.1356 310.378 54.085 310.449 54.0445 310.53C54.0142 310.571 53.9838 310.621 53.9535 310.682C53.8826 310.793 53.8016 310.945 53.7206 311.066C53.6499 311.218 53.5284 311.339 53.4576 311.491C53.4272 311.532 53.4069 311.572 53.3766 311.613C53.3563 311.633 53.3462 311.653 53.3361 311.684C53.2956 311.754 53.2653 311.815 53.2247 311.876C53.1539 311.997 53.0932 312.098 53.0223 312.23C53.0123 312.25 53.0021 312.28 52.992 312.301C52.9515 312.361 52.911 312.432 52.8706 312.503C52.8402 312.543 52.82 312.584 52.7997 312.614C52.7491 312.705 52.7086 312.776 52.6681 312.857C52.658 312.867 52.6479 312.888 52.6378 312.908C52.6074 312.948 52.5871 312.989 52.5669 313.039C52.486 313.151 52.4455 313.312 52.3645 313.424C52.2937 313.576 52.2532 313.697 52.1722 313.849C52.1014 313.97 52.0609 314.122 51.9799 314.233C51.9091 314.395 51.8686 314.506 51.7876 314.668C51.7472 314.82 51.6763 314.972 51.6358 315.093C51.5954 315.245 51.5144 315.356 51.484 315.518C51.4031 315.67 51.3626 315.822 51.3221 315.943C51.2816 316.095 51.2108 316.206 51.1703 316.368C51.1298 316.52 51.0893 316.631 51.0489 316.793C51.0185 316.945 50.978 317.066 50.9375 317.218C50.897 317.37 50.8566 317.491 50.8262 317.643C50.7857 317.795 50.7452 317.916 50.7047 318.068C50.7047 318.22 50.6643 318.341 50.6238 318.493C50.5934 318.614 50.5529 318.766 50.5124 318.918C50.472 319.069 50.472 319.191 50.4315 319.343C50.391 319.464 50.391 319.616 50.3607 319.767C50.3201 319.929 50.3201 320.081 50.2797 320.192C50.2392 320.354 50.2392 320.466 50.1987 320.617C50.1987 320.779 50.1684 320.891 50.1684 321.042C50.1684 321.204 50.1279 321.316 50.1279 321.467C50.1279 321.629 50.0874 321.74 50.0874 321.892C50.0874 322.054 50.0469 322.165 50.0469 322.327V323.177C50.0469 323.537 50.0846 323.862 50.1234 324.254Z" fill="#FFC412"/>
<path d="M172.292 323.627C171.758 315.619 166.538 307.698 156.644 301.365C156.348 301.175 156.033 300.993 155.729 300.807C155.355 300.577 154.989 300.344 154.602 300.119C154.585 300.109 154.566 300.1 154.549 300.09C139.606 291.426 118.733 288.213 99.3556 290.451C96.5874 290.771 93.8496 291.202 91.164 291.744C91.107 291.756 91.0512 291.769 90.9943 291.781C82.643 293.484 74.8008 296.262 68.1231 300.119C67.3034 300.593 66.5167 301.079 65.7526 301.572C65.553 301.701 65.3639 301.834 65.1682 301.964C64.6249 302.325 64.0932 302.689 63.5792 303.06C63.336 303.235 63.099 303.412 62.8625 303.59C62.4113 303.928 61.9727 304.269 61.5454 304.615C61.3117 304.803 61.0773 304.992 60.8508 305.183C60.4186 305.547 60.0046 305.915 59.5985 306.286C59.4147 306.454 59.2228 306.62 59.0443 306.79C58.4786 307.326 57.9348 307.868 57.4229 308.418C57.3602 308.485 57.3053 308.554 57.2434 308.622C56.7918 309.114 56.3599 309.611 55.9514 310.113C55.8164 310.278 55.6921 310.446 55.5618 310.613C55.2324 311.034 54.9134 311.458 54.6141 311.885C54.5003 312.047 54.3907 312.21 54.2813 312.372C53.9631 312.847 53.6609 313.324 53.3796 313.805C53.3095 313.924 53.2364 314.043 53.1685 314.162C53.0112 314.438 52.8623 314.716 52.7171 314.994C52.6042 315.211 52.4959 315.428 52.3903 315.646C52.2696 315.895 52.1489 316.143 52.0379 316.393C51.9113 316.678 51.7966 316.964 51.6825 317.251C51.5754 317.519 51.4701 317.788 51.374 318.057C51.2382 318.439 51.1097 318.821 50.9959 319.204C50.9336 319.414 50.8816 319.624 50.826 319.834C50.7503 320.12 50.6777 320.406 50.6142 320.692C50.5653 320.913 50.5205 321.134 50.4788 321.355C50.4248 321.641 50.3789 321.927 50.337 322.213C50.3059 322.426 50.2722 322.639 50.2478 322.851C50.2071 323.206 50.1802 323.561 50.158 323.915C50.15 324.044 50.1345 324.172 50.1289 324.301V324.331C50.3009 327.639 51.2827 330.928 53.0436 334.104C53.0436 334.115 53.0436 334.115 53.0436 334.125C53.2258 334.438 53.4079 334.752 53.6002 335.066C53.7318 335.288 53.8634 335.511 54.0051 335.723C54.086 335.845 54.167 335.966 54.2479 336.088C54.3916 336.299 54.5485 336.506 54.697 336.716C54.75 336.791 54.8033 336.865 54.8569 336.94C54.9922 337.128 55.119 337.319 55.26 337.504C55.3814 337.666 55.513 337.838 55.6446 338C55.9887 338.445 56.353 338.88 56.7376 339.315C56.8692 339.457 56.9906 339.608 57.1323 339.76C58.1646 340.904 59.3183 342.016 60.5834 343.099C60.7554 343.241 60.9376 343.393 61.1097 343.534C61.5853 343.919 62.071 344.313 62.567 344.688C62.7998 344.86 63.0325 345.032 63.2653 345.204C63.7612 345.568 64.2774 345.932 64.8137 346.286C65.0364 346.438 65.259 346.59 65.4918 346.741C65.5623 346.787 65.6356 346.832 65.7064 346.878C65.7062 346.878 65.7067 346.878 65.7064 346.878C66.3166 347.272 66.9435 347.661 67.5896 348.042C67.5915 348.043 67.5933 348.045 67.5952 348.046C67.6812 348.096 67.763 348.148 67.8499 348.198C67.9472 348.255 68.0481 348.308 68.1459 348.364C68.1481 348.365 68.1503 348.366 68.1525 348.368C68.8972 348.795 69.6587 349.206 70.4316 349.606C70.4325 349.607 70.4334 349.607 70.4343 349.608C70.7371 349.764 71.0401 349.92 71.3478 350.071C71.3488 350.071 71.3496 350.072 71.3506 350.072C71.4771 350.134 71.5986 350.202 71.726 350.262C72.0727 350.432 72.4329 350.588 72.7844 350.752C72.7875 350.754 72.7906 350.755 72.7937 350.757C73.295 350.991 73.7917 351.231 74.3026 351.455C74.3034 351.456 74.3041 351.456 74.3049 351.456C75.2511 351.87 76.2109 352.269 77.1884 352.647C77.1894 352.648 77.1904 352.648 77.1913 352.648C77.492 352.765 77.8024 352.869 78.1059 352.982C78.1118 352.984 78.1177 352.986 78.1236 352.988C78.8675 353.264 79.6143 353.537 80.3742 353.792C80.3752 353.793 80.3761 353.793 80.3771 353.793C80.7688 353.925 81.1675 354.047 81.5632 354.174C81.5652 354.175 81.5672 354.175 81.5692 354.176C82.2624 354.397 82.9588 354.614 83.6635 354.818C83.664 354.818 83.6646 354.818 83.6653 354.819C84.0818 354.939 84.5014 355.055 84.9218 355.171C84.9225 355.171 84.9231 355.171 84.9238 355.171C85.6341 355.365 86.3495 355.551 87.0699 355.728C87.0711 355.729 87.0724 355.729 87.0737 355.729C87.4831 355.83 87.892 355.932 88.3044 356.027C88.3053 356.027 88.3063 356.028 88.3072 356.028C89.0997 356.211 89.8991 356.381 90.7018 356.544C90.7039 356.545 90.7061 356.545 90.7082 356.546C91.0474 356.615 91.3839 356.689 91.7249 356.755C91.7254 356.755 91.7261 356.755 91.7267 356.755C92.8816 356.977 94.0435 357.184 95.2156 357.365C96.764 357.598 98.3226 357.8 99.8912 357.972C100.671 358.053 101.46 358.134 102.249 358.195C104.192 358.356 106.136 358.468 108.099 358.518C109.071 358.549 110.052 358.559 111.034 358.559C126.69 358.559 142.377 355.109 154.329 348.198C156.505 346.944 158.479 345.618 160.25 344.242C167.951 338.243 171.979 331.16 172.323 324.027V323.982C172.318 323.867 172.301 323.752 172.293 323.636C172.293 323.633 172.292 323.63 172.292 323.627ZM68.3863 311.411C68.4875 308.73 70.1168 306.079 73.234 303.924C73.6279 303.658 74.0425 303.394 74.4846 303.144C74.5309 303.118 74.5734 303.09 74.6205 303.064C76.9089 301.74 79.5983 300.798 82.4558 300.209C86.0339 299.473 89.879 299.299 93.5732 299.716C97.549 300.164 101.342 301.28 104.415 303.064C105.872 303.905 107.055 304.844 107.99 305.841C108.832 306.737 109.475 307.681 109.896 308.652C110.657 310.409 110.733 312.249 110.126 314.027C109.823 314.917 109.35 315.791 108.706 316.631C108.696 316.642 108.686 316.662 108.676 316.672C107.623 317.987 106.196 319.232 104.294 320.314C96.0556 325.069 82.7067 325.069 74.499 320.314C72.6859 319.254 71.2769 318.077 70.2781 316.794C70.2566 316.766 70.229 316.74 70.2079 316.712C69.8224 316.203 69.519 315.675 69.2543 315.142C69.1337 314.9 69.0148 314.657 68.9202 314.413C68.9008 314.363 68.8701 314.314 68.8518 314.264C68.5482 313.424 68.3863 312.574 68.3863 311.724V311.411Z" fill="#FFC412"/>
<path d="M55.4716 308.487L55.4688 308.491C55.4871 308.466 55.504 308.442 55.5232 308.416C55.5049 308.441 55.4891 308.463 55.4716 308.487Z" fill="#FFC412"/>
<path d="M212.106 403.632L230.788 405.797L245.149 414.154L245.109 414.464L245.109 414.468L244.137 422.511L244.14 422.513L244.249 422.577L245.139 423.098L245.142 423.1L261.315 432.494L261.322 432.497H302.34L307.329 429.634L307.33 429.653V429.654L307.37 429.634L307.366 429.632L235.959 388.145L175.321 352.914L175.318 352.912L173.894 352.087L172.403 351.223L172.405 351.222L178.283 347.813L313.211 426.227L318.512 423.172L187.93 347.278L187.928 347.277L185.838 346.066L183.141 344.505L183.121 344.484C183.991 343.432 184.791 342.37 185.53 341.287C185.53 341.287 185.52 341.287 185.53 341.277C185.894 340.741 186.238 340.194 186.562 339.648C186.876 339.119 187.178 338.581 187.454 338.051C187.463 338.034 187.474 338.016 187.483 337.999C187.493 337.989 187.493 337.979 187.503 337.958C187.605 337.767 187.692 337.57 187.789 337.376C187.952 337.048 188.12 336.721 188.272 336.39C188.282 336.36 188.303 336.319 188.323 336.279C188.556 335.743 188.778 335.217 188.991 334.68C189.021 334.599 189.041 334.519 189.082 334.438C189.234 334.023 189.375 333.618 189.507 333.203L189.689 332.627C189.719 332.528 189.744 332.424 189.772 332.323C189.829 332.115 189.888 331.907 189.942 331.696C190.003 331.483 190.064 331.271 190.114 331.058C190.14 330.946 190.162 330.834 190.187 330.722C190.261 330.399 190.338 330.076 190.398 329.753C190.452 329.475 190.489 329.196 190.532 328.917C190.538 328.882 190.544 328.847 190.549 328.812C190.57 328.65 190.6 328.499 190.62 328.337C190.671 327.983 190.711 327.628 190.742 327.274C190.752 327.224 190.752 327.173 190.752 327.112C190.788 326.717 190.798 326.317 190.818 325.919C190.83 325.665 190.855 325.413 190.86 325.157C190.86 325.137 190.863 325.118 190.863 325.099C191.015 313.383 183.414 301.657 168.031 292.692C137.457 274.936 87.695 274.936 56.8984 292.692C50.9071 296.153 46.0695 300.038 42.4059 304.176C38.7626 308.273 36.2729 312.624 34.9269 317.066C34.8662 317.238 34.8156 317.4 34.7852 317.551C34.6739 317.946 34.5626 318.33 34.4715 318.715C33.8845 321.163 33.6315 323.632 33.7327 326.101C33.7732 327.133 33.8541 328.175 34.0161 329.207C34.0363 329.298 34.0565 329.389 34.0667 329.48C34.1274 329.824 34.1982 330.158 34.2691 330.492C35.7163 337.473 39.9365 344.292 46.9601 350.342C47.3852 350.727 47.8406 351.091 48.2859 351.455C48.4681 351.607 48.6503 351.759 48.8426 351.911C49.9457 352.771 51.0994 353.631 52.324 354.46C52.7288 354.733 53.1438 355.007 53.5587 355.28C53.6397 355.33 53.7206 355.391 53.8117 355.442C54.2368 355.715 54.6719 355.978 55.097 356.241C55.5727 356.524 56.0281 356.818 56.5139 357.101C58.0117 357.971 59.5703 358.801 61.1592 359.59C61.3515 359.691 61.5438 359.772 61.7259 359.863C65.5514 361.715 69.5996 363.333 73.8401 364.699C74.2652 364.841 74.7105 364.972 75.1457 365.104C75.6011 365.246 76.0565 365.397 76.5221 365.529C76.7245 365.59 76.9269 365.64 77.1191 365.701C77.8276 365.903 78.536 366.106 79.2546 366.298C79.4266 366.338 79.5987 366.379 79.7707 366.429C81.4406 366.864 83.1206 367.259 84.8209 367.623C85.0233 367.674 85.2256 367.704 85.4281 367.745C86.1668 367.907 86.9057 368.058 87.6546 368.2C87.9784 368.261 88.3124 368.311 88.6362 368.372C89.2637 368.483 89.8912 368.595 90.5187 368.706C92.2391 368.979 93.9697 369.222 95.7105 369.434C95.9128 369.465 96.1153 369.495 96.3177 369.515C96.7933 369.576 97.2791 369.617 97.7548 369.667C98.2507 369.718 98.7466 369.778 99.2527 369.829C100.73 369.971 102.208 370.072 103.695 370.163C104.181 370.193 104.667 370.234 105.153 370.254C105.365 370.264 105.588 370.274 105.801 370.284C106.57 370.315 107.339 370.355 108.118 370.375C110.871 370.456 113.624 370.446 116.376 370.355C116.599 370.345 116.812 370.345 117.024 370.335C118.826 370.274 120.627 370.163 122.418 370.021C122.59 370.011 122.762 370.001 122.945 369.991C128.774 369.515 134.522 368.665 140.099 367.431C140.16 367.421 140.23 367.411 140.291 367.391C142.093 366.986 143.874 366.551 145.625 366.065C145.706 366.045 145.776 366.025 145.847 366.005H145.857C145.868 366.005 145.898 365.994 145.898 365.994L169.458 379.694L196.389 376.324L208.189 383.093L206.742 392.341L205.558 399.848L205.562 399.85L208.512 401.555L212.106 403.632ZM77.2102 355.249C72.9192 353.732 68.8811 351.901 65.177 349.746C64.7924 349.513 64.4078 349.28 64.0132 349.058C63.9018 348.977 63.7804 348.896 63.669 348.825C63.3958 348.622 63.163 348.471 62.8897 348.319C62.738 348.238 62.6267 348.127 62.4647 348.046C62.2724 347.934 62.0397 347.773 61.8069 347.621C61.6551 347.54 61.5032 347.429 61.3413 347.307C61.1491 347.155 60.9568 347.044 60.7645 346.882C60.6126 346.771 60.4609 346.66 60.2989 346.538C60.1066 346.386 59.9143 346.265 59.7221 346.113C59.5703 345.992 59.4083 345.881 59.2565 345.769C59.0642 345.607 58.872 345.496 58.7201 345.344C58.5582 345.223 58.4064 345.112 58.2546 344.99C58.0927 344.879 57.9004 344.717 57.7486 344.606C57.5968 344.484 57.4753 344.373 57.3235 344.252C57.1717 344.1 57.0098 343.989 56.858 343.827C56.7467 343.715 56.5847 343.594 56.4734 343.483C56.3114 343.331 56.1597 343.21 56.0078 343.058C55.8864 342.936 55.7346 342.825 55.6233 342.704C55.4614 342.552 55.3095 342.441 55.1578 342.279C54.9958 342.167 54.8845 342.016 54.7732 341.894C54.6112 341.743 54.4999 341.621 54.338 341.469C54.2266 341.358 54.1153 341.196 53.9939 341.085C53.8826 340.933 53.7206 340.812 53.6093 340.66C53.4879 340.539 53.3765 340.387 53.2551 340.275C53.1033 340.114 52.992 340.002 52.8705 339.851C52.7592 339.729 52.6378 339.577 52.5264 339.456C52.405 339.304 52.2936 339.193 52.1722 339.031C52.0609 338.879 51.9799 338.727 51.8686 338.606C51.7472 338.454 51.6358 338.333 51.5143 338.181C51.403 338.029 51.2816 337.878 51.2107 337.756C51.1298 337.645 51.0185 337.483 50.897 337.331C50.8262 337.179 50.7047 337.058 50.6237 336.906C50.5124 336.795 50.391 336.633 50.3201 336.481C50.1987 336.33 50.1278 336.208 50.0469 336.056C49.9659 335.935 49.8546 335.783 49.7737 335.631C49.7028 335.48 49.6218 335.358 49.5408 335.207C49.4295 335.085 49.3486 334.933 49.2778 334.782C49.1968 334.62 49.1158 334.508 49.045 334.357C48.964 334.195 48.8831 334.043 48.8122 333.891C48.7312 333.729 48.6908 333.618 48.6199 333.466C48.5389 333.304 48.458 333.153 48.3872 333.001C48.3062 332.849 48.2657 332.728 48.1949 332.576C48.1139 332.414 48.0734 332.262 47.9924 332.111C47.9621 331.959 47.8811 331.837 47.8406 331.686C47.7597 331.534 47.6888 331.372 47.6483 331.22C47.6079 331.099 47.537 330.947 47.4966 330.795C47.456 330.643 47.3751 330.482 47.3346 330.33C47.2637 330.219 47.2233 330.057 47.1828 329.905C47.1018 329.753 47.0715 329.591 47.031 329.439C46.9905 329.328 46.95 329.166 46.9095 329.015C46.8792 328.863 46.8387 328.701 46.7982 328.549C46.7577 328.438 46.7173 328.276 46.6768 328.124C46.6464 327.972 46.6059 327.811 46.5655 327.659C46.525 327.547 46.525 327.386 46.4845 327.234C46.444 327.082 46.444 326.93 46.4137 326.768C46.3732 326.657 46.3732 326.495 46.3327 326.343C46.2922 326.192 46.2922 326.04 46.2517 325.878C46.2517 325.767 46.2214 325.615 46.2214 325.453C46.2214 325.301 46.1809 325.15 46.1809 324.988C46.1809 324.876 46.1404 324.725 46.1404 324.563C46.0999 324.411 46.0999 324.259 46.0999 324.097V323.632C46.0088 318.806 47.4966 313.97 50.6035 309.386C53.8218 304.641 58.7708 300.189 65.4907 296.325C90.9437 281.624 132.276 281.624 157.577 296.325C170.197 303.68 176.462 313.272 176.462 322.904V323.834C176.462 323.986 176.421 324.138 176.421 324.3C176.421 324.451 176.381 324.603 176.381 324.755C176.381 324.917 176.35 325.069 176.35 325.22C176.35 325.382 176.35 325.534 176.31 325.686C176.269 325.848 176.269 326 176.229 326.151C176.188 326.303 176.188 326.465 176.158 326.617C176.158 326.768 176.118 326.93 176.077 327.082C176.077 327.193 176.037 327.355 175.996 327.507C175.956 327.659 175.925 327.811 175.885 327.972C175.844 328.084 175.804 328.246 175.763 328.397C175.733 328.549 175.693 328.701 175.652 328.863C175.612 328.974 175.571 329.126 175.531 329.288C175.5 329.439 175.419 329.591 175.379 329.753C175.298 329.864 175.267 330.016 175.227 330.178C175.187 330.33 175.106 330.482 175.075 330.643C175.035 330.755 174.954 330.907 174.913 331.068C174.842 331.22 174.802 331.372 174.721 331.534C174.64 331.645 174.61 331.797 174.529 331.959C174.448 332.111 174.417 332.262 174.336 332.414C174.255 332.576 174.215 332.687 174.144 332.849C174.063 333.001 173.992 333.153 173.911 333.304C173.871 333.466 173.79 333.578 173.719 333.729C173.638 333.891 173.557 334.043 173.486 334.195C173.405 334.357 173.324 334.468 173.254 334.62C173.132 334.782 173.061 334.933 172.98 335.085C172.899 335.247 172.828 335.358 172.748 335.51C172.677 335.631 172.555 335.783 172.474 335.935C172.403 336.097 172.282 336.208 172.211 336.36C172.09 336.481 172.009 336.633 171.897 336.795C171.816 336.947 171.746 337.058 171.624 337.22C171.553 337.331 171.432 337.483 171.32 337.645C171.199 337.797 171.128 337.948 171.007 338.07C170.895 338.181 170.774 338.333 170.663 338.495C170.582 338.606 170.47 338.758 170.349 338.879C170.238 339.031 170.116 339.152 170.005 339.304C169.883 339.426 169.772 339.577 169.651 339.689C169.539 339.851 169.377 339.962 169.266 340.114C169.145 340.235 169.033 340.387 168.922 340.508C168.801 340.66 168.649 340.771 168.527 340.933C168.416 341.044 168.294 341.196 168.183 341.318C168.031 341.469 167.91 341.591 167.758 341.743C167.637 341.854 167.485 342.016 167.374 342.127C167.252 342.279 167.1 342.4 166.948 342.552C166.827 342.673 166.675 342.825 166.554 342.936C166.402 343.098 166.25 343.21 166.088 343.361C165.936 343.523 165.825 343.634 165.663 343.756C165.511 343.908 165.319 344.029 165.167 344.181C165.005 344.292 164.894 344.414 164.742 344.525C164.58 344.677 164.388 344.798 164.236 344.95C164.125 345.071 163.963 345.182 163.811 345.304C163.619 345.456 163.457 345.567 163.265 345.729C163.113 345.84 162.961 345.962 162.809 346.073C162.647 346.225 162.455 346.346 162.263 346.498C162.111 346.619 161.949 346.73 161.797 346.852C161.605 346.963 161.413 347.115 161.22 347.236C161.028 347.348 160.866 347.469 160.714 347.58C160.522 347.742 160.289 347.854 160.097 348.005C159.945 348.127 159.783 348.198 159.631 348.319C159.358 348.511 159.085 348.663 158.822 348.825C158.7 348.896 158.589 348.977 158.467 349.058C158.083 349.28 157.658 349.513 157.273 349.746C135.535 362.301 102.238 364.133 77.2102 355.249Z" fill="#FFC412"/>
<path d="M65.1535 299.852C65.1514 299.853 65.1492 299.854 65.1471 299.856C65.0541 299.921 64.961 299.986 64.868 300.042C64.8523 300.053 64.8388 300.063 64.8247 300.073C64.8248 300.073 64.8246 300.073 64.8247 300.073C64.8388 300.063 64.8523 300.053 64.868 300.042C64.9631 299.985 65.0585 299.918 65.1535 299.852Z" fill="#FFC412"/>
<path d="M84.0758 291.346C84.0636 291.349 84.0512 291.352 84.0391 291.356C84.1716 291.318 84.3068 291.284 84.4396 291.246C84.3189 291.28 84.1961 291.311 84.0758 291.346Z" fill="#FFC412"/>
<path d="M65.9674 299.283C65.9662 299.284 65.9648 299.285 65.9636 299.286C65.9335 299.306 65.9024 299.325 65.8725 299.345C65.8256 299.392 65.7692 299.431 65.7122 299.471C65.7091 299.473 65.7063 299.476 65.7031 299.478C65.7638 299.437 65.8229 299.395 65.8725 299.345C65.9036 299.325 65.9362 299.304 65.9674 299.283Z" fill="#FFC412"/>
<path d="M64.443 300.351C64.4477 300.348 64.4514 300.345 64.4559 300.342C64.4551 300.342 64.4547 300.343 64.454 300.343C64.4501 300.346 64.447 300.348 64.443 300.351C64.2495 300.468 64.0558 300.622 63.8623 300.739C63.8267 300.765 63.7969 300.786 63.7645 300.81C63.761 300.812 63.7574 300.815 63.7539 300.817C63.7896 300.792 63.8228 300.768 63.8623 300.739C64.0558 300.622 64.2495 300.468 64.443 300.351Z" fill="#FFC412"/>
<path d="M62.6655 301.586C62.6643 301.587 62.6629 301.588 62.6617 301.589C62.6008 301.637 62.54 301.688 62.4705 301.74C62.3803 301.808 62.2786 301.888 62.1774 301.966C62.1755 301.968 62.1738 301.969 62.1719 301.971C62.2749 301.89 62.3786 301.81 62.4705 301.74C62.5413 301.687 62.6035 301.635 62.6655 301.586Z" fill="#FFC412"/>
<path d="M61.0361 302.865C61.128 302.795 61.2229 302.715 61.3228 302.635C61.3171 302.639 61.3102 302.643 61.3046 302.648C61.2113 302.724 61.1227 302.799 61.0361 302.865Z" fill="#FFC412"/>
<path d="M63.1944 301.217C63.1914 301.219 63.1881 301.221 63.185 301.223C63.0913 301.296 62.9975 301.369 62.8934 301.431C62.8421 301.457 62.798 301.492 62.7524 301.525C62.749 301.527 62.7455 301.529 62.7422 301.531C62.7909 301.496 62.8384 301.459 62.8934 301.431C63.0008 301.367 63.0976 301.292 63.1944 301.217Z" fill="#FFC412"/>
<path d="M157.275 349.745C157.66 349.513 158.085 349.28 158.469 349.057C158.591 348.977 158.702 348.896 158.823 348.825C159.087 348.663 159.36 348.511 159.633 348.319C159.785 348.198 159.947 348.127 160.099 348.005C160.291 347.853 160.524 347.742 160.716 347.58C160.868 347.469 161.03 347.348 161.222 347.236C161.414 347.115 161.607 346.963 161.799 346.852C161.951 346.73 162.113 346.619 162.264 346.498C162.457 346.346 162.649 346.225 162.811 346.073C162.963 345.962 163.114 345.84 163.266 345.729C163.459 345.567 163.62 345.456 163.813 345.304C163.965 345.182 164.127 345.071 164.238 344.95C164.39 344.798 164.582 344.677 164.744 344.525C164.896 344.413 165.007 344.292 165.169 344.181C165.321 344.029 165.513 343.908 165.665 343.756C165.827 343.634 165.938 343.523 166.09 343.361C166.252 343.209 166.404 343.098 166.555 342.936C166.677 342.825 166.829 342.673 166.95 342.552C167.102 342.4 167.254 342.279 167.375 342.127C167.487 342.016 167.638 341.854 167.76 341.742C167.912 341.591 168.033 341.469 168.185 341.317C168.296 341.196 168.418 341.044 168.529 340.933C168.65 340.771 168.802 340.66 168.924 340.508C169.035 340.387 169.146 340.235 169.268 340.113C169.379 339.962 169.541 339.85 169.652 339.689C169.774 339.577 169.885 339.426 170.007 339.304C170.118 339.152 170.239 339.031 170.351 338.879C170.472 338.758 170.583 338.606 170.664 338.495C170.776 338.333 170.897 338.181 171.008 338.07C171.13 337.948 171.201 337.797 171.322 337.645C171.433 337.483 171.555 337.331 171.626 337.22C171.747 337.058 171.818 336.947 171.899 336.795C172.01 336.633 172.091 336.481 172.213 336.36C172.284 336.208 172.405 336.097 172.476 335.935C172.557 335.783 172.678 335.631 172.749 335.51C172.83 335.358 172.901 335.247 172.982 335.085C173.063 334.933 173.134 334.782 173.255 334.62C173.326 334.468 173.407 334.357 173.488 334.195C173.559 334.043 173.64 333.891 173.721 333.729C173.792 333.578 173.873 333.466 173.913 333.304C173.994 333.153 174.065 333.001 174.146 332.849C174.217 332.687 174.257 332.576 174.338 332.414C174.419 332.262 174.449 332.11 174.53 331.959C174.611 331.797 174.642 331.645 174.723 331.534C174.804 331.372 174.844 331.22 174.915 331.068C174.955 330.906 175.036 330.755 175.077 330.643C175.107 330.482 175.188 330.33 175.229 330.178C175.269 330.016 175.299 329.864 175.38 329.753C175.421 329.591 175.502 329.439 175.532 329.288C175.573 329.126 175.613 328.974 175.654 328.863C175.694 328.701 175.735 328.549 175.765 328.397C175.806 328.246 175.846 328.084 175.886 327.972C175.927 327.811 175.957 327.659 175.998 327.507C176.038 327.355 176.079 327.193 176.079 327.082C176.119 326.93 176.16 326.768 176.16 326.617C176.19 326.465 176.19 326.303 176.231 326.151C176.271 325.999 176.271 325.848 176.312 325.686C176.352 325.534 176.352 325.382 176.352 325.22C176.352 325.069 176.382 324.917 176.382 324.755C176.382 324.603 176.423 324.451 176.423 324.3C176.423 324.138 176.463 323.986 176.463 323.834V322.903C176.463 313.272 170.199 303.68 157.579 296.325C132.277 281.624 90.9454 281.624 65.4924 296.325C58.7724 300.189 53.8235 304.641 50.6052 309.386C47.4982 313.97 46.0105 318.806 46.1016 323.632V324.097C46.1016 324.259 46.1016 324.411 46.1421 324.563C46.1421 324.725 46.1826 324.876 46.1826 324.988C46.1826 325.15 46.223 325.301 46.223 325.453C46.223 325.615 46.2534 325.767 46.2534 325.878C46.2939 326.04 46.2939 326.192 46.3343 326.343C46.3749 326.495 46.3749 326.657 46.4153 326.768C46.4457 326.93 46.4457 327.082 46.4862 327.234C46.5266 327.386 46.5266 327.547 46.5672 327.659C46.6076 327.811 46.6481 327.972 46.6785 328.124C46.7189 328.276 46.7594 328.438 46.7999 328.549C46.8404 328.701 46.8809 328.863 46.9112 329.015C46.9517 329.166 46.9922 329.328 47.0327 329.439C47.0732 329.591 47.1035 329.753 47.1845 329.905C47.225 330.057 47.2654 330.219 47.3363 330.33C47.3768 330.482 47.4577 330.643 47.4982 330.795C47.5387 330.947 47.6095 331.099 47.65 331.22C47.6905 331.372 47.7614 331.534 47.8423 331.686C47.8828 331.837 47.9637 331.959 47.9941 332.11C48.0751 332.262 48.1156 332.414 48.1965 332.576C48.2674 332.728 48.3079 332.849 48.3888 333.001C48.4597 333.153 48.5406 333.304 48.6216 333.466C48.6924 333.618 48.7329 333.729 48.8139 333.891C48.8847 334.043 48.9657 334.195 49.0466 334.357C49.1175 334.508 49.1985 334.62 49.2794 334.782C49.3503 334.933 49.4312 335.085 49.5425 335.206C49.6235 335.358 49.7045 335.48 49.7753 335.631C49.8563 335.783 49.9676 335.935 50.0485 336.056C50.1295 336.208 50.2004 336.33 50.3218 336.481C50.3927 336.633 50.5141 336.795 50.6254 336.906C50.7064 337.058 50.8278 337.179 50.8987 337.331C51.0201 337.483 51.1314 337.645 51.2124 337.756C51.2833 337.878 51.4047 338.029 51.516 338.181C51.6375 338.333 51.7488 338.454 51.8703 338.606C51.9816 338.727 52.0626 338.879 52.1739 339.031C52.2953 339.193 52.4066 339.304 52.5281 339.456C52.6394 339.577 52.7609 339.729 52.8722 339.85C52.9936 340.002 53.1049 340.113 53.2568 340.275C53.3782 340.387 53.4895 340.538 53.611 340.66C53.7223 340.812 53.8842 340.933 53.9956 341.085C54.117 341.196 54.2283 341.358 54.3397 341.469C54.5016 341.621 54.6129 341.742 54.7748 341.894C54.8862 342.016 54.9975 342.167 55.1594 342.279C55.3112 342.441 55.463 342.552 55.6249 342.704C55.7363 342.825 55.8881 342.936 56.0095 343.058C56.1613 343.209 56.3131 343.331 56.4751 343.483C56.5864 343.594 56.7484 343.715 56.8597 343.827C57.0114 343.989 57.1734 344.1 57.3252 344.252C57.477 344.373 57.5984 344.484 57.7503 344.606C57.902 344.717 58.0943 344.879 58.2563 344.99C58.4081 345.112 58.5599 345.223 58.7218 345.344C58.8736 345.496 59.0659 345.607 59.2582 345.769C59.41 345.881 59.5719 345.992 59.7238 346.113C59.916 346.265 60.1083 346.386 60.3006 346.538C60.4625 346.66 60.6143 346.771 60.7661 346.882C60.9584 347.044 61.1507 347.155 61.343 347.307C61.5049 347.429 61.6568 347.54 61.8086 347.621C62.0413 347.773 62.2741 347.934 62.4664 348.046C62.6283 348.127 62.7397 348.238 62.8914 348.319C63.1647 348.471 63.3974 348.622 63.6707 348.825C63.782 348.896 63.9035 348.977 64.0148 349.057C64.4095 349.28 64.7941 349.513 65.1787 349.745C68.8828 351.901 72.9208 353.732 77.2119 355.249C102.24 364.133 135.536 362.301 157.275 349.745ZM50.0891 321.892C50.0891 321.74 50.1295 321.629 50.1295 321.467C50.1295 321.315 50.17 321.204 50.17 321.042C50.17 320.89 50.2004 320.779 50.2004 320.617C50.2408 320.465 50.2408 320.354 50.2814 320.192C50.3218 320.081 50.3218 319.929 50.3623 319.767C50.3927 319.615 50.3927 319.463 50.4331 319.342C50.4736 319.19 50.4736 319.069 50.5141 318.917C50.5546 318.765 50.5951 318.614 50.6254 318.492C50.6659 318.34 50.7064 318.219 50.7064 318.067C50.7469 317.915 50.7874 317.794 50.8278 317.642C50.8582 317.491 50.8987 317.369 50.9392 317.217C50.9797 317.066 51.0201 316.944 51.0505 316.792C51.091 316.631 51.1314 316.519 51.172 316.367C51.2124 316.206 51.2833 316.094 51.3237 315.943C51.3643 315.821 51.4047 315.669 51.4857 315.518C51.516 315.356 51.597 315.244 51.6375 315.093C51.678 314.971 51.7488 314.819 51.7893 314.668C51.8703 314.506 51.9107 314.395 51.9816 314.233C52.0626 314.121 52.103 313.97 52.1739 313.848C52.2549 313.696 52.2953 313.575 52.3662 313.423C52.4472 313.312 52.4876 313.15 52.5686 313.039C52.5888 312.988 52.6091 312.948 52.6394 312.907C52.6495 312.887 52.6596 312.877 52.6596 312.857H52.6698C52.7102 312.776 52.7508 312.705 52.8013 312.614C52.8216 312.584 52.8418 312.543 52.8722 312.503C52.9228 312.411 52.9734 312.31 53.024 312.229C53.0948 312.098 53.1555 311.997 53.2264 311.875C53.2365 311.855 53.2466 311.835 53.2568 311.804C53.2871 311.764 53.3074 311.723 53.3377 311.683C53.3478 311.653 53.358 311.632 53.3782 311.612C53.4187 311.541 53.4491 311.471 53.4895 311.41C53.5705 311.258 53.6515 311.147 53.7628 310.985C53.8437 310.874 53.9146 310.722 53.9956 310.6C54.0057 310.58 54.0259 310.55 54.0461 310.53C54.0867 310.449 54.1373 310.378 54.198 310.297C54.2182 310.256 54.2486 310.216 54.2688 310.176C54.289 310.145 54.3194 310.105 54.3599 310.054C54.4105 309.963 54.4914 309.872 54.542 309.791C54.6129 309.629 54.7343 309.518 54.8457 309.366C54.8659 309.336 54.8963 309.295 54.9266 309.255C54.9873 309.164 55.0582 309.063 55.1189 308.982C55.1493 308.951 55.1696 308.921 55.1898 308.891C55.2303 308.83 55.2809 308.769 55.3112 308.719C55.3315 308.708 55.3315 308.688 55.3517 308.678C55.3517 308.668 55.3618 308.668 55.3618 308.658C55.3821 308.628 55.4023 308.587 55.4326 308.547C55.4408 308.53 55.4567 308.51 55.4695 308.493C55.4704 308.492 55.4714 308.491 55.4724 308.489C55.4905 308.465 55.5066 308.444 55.5238 308.415C55.5946 308.334 55.6655 308.243 55.7363 308.162C55.8274 308.081 55.9083 307.97 55.9994 307.848C56.0298 307.808 56.0601 307.778 56.0905 307.737C56.1208 307.707 56.1512 307.666 56.1816 307.636C56.2119 307.606 56.2322 307.565 56.2625 307.535C56.303 307.474 56.3435 307.413 56.3941 307.353C56.4346 307.302 56.4751 307.252 56.5257 307.201C56.5965 307.11 56.6674 307.029 56.7484 306.928C56.8293 306.837 56.9103 306.756 56.971 306.665C57.0014 306.624 57.0317 306.584 57.052 306.543C57.1734 306.422 57.2847 306.27 57.4365 306.149C57.558 306.037 57.6693 305.916 57.7907 305.805C57.902 305.683 58.064 305.532 58.1753 305.42C58.2866 305.299 58.4081 305.188 58.5194 305.066C58.6813 304.914 58.7926 304.803 58.9445 304.682C59.0659 304.57 59.1772 304.449 59.3392 304.338C59.491 304.216 59.6428 304.064 59.8047 303.943C59.916 303.832 60.0375 303.71 60.1893 303.599C60.3411 303.488 60.4929 303.326 60.6548 303.215C60.6852 303.184 60.7156 303.154 60.756 303.124C60.8167 303.063 60.8876 303.002 60.9483 302.941C60.9787 302.921 61.009 302.891 61.0394 302.861C61.1247 302.798 61.2128 302.723 61.3071 302.648C61.3127 302.643 61.3196 302.639 61.3253 302.635C61.394 302.58 61.4635 302.525 61.5454 302.476C61.5983 302.423 61.6613 302.368 61.7291 302.313C61.733 302.31 61.7359 302.306 61.7398 302.303C61.8117 302.245 61.8898 302.187 61.9705 302.132C62.0321 302.083 62.1021 302.027 62.1716 301.972C62.1735 301.97 62.1753 301.969 62.1772 301.968C62.2772 301.888 62.3779 301.808 62.4664 301.737C62.5394 301.687 62.6007 301.638 62.6614 301.59C62.6626 301.589 62.664 301.588 62.6652 301.587C62.6907 301.568 62.7192 301.551 62.7447 301.533C62.7479 301.53 62.7515 301.528 62.7548 301.526C62.799 301.494 62.8418 301.46 62.8914 301.434C62.9998 301.369 63.0942 301.296 63.1875 301.225C63.1905 301.222 63.1939 301.22 63.1969 301.218C63.2748 301.158 63.3519 301.099 63.438 301.049C63.5511 300.959 63.6503 300.892 63.7548 300.816C63.7582 300.813 63.7619 300.81 63.7654 300.808C63.7978 300.784 63.8281 300.764 63.863 300.736C64.0553 300.624 64.2476 300.463 64.4399 300.351C64.4465 300.346 64.4491 300.345 64.4548 300.341C64.4556 300.341 64.456 300.341 64.4567 300.34C64.4845 300.321 64.5062 300.307 64.531 300.291C64.6119 300.23 64.703 300.169 64.784 300.108C64.7996 300.093 64.8125 300.082 64.8255 300.072C64.8254 300.072 64.8256 300.072 64.8255 300.072C64.8377 300.062 64.8503 300.052 64.8649 300.038C64.9614 299.985 65.0554 299.919 65.1484 299.854C65.1505 299.853 65.1527 299.852 65.1548 299.85C65.2547 299.78 65.3534 299.71 65.4519 299.653C65.5392 299.589 65.6245 299.534 65.7059 299.476C65.7091 299.474 65.7119 299.471 65.715 299.469C65.7718 299.428 65.8281 299.388 65.877 299.34C65.9055 299.321 65.9378 299.302 65.9664 299.284C65.9676 299.283 65.969 299.282 65.9702 299.281C66.1737 299.149 66.3762 299.017 66.6057 298.884C66.7271 298.803 66.8384 298.722 66.9599 298.652C67.304 298.419 67.6986 298.227 68.0832 297.994C72.882 295.222 78.2859 293.016 84.0401 291.355C84.0522 291.352 84.0646 291.349 84.0768 291.345C87.1335 290.464 90.2841 289.729 93.5058 289.161C96.6128 288.625 99.7704 288.22 102.958 287.967C104.78 287.826 106.612 287.725 108.444 287.674C109.425 287.644 110.397 287.633 111.379 287.633C120.011 287.633 128.634 288.686 136.619 290.79C136.629 290.79 136.639 290.8 136.639 290.8C136.688 290.813 136.735 290.828 136.784 290.841C136.97 290.89 137.152 290.946 137.337 290.996C138.313 291.26 139.279 291.54 140.234 291.836C140.615 291.954 140.993 292.078 141.37 292.201C141.742 292.322 142.121 292.435 142.489 292.561C143.023 292.747 143.547 292.936 144.073 293.128C144.175 293.166 144.279 293.201 144.381 293.239C144.392 293.239 144.392 293.239 144.392 293.239C144.601 293.317 144.798 293.407 145.006 293.487C146.145 293.923 147.274 294.368 148.369 294.847C148.44 294.888 148.511 294.918 148.592 294.949C149.827 295.502 151.042 296.085 152.23 296.706C152.258 296.721 152.287 296.734 152.316 296.749C153.075 297.144 153.824 297.559 154.563 297.994C154.917 298.227 155.301 298.419 155.646 298.652C155.702 298.685 155.756 298.719 155.806 298.752C155.823 298.763 155.837 298.77 155.853 298.78C155.891 298.804 155.929 298.829 155.959 298.844C156.192 298.996 156.455 299.147 156.688 299.309C156.791 299.369 156.912 299.445 157.022 299.532C157.042 299.548 157.064 299.555 157.083 299.572C157.275 299.734 157.508 299.845 157.7 299.997C157.77 300.053 157.833 300.099 157.896 300.145C157.921 300.163 157.948 300.184 157.973 300.201C158.022 300.237 158.071 300.271 158.125 300.311C158.156 300.33 158.187 300.353 158.218 300.374C158.337 300.454 158.457 300.535 158.576 300.613C158.618 300.64 158.66 300.671 158.702 300.695C158.808 300.775 158.894 300.836 158.983 300.9C159.029 300.935 159.074 300.967 159.127 301.009C159.248 301.079 159.358 301.166 159.47 301.251C159.537 301.301 159.602 301.352 159.673 301.393C159.812 301.504 159.927 301.6 160.06 301.679C160.074 301.687 160.085 301.7 160.099 301.707C160.158 301.751 160.226 301.803 160.294 301.855C160.399 301.935 160.506 302.018 160.605 302.092C160.756 302.203 160.868 302.324 161.03 302.436C161.179 302.555 161.328 302.702 161.487 302.823C161.489 302.824 161.49 302.826 161.493 302.828C161.493 302.829 161.494 302.829 161.495 302.83C161.607 302.941 161.758 303.053 161.88 303.134C161.934 303.177 161.989 303.226 162.044 303.274C162.08 303.306 162.117 303.334 162.154 303.366C162.217 303.419 162.28 303.473 162.345 303.518C162.401 303.579 162.466 303.636 162.533 303.694C162.6 303.753 162.669 303.811 162.73 303.872C162.775 303.905 162.818 303.945 162.862 303.983C162.967 304.074 163.069 304.171 163.155 304.257L163.499 304.601C163.52 304.621 163.549 304.646 163.571 304.668C163.68 304.776 163.798 304.895 163.924 304.995C164.009 305.073 164.089 305.154 164.171 305.235C164.207 305.27 164.242 305.306 164.278 305.339C164.39 305.451 164.552 305.612 164.663 305.724C164.688 305.751 164.714 305.779 164.74 305.805C164.829 305.899 164.921 305.993 165.007 306.118C165.128 306.23 165.24 306.381 165.361 306.503C165.473 306.614 165.594 306.736 165.665 306.887C165.73 306.947 165.792 307.02 165.854 307.093C165.908 307.156 165.963 307.22 166.019 307.272C166.05 307.306 166.076 307.345 166.104 307.382C166.176 307.479 166.243 307.579 166.323 307.666C166.444 307.778 166.555 307.929 166.677 308.051C166.714 308.088 166.746 308.133 166.779 308.177C166.798 308.203 166.82 308.226 166.839 308.253C166.884 308.315 166.929 308.379 166.98 308.435C167.093 308.539 167.195 308.686 167.274 308.829C167.28 308.839 167.289 308.85 167.294 308.86C167.303 308.874 167.315 308.89 167.325 308.904C167.364 308.961 167.404 309.019 167.447 309.078C167.489 309.137 167.532 309.196 167.568 309.245C167.603 309.292 167.631 309.335 167.661 309.38C167.683 309.412 167.708 309.448 167.729 309.477C167.736 309.485 167.741 309.494 167.747 309.502C167.79 309.555 167.827 309.608 167.871 309.67C167.952 309.791 168.063 309.943 168.144 310.064C168.225 310.216 168.337 310.327 168.418 310.489C168.499 310.6 168.569 310.752 168.65 310.874C168.721 311.025 168.802 311.147 168.924 311.299C168.994 311.41 169.075 311.572 169.146 311.683C169.227 311.835 169.308 311.956 169.379 312.108C169.46 312.229 169.541 312.381 169.612 312.492C169.693 312.654 169.774 312.766 169.845 312.917C169.926 313.039 169.966 313.191 170.047 313.312C170.118 313.464 170.199 313.575 170.239 313.737C170.31 313.848 170.351 314 170.432 314.162C170.45 314.201 170.464 314.236 170.479 314.272C170.513 314.35 170.549 314.429 170.587 314.508C170.599 314.534 170.609 314.559 170.624 314.587C170.657 314.677 170.706 314.795 170.746 314.897C170.756 314.922 170.768 314.95 170.776 314.971C170.776 314.971 170.776 314.972 170.776 314.971C170.776 314.98 170.776 314.981 170.786 314.981C170.818 315.1 170.864 315.199 170.899 315.307C170.908 315.337 170.921 315.364 170.927 315.396C170.953 315.473 170.992 315.563 171.03 315.657C171.052 315.711 171.075 315.766 171.089 315.821C171.13 315.983 171.201 316.094 171.241 316.246C171.253 316.281 171.265 316.33 171.276 316.369C171.286 316.402 171.296 316.436 171.305 316.47C171.324 316.539 171.344 316.599 171.363 316.671C171.375 316.739 171.391 316.796 171.406 316.853C171.416 316.89 171.427 316.931 171.437 316.967C171.449 317.009 171.462 317.049 171.474 317.096C171.503 317.211 171.53 317.303 171.555 317.4C171.566 317.439 171.577 317.477 171.585 317.521C171.613 317.631 171.64 317.721 171.668 317.813C171.681 317.856 171.694 317.897 171.707 317.946C171.747 318.067 171.788 318.219 171.788 318.381C171.798 318.433 171.809 318.479 171.82 318.525C171.841 318.613 171.859 318.7 171.859 318.806C171.883 318.899 171.895 318.981 171.908 319.065C171.917 319.117 171.924 319.169 171.939 319.231C171.966 319.331 171.977 319.418 171.989 319.509C171.995 319.556 172 319.601 172.01 319.656C172.051 319.808 172.051 319.929 172.091 320.081C172.112 320.16 172.123 320.231 172.133 320.302C172.143 320.367 172.153 320.433 172.172 320.506C172.172 320.617 172.213 320.779 172.213 320.931C172.213 321.004 172.22 321.07 172.227 321.136C172.235 321.206 172.243 321.277 172.243 321.355C172.243 321.507 172.243 321.629 172.284 321.78C172.284 321.791 172.284 321.791 172.284 321.791C172.284 321.902 172.294 322.003 172.314 322.114C172.314 322.145 172.324 322.175 172.324 322.205V323.982V324.027C171.98 331.159 167.952 338.242 160.25 344.241C158.479 345.617 156.506 346.943 154.33 348.198C142.378 355.108 126.691 358.558 111.035 358.558C110.053 358.558 109.071 358.548 108.1 358.517C106.136 358.467 104.193 358.356 102.25 358.194C101.461 358.133 100.671 358.052 99.8919 357.971C98.3232 357.799 96.7647 357.597 95.2162 357.364C94.0441 357.183 92.8822 356.976 91.7273 356.754C91.7267 356.754 91.7261 356.754 91.7255 356.754C91.3845 356.689 91.0481 356.614 90.7088 356.545C90.7067 356.544 90.7046 356.544 90.7024 356.544C89.8997 356.38 89.1003 356.21 88.3079 356.027C88.3069 356.027 88.3059 356.026 88.305 356.026C87.8926 355.931 87.4837 355.829 87.0744 355.728C87.0731 355.728 87.0717 355.728 87.0705 355.728C86.3502 355.55 85.6347 355.365 84.9244 355.17C84.9238 355.17 84.9231 355.17 84.9224 355.17C84.5021 355.055 84.0825 354.939 83.6659 354.818C83.6653 354.818 83.6646 354.817 83.6641 354.817C82.9594 354.613 82.263 354.396 81.5698 354.175C81.5678 354.174 81.5658 354.174 81.5638 354.173C81.1681 354.047 80.7695 353.924 80.3777 353.793C80.3767 353.792 80.3758 353.792 80.3748 353.792C79.615 353.536 78.8681 353.263 78.1242 352.987C78.1183 352.985 78.1124 352.983 78.1065 352.981C77.8031 352.868 77.4927 352.764 77.1919 352.647C77.191 352.647 77.19 352.647 77.1891 352.646C76.2115 352.269 75.2517 351.87 74.3055 351.455C74.3047 351.455 74.304 351.455 74.3032 351.454C73.7924 351.23 73.2956 350.991 72.7943 350.756C72.7912 350.754 72.7881 350.753 72.785 350.751C72.4335 350.587 72.0733 350.431 71.7266 350.261C71.5993 350.201 71.4777 350.133 71.3513 350.071C71.3503 350.071 71.3494 350.07 71.3484 350.07C71.0407 349.919 70.7378 349.763 70.435 349.607C70.434 349.606 70.4331 349.606 70.4322 349.605C69.6594 349.205 68.8979 348.794 68.1531 348.367C68.1509 348.365 68.1487 348.364 68.1465 348.363C68.0488 348.307 67.9478 348.254 67.8505 348.198C67.7636 348.147 67.6818 348.095 67.5958 348.045C67.5939 348.044 67.5922 348.042 67.5902 348.041C66.9441 347.66 66.3178 347.272 65.7076 346.878C65.7078 346.878 65.7074 346.877 65.7076 346.878C65.6368 346.832 65.5629 346.787 65.4924 346.741C65.2596 346.589 65.037 346.437 64.8143 346.285C64.278 345.931 63.7618 345.567 63.2659 345.203C63.0331 345.031 62.8004 344.859 62.5676 344.687C62.0717 344.312 61.5859 343.918 61.1103 343.533C60.9382 343.392 60.756 343.24 60.584 343.098C59.3189 342.016 58.1652 340.903 57.1329 339.759C56.9912 339.608 56.8698 339.456 56.7382 339.314C56.3536 338.879 55.9893 338.444 55.6452 337.999C55.5136 337.837 55.3821 337.665 55.2606 337.503C55.1196 337.318 54.9928 337.127 54.8576 336.939C54.8039 336.864 54.7506 336.79 54.6976 336.715C54.5491 336.505 54.3922 336.298 54.2486 336.087C54.1676 335.965 54.0867 335.844 54.0057 335.722C53.864 335.51 53.7324 335.287 53.6008 335.065C53.4085 334.751 53.2264 334.438 53.0442 334.124C53.0442 334.114 53.0442 334.114 53.0442 334.104C51.2833 330.927 50.3016 327.639 50.1295 324.33V324.3C50.1288 324.293 50.1284 324.288 50.1277 324.281C50.1267 324.271 50.1261 324.263 50.1251 324.254C50.0863 323.861 50.0485 323.536 50.0485 323.177V322.327C50.0485 322.165 50.0891 322.054 50.0891 321.892Z" fill="#FFD966"/>
<path d="M515.168 438.335C515.455 438.191 515.723 438.02 515.972 437.826C517.062 436.978 517.795 435.683 518.297 434.28C519.521 430.859 519.338 426.771 519.338 426.771L519.364 394.434L519.378 377.641V377.64L519.376 377.638L442.632 333.23L437.148 330.057L437.26 378.267V398.138L437.287 398.152L437.3 398.158L445.599 402.944L452.258 406.789L504.329 436.818C509.398 439.761 512.707 439.772 514.943 438.488C514.944 438.488 514.945 438.487 514.945 438.487C514.95 438.482 514.957 438.477 514.965 438.473C514.972 438.467 514.98 438.462 514.986 438.457C515.007 438.446 515.029 438.435 515.05 438.424C515.069 438.415 515.088 438.406 515.107 438.396L515.111 438.392L515.117 438.386C515.127 438.386 515.127 438.386 515.148 438.376C515.148 438.375 515.148 438.374 515.149 438.373C515.158 438.364 515.167 438.354 515.167 438.337C515.167 438.336 515.168 438.336 515.168 438.335ZM504.489 407.977L504.46 411.423L467.673 390.186L467.672 381.717L499.896 400.319L504.531 402.995L504.489 407.977ZM504.531 394.526L485.06 383.296L485.059 383.296C485.059 383.296 485.059 383.299 485.059 383.299C485.059 383.3 485.059 383.299 485.059 383.306L453.868 365.337L453.237 364.969L452.896 364.77L452.957 356.336L452.957 356.302L482.964 373.608L504.531 386.048V394.526Z" fill="#BEF941"/>
<path d="M177.141 120.706C185.97 125.832 249.037 162.248 249.197 162.34C249.197 162.34 249.2 162.342 249.2 162.342L249.365 162.247L249.365 162.245L248.538 159.618L189.653 125.226L171.927 115.648L167.491 116.588L165.258 117.879C165.313 117.851 165.38 117.82 165.461 117.786C166.551 117.332 170.03 116.577 177.141 120.706Z" fill="#ED56F0"/>
<path d="M165.066 117.988L165.256 117.879C165.131 117.943 165.066 117.988 165.066 117.988Z" fill="#ED56F0"/>
<path d="M524.893 332.065C524.942 325.463 522.717 320.228 520.033 316.235C515.763 309.931 510.507 306.843 510.244 306.712L486.751 293.084L486.749 293.083L453.665 273.983L453.664 273.982L436.999 264.361L436.997 264.36L436.992 264.357L437.013 270.675L504.791 309.799C505.005 309.959 508.514 311.983 512.113 316.154C512.944 317.116 513.779 318.193 514.579 319.388C517.273 323.394 519.507 328.649 519.441 335.282V343.755L524.895 340.602V332.064L524.893 332.065Z" fill="#98D517"/>
<path d="M437.3 398.955L437.254 398.133V407.766L437.259 407.763L437.299 407.735L437.32 407.722L445.599 402.945L445.597 402.944L437.299 398.159L437.3 398.955Z" fill="#5040F5"/>
<path d="M362.844 230.518H360.996V232.649H362.844V230.518Z" fill="#6D69FF"/>
</svg>
