<svg width="914" height="914" viewBox="0 0 914 914" fill="none" xmlns="http://www.w3.org/2000/svg">
<path d="M680.208 631.571C679.82 625.238 679.82 625.238 672.512 623.618C672.723 625.031 672.924 626.373 673.214 628.318C664.443 622.884 656.315 617.628 650.295 610.468C648.037 607.782 645.56 605.681 641.65 604.496C622.185 598.595 608.582 587.135 600.182 571.723C595.479 563.094 592.515 553.89 588.8 544.937C588.067 543.171 587.483 541.371 586.975 539.979C583.477 537.982 580.9 539.044 579.778 540.867C577.047 545.305 573.65 549.397 575.69 555.47C577.517 560.909 573.742 565.459 569.21 569.601C568.055 568.865 567.003 568.195 565.416 567.186C561.965 572.113 558.47 576.968 555.152 581.91C553.883 583.8 552.135 584.681 549.768 585.713C544.423 588.044 539.863 591.516 534.984 594.523L535.05 594.662C533.521 591.431 530.61 591.613 527.618 592.33C527.105 592.453 526.539 593.276 526.615 593.74C526.691 594.202 527.477 594.713 528.076 595.031C528.704 595.364 529.479 595.492 530.19 595.71L530.044 595.559C530.834 596.579 531.622 597.598 532.926 599.282C528.799 598.754 525.539 598.033 522.329 598.011C519.004 597.988 515.752 598.849 512.422 598.939C509.473 599.017 506.413 598.831 503.483 598.306C488.316 595.59 473.174 592.741 458.027 589.909C454.005 589.158 449.854 588.665 446.033 587.395C442.574 586.245 439.486 584.197 436.339 582.599C432.702 584.075 429.218 585.49 425.734 586.904L425.886 586.813C413.986 586.849 402.028 586.234 390.191 587.008C388.73 587.103 387.072 587.229 385.75 586.772C379.57 584.635 375.81 587.613 372.033 590.417C367.187 594.015 362.402 597.677 357.79 601.478C351.262 606.856 343.107 609.381 333.841 609.069C328.901 608.903 325.106 609.711 321.952 612.512C316.624 617.246 309.805 617.832 302.487 615.73C295.655 613.768 288.994 611.279 282.327 608.871C280.617 608.254 278.97 607.23 277.631 606.115C272.168 601.567 266.227 597.278 261.594 592.21C253.956 583.856 244.281 577.607 234.377 571.459C229.155 568.217 223.188 565.473 222.654 559.242C219.528 556.949 216.402 554.655 213.035 552.185C211.392 547.164 209.618 541.762 207.86 536.357C207.564 535.444 206.828 534.334 207.155 533.631C209.985 527.554 206.674 521.335 206.475 515.201C206.312 510.183 204.591 505.414 202.856 500.52C199.676 491.549 197.134 482.408 195.168 473.26C188.892 444.073 192.645 415.6 197.886 387.284C198.442 384.276 199.683 381.37 200.878 378.508C202.126 375.522 204.362 372.972 208.318 372.446C214.543 371.617 216.333 368.155 217.351 363.572C220.23 350.611 223.444 337.719 226.525 324.8C226.741 323.899 226.98 323.001 227.163 322.093C228.364 316.139 232.491 314.37 240.461 317.538C243.746 318.844 246.404 321.376 250.166 323.9C251.13 321.902 252.297 320.416 252.562 318.78C254.32 307.897 259.685 298.341 265.977 289.101C271.168 281.478 276.029 273.732 279.062 265.179C279.979 262.592 281.413 259.952 283.467 257.955C286.393 255.11 288.308 252.307 288.549 248.272C288.675 246.173 291.148 244.076 293.114 242.434C295.903 240.105 299.493 238.428 302.228 236.062C309.415 229.84 318.982 227.945 328.93 226.672C330.719 226.443 332.775 226.331 334.48 226.824C341.999 228.997 349.897 230.647 355.577 236.02C358.343 238.637 361.264 239.061 364.551 237.383C369.675 234.768 375.295 233.92 381.532 234.36C387.364 234.77 391.713 236.875 394.5 241.166C397.749 246.171 400.744 251.279 404.01 256.603C406.437 255.718 409.191 254.715 412.952 253.344C412.632 255.169 412.657 256.046 412.309 256.784C411.641 258.203 408.289 259.526 411.832 261.073C414.291 262.146 415.834 260.196 416.893 258.588C418.636 255.942 420.295 253.251 421.884 250.532C424.592 245.896 427.487 241.552 432.556 238.214C435.826 236.06 437.924 232.581 440.071 229.453C443.612 224.294 448.521 221.381 456.176 221.965C457.643 222.077 459.123 221.723 460.596 221.586C460.592 221.845 460.543 222.107 460.606 222.356C460.656 222.547 460.847 222.721 460.975 222.903C460.793 222.492 460.612 222.08 460.431 221.669C461.704 220.101 463.23 218.895 465.864 219.327C472.829 220.471 479.794 221.621 487.651 222.916C488.959 221.257 490.517 218.902 492.522 216.857C494.304 215.039 496.353 213.275 498.736 212.059C499.995 211.417 502.609 211.437 503.933 212.125C508.862 214.682 513.381 217.629 514.586 222.861C515.577 227.16 517.044 231.409 518.433 236.136C524.826 237.923 531.103 240.156 535.006 245.444C535.697 246.38 537.438 246.935 538.805 247.418C545.061 249.628 545.075 249.596 548.914 254.414C552.354 254.472 555.967 254.532 560.798 254.614C559.997 256.586 559.45 257.849 558.969 259.132C557.884 262.019 558.747 265.02 561.277 266.97C564.904 269.766 565.737 272.677 565.098 276.27C564.701 278.502 566.181 279.959 568.028 281.85C570.194 284.068 570.328 287.613 571.465 290.937C574.36 291.079 576.894 291.202 579.786 291.344C581.326 288.881 582.797 286.529 584.532 283.756C586.826 284.318 589.192 284.461 590.926 285.431C593.201 286.703 594.94 287.177 597.614 284.893C597.657 289.081 597.787 292.612 597.703 296.128C597.623 299.457 598.504 302.173 602.58 304.018C606.126 305.623 606.604 308.369 606.097 311.386C605.691 313.805 605.585 316.305 605.743 318.774C605.808 319.784 606.915 320.807 608.05 322.63C609.856 320.989 611.19 320.07 612.084 318.905C614.089 316.292 616.899 315.4 620.626 316.102C625.937 317.103 630.383 316.723 632.635 311.795C632.637 313.605 632.687 315.419 632.632 317.224C632.533 320.427 633.409 323.251 636.11 325.966C639.801 329.677 642.982 333.662 642.515 338.789C642.391 340.147 643.449 341.824 644.455 343.106C648.436 348.172 652.494 353.206 656.758 358.118C659.421 361.187 659.833 364.527 660.27 367.96C660.734 371.599 662.601 373.967 667.09 375.956C672.714 378.447 677.512 382.312 683.12 385.142C687.888 387.548 689.785 392.211 691.072 396.498C692.366 400.807 694.935 403.977 700.136 405.802C699.289 408.632 698.033 411.134 697.901 413.738C697.762 416.472 698.659 419.307 699.176 422.093C700.845 431.082 702.533 440.07 704.246 449.056C704.842 452.185 705.089 455.457 710.549 455.763C711.478 455.815 713.019 457.49 713.228 458.505C714.052 462.514 715.114 466.635 714.778 470.564C714.567 473.033 712.024 475.234 710.214 478.041C711.336 479.965 712.464 482.304 714.003 484.455C717.447 489.272 718.741 494.483 719.607 499.779C720.124 502.94 719.153 503.286 714.109 501.972C714.204 500.788 714.52 499.593 714.331 498.426C714.121 497.141 714.39 495.408 711.046 494.967C712.233 497.526 713.248 499.714 714.263 501.902C713.016 507.172 714.191 512.436 716.167 517.56C721.271 530.799 726.892 543.931 731.83 557.203C734.404 564.121 736.107 571.228 737.953 578.282C739.606 584.597 738.526 590.603 735.907 596.423C734.776 598.935 734.344 601.692 733.437 604.291C732.958 605.665 732.568 607.359 731.384 608.172C728.916 609.867 728.14 611.832 728.055 614.506C727.954 617.657 726.644 620.908 722.382 621.273C717.463 621.693 719.662 624.76 718.712 627.42C716.739 626.843 714.726 625.778 712.875 625.857C711.287 625.924 710.025 627.75 708.376 628.01C703.367 628.8 698.235 629.184 693.162 629.773C688.797 630.28 684.448 630.853 680.092 631.396L680.208 631.571ZM306.534 609.29C309.326 610.976 311.599 613.841 315.214 612.225C315.673 612.02 315.691 611.19 316.19 609.975C312.804 609.735 309.67 609.513 306.534 609.29ZM294.41 609.708C293.772 609.518 293.139 609.311 292.489 609.17C292.435 609.158 292.276 609.59 292.166 609.816C292.796 610.004 293.423 610.212 294.065 610.348C294.128 610.361 294.292 609.933 294.41 609.708ZM656 611.24C656.145 611.018 656.47 610.742 656.392 610.588C656.282 610.371 655.872 610.244 655.59 610.079C655.444 610.302 655.119 610.578 655.197 610.736C655.304 610.951 655.718 611.076 656 611.24ZM708.196 465.327C708.089 465.694 707.982 466.061 707.874 466.428C708.103 466.293 708.472 466.192 708.522 466.013C708.574 465.824 708.323 465.561 708.196 465.327Z" fill="#6C59FF"/>
<path d="M792.512 595.69C785.598 612.324 777.736 625.182 771.639 628.755C756.53 637.607 720.114 613.918 720.114 613.918C720.114 613.918 718.479 604.804 717.228 590.583C717.006 590.543 716.794 590.512 716.572 590.482C716.138 590.411 715.693 590.351 715.249 590.3C714.381 590.189 713.503 590.088 712.615 590.008C709.052 589.654 705.318 589.463 701.432 589.422C694.72 589.301 687.614 589.634 680.297 590.341H680.267C680.257 590.351 680.257 590.361 680.246 590.361C679.278 591.037 678.369 591.683 677.279 592.339L619.638 613.848H619.567C617.912 614.504 616.034 614.897 613.965 615.018L579.487 619.298C576.146 619.49 573.27 618.743 570.736 617.289C564.64 620.247 557.817 623.123 551.459 625.142C535.764 630.128 518.676 611.203 523.894 596.164C523.894 596.154 523.894 596.154 523.905 596.144C508.472 595.841 496.653 579.602 503.648 565.724C504.112 564.815 505.02 563.846 506.312 562.837C489.053 564.341 475.74 545.8 484.128 531.316C485.359 529.197 489.235 526.896 494.504 524.625C493.454 524.887 492.414 525.139 491.385 525.372C475.882 528.874 462.761 515.945 463.497 502.723C463.598 499.705 464.507 496.657 466.253 493.8C468.463 490.187 478.597 486.21 490.174 482.96C487.852 474.331 483.603 464.066 475.882 457.324C474.802 456.305 473.792 455.326 472.874 454.316L396.59 458.697L379.735 459.676H379.685C379.483 459.696 379.271 459.716 379.059 459.726L355.148 461.149L289.624 464.843C289.18 469.567 289.392 474.492 290.421 479.63C302.099 537.594 205.447 591.249 205.447 591.249L120.908 574.101L57.5938 561.252C57.5938 561.252 94.2418 549.645 120.908 532.901C135.845 523.535 147.644 512.553 148.139 501.098C149.774 461.331 142.951 428.7 238.129 395.635L236.716 389.125L225.654 338.993C223.887 330.444 229.247 323.247 237.796 322.702L341.583 316.677C342.249 316.546 342.946 316.445 343.662 316.404L632.668 299.751C641.176 299.397 649.644 305.847 651.441 314.325L662.463 364.478L662.937 366.749L665.107 376.781L675.846 425.924L675.866 426.025H675.886L676.088 427.004C678.076 435.523 672.677 442.79 664.047 443.254L634.283 444.95L636.241 449.229C636.281 449.229 636.332 449.239 636.372 449.249C637.654 449.391 638.855 449.623 640.086 449.956C645.97 451.097 651.542 452.661 656.397 454.619C659.929 456.042 663.512 457.445 667.166 458.878C687.867 466.933 710.566 475.259 727.997 481.053C729.693 476.682 731.62 472.433 733.78 468.376C733.78 468.376 770.65 472.312 792.512 489.551C800.677 495.98 806.743 504.277 808.025 514.905C810.851 538.2 802.736 571.073 792.512 595.69Z" fill="#4633DC"/>
<path d="M633.335 299.737C641.614 299.737 649.69 306.069 651.439 314.325L662.461 364.477L662.935 366.748L665.105 376.781L675.844 425.924L675.865 426.025H675.885L676.087 427.004C678.075 435.523 672.675 442.79 664.046 443.254L634.281 444.95L636.239 449.229C636.279 449.229 636.33 449.239 636.37 449.249C637.652 449.391 638.853 449.623 640.085 449.956C645.969 451.096 651.54 452.661 656.395 454.619C659.927 456.042 663.511 457.445 667.164 458.878C687.865 466.933 710.564 475.259 727.995 481.053C729.691 476.682 731.619 472.433 733.779 468.376C733.779 468.376 770.649 472.312 792.51 489.551C800.676 495.98 806.742 504.277 808.023 514.905C810.849 538.2 802.735 571.073 792.51 595.69C785.597 612.323 777.734 625.182 771.638 628.755C769.259 630.148 766.352 630.736 763.143 630.736C745.966 630.736 720.112 613.918 720.112 613.918C720.112 613.918 718.477 604.804 717.226 590.583C717.004 590.542 716.792 590.512 716.57 590.482C716.136 590.411 715.692 590.351 715.248 590.3C714.38 590.189 713.502 590.088 712.613 590.008C709.05 589.654 705.316 589.463 701.43 589.422C700.525 589.406 699.612 589.398 698.692 589.398C692.797 589.398 686.626 589.729 680.295 590.341H680.265C680.255 590.351 680.255 590.361 680.245 590.361C679.276 591.037 678.368 591.683 677.277 592.339L619.636 613.848H619.565C617.91 614.504 616.033 614.897 613.963 615.018L579.486 619.298C579.14 619.318 578.799 619.327 578.463 619.327C575.553 619.327 573.006 618.592 570.735 617.289C564.639 620.246 557.816 623.123 551.457 625.142C549.708 625.697 547.94 625.956 546.189 625.956C532.229 625.956 519.256 609.527 523.893 596.164C523.893 596.154 523.893 596.154 523.903 596.144C508.471 595.841 496.652 579.602 503.646 565.724C504.11 564.815 505.019 563.846 506.311 562.837C505.648 562.895 504.991 562.923 504.341 562.923C488.061 562.923 476.061 545.244 484.126 531.316C485.357 529.197 489.233 526.895 494.502 524.625C493.452 524.887 492.413 525.139 491.383 525.371C489.634 525.766 487.914 525.953 486.243 525.953C473.095 525.953 462.842 514.453 463.496 502.723C463.597 499.705 464.505 496.657 466.251 493.8C468.462 490.187 478.595 486.21 490.172 482.96C487.85 474.331 483.601 464.066 475.88 457.324C474.8 456.304 473.791 455.325 472.872 454.316L396.589 458.696L379.733 459.676H379.683C379.481 459.696 379.269 459.716 379.057 459.726L355.147 461.149L289.622 464.843C289.178 469.567 289.39 474.492 290.419 479.63C302.097 537.594 205.446 591.249 205.446 591.249L120.906 574.101L57.5921 561.252C57.5921 561.252 94.2402 549.645 120.906 532.901C135.844 523.535 147.643 512.553 148.137 501.098C149.772 461.331 142.949 428.7 238.127 395.635L236.714 389.125L225.652 338.992C223.886 330.444 229.245 323.247 237.794 322.702L341.581 316.677C342.248 316.546 342.944 316.445 343.66 316.404L632.666 299.751C632.889 299.741 633.112 299.737 633.335 299.737ZM633.335 289.644C632.972 289.644 632.609 289.651 632.247 289.666C632.193 289.668 632.139 289.671 632.085 289.674L343.08 306.328C342.202 306.377 341.311 306.479 340.381 306.636L237.209 312.626C237.19 312.627 237.171 312.628 237.152 312.63C230.113 313.078 223.991 316.269 219.914 321.613C215.834 326.962 214.323 334.04 215.768 341.035C215.777 341.079 215.786 341.123 215.796 341.167L226.379 389.126C188.899 403.013 165.275 418.045 152.382 436.118C139.276 454.488 138.79 473.56 138.319 492.003C138.247 494.842 138.172 497.777 138.053 500.683C137.926 503.621 135.477 511.852 115.544 524.35C90.3148 540.192 54.8973 551.519 54.5425 551.631C50.159 553.022 47.2689 557.2 47.5145 561.792C47.7605 566.384 51.0779 570.229 55.5848 571.144L118.899 583.992L203.439 601.141C204.104 601.275 204.776 601.342 205.446 601.342C207.149 601.342 208.836 600.911 210.344 600.074C211.373 599.503 235.801 585.846 259.105 564.641C273.085 551.919 283.771 539.078 290.864 526.474C300.289 509.729 303.469 493.297 300.314 477.636C300.097 476.552 299.923 475.466 299.792 474.379L355.714 471.226L379.61 469.804C379.866 469.791 380.122 469.771 380.372 469.749L397.13 468.821L468.896 464.7C468.943 464.656 468.947 464.659 468.951 464.663C469.046 464.753 469.143 464.841 469.242 464.926C472.724 467.968 475.314 472.173 477.219 476.431C463.804 481.134 459.716 485.142 457.641 488.533C455.051 492.771 453.59 497.521 453.412 502.279C452.978 510.677 456.222 519.182 462.323 525.632C465.265 528.742 468.75 531.229 472.546 532.992C470.398 540.63 471.451 548.94 475.684 556.284C479.41 562.747 485.11 567.677 491.729 570.46C490.825 577.081 492.254 583.901 495.978 590.082C499.905 596.602 505.961 601.53 512.904 604.144C513.331 609.966 515.495 615.838 519.297 621.181C525.921 630.491 535.974 636.049 546.189 636.049C549.022 636.049 551.822 635.616 554.513 634.761C560.51 632.857 566.329 630.442 570.978 628.326C573.373 629.054 575.875 629.42 578.463 629.42C578.99 629.42 579.529 629.405 580.064 629.374C580.286 629.361 580.508 629.341 580.729 629.314L614.911 625.071C617.611 624.883 620.159 624.364 622.504 623.525C622.726 623.459 622.947 623.385 623.165 623.304L680.806 601.795C681.388 601.578 681.95 601.307 682.482 600.987C682.95 600.705 683.388 600.428 683.802 600.157C689.037 599.715 694.035 599.491 698.692 599.491C699.55 599.491 700.403 599.498 701.248 599.514C701.274 599.514 701.3 599.514 701.325 599.515C703.618 599.538 705.85 599.62 707.994 599.757C709.066 609.448 710.122 615.391 710.178 615.7C710.67 618.443 712.274 620.86 714.609 622.379C717.512 624.267 743.538 640.829 763.143 640.829C768.354 640.829 772.928 639.697 776.739 637.464C786.943 631.483 796.016 613.553 801.83 599.564C811.794 575.573 821.286 540.417 818.043 513.689C816.55 501.315 810.06 490.524 798.754 481.621C774.888 462.802 736.474 458.513 734.85 458.34C734.49 458.301 734.132 458.282 733.776 458.282C730.076 458.282 726.634 460.317 724.869 463.633C724.026 465.218 723.207 466.844 722.417 468.504C708.185 463.593 691.232 457.364 674.237 450.796C677.316 449.242 680.005 447.027 682.078 444.264C686.123 438.875 687.53 431.809 685.949 424.854L685.77 423.987C685.721 423.749 685.663 423.514 685.598 423.283L674.966 374.626L672.807 364.646L672.341 362.414C672.334 362.38 672.326 362.345 672.319 362.311L661.302 312.181C658.552 299.329 646.538 289.644 633.335 289.644Z" fill="#402DD4"/>
<path d="M775.604 542.368C774.565 569.529 758.093 588.373 743.367 599.859C731.134 609.427 720.112 613.918 720.112 613.918C720.112 613.918 718.477 604.804 717.226 590.583L717.216 590.573C716.559 583.114 716.004 574.253 715.833 564.553C715.389 538.947 717.67 507.567 727.995 481.053C729.691 476.683 731.618 472.433 733.778 468.376C733.778 468.376 745.789 475.037 756.952 488.532C757.002 488.602 757.063 488.663 757.114 488.734C767.197 500.987 776.523 518.821 775.604 542.368Z" fill="#ED56F0"/>
<path d="M778.945 529.822C778.895 531.851 778.773 533.91 778.602 535.979C778.592 535.999 778.592 536.02 778.592 536.05C778.511 536.948 778.43 537.846 778.339 538.745C778.057 541.44 777.683 544.165 777.219 546.87C777.088 547.697 776.936 548.525 776.775 549.342C776.684 549.887 776.573 550.432 776.462 550.977C776.27 551.967 776.058 552.956 775.836 553.935C775.644 554.793 775.453 555.651 775.241 556.509C775.241 556.519 775.231 556.539 775.231 556.559C774.999 557.508 774.766 558.446 774.514 559.375C774.474 559.536 774.433 559.688 774.393 559.839C774.151 560.727 773.908 561.616 773.656 562.494C773.464 563.13 773.283 563.755 773.081 564.381C772.869 565.067 772.657 565.744 772.445 566.41C771.405 569.599 770.265 572.668 769.024 575.574C768.842 576.018 768.65 576.463 768.448 576.907C768.256 577.341 768.065 577.775 767.863 578.209C767.469 579.077 767.065 579.914 766.652 580.742C766.45 581.156 766.238 581.56 766.026 581.963C765.824 582.367 765.612 582.771 765.39 583.154C765.198 583.518 765.006 583.871 764.805 584.214C763.2 587.06 761.494 589.614 759.707 591.804C759.465 592.117 759.213 592.42 758.95 592.712C758.759 592.945 758.557 593.167 758.365 593.379C758.163 593.601 757.961 593.823 757.749 594.035C757.507 594.287 757.255 594.539 757.003 594.782C756.256 595.518 755.499 596.185 754.732 596.77C754.217 597.163 753.702 597.527 753.177 597.86C752.653 598.193 752.128 598.496 751.603 598.748C751.411 598.849 751.229 598.93 751.038 599.011C750.664 599.182 750.301 599.334 749.927 599.455C749.685 599.545 749.443 599.626 749.201 599.687C748.979 599.757 748.757 599.818 748.524 599.868C748.373 599.909 748.222 599.939 748.07 599.959C747.939 599.99 747.808 600.01 747.677 600.03C746.879 600.151 746.082 600.191 745.285 600.141C745.072 600.131 744.871 600.111 744.669 600.08C744.447 600.06 744.235 600.03 744.013 599.99C743.801 599.959 743.589 599.909 743.367 599.858C743.004 599.778 742.63 599.677 742.267 599.545C742.055 599.475 741.833 599.394 741.621 599.313C741.005 599.061 740.379 598.768 739.764 598.405C739.501 598.254 739.239 598.092 738.976 597.92C736.776 596.477 734.313 595.236 731.598 594.186C730.72 593.843 729.822 593.52 728.893 593.217C728.47 593.086 728.046 592.955 727.612 592.823C726.411 592.46 725.179 592.127 723.908 591.834C723.574 591.754 723.241 591.673 722.898 591.602C722.787 591.582 722.686 591.552 722.575 591.532C721.828 591.37 721.071 591.219 720.304 591.077C719.749 590.976 719.184 590.876 718.619 590.795C718.164 590.714 717.7 590.643 717.226 590.583C717.004 590.542 716.792 590.512 716.57 590.482C716.136 590.411 715.692 590.351 715.248 590.3C714.379 590.189 713.501 590.088 712.613 590.008C709.05 589.654 705.316 589.462 701.43 589.422C694.718 589.301 687.613 589.634 680.295 590.341H680.265C663.672 591.935 645.757 595.397 628.437 599.919C628.407 599.929 628.376 599.939 628.346 599.939C622.26 601.463 616.244 603.179 610.31 604.925C604.173 606.863 598.814 608.084 594.09 608.71C594.06 608.71 594.04 608.72 594.009 608.72C590.739 609.194 587.772 609.406 585.077 609.376C567.656 609.184 561.227 599.061 555.191 585.678C554.485 584.123 553.788 582.529 553.082 580.893C551.638 577.563 550.145 574.081 548.459 570.558C545.815 565.027 542.686 558.82 539.537 552.179C539.022 551.078 538.487 549.958 537.963 548.828C532.997 538.119 528.172 526.461 525.306 514.895C525.275 514.764 525.235 514.632 525.205 514.501C525.205 514.481 525.195 514.471 525.195 514.451C524.801 512.866 524.417 511.281 524.145 509.717C524.145 509.697 524.135 509.677 524.135 509.656C523.812 508.233 523.6 506.83 523.358 505.326V505.316C523.348 505.286 523.348 505.256 523.337 505.226C522.459 499.25 522.217 493.386 522.944 487.775C523.418 483.626 524.337 479.609 525.972 475.643C525.982 475.623 525.992 475.592 526.002 475.572C525.982 475.522 525.992 475.401 526.073 475.31C527.637 471.626 530.251 468.174 533.824 465.247C533.865 465.217 533.915 465.186 533.955 465.146C537.468 462.068 541.818 459.484 546.834 457.283C546.844 457.273 546.864 457.273 546.875 457.263C547.198 457.082 547.531 456.94 547.884 456.819C547.894 456.809 547.914 456.799 547.924 456.799C551.992 455.023 556.554 453.458 561.469 452.176H561.479C561.499 452.166 561.51 452.166 561.53 452.156C568.888 450.117 576.992 448.664 585.329 447.766C586.157 447.675 586.984 447.594 587.812 447.513C587.953 447.503 588.105 447.483 588.246 447.473L588.71 447.463L599.742 446.827L599.914 446.817L600.64 446.787C601.751 446.736 602.881 446.706 604.002 446.696C605.697 446.665 607.403 446.676 609.099 446.726C610.32 446.716 611.491 446.716 612.752 446.807C614.751 446.847 616.719 446.948 618.687 447.059C623.37 447.382 627.963 447.927 632.424 448.573C633.736 448.735 634.967 448.987 636.239 449.229C636.279 449.229 636.33 449.239 636.37 449.249C637.652 449.391 638.853 449.623 640.084 449.956C645.968 451.096 651.54 452.661 656.395 454.619C659.927 456.042 663.51 457.445 667.164 458.878C687.865 466.932 710.564 475.259 727.995 481.053C729.418 481.517 730.801 481.981 732.143 482.415C735.555 483.505 738.714 484.474 741.56 485.302C748.413 487.3 753.45 488.491 755.721 488.501C756.135 488.501 756.548 488.511 756.952 488.532C771.042 489.258 777.512 502.722 778.763 520.062C778.753 520.143 778.763 520.224 778.773 520.305C778.824 520.89 778.854 521.475 778.884 522.071C779.006 524.594 779.026 527.188 778.945 529.822Z" fill="#F580F7"/>
<path d="M680.267 590.341C680.257 590.351 680.257 590.361 680.247 590.361C679.278 591.037 678.37 591.683 677.28 592.339L619.638 613.848H619.567C613.38 614.15 603.489 612.374 594.113 608.761C594.082 608.751 594.042 608.741 594.012 608.72C592.245 608.074 590.499 607.358 588.814 606.591C580.961 602.998 574.269 598.153 571.565 592.45L569.051 578.764L568.638 576.473L562.41 542.53L553.982 496.576C553.982 496.576 553.982 496.576 553.982 496.566L553.972 496.485L550.803 478.953L546.847 457.334L546.837 457.284L546.09 453.307L546.059 453.135V453.125L545.515 450.067L545.494 449.966L543.819 440.802L543.809 440.741L555.809 440.075L630.014 435.826L634.233 444.839L634.273 444.93L634.283 444.95L636.241 449.229L636.282 449.31L636.292 449.34L636.312 449.391L642.236 462.159L642.287 462.138L657.901 495.546V495.557L657.931 495.617L688.342 560.566C694.175 572.95 691.561 582.397 680.267 590.341Z" fill="#4633DC"/>
<path d="M628.349 599.939C628.43 606.47 625.271 611.607 619.578 613.848H619.568C617.913 614.504 616.036 614.897 613.967 615.018L579.489 619.298C576.148 619.49 573.271 618.743 570.738 617.289C563.542 613.161 559.05 603.391 554.427 593.439L551.551 587.303L549.179 582.226L535.816 553.693L534.141 550.12L518.637 517.025L518.476 516.671L515.68 510.696L501.277 479.953L488.822 453.357L488.782 453.256L484.543 444.213H484.563L521.453 442.094L539.318 441.064H539.328L543.82 440.802L555.83 440.115L560.07 449.169L560.12 449.27L561.472 452.176H561.483L625.715 589.342C627.461 593.086 628.309 596.689 628.349 599.939Z" fill="#5040F5"/>
<path d="M491.855 453.215C505.461 465.313 508.361 488.573 508.861 493.292C509.362 498.01 523.485 512.48 545.056 504.018C566.628 495.556 553.743 463.634 536.302 436.19C518.911 408.726 461.203 426.037 491.855 453.215Z" fill="#4633DC"/>
<path d="M540.408 489.874C540.529 497.171 538.187 503.056 532.313 506.619C532.303 506.619 532.303 506.629 532.293 506.629C532.283 506.629 532.262 506.639 532.252 506.649C531.364 507.224 530.274 507.719 529.154 508.153C527.448 508.819 525.732 509.323 524.148 509.717C524.137 509.717 524.117 509.727 524.107 509.727C521.13 510.484 518.284 510.787 515.68 510.696H515.669C501.812 510.514 493.323 501.027 492.96 497.424C492.92 497.151 492.899 496.808 492.839 496.364C492.465 493.76 491.799 488.754 490.174 482.96C487.853 474.331 483.604 464.066 475.882 457.324C474.803 456.304 473.793 455.325 472.875 454.316C472.854 454.296 472.834 454.276 472.814 454.256C472.804 454.245 472.794 454.235 472.784 454.225C466.849 447.756 465.961 441.952 468.202 437.36C471.351 430.9 480.677 426.792 490.891 426.51H490.931C499.591 426.217 508.947 428.66 515.659 434.766H515.669C517.436 436.371 519.01 438.228 520.352 440.347C520.746 440.892 521.049 441.538 521.443 442.083C521.443 442.083 521.443 442.093 521.453 442.093C523.3 445.041 525.066 448.079 526.721 451.107C526.721 451.117 526.731 451.117 526.731 451.127C526.752 451.157 526.762 451.177 526.782 451.207C529.477 455.901 531.889 460.604 533.827 465.247C536.623 471.353 538.671 477.217 539.661 482.567C540.185 485.11 540.377 487.543 540.408 489.874Z" fill="#6D69FF"/>
<path d="M668.982 500.283C665.468 498.912 661.784 497.256 657.908 495.558C648.023 491.186 637.143 486.209 625.227 483.512C608.692 479.758 590.076 480.391 584.533 477.416C581.878 476 579.085 473.936 576.81 471.552C569.163 463.787 565.972 452.635 585.874 448.865C592.335 447.617 600.39 446.857 609.085 446.84C610.306 446.829 611.478 446.837 612.74 446.928C614.739 446.962 616.707 447.068 618.675 447.173C623.147 447.409 627.789 447.928 632.409 448.69C633.74 448.811 635.031 449.124 636.332 449.316L636.352 449.368C637.633 449.508 638.833 449.739 640.074 450.072C649.057 451.99 657.82 454.987 665.748 459.134C673.323 463.124 680.112 468.243 685.61 474.687C698.555 490.029 694.247 510.09 668.982 500.283Z" fill="#F580F7"/>
<path d="M540.59 505.428C540.579 505.448 540.569 505.468 540.569 505.488L540.559 505.498C540.176 506.548 539.732 507.295 539.106 507.759C537.067 509.263 531.899 511.817 525.208 514.502C525.198 514.512 525.177 514.512 525.167 514.522C524.178 514.905 523.169 515.299 522.129 515.703C520.999 516.137 519.838 516.581 518.637 517.025C518.627 517.025 518.617 517.035 518.607 517.035C511.077 519.831 502.539 522.616 494.505 524.625C493.455 524.887 492.415 525.14 491.386 525.372C475.883 528.874 462.762 515.945 463.498 502.723C463.599 499.705 464.508 496.657 466.254 493.801C468.464 490.187 478.598 486.211 490.175 482.961C493.798 481.941 497.553 480.942 501.257 479.953C501.267 479.953 501.267 479.953 501.277 479.953C502.892 479.61 504.507 479.267 506.041 478.893C506.061 478.883 506.091 478.883 506.112 478.873C513.136 477.349 519.606 476.047 524.158 475.482C524.794 475.462 525.379 475.472 525.975 475.643C531.354 476.107 535.159 479.125 537.622 483.183C538.924 485.191 539.822 487.472 540.408 489.874C542.073 495.779 541.861 501.946 540.59 505.428Z" fill="#F580F7"/>
<path d="M557.525 543.085C557.434 543.186 557.334 543.287 557.223 543.368C554.891 545.225 548.098 548.626 539.539 552.179C538.338 552.673 537.097 553.178 535.815 553.693C527.72 556.902 518.495 560.072 510.098 562.201C508.826 562.524 507.565 562.736 506.313 562.837C489.054 564.341 475.741 545.8 484.128 531.316C485.36 529.197 489.235 526.896 494.504 524.625C501.115 521.778 509.926 518.983 518.475 516.671C519.697 516.328 520.918 516.005 522.129 515.702C523.199 515.42 524.259 515.147 525.308 514.895C531.576 513.341 537.319 512.14 541.437 511.473C560.069 510.908 561.976 538.351 557.525 543.085Z" fill="#F580F7"/>
<path d="M577.357 573.495C576.549 574.222 575.156 575.181 573.319 576.311C572.088 577.058 570.655 577.886 569.05 578.764C565.215 580.873 560.421 583.275 555.192 585.678C554.001 586.223 552.78 586.768 551.549 587.303C544.958 590.209 537.913 592.975 531.352 595.054C528.819 595.862 526.316 596.205 523.904 596.144C508.471 595.841 496.652 579.602 503.647 565.724C504.111 564.815 505.02 563.846 506.311 562.837C511.519 558.759 522.773 554.056 534.138 550.12C535.41 549.676 536.692 549.242 537.964 548.828C545.241 546.405 552.295 544.367 557.524 543.085C558.291 542.893 559.028 542.711 559.714 542.56C560.653 542.479 561.551 542.469 562.409 542.53C578.992 543.67 581.727 569.62 577.357 573.495Z" fill="#F580F7"/>
<path d="M589.157 606.257C589.056 606.369 588.945 606.48 588.814 606.591C588.016 607.337 586.735 608.286 585.079 609.376C581.607 611.647 576.5 614.504 570.737 617.289C564.641 620.247 557.818 623.123 551.459 625.142C535.764 630.128 518.677 611.203 523.895 596.164C523.895 596.154 523.895 596.154 523.905 596.144C525.459 591.784 537.238 586.404 549.178 582.226C550.48 581.772 551.792 581.328 553.084 580.894C558.888 578.986 564.469 577.432 568.638 576.473C569.183 576.352 569.707 576.231 570.202 576.13C571.292 576.069 572.332 576.13 573.321 576.311C587.37 578.724 592.457 602.826 589.157 606.257Z" fill="#F580F7"/>
<path d="M664.006 443.153L634.231 444.839H634.181L600.641 446.787L599.864 446.837L599.693 446.847L588.671 447.483L588.207 447.493L587.813 447.514L560.067 449.169L545.493 449.966H545.483L544.473 450.077H544.463L526.78 451.107H526.72L491.818 453.115L491.767 453.135L488.78 453.256L472.923 454.215L472.782 454.225L396.549 458.596L380.844 459.504L379.714 459.575L379.017 459.615L374.96 459.847C371.437 460.029 367.925 459.03 364.897 457.173C363.212 456.143 361.677 454.851 360.375 453.357C360.355 453.327 360.325 453.307 360.305 453.277C359.285 452.116 358.407 450.844 357.711 449.472C357.711 449.472 357.711 449.461 357.701 449.461C357.045 448.159 356.55 446.777 356.268 445.323L346.386 400.338L345.771 397.543L345.438 395.998V395.988L345.266 395.221L344.701 392.668L344.146 390.104L344.125 390.054L343.056 385.179V385.168L342.551 382.887L331.57 332.674C329.864 324.872 334.265 318.16 341.582 316.677C342.248 316.546 342.945 316.445 343.661 316.404L632.667 299.751C641.175 299.397 649.643 305.847 651.44 314.325L662.462 364.478L662.936 366.749L665.106 376.781L675.845 425.924L675.865 426.025L676.047 426.903C678.035 435.422 672.635 442.689 664.006 443.153Z" fill="#6D69FF"/>
<path d="M664.049 443.254L634.284 444.95H634.224L604.005 446.696L599.897 446.938L599.726 446.948L588.704 447.584L588.24 447.594L585.333 447.766L560.12 449.27H560.11L545.526 450.067H545.516L544.516 450.178L526.823 451.208H526.783L491.861 453.216L491.81 453.236L488.823 453.358L472.956 454.316H472.875L396.592 458.697L379.737 459.676H379.686L375.063 459.948C374.528 459.979 373.994 459.979 373.459 459.948H373.438C373.398 459.948 373.368 459.948 373.327 459.938C370.32 459.797 367.362 458.798 364.779 457.183C363.123 456.153 361.619 454.861 360.348 453.378L360.378 453.358L377.001 442.336L388.82 441.69L390.647 441.589H390.677L468.203 437.36L483.16 436.542L515.66 434.766H515.67L534.544 433.737H534.554L675.868 426.025H675.888L676.09 427.004C678.078 435.523 672.678 442.79 664.049 443.254Z" fill="#4633DC"/>
<path d="M391.442 447.402C391.22 453.519 387.001 458.394 380.844 459.504C380.481 459.575 380.107 459.635 379.734 459.676H379.683C379.482 459.696 379.269 459.716 379.058 459.726L355.147 461.149L289.623 464.843L277.178 465.55H277.168L269.265 465.994C267.156 466.115 265.006 465.843 262.936 465.197C261.463 464.692 260.05 464.006 258.728 463.158C258.728 463.158 258.718 463.158 258.718 463.148C254.62 460.523 251.481 456.395 250.462 451.662L242.064 413.621L239.4 401.529L238.521 397.452L238.128 395.635L236.715 389.125L225.653 338.993C223.886 330.444 229.246 323.247 237.795 322.702L341.582 316.677L347.557 316.334C356.197 315.748 364.624 322.218 366.441 330.747L377.402 380.919L380.097 393.324L381.762 400.934L382.277 403.316L383.317 408.06L390.644 441.589L391.058 443.496C391.25 444.324 391.371 445.132 391.432 445.929C391.462 446.423 391.462 446.918 391.442 447.402Z" fill="#6D69FF"/>
<path d="M363.252 384.011L246.898 390.684L247.69 394.352C248.608 398.497 252.355 401.357 256.578 401.104L348.533 395.811C346.899 396.861 343.825 398.71 338.905 401.81C332.514 405.78 308.134 419.907 284.697 437.641C272.785 446.761 266.036 456.839 262.896 465.092C264.961 465.744 267.13 466.064 269.221 465.886L355.104 461.043C361.609 430.466 371.37 399.256 372.715 394.925C372.819 394.592 372.851 394.229 372.783 393.904L372.108 390.834C371.291 386.649 367.525 383.738 363.252 384.011Z" fill="#4633DC"/>
<path d="M778.948 529.822C778.888 531.851 778.767 533.91 778.605 535.979C778.595 535.999 778.595 536.02 778.595 536.05C778.514 536.948 778.434 537.846 778.343 538.745C778.05 541.45 777.677 544.165 777.222 546.87C777.091 547.697 776.94 548.525 776.778 549.342C776.687 549.888 776.577 550.433 776.465 550.978C776.274 551.967 776.062 552.956 775.84 553.935C775.648 554.793 775.456 555.651 775.244 556.509C775.244 556.519 775.234 556.539 775.234 556.559C775.002 557.508 774.77 558.446 774.518 559.375C774.477 559.536 774.437 559.688 774.397 559.839C774.154 560.727 773.912 561.616 773.66 562.494C773.468 563.13 773.286 563.755 773.084 564.381C772.872 565.067 772.66 565.744 772.448 566.41C771.409 569.599 770.268 572.668 769.027 575.574C768.845 576.018 768.653 576.463 768.452 576.907C768.26 577.341 768.068 577.775 767.866 578.209C767.473 579.077 767.069 579.914 766.655 580.742C766.453 581.156 766.241 581.56 766.029 581.963C765.827 582.367 765.615 582.771 765.393 583.154C765.202 583.518 765.01 583.871 764.808 584.214C763.203 587.06 761.497 589.614 759.711 591.804C759.469 592.117 759.217 592.42 758.954 592.712C758.762 592.945 758.56 593.167 758.369 593.379C758.167 593.601 757.965 593.823 757.753 594.035C757.511 594.287 757.258 594.539 757.006 594.782C756.259 595.518 755.502 596.185 754.735 596.77C754.22 597.163 753.706 597.527 753.181 597.86C752.656 598.193 752.131 598.496 751.606 598.748C751.415 598.849 751.233 598.93 751.041 599.011C750.667 599.182 750.304 599.334 749.931 599.455C749.688 599.545 749.446 599.626 749.204 599.687C748.982 599.757 748.76 599.818 748.528 599.868C748.376 599.909 748.225 599.939 748.074 599.959C747.942 599.99 747.811 600.01 747.68 600.03C746.883 600.151 746.085 600.191 745.288 600.141C745.076 600.131 744.874 600.111 744.672 600.08C744.45 600.06 744.238 600.03 744.016 599.99C743.804 599.959 743.592 599.909 743.37 599.858C743.007 599.778 742.633 599.677 742.27 599.545C742.058 599.475 741.836 599.394 741.624 599.313C741.009 599.061 740.383 598.768 739.767 598.405C739.505 598.254 739.242 598.092 738.98 597.92C736.78 596.477 734.317 595.236 731.602 594.186C730.724 593.843 729.825 593.52 728.897 593.217C728.483 593.086 728.049 592.955 727.615 592.824C726.414 592.46 725.182 592.127 723.911 591.834C723.578 591.754 723.245 591.673 722.902 591.602C722.79 591.582 722.689 591.552 722.579 591.532C721.832 591.37 721.075 591.219 720.308 591.077C719.752 590.976 719.187 590.876 718.622 590.795C718.158 590.704 717.693 590.633 717.219 590.573C717.007 590.532 716.785 590.502 716.573 590.482C716.139 590.411 715.695 590.351 715.251 590.3C714.383 590.189 713.505 590.088 712.617 590.008C709.054 589.654 705.319 589.462 701.434 589.422C706.369 582.024 711.335 573.667 715.836 564.553C727.413 541.096 735.81 512.644 732.106 482.607C735.568 483.707 738.768 484.686 741.644 485.524C748.437 487.502 753.413 488.673 755.684 488.693C756.168 488.693 756.643 488.703 757.117 488.733C771.066 489.511 777.495 502.864 778.767 520.062C778.757 520.143 778.767 520.224 778.777 520.305C778.817 520.89 778.858 521.475 778.888 522.071C779.009 524.594 779.029 527.188 778.948 529.822Z" fill="#F580F7"/>
<path d="M792.511 595.69C785.597 612.324 777.735 625.182 771.639 628.755C756.529 637.607 720.113 613.918 720.113 613.918C720.113 613.918 725.503 606.55 731.599 594.186C743.237 570.599 757.437 528.854 741.642 485.524C741.622 485.453 741.592 485.373 741.561 485.302C739.502 479.67 736.928 474.018 733.779 468.376C733.779 468.376 770.649 472.312 792.511 489.551C800.676 495.981 806.742 504.277 808.024 514.905C810.85 538.2 802.735 571.073 792.511 595.69Z" fill="#ED56F0"/>
<path d="M270.795 327.192C256.43 327.795 242.084 328.742 237.861 330.34C228.515 333.772 232.551 347.986 232.625 350.414C232.697 352.842 236.718 363.728 236.718 363.728C236.718 363.728 239.28 347.57 241.356 345.41C242.139 344.576 256.987 341.326 272.837 337.8C272.227 334.295 271.577 330.688 270.795 327.192Z" fill="#4633DC"/>
<path d="M305.427 326.303C305.427 326.303 291.399 326.423 275.965 326.977C276.465 330.35 276.946 333.672 277.296 336.811C300.734 331.478 323.829 325.872 305.427 326.303Z" fill="#4633DC"/>
<path d="M365.858 334.485C366.367 333.994 367.173 334.262 367.309 334.911L377.404 380.916L380.071 393.269L391.065 443.368C392.983 451.861 387.587 459.126 379.02 459.619L269.244 465.936C262.738 466.324 256.261 462.604 252.758 457.074C256.446 460.834 261.54 463.107 266.742 462.822L376.519 456.505C385.086 456.012 390.481 448.747 388.564 440.255L377.569 390.155L374.902 377.803L365.589 335.293C365.541 335.019 365.664 334.737 365.858 334.485Z" fill="#4633DC"/>
<path d="M268.342 466.215C262.267 466.215 256.013 462.682 252.545 457.209L251.27 455.195L252.939 456.897C256.741 460.775 261.769 462.854 266.729 462.569L376.506 456.253C380.538 456.022 383.987 454.262 386.218 451.3C388.491 448.283 389.238 444.38 388.319 440.31L377.323 390.209L374.657 377.856L365.344 335.347C365.286 335.021 365.396 334.673 365.659 334.331L365.684 334.303C365.987 334.011 366.404 333.908 366.798 334.029C367.184 334.148 367.475 334.466 367.557 334.859L377.652 380.863L380.319 393.216L391.313 443.315C392.264 447.529 391.487 451.578 389.123 454.718C386.802 457.8 383.219 459.63 379.036 459.872L269.259 466.189C268.954 466.207 268.649 466.215 268.342 466.215ZM254.418 458.916C258.128 463.346 263.812 466.003 269.23 465.684L379.007 459.367C383.04 459.135 386.489 457.376 388.72 454.414C390.993 451.396 391.739 447.493 390.82 443.424L379.826 393.323L377.159 380.97L367.064 334.966C367.018 334.746 366.863 334.577 366.65 334.511C366.436 334.446 366.217 334.498 366.047 334.654C365.929 334.812 365.802 335.039 365.839 335.25L375.15 377.748L377.817 390.101L388.812 440.201C389.763 444.416 388.985 448.466 386.621 451.604C384.299 454.686 380.717 456.517 376.535 456.758L266.757 463.074C262.418 463.305 258.033 461.814 254.418 458.916Z" fill="#4633DC"/>
<path d="M370.611 389.377C370.611 389.377 359.973 393.122 346.387 400.339C324.455 412.006 294.872 432.747 290.078 461.482C289.896 462.562 289.745 463.632 289.634 464.732V464.773C289.634 464.793 289.634 464.823 289.624 464.843C289.18 469.567 289.392 474.492 290.421 479.63C302.099 537.594 205.447 591.249 205.447 591.249L120.908 574.101L57.5938 561.253C57.5938 561.253 94.2418 549.646 120.908 532.901C135.845 523.535 147.644 512.554 148.139 501.098C149.774 461.331 142.951 428.7 238.129 395.635C240.703 394.737 243.357 393.839 246.092 392.94L247.374 392.88L249.988 392.749L344.126 390.054L350.889 389.862L370.611 389.377Z" fill="#98D517"/>
<path d="M350.9 389.908C301.13 411.244 275.515 440.891 276.414 478.159C277.326 513.667 253.09 541.312 231.826 558.78C215.448 572.165 200.793 579.494 200.793 579.494L176.827 575.554L108.121 564.124L78.6172 559.315C78.6172 559.315 94.1852 554.32 111.08 545.996C131.299 536.017 153.372 521.215 152.9 504.316C152.039 481.192 154.877 454.979 174.849 434.508C192.736 416.317 230.337 400.455 250.024 392.85L350.9 389.908Z" fill="#BEF941"/>
<path d="M231.877 558.76C215.5 572.146 200.844 579.475 200.844 579.475L176.879 575.535C182.017 570.302 189.415 565.469 198.225 562.014C211.036 556.988 223.646 556.079 231.877 558.76Z" fill="#98D517"/>
<path d="M114.006 551.988C114.5 556.24 112.268 560.393 108.152 564.055L78.6484 559.245C78.6484 559.245 94.2164 554.25 111.112 545.926C112.704 547.759 113.739 549.811 114.006 551.988Z" fill="#98D517"/>
<path d="M255.288 420.509C269.568 434.333 265.061 462.253 245.168 482.928C225.254 503.552 197.574 509.086 183.275 495.211C168.995 481.388 173.502 453.467 193.395 432.793C213.309 412.168 241.01 406.686 255.288 420.509Z" fill="#98D517"/>
<path d="M196.789 521.271C198.296 525.126 193.986 530.386 187.201 533.047C180.415 535.709 173.667 534.729 172.179 530.924C170.673 527.068 174.983 521.809 181.768 519.147C188.554 516.485 195.283 517.415 196.789 521.271Z" fill="#98D517"/>
<path d="M279.27 401.038C280.307 404.141 275.539 408.528 268.635 410.885C261.731 413.242 255.242 412.628 254.224 409.575C253.186 406.472 257.954 402.085 264.859 399.729C271.814 397.351 278.232 397.934 279.27 401.038Z" fill="#98D517"/>
<path d="M289.621 464.843L473.471 454.285L471.413 451.544" fill="#4633DC"/>
</svg>
