<svg width="834" height="1877" viewBox="0 0 834 1877" fill="none" xmlns="http://www.w3.org/2000/svg">
<g clip-path="url(#clip0_1009_1823)">
<path fill-rule="evenodd" clip-rule="evenodd" d="M390.548 3.37158C387.771 -0.41227 382.119 -0.412274 379.342 3.37158L369.871 16.2759C369.454 16.8442 369.139 17.4414 368.918 18.0515C368.696 17.4414 368.381 16.8442 367.964 16.2759L358.493 3.37159C355.716 -0.412267 350.064 -0.412271 347.287 3.37158L337.817 16.2759C337.399 16.8447 337.084 17.4424 336.862 18.0531C336.641 17.4424 336.326 16.8447 335.908 16.2759L326.437 3.37158C323.66 -0.412268 318.008 -0.412272 315.231 3.37158L305.761 16.2759C305.343 16.8446 305.028 17.4421 304.807 18.0526C304.585 17.4421 304.27 16.8446 303.853 16.2759L294.382 3.37158C291.605 -0.412269 285.953 -0.412273 283.176 3.37158L273.705 16.2759C273.288 16.8443 272.973 17.4415 272.751 18.0518C272.53 17.4415 272.215 16.8443 271.798 16.2759L262.327 3.37159C259.55 -0.412266 253.898 -0.41227 251.121 3.37158L241.65 16.2759C241.233 16.8442 240.918 17.4414 240.697 18.0515C240.475 17.4414 240.16 16.8442 239.743 16.2759L230.272 3.37159C227.495 -0.412267 221.843 -0.412271 219.066 3.37158L209.596 16.2759C209.178 16.8445 208.863 17.442 208.642 18.0525C208.42 17.442 208.105 16.8445 207.688 16.2759L198.217 3.37158C195.44 -0.412268 189.788 -0.412272 187.011 3.37158L177.54 16.2759C177.123 16.8442 176.808 17.4414 176.587 18.0516C176.365 17.4414 176.05 16.8442 175.633 16.2759L166.162 3.37158C163.385 -0.412269 157.733 -0.412273 154.956 3.37158L145.485 16.2759C145.068 16.8446 144.753 17.4421 144.531 18.0526C144.31 17.4421 143.995 16.8446 143.577 16.2759L134.107 3.37159C131.33 -0.412266 125.678 -0.412271 122.901 3.37158L113.43 16.2759C113.013 16.8443 112.698 17.4415 112.476 18.0518C112.255 17.4415 111.94 16.8443 111.522 16.2759L102.052 3.37159C99.2747 -0.412267 93.6229 -0.412272 90.8459 3.37158L81.3751 16.2759C80.9577 16.8446 80.6424 17.4423 80.421 18.0529C80.1996 17.4423 79.8842 16.8446 79.4668 16.2759L69.9961 3.37158C67.219 -0.412268 61.5672 -0.412273 58.7902 3.37158L49.3195 16.2759C48.9024 16.8442 48.5871 17.4414 48.3658 18.0516C48.1444 17.4414 47.8292 16.8442 47.4121 16.2759L37.9413 3.37158C35.1643 -0.412269 29.5125 -0.412274 26.7354 3.37158L17.2647 16.2759C16.8473 16.8446 16.532 17.4422 16.3106 18.0528C16.0892 17.4422 15.7738 16.8446 15.3565 16.2759L5.88574 3.37159C3.10869 -0.412267 -2.54312 -0.412271 -5.32016 3.37158L-14.7909 16.2759C-18.1598 20.8663 -14.8819 27.338 -9.18794 27.338H-0.000370697V1877H834V27.338L843.187 27.338C848.881 27.338 852.159 20.8663 848.79 16.2759L839.319 3.37159C836.542 -0.412267 830.891 -0.412271 828.114 3.37158L818.643 16.2759C818.226 16.8443 817.91 17.4416 817.689 18.0519C817.468 17.4416 817.152 16.8443 816.735 16.2759L807.264 3.37158C804.487 -0.412268 798.836 -0.412272 796.059 3.37158L786.588 16.2759C786.171 16.8446 785.855 17.4421 785.634 18.0527C785.412 17.4421 785.097 16.8446 784.68 16.2759L775.209 3.37158C772.432 -0.412269 766.78 -0.412273 764.003 3.37158L754.532 16.2759C754.115 16.8443 753.8 17.4415 753.579 18.0517C753.357 17.4415 753.042 16.8443 752.625 16.2759L743.154 3.37159C740.377 -0.412266 734.725 -0.41227 731.948 3.37158L722.478 16.2759C722.06 16.8445 721.745 17.4421 721.523 18.0526C721.302 17.4421 720.987 16.8445 720.569 16.2759L711.099 3.37159C708.322 -0.412267 702.67 -0.412271 699.893 3.37158L690.422 16.2759C690.005 16.8443 689.69 17.4415 689.468 18.0517C689.247 17.4415 688.932 16.8443 688.515 16.2759L679.044 3.37158C676.267 -0.412268 670.615 -0.412272 667.838 3.37158L658.367 16.2759C657.95 16.8446 657.635 17.4423 657.413 18.0529C657.192 17.4423 656.876 16.8446 656.459 16.2759L646.988 3.37158C644.211 -0.412269 638.559 -0.412273 635.782 3.37158L626.312 16.2759C625.895 16.8443 625.579 17.4415 625.358 18.0517C625.137 17.4415 624.821 16.8443 624.404 16.2759L614.933 3.37159C612.156 -0.412266 606.505 -0.412271 603.728 3.37158L594.257 16.2759C593.839 16.8446 593.524 17.4421 593.303 18.0527C593.081 17.4421 592.766 16.8446 592.349 16.2759L582.878 3.37159C580.101 -0.412267 574.449 -0.412272 571.672 3.37158L562.201 16.2759C561.784 16.8442 561.469 17.4413 561.248 18.0514C561.026 17.4413 560.711 16.8442 560.294 16.2759L550.823 3.37158C548.046 -0.412268 542.394 -0.412273 539.617 3.37158L530.147 16.2759C529.73 16.8443 529.414 17.4415 529.193 18.0517C528.972 17.4415 528.656 16.8443 528.239 16.2759L518.769 3.37158C515.992 -0.412269 510.34 -0.412274 507.563 3.37158L498.092 16.2759C497.675 16.8446 497.359 17.4421 497.138 18.0527C496.916 17.4421 496.601 16.8446 496.184 16.2759L486.713 3.37159C483.936 -0.412267 478.284 -0.412271 475.507 3.37158L466.036 16.2759C465.619 16.8447 465.304 17.4423 465.082 18.053C464.861 17.4423 464.545 16.8447 464.128 16.2759L454.657 3.37158C451.88 -0.412268 446.228 -0.412272 443.451 3.37158L433.981 16.2759C433.564 16.8442 433.248 17.4414 433.027 18.0515C432.806 17.4414 432.49 16.8442 432.073 16.2759L422.603 3.37158C419.825 -0.412269 414.174 -0.412273 411.397 3.37158L401.926 16.2759C401.509 16.8442 401.194 17.4414 400.972 18.0515C400.751 17.4414 400.436 16.8442 400.019 16.2759L390.548 3.37158Z" fill="#543EFA"/>
</g>
<defs>
<clipPath id="clip0_1009_1823">
<rect width="834" height="1877" fill="white"/>
</clipPath>
</defs>
</svg>
