<svg width="834" height="525" viewBox="0 0 834 525" fill="none" xmlns="http://www.w3.org/2000/svg">
<g clip-path="url(#clip0_1009_2056)">
<path fill-rule="evenodd" clip-rule="evenodd" d="M390.547 3.37159C387.77 -0.412266 382.118 -0.41227 379.341 3.37158L369.87 16.2759C369.453 16.8442 369.138 17.4414 368.917 18.0515C368.695 17.4414 368.38 16.8442 367.963 16.2759L358.492 3.37159C355.715 -0.412263 350.063 -0.412267 347.286 3.37159L337.816 16.2759C337.398 16.8443 337.083 17.4416 336.862 18.0518C336.64 17.4416 336.325 16.8443 335.908 16.2759L326.437 3.37159C323.66 -0.412264 318.008 -0.412268 315.231 3.37158L305.761 16.2759C305.343 16.845 305.028 17.443 304.806 18.054C304.585 17.443 304.269 16.845 303.852 16.2759L294.381 3.37159C291.604 -0.412265 285.952 -0.412269 283.175 3.37158L273.704 16.2759C273.287 16.8442 272.972 17.4414 272.751 18.0515C272.529 17.4414 272.214 16.8442 271.797 16.2759L262.326 3.37159C259.549 -0.412262 253.897 -0.412267 251.12 3.37159L241.65 16.2759C241.232 16.8442 240.917 17.4414 240.696 18.0515C240.475 17.4414 240.159 16.8442 239.742 16.2759L230.271 3.37159C227.494 -0.412263 221.843 -0.412267 219.066 3.37159L209.595 16.2759C209.178 16.8442 208.863 17.4413 208.641 18.0514C208.42 17.4413 208.105 16.8442 207.688 16.2759L198.217 3.37159C195.44 -0.412264 189.788 -0.412268 187.011 3.37158L177.54 16.2759C177.123 16.8442 176.808 17.4414 176.587 18.0516C176.365 17.4414 176.05 16.8442 175.633 16.2759L166.162 3.37159C163.385 -0.412265 157.733 -0.412269 154.956 3.37158L145.485 16.2759C145.068 16.8442 144.753 17.4414 144.532 18.0515C144.31 17.4414 143.995 16.8442 143.578 16.2759L134.107 3.37159C131.33 -0.412263 125.679 -0.412267 122.902 3.37159L113.431 16.2759C113.013 16.8451 112.698 17.4431 112.476 18.0542C112.255 17.4431 111.939 16.8451 111.522 16.2759L102.051 3.37159C99.2737 -0.412264 93.6219 -0.412268 90.8449 3.37159L81.3742 16.2759C80.9571 16.8442 80.6418 17.4414 80.4205 18.0515C80.1991 17.4414 79.8839 16.8442 79.4668 16.2759L69.9961 3.37159C67.219 -0.412265 61.5672 -0.412269 58.7902 3.37158L49.3195 16.2759C48.9024 16.8442 48.5871 17.4414 48.3658 18.0516C48.1444 17.4414 47.8292 16.8442 47.4121 16.2759L37.9413 3.37159C35.1643 -0.412266 29.5125 -0.41227 26.7354 3.37158L17.2647 16.2759C16.847 16.845 16.5315 17.4431 16.3101 18.0541C16.0887 17.4431 15.7732 16.845 15.3555 16.2759L5.88476 3.37159C3.10772 -0.412263 -2.5441 -0.412267 -5.32114 3.37159L-14.7919 16.2759C-18.1608 20.8663 -14.8829 27.338 -9.18892 27.338H-0.000370697V525H834V27.338L843.187 27.338C848.881 27.338 852.159 20.8663 848.79 16.2759L839.319 3.37159C836.542 -0.412263 830.891 -0.412267 828.114 3.37159L818.643 16.2759C818.226 16.8443 817.91 17.4416 817.689 18.0519C817.468 17.4416 817.152 16.8443 816.735 16.2759L807.264 3.37159C804.487 -0.412264 798.836 -0.412268 796.059 3.37158L786.588 16.2759C786.171 16.8446 785.855 17.4421 785.634 18.0527C785.412 17.4422 785.097 16.8446 784.68 16.2759L775.209 3.37159C772.432 -0.412265 766.78 -0.412269 764.003 3.37158L754.532 16.2759C754.115 16.8443 753.8 17.4415 753.579 18.0517C753.357 17.4415 753.042 16.8443 752.625 16.2759L743.154 3.37159C740.377 -0.412262 734.725 -0.412267 731.948 3.37159L722.478 16.2759C722.06 16.8445 721.745 17.4421 721.523 18.0526C721.302 17.4421 720.987 16.8445 720.569 16.2759L711.099 3.37159C708.322 -0.412263 702.67 -0.412268 699.893 3.37159L690.422 16.2759C690.005 16.8447 689.689 17.4424 689.468 18.053C689.247 17.4424 688.931 16.8447 688.514 16.2759L679.043 3.37159C676.266 -0.412264 670.614 -0.412269 667.837 3.37158L658.366 16.2759C657.949 16.8442 657.634 17.4414 657.413 18.0515C657.191 17.4414 656.876 16.8442 656.459 16.2759L646.988 3.37159C644.211 -0.412265 638.559 -0.41227 635.782 3.37158L626.312 16.2759C625.895 16.8443 625.579 17.4415 625.358 18.0517C625.137 17.4415 624.821 16.8443 624.404 16.2759L614.933 3.37159C612.156 -0.412263 606.505 -0.412267 603.728 3.37159L594.257 16.2759C593.839 16.845 593.524 17.443 593.302 18.0541C593.081 17.443 592.765 16.845 592.348 16.2759L582.877 3.37159C580.1 -0.412264 574.448 -0.412268 571.671 3.37159L562.2 16.2759C561.784 16.8434 561.469 17.4396 561.248 18.0488C561.026 17.4396 560.711 16.8434 560.295 16.2759L550.824 3.37159C548.047 -0.412265 542.395 -0.412269 539.618 3.37158L530.148 16.2759C529.73 16.8451 529.414 17.4431 529.193 18.0542C528.971 17.4431 528.656 16.8451 528.238 16.2759L518.768 3.37159C515.991 -0.412266 510.339 -0.41227 507.562 3.37158L498.091 16.2759C497.674 16.8442 497.359 17.4413 497.137 18.0514C496.916 17.4413 496.601 16.8442 496.184 16.2759L486.713 3.37159C483.936 -0.412263 478.284 -0.412267 475.507 3.37159L466.036 16.2759C465.619 16.8451 465.303 17.4432 465.082 18.0543C464.86 17.4432 464.545 16.8451 464.127 16.2759L454.656 3.37159C451.879 -0.412264 446.227 -0.412268 443.45 3.37159L433.98 16.2759C433.563 16.8442 433.247 17.4414 433.026 18.0515C432.805 17.4414 432.489 16.8442 432.072 16.2759L422.602 3.37159C419.825 -0.412265 414.173 -0.412269 411.396 3.37158L401.925 16.2759C401.508 16.8442 401.193 17.4414 400.971 18.0515C400.75 17.4414 400.435 16.8442 400.018 16.2759L390.547 3.37159Z" fill="#151529"/>
</g>
<defs>
<clipPath id="clip0_1009_2056">
<rect width="834" height="525" fill="white"/>
</clipPath>
</defs>
</svg>
