<svg width="520" height="711" viewBox="0 0 520 711" fill="none" xmlns="http://www.w3.org/2000/svg">
<path fill-rule="evenodd" clip-rule="evenodd" d="M0 14.5151L0.0593793 14.596C2.81943 18.358 8.43668 18.358 11.1967 14.596L20.6095 1.76652C21.0242 1.20131 21.3375 0.607431 21.5576 0.000632603C21.7776 0.607431 22.0909 1.20131 22.5056 1.76652L31.9184 14.596C34.6784 18.358 40.2957 18.358 43.0557 14.596L52.4685 1.76652C52.8832 1.20131 53.1965 0.607404 53.4166 0.000606245C53.6366 0.607404 53.9499 1.20131 54.3646 1.76652L63.7774 14.596C66.5374 18.358 72.1547 18.358 74.9147 14.596L84.3275 1.76652C84.7422 1.20131 85.0556 0.607431 85.2756 0.000632603C85.4956 0.607457 85.8089 1.20134 86.2236 1.76654L95.6364 14.596C98.3964 18.358 104.014 18.358 106.774 14.596L116.187 1.76652C116.601 1.20131 116.915 0.607457 117.135 0.000658961C117.355 0.607457 117.668 1.20134 118.083 1.76654L127.495 14.596C130.255 18.358 135.873 18.358 138.633 14.596L148.046 1.76652C148.46 1.20131 148.774 0.607457 148.994 0.000658961C149.214 0.607457 149.527 1.20134 149.942 1.76654L159.354 14.596C162.114 18.358 167.732 18.358 170.492 14.596L179.904 1.76652C180.319 1.20131 180.633 0.607457 180.853 0.000658961C181.073 0.607457 181.386 1.20134 181.801 1.76654L191.213 14.596C193.973 18.358 199.591 18.358 202.351 14.596L211.764 1.76652C212.178 1.20113 212.492 0.607062 212.712 5.27169e-05C212.932 0.607062 213.245 1.20115 213.66 1.76652L223.073 14.596C225.833 18.358 231.45 18.358 234.21 14.596L243.623 1.76652C244.037 1.2015 244.351 0.6078 244.571 0.00121249C244.791 0.6078 245.104 1.2015 245.519 1.76652L254.931 14.596C257.691 18.358 263.309 18.358 266.069 14.596L275.481 1.76652C275.896 1.20113 276.21 0.607009 276.43 0C276.65 0.607009 276.963 1.20113 277.378 1.76652L286.791 14.596C289.551 18.358 295.168 18.358 297.928 14.596L307.341 1.76652C307.755 1.2015 308.069 0.6078 308.289 0.00118613C308.509 0.6078 308.822 1.2015 309.237 1.76652L318.649 14.596C321.409 18.358 327.027 18.358 329.787 14.596L339.199 1.76652C339.614 1.20121 339.928 0.607193 340.148 0.000263585C340.368 0.60722 340.681 1.20129 341.096 1.76662L350.509 14.5961C353.269 18.3581 358.886 18.3581 361.646 14.5961L371.059 1.76662C371.473 1.20144 371.787 0.607536 372.007 0.000738037C372.227 0.607536 372.54 1.20142 372.955 1.76662L382.368 14.5961C385.128 18.3581 390.745 18.3581 393.505 14.5961L402.918 1.76662C403.332 1.20144 403.646 0.607536 403.866 0.000738037C404.086 0.607536 404.399 1.20142 404.814 1.76662L414.227 14.5961C416.987 18.3581 422.604 18.3581 425.364 14.5961L434.777 1.76662C435.191 1.20158 435.505 0.607826 435.725 0.00118613C435.945 0.607826 436.258 1.20155 436.673 1.76662L446.085 14.5961C448.845 18.3581 454.463 18.3581 457.223 14.5961L466.635 1.76662C467.05 1.20126 467.364 0.607167 467.584 0.000158151C467.804 0.607167 468.117 1.20123 468.532 1.76662L477.945 14.5961C480.705 18.3581 486.322 18.3581 489.082 14.5961L498.495 1.76662C498.91 1.20142 499.223 0.607536 499.443 0.000738037C499.663 0.607536 499.976 1.20142 500.391 1.76662L509.804 14.5961C512.279 17.9692 517.05 18.3179 520 15.6421V711H0V14.5151Z" fill="#151529"/>
</svg>
