<svg width="1920" height="2664" viewBox="0 0 1920 2664" fill="none" xmlns="http://www.w3.org/2000/svg">
<path fill-rule="evenodd" clip-rule="evenodd" d="M1.12512e-05 0.0132775C5.0652 -0.190825 10.2113 1.98276 13.5513 6.53354L35.3543 36.2413C36.3147 37.5499 37.0408 38.9251 37.5503 40.3304C38.0598 38.9251 38.7857 37.5499 39.7464 36.2413L61.5493 6.53354C67.9426 -2.17765 80.9539 -2.17765 87.3472 6.53353L109.15 36.2413C110.111 37.5499 110.837 38.9251 111.346 40.3304C111.856 38.9251 112.582 37.5499 113.542 36.2413L135.345 6.53353C141.739 -2.17765 154.75 -2.17765 161.143 6.53353L182.946 36.2413C183.907 37.5499 184.633 38.9251 185.142 40.3304C185.652 38.9251 186.377 37.5499 187.338 36.2413L209.141 6.53352C215.534 -2.17766 228.546 -2.17766 234.939 6.53352L256.742 36.2413C257.702 37.5499 258.428 38.9251 258.938 40.3304C259.448 38.9251 260.173 37.5499 261.134 36.2413L282.937 6.53352C289.33 -2.17767 302.342 -2.17767 308.735 6.53351L330.538 36.2413C331.498 37.5499 332.224 38.9251 332.734 40.3304C333.243 38.9251 333.969 37.5499 334.93 36.2413L356.733 6.53351C363.126 -2.17767 376.137 -2.17767 382.531 6.53351L404.334 36.2413C405.294 37.5499 406.02 38.9251 406.53 40.3304C407.039 38.9251 407.765 37.5499 408.726 36.2413L430.529 6.5335C436.922 -2.17768 449.933 -2.17768 456.327 6.5335L478.13 36.2413C479.091 37.5503 479.816 38.9261 480.326 40.3316C480.836 38.9261 481.562 37.5503 482.523 36.2413L504.326 6.5335C510.719 -2.17769 523.73 -2.17769 530.124 6.53349L551.927 36.2413C552.887 37.5496 553.613 38.9246 554.122 40.3294C554.632 38.9246 555.357 37.5496 556.318 36.2413L578.121 6.53349C584.514 -2.17769 597.525 -2.17769 603.919 6.53349L625.722 36.2413C626.682 37.5498 627.408 38.9251 627.918 40.3304C628.427 38.9251 629.153 37.5498 630.114 36.2412L651.917 6.53348C658.31 -2.1777 671.321 -2.1777 677.715 6.53348L699.518 36.2412C700.478 37.5498 701.204 38.9251 701.714 40.3304C702.223 38.9251 702.949 37.5498 703.91 36.2412L725.713 6.53348C732.106 -2.1777 745.117 -2.17771 751.511 6.53348L773.313 36.2412C774.274 37.5503 775 38.9258 775.51 40.3313C776.02 38.9258 776.746 37.5503 777.706 36.2412L799.509 6.53347C805.903 -2.17771 818.914 -2.17771 825.307 6.53347L847.11 36.2412C848.07 37.5496 848.796 38.9243 849.306 40.3289C849.815 38.9243 850.541 37.5496 851.501 36.2412L873.304 6.53346C879.698 -2.17772 892.709 -2.17772 899.102 6.53346L920.905 36.2412C921.866 37.5503 922.592 38.926 923.102 40.3316C923.611 38.926 924.337 37.5503 925.298 36.2412L947.101 6.53346C953.494 -2.17772 966.506 -2.17773 972.899 6.53346L994.702 36.2412C995.662 37.5496 996.388 38.9243 996.897 40.3289C997.407 38.9243 998.133 37.5496 999.093 36.2412L1020.9 6.53345C1027.29 -2.17773 1040.3 -2.17773 1046.69 6.53345L1068.5 36.2412C1069.46 37.5503 1070.18 38.9263 1070.69 40.3318C1071.2 38.9263 1071.93 37.5505 1072.89 36.2412L1094.69 6.53345C1101.09 -2.17749 1114.1 -2.17749 1120.49 6.53344L1142.29 36.2412C1143.25 37.55 1143.98 38.9255 1144.49 40.3306C1145 38.9255 1145.73 37.55 1146.69 36.2412L1168.49 6.53344C1174.88 -2.1775 1187.89 -2.1775 1194.29 6.53344L1216.09 36.2412C1217.05 37.55 1217.78 38.9255 1218.29 40.3306C1218.8 38.9255 1219.52 37.55 1220.48 36.2412L1242.28 6.53343C1248.68 -2.17751 1261.69 -2.17751 1268.08 6.53343L1289.89 36.2412C1290.85 37.55 1291.57 38.9255 1292.08 40.3305C1292.59 38.9255 1293.32 37.55 1294.28 36.2412L1316.08 6.53343C1322.47 -2.17751 1335.49 -2.17751 1341.88 6.53342L1363.68 36.2412C1364.64 37.55 1365.37 38.9253 1365.88 40.3303C1366.39 38.9253 1367.11 37.55 1368.07 36.2412L1389.88 6.53342C1396.27 -2.17776 1409.28 -2.17776 1415.67 6.53342L1437.48 36.2412C1438.44 37.5498 1439.16 38.925 1439.67 40.3303C1440.18 38.925 1440.91 37.5498 1441.87 36.2412L1463.67 6.53341C1470.07 -2.17777 1483.08 -2.17777 1489.47 6.53341L1511.27 36.2412C1512.23 37.5498 1512.96 38.925 1513.47 40.3303C1513.98 38.925 1514.7 37.5498 1515.67 36.2412L1537.47 6.53341C1543.86 -2.17778 1556.87 -2.17778 1563.27 6.5334L1585.07 36.2412C1586.03 37.5498 1586.76 38.925 1587.27 40.3303C1587.77 38.925 1588.5 37.5498 1589.46 36.2412L1611.26 6.5334C1617.66 -2.17778 1630.67 -2.17778 1637.06 6.5334L1658.87 36.2412C1659.83 37.5502 1660.55 38.926 1661.06 40.3315C1661.57 38.926 1662.3 37.5502 1663.26 36.2412L1685.06 6.53339C1691.45 -2.17779 1704.47 -2.17779 1710.86 6.53339L1732.66 36.2412C1733.62 37.5497 1734.35 38.925 1734.86 40.3303C1735.37 38.925 1736.09 37.5497 1737.05 36.2412L1758.86 6.53339C1765.25 -2.17779 1778.26 -2.1778 1784.65 6.53339L1806.46 36.2411C1807.42 37.5497 1808.14 38.925 1808.65 40.33C1809.16 38.925 1809.89 37.55 1810.85 36.2411L1832.65 6.53338C1839.05 -2.17756 1852.06 -2.17756 1858.45 6.53338L1880.25 36.2411C1880.84 37.0468 1881.35 37.8776 1881.76 38.725C1882.11 38.0939 1882.51 37.4736 1882.95 36.8674L1904.75 7.1596C1906.9 4.23406 1909.79 2.29119 1912.93 1.33074C1915.17 0.355639 1917.59 -0.0835699 1920 0.0133537L1920 2663.96L0 2663.96L1.12512e-05 0.0132775ZM37.1851 51.9581C37.3162 51.6502 37.4382 51.3385 37.5503 51.0228C37.641 51.2777 37.7379 51.5299 37.8408 51.7796C37.8654 51.8392 37.8903 51.8988 37.9155 51.9581L37.1851 51.9581ZM111.232 51.3331C111.153 51.5431 111.069 51.7515 110.981 51.9581L111.711 51.9581C111.58 51.6502 111.459 51.3385 111.346 51.0228C111.309 51.1265 111.271 51.2301 111.232 51.3331ZM184.777 51.9581C184.908 51.6502 185.03 51.3385 185.142 51.0228C185.254 51.3385 185.376 51.6502 185.507 51.9581L184.777 51.9581ZM258.938 51.0228C258.826 51.3385 258.704 51.6502 258.573 51.9581L259.303 51.9581C259.172 51.6502 259.05 51.3385 258.938 51.0228ZM332.593 51.4031C332.642 51.2769 332.689 51.1502 332.734 51.0228C332.846 51.3384 332.968 51.6502 333.099 51.9581L332.369 51.9581C332.447 51.7745 332.522 51.5894 332.593 51.4031ZM406.53 51.0228C406.418 51.3384 406.296 51.6502 406.165 51.9581L406.895 51.9581C406.764 51.6502 406.642 51.3384 406.53 51.0228ZM479.96 51.9581C480.092 51.6497 480.214 51.3375 480.326 51.0215C480.438 51.3375 480.561 51.6497 480.692 51.9581L479.96 51.9581ZM553.907 51.5965C553.858 51.7176 553.808 51.8382 553.757 51.9581L554.487 51.9581C554.356 51.6507 554.234 51.3389 554.122 51.024C554.054 51.2161 553.982 51.407 553.907 51.5965ZM627.553 51.958C627.684 51.6502 627.806 51.3384 627.918 51.0227C628.002 51.2596 628.092 51.4942 628.187 51.7266C628.218 51.804 628.25 51.8811 628.283 51.958L627.553 51.958ZM701.714 51.0227C701.602 51.3384 701.48 51.6502 701.348 51.958L702.079 51.958C701.948 51.6502 701.826 51.3384 701.714 51.0227ZM848.941 51.958C849.072 51.6507 849.194 51.3391 849.306 51.0242C849.418 51.3391 849.539 51.6507 849.67 51.958L848.941 51.958ZM775.144 51.958C775.276 51.6499 775.398 51.3377 775.51 51.0218C775.622 51.3377 775.744 51.6499 775.876 51.958L775.144 51.958ZM922.736 51.958C922.867 51.6497 922.989 51.3374 923.102 51.0215C923.214 51.3374 923.336 51.6497 923.467 51.958L922.736 51.958ZM996.897 51.0242C996.785 51.3391 996.664 51.6506 996.533 51.958L997.262 51.958C997.214 51.8442 997.166 51.73 997.121 51.615C997.042 51.4194 996.968 51.2224 996.897 51.0242ZM1070.33 51.958C1070.46 51.6497 1070.58 51.3374 1070.69 51.0215C1070.81 51.3374 1070.93 51.6497 1071.06 51.958L1070.33 51.958ZM1144.34 51.4175C1144.27 51.5989 1144.2 51.779 1144.12 51.958L1144.85 51.958C1144.72 51.6501 1144.6 51.3384 1144.49 51.0229C1144.44 51.155 1144.39 51.2866 1144.34 51.4175ZM1217.92 51.958C1218.05 51.6501 1218.17 51.3384 1218.29 51.0229C1218.4 51.3384 1218.52 51.6501 1218.65 51.958L1217.92 51.958ZM1292.08 51.0229C1291.97 51.3384 1291.85 51.6501 1291.72 51.958L1292.45 51.958C1292.32 51.6501 1292.19 51.3384 1292.08 51.0229ZM1365.51 51.958C1365.64 51.6501 1365.77 51.3384 1365.88 51.0229C1365.99 51.3384 1366.11 51.6501 1366.24 51.958L1365.51 51.958ZM1439.67 51.0227C1439.56 51.3383 1439.44 51.6501 1439.31 51.958L1440.04 51.958C1439.91 51.6501 1439.79 51.3383 1439.67 51.0227ZM1513.1 51.958C1513.24 51.6501 1513.36 51.3383 1513.47 51.0227C1513.53 51.1948 1513.59 51.3657 1513.66 51.5354C1513.72 51.677 1513.77 51.8178 1513.83 51.958L1513.1 51.958ZM1587.27 51.0227C1587.15 51.3383 1587.03 51.6501 1586.9 51.958L1587.63 51.958C1587.56 51.7944 1587.49 51.6298 1587.43 51.4641C1587.37 51.3178 1587.32 51.1706 1587.27 51.0227ZM1660.7 51.958C1660.83 51.6496 1660.95 51.3374 1661.06 51.0214C1661.17 51.3374 1661.3 51.6496 1661.43 51.958L1660.7 51.958ZM1734.86 51.0226C1734.75 51.3383 1734.62 51.6501 1734.49 51.958L1735.22 51.9579C1735.09 51.6501 1734.97 51.3383 1734.86 51.0226ZM1808.29 51.9579C1808.42 51.6503 1808.54 51.3386 1808.65 51.0234C1808.77 51.3386 1808.89 51.6503 1809.02 51.9579L1808.29 51.9579Z" fill="#543EFA"/>
<rect y="48" width="1920" height="77" fill="#543EFA"/>
</svg>
