<svg width="1920" height="700" viewBox="0 0 1920 700" fill="none" xmlns="http://www.w3.org/2000/svg">
<g clip-path="url(#clip0_1010_1824)">
<mask id="mask0_1010_1824" style="mask-type:alpha" maskUnits="userSpaceOnUse" x="0" y="0" width="1920" height="825">
<path d="M1920 824L0.000244141 824.001L2.80314e-05 0.000490315L1920 -1.32404e-05L1920 824Z" fill="#151529"/>
</mask>
<g mask="url(#mask0_1010_1824)">
<path fill-rule="evenodd" clip-rule="evenodd" d="M0.00131618 927.01L1920 927.009L1920 76.7622L1941.15 76.7622C1954.26 76.7622 1961.81 61.8633 1954.05 51.2955L1932.25 21.5877C1925.85 12.8767 1912.84 12.8767 1906.45 21.5877L1884.65 51.2956C1883.69 52.6043 1882.96 53.9795 1882.45 55.3845C1881.94 53.9793 1881.21 52.6041 1880.25 51.2953L1858.45 21.5876C1852.06 12.8766 1839.05 12.8766 1832.65 21.5876L1810.85 51.2953C1809.89 52.6041 1809.16 53.9793 1808.65 55.3844C1808.14 53.9793 1807.42 52.6041 1806.46 51.2953L1784.65 21.5876C1778.26 12.8766 1765.25 12.8765 1758.86 21.5876L1737.05 51.2953C1736.09 52.6045 1735.37 53.9802 1734.86 55.3857C1734.35 53.9802 1733.62 52.6045 1732.66 51.2953L1710.86 21.5876C1704.46 12.8765 1691.45 12.8765 1685.06 21.5876L1663.26 51.2953C1662.3 52.6041 1661.57 53.9793 1661.06 55.3844C1660.55 53.9793 1659.83 52.6041 1658.87 51.2953L1637.06 21.5876C1630.67 12.8765 1617.66 12.8765 1611.26 21.5876L1589.46 51.2954C1588.5 52.6041 1587.77 53.9793 1587.27 55.3844C1586.76 53.9793 1586.03 52.6041 1585.07 51.2954L1563.27 21.5876C1556.87 12.8765 1543.86 12.8765 1537.47 21.5876L1515.67 51.2954C1514.7 52.6041 1513.98 53.9793 1513.47 55.3844C1512.96 53.9793 1512.23 52.6041 1511.27 51.2954L1489.47 21.5876C1483.08 12.8765 1470.07 12.8765 1463.67 21.5876L1441.87 51.2954C1440.91 52.6042 1440.18 53.9794 1439.67 55.3846C1439.16 53.9796 1438.44 52.6045 1437.48 51.2958L1415.67 21.588C1409.28 12.877 1396.27 12.877 1389.88 21.588L1368.07 51.2959C1367.11 52.6046 1366.39 53.9798 1365.88 55.3849C1365.37 53.9798 1364.64 52.6046 1363.68 51.2958L1341.88 21.588C1335.49 12.877 1322.47 12.877 1316.08 21.588L1294.28 51.2958C1293.32 52.6046 1292.59 53.9797 1292.08 55.3848C1291.57 53.9797 1290.85 52.6045 1289.89 51.2958L1268.08 21.588C1261.69 12.877 1248.68 12.877 1242.28 21.588L1220.48 51.2958C1219.52 52.6046 1218.8 53.9797 1218.29 55.3848C1217.78 53.9797 1217.05 52.6045 1216.09 51.2958L1194.29 21.5881C1187.89 12.8771 1174.88 12.8771 1168.49 21.5881L1146.69 51.2958C1145.73 52.6046 1145 53.9797 1144.49 55.3848C1143.98 53.9797 1143.25 52.6045 1142.29 51.2958L1120.49 21.5881C1114.1 12.8771 1101.09 12.877 1094.69 21.5881L1072.89 51.2958C1071.93 52.605 1071.2 53.9806 1070.69 55.3862C1070.18 53.9806 1069.46 52.605 1068.5 51.2958L1046.69 21.5881C1040.3 12.877 1027.29 12.877 1020.9 21.5881L999.093 51.2958C998.133 52.6046 997.407 53.9797 996.897 55.3848C996.387 53.9797 995.662 52.6045 994.701 51.2958L972.898 21.5881C966.505 12.877 953.493 12.877 947.1 21.5881L925.297 51.2958C924.337 52.6046 923.611 53.9797 923.101 55.3848C922.592 53.9797 921.866 52.6046 920.905 51.2958L899.102 21.5881C892.709 12.877 879.698 12.877 873.304 21.5881L851.501 51.2958C850.541 52.6046 849.815 53.9797 849.305 55.3848C848.796 53.9797 848.07 52.6046 847.109 51.2958L825.306 21.5881C818.913 12.877 805.902 12.877 799.509 21.5881L777.705 51.2959C776.745 52.6046 776.019 53.9799 775.509 55.385C775 53.9797 774.274 52.6043 773.313 51.2953L751.51 21.5875C745.117 12.8765 732.106 12.8765 725.712 21.5875L703.909 51.2954C702.949 52.6041 702.223 53.9793 701.713 55.3844C701.204 53.9793 700.478 52.6041 699.517 51.2953L677.714 21.5875C671.321 12.8765 658.31 12.8766 651.917 21.5876L630.113 51.2953C629.153 52.6041 628.427 53.9793 627.917 55.3844C627.408 53.9793 626.682 52.6041 625.721 51.2953L603.918 21.5876C597.525 12.8766 584.514 12.8766 578.121 21.5876L556.318 51.2953C555.357 52.604 554.631 53.9791 554.122 55.3841C553.612 53.9791 552.886 52.604 551.926 51.2953L530.123 21.5876C523.73 12.8766 510.718 12.8766 504.325 21.5876L482.522 51.2953C481.561 52.6041 480.835 53.9793 480.326 55.3844C479.816 53.9793 479.09 52.6042 478.13 51.2955L456.327 21.5877C449.934 12.8767 436.922 12.8767 430.529 21.5877L408.726 51.2955C407.765 52.6042 407.04 53.9794 406.53 55.3845C406.02 53.9794 405.295 52.6042 404.334 51.2955L382.531 21.5877C376.138 12.8767 363.126 12.8767 356.733 21.5877L334.93 51.2955C333.97 52.6042 333.244 53.9794 332.734 55.3845C332.224 53.9794 331.499 52.6042 330.538 51.2955L308.735 21.5877C302.342 12.8767 289.33 12.8767 282.937 21.5877L261.134 51.2955C260.174 52.6042 259.448 53.9794 258.938 55.3845C258.428 53.9794 257.703 52.6042 256.742 51.2955L234.939 21.5877C228.546 12.8767 215.535 12.8767 209.141 21.5877L187.338 51.2955C186.378 52.6043 185.652 53.9794 185.142 55.3845C184.633 53.9794 183.907 52.6043 182.946 51.2955L161.143 21.5877C154.75 12.8767 141.739 12.8767 135.345 21.5877L113.542 51.2955C112.582 52.6043 111.856 53.9794 111.346 55.3845C110.837 53.9794 110.111 52.6043 109.15 51.2955L87.3473 21.5877C80.9541 12.8767 67.9428 12.8767 61.5496 21.5877L39.7465 51.2955C38.7859 52.6043 38.0602 53.9795 37.5506 55.3846C37.0409 53.9795 36.3151 52.6043 35.3545 51.2955L13.5514 21.5877C7.15822 12.8767 -5.85313 12.8767 -12.2463 21.5877L-34.0494 51.2955C-41.8053 61.8632 -34.259 76.7622 -21.1505 76.7622L0.00111977 76.7622L0.00131618 927.01Z" fill="#151529"/>
</g>
</g>
<defs>
<clipPath id="clip0_1010_1824">
<rect width="1920" height="700" fill="white"/>
</clipPath>
</defs>
</svg>
