<svg width="834" height="1255" viewBox="0 0 834 1255" fill="none" xmlns="http://www.w3.org/2000/svg">
<path fill-rule="evenodd" clip-rule="evenodd" d="M0 17.5135C2.20031 17.6022 4.43585 16.6582 5.88671 14.6813L15.3574 1.77698C15.7746 1.2085 16.0899 0.611176 16.3113 0.000854492C16.5327 0.611176 16.8479 1.2085 17.2651 1.77698L26.7359 14.6813C29.5129 18.4651 35.1647 18.4651 37.9418 14.6813L47.4125 1.77698C47.8297 1.20844 48.145 0.611053 48.3664 0.000671387C48.5878 0.611053 48.9031 1.20844 49.3203 1.77698L58.791 14.6813C61.5681 18.4651 67.2199 18.4651 69.9969 14.6813L79.4677 1.77698C79.8849 1.2085 80.2002 0.611176 80.4215 0.000854492C80.6429 0.611176 80.9582 1.2085 81.3754 1.77698L90.8461 14.6813C93.6232 18.4651 99.275 18.4651 102.052 14.6813L111.523 1.77698C111.94 1.20834 112.255 0.61084 112.477 0.000335693C112.698 0.61084 113.013 1.20834 113.431 1.77698L122.902 14.6813C125.679 18.4651 131.33 18.4651 134.107 14.6813L143.578 1.77698C143.995 1.20847 144.311 0.611053 144.532 0.000671387C144.753 0.611053 145.069 1.20847 145.486 1.77698L154.957 14.6813C157.734 18.4651 163.386 18.4651 166.163 14.6813L175.633 1.77698C176.051 1.20847 176.366 0.611053 176.587 0.000671387C176.809 0.611053 177.124 1.20847 177.541 1.77698L187.012 14.6813C189.789 18.4651 195.441 18.4651 198.218 14.6813L207.688 1.77698C208.106 1.20856 208.421 0.611298 208.642 0.0010376C208.864 0.611298 209.179 1.20856 209.596 1.77698L219.067 14.6813C221.844 18.4651 227.496 18.4651 230.273 14.6813L239.743 1.77698C240.161 1.20847 240.476 0.611084 240.697 0.000701904C240.919 0.611084 241.234 1.20847 241.651 1.77698L251.122 14.6813C253.899 18.4651 259.551 18.4651 262.328 14.6813L271.799 1.77698C272.216 1.20847 272.531 0.611084 272.753 0.000701904C272.974 0.611084 273.289 1.20847 273.706 1.77698L283.177 14.6813C285.954 18.4651 291.606 18.4651 294.383 14.6813L303.854 1.77698C304.271 1.20856 304.586 0.611298 304.808 0.0010376C305.029 0.611298 305.344 1.20856 305.761 1.77698L315.232 14.6813C318.009 18.4651 323.661 18.4651 326.438 14.6813L335.909 1.77698C336.326 1.20847 336.641 0.611084 336.863 0.000701904C337.084 0.611084 337.399 1.20847 337.817 1.77698L347.287 14.6813C350.064 18.4651 355.716 18.4651 358.493 14.6813L367.964 1.77698C368.381 1.20834 368.697 0.61087 368.918 0.000366211C369.139 0.61084 369.455 1.20834 369.872 1.77698L379.343 14.6813C382.12 18.4651 387.772 18.4651 390.549 14.6813L400.019 1.77698C400.436 1.20865 400.752 0.611511 400.973 0.00137329C401.194 0.611511 401.51 1.20865 401.927 1.77698L411.397 14.6813C414.174 18.4651 419.826 18.4651 422.603 14.6813L432.074 1.77698C432.491 1.20825 432.807 0.610626 433.028 3.05176e-05C433.25 0.610626 433.565 1.20825 433.982 1.77698L443.453 14.6813C446.23 18.4651 451.882 18.4651 454.659 14.6813L464.13 1.77698C464.547 1.20865 464.862 0.611481 465.083 0.00131226C465.305 0.61145 465.62 1.20865 466.037 1.77698L475.508 14.6813C478.285 18.4651 483.937 18.4651 486.714 14.6813L496.184 1.77698C496.602 1.20834 496.917 0.61084 497.138 0.000366211C497.36 0.61084 497.675 1.20834 498.092 1.77698L507.563 14.6813C510.34 18.4651 515.992 18.4651 518.769 14.6813L528.24 1.77698C528.657 1.20856 528.972 0.611298 529.194 0.0010376C529.415 0.611298 529.73 1.20856 530.147 1.77698L539.618 14.6813C542.395 18.4651 548.047 18.4651 550.824 14.6813L560.295 1.77698C560.712 1.20844 561.027 0.611084 561.249 0.000701904C561.47 0.611084 561.785 1.20847 562.203 1.77698L571.673 14.6813C574.45 18.4651 580.102 18.4651 582.879 14.6813L592.35 1.77698C592.767 1.20865 593.082 0.611511 593.304 0.00137329C593.525 0.611511 593.84 1.20865 594.257 1.77698L603.728 14.6813C606.505 18.4651 612.157 18.4651 614.934 14.6813L624.405 1.77698C624.822 1.20822 625.137 0.610596 625.359 0C625.58 0.610626 625.896 1.20825 626.313 1.77698L635.784 14.6813C638.561 18.4651 644.213 18.4651 646.99 14.6813L656.46 1.77698C656.878 1.20844 657.193 0.611084 657.414 0.000701904C657.636 0.611084 657.951 1.20847 658.368 1.77698L667.839 14.6813C670.616 18.4651 676.268 18.4651 679.045 14.6813L688.515 1.77698C688.933 1.20856 689.248 0.611298 689.469 0.0010376C689.691 0.611298 690.006 1.20856 690.423 1.77698L699.894 14.6813C702.671 18.4651 708.323 18.4651 711.1 14.6813L720.57 1.77698C720.988 1.20847 721.303 0.611084 721.524 0.000701904C721.746 0.611084 722.061 1.20847 722.478 1.77698L731.949 14.6813C734.726 18.4651 740.378 18.4651 743.155 14.6813L752.626 1.77698C753.043 1.20856 753.358 0.611267 753.579 0.00100708C753.801 0.611267 754.116 1.20856 754.533 1.77698L764.004 14.6813C766.781 18.4651 772.433 18.4651 775.21 14.6813L784.68 1.77698C785.098 1.20847 785.413 0.611053 785.634 0.000671387C785.856 0.611053 786.171 1.20844 786.588 1.77698L796.059 14.6813C798.836 18.4651 804.488 18.4651 807.265 14.6813L816.736 1.77698C817.153 1.20844 817.468 0.611053 817.69 0.000671387C817.911 0.611053 818.226 1.20844 818.643 1.77698L828.114 14.6813C829.565 16.6579 831.8 17.602 834 17.5135V1255H0V17.5135Z" fill="#EFEFEF"/>
</svg>
