<svg width="1920" height="2031" viewBox="0 0 1920 2031" fill="none" xmlns="http://www.w3.org/2000/svg">
<path fill-rule="evenodd" clip-rule="evenodd" d="M0 40.9448C5.06543 41.1489 10.2109 38.9756 13.5508 34.4248L35.3545 4.71729C35.7842 4.13086 36.168 3.53076 36.5059 2.9209C36.9219 2.16992 37.2686 1.40332 37.5498 0.62793C38.0596 2.0332 38.7852 3.4082 39.7461 4.71729L61.5488 34.4248C67.9424 43.1357 80.9541 43.1357 87.3467 34.4248L109.15 4.71729C110.11 3.4082 110.836 2.0332 111.346 0.628418C111.855 2.0332 112.581 3.4082 113.542 4.71729L135.345 34.4248C141.738 43.1357 154.75 43.1357 161.143 34.4248L182.946 4.71729C183.906 3.4082 184.632 2.0332 185.142 0.62793C185.651 2.0332 186.377 3.4082 187.338 4.71729L209.141 34.4248C215.534 43.1357 228.546 43.1357 234.938 34.4248L256.742 4.71729C257.702 3.4082 258.429 2.03223 258.938 0.626953C259.448 2.03223 260.174 3.4082 261.135 4.71729L282.938 34.4248C289.331 43.1357 302.343 43.1357 308.735 34.4248L330.539 4.71729C331.499 3.4082 332.225 2.0332 332.734 0.62793C333.244 2.0332 333.97 3.4082 334.931 4.71729L356.733 34.4248C363.127 43.1357 376.139 43.1357 382.531 34.4248L404.335 4.71729C405.295 3.4082 406.021 2.0332 406.53 0.62793C407.04 2.0332 407.766 3.4082 408.727 4.71729L430.529 34.4248C436.923 43.1357 449.935 43.1357 456.327 34.4248L478.131 4.71729C479.091 3.4082 479.816 2.0332 480.326 0.62793C480.568 1.2959 480.859 1.95703 481.201 2.60791C481.579 3.32568 482.019 4.03076 482.522 4.71729L504.325 34.4248C510.719 43.1357 523.73 43.1357 530.123 34.4248L551.927 4.71729C552.887 3.4082 553.612 2.0332 554.122 0.62793C554.632 2.0332 555.357 3.4082 556.318 4.71729L578.121 34.4248C584.515 43.1357 597.526 43.1357 603.919 34.4248L625.723 4.71729C626.683 3.4082 627.408 2.0332 627.918 0.62793C628.428 2.0332 629.153 3.4082 630.114 4.71729L651.917 34.4248C658.311 43.1357 671.322 43.1357 677.715 34.4248L699.519 4.71729C699.993 4.0708 700.41 3.40771 700.772 2.7334C701.143 2.04248 701.456 1.33887 701.714 0.62793C702.01 1.44482 702.379 2.25146 702.825 3.04053C703.146 3.60938 703.508 4.16895 703.91 4.71729L725.713 34.4248C732.106 43.1357 745.118 43.1357 751.511 34.4248L773.314 4.71729C774.274 3.4082 775 2.0332 775.51 0.62793C776.02 2.0332 776.745 3.4082 777.706 4.71729L799.509 34.4248C805.902 43.1357 818.914 43.1357 825.307 34.4248L847.11 4.71729C847.552 4.11523 847.943 3.49902 848.288 2.87207C848.692 2.13623 849.031 1.38574 849.307 0.626953C849.816 2.03223 850.542 3.4082 851.503 4.71729L873.306 34.4248C879.699 43.1357 892.711 43.1357 899.104 34.4248L920.907 4.71729C921.547 3.8457 922.082 2.94482 922.52 2.02539C922.738 1.56445 922.933 1.09863 923.103 0.629395C923.612 2.03418 924.338 3.40869 925.298 4.71729L947.101 34.4248C953.494 43.1357 966.506 43.1357 972.898 34.4248L994.702 4.71729C995.662 3.4082 996.389 2.03223 996.898 0.626953C997.408 2.03223 998.134 3.4082 999.095 4.71729L1020.9 34.4248C1027.29 43.1357 1040.3 43.1357 1046.7 34.4248L1068.5 4.71729C1069.46 3.40869 1070.18 2.03418 1070.69 0.629395C1071.2 2.03418 1071.93 3.40869 1072.89 4.71729L1094.69 34.4248C1101.09 43.1357 1114.1 43.1357 1120.49 34.4248L1142.29 4.71729C1143.25 3.4082 1143.98 2.03271 1144.49 0.626953C1145 2.03271 1145.73 3.4082 1146.69 4.71729L1168.49 34.4253C1174.88 43.1362 1187.89 43.1362 1194.29 34.4253L1216.09 4.71729C1217.05 3.40869 1217.78 2.0332 1218.29 0.628418C1218.8 2.0332 1219.52 3.40869 1220.48 4.71729L1242.29 34.4253C1248.68 43.1362 1261.69 43.1362 1268.08 34.4253L1289.89 4.71729C1290.25 4.21777 1290.59 3.7085 1290.88 3.19141C1291.37 2.35449 1291.77 1.49707 1292.08 0.628418C1292.59 2.0332 1293.32 3.40869 1294.28 4.71729L1316.08 34.4253C1322.47 43.1362 1335.49 43.1362 1341.88 34.4253L1363.68 4.71729C1364.64 3.40918 1365.37 2.03418 1365.88 0.629395C1366.39 2.03418 1367.11 3.40918 1368.07 4.71729L1389.88 34.4253C1396.27 43.1362 1409.28 43.1362 1415.67 34.4253L1437.48 4.71729C1437.87 4.18506 1438.22 3.64209 1438.53 3.09033C1438.99 2.28467 1439.37 1.46094 1439.67 0.626953C1439.94 1.3667 1440.27 2.09814 1440.66 2.81592C1441.01 3.46191 1441.42 4.09717 1441.87 4.71729L1463.67 34.4253C1470.07 43.1362 1483.08 43.1362 1489.47 34.4253L1511.27 4.71729C1512.23 3.40869 1512.96 2.0332 1513.47 0.628418C1513.98 2.0332 1514.71 3.40869 1515.67 4.71729L1537.47 34.4253C1543.86 43.1362 1556.87 43.1362 1563.27 34.4253L1585.07 4.71729C1586.03 3.40869 1586.76 2.0332 1587.27 0.628418C1587.52 1.31934 1587.82 2.00293 1588.18 2.6748C1588.55 3.36963 1588.97 4.05225 1589.46 4.71729L1611.26 34.4253C1617.66 43.1362 1630.67 43.1362 1637.06 34.4253L1658.87 4.71729C1659.83 3.40869 1660.55 2.0332 1661.06 0.628418C1661.57 2.0332 1662.3 3.40869 1663.26 4.71729L1685.06 34.4253C1691.45 43.1362 1704.47 43.1362 1710.86 34.4253L1732.66 4.71729C1733.62 3.40869 1734.35 2.0332 1734.86 0.628418C1735.07 1.22607 1735.33 1.81885 1735.63 2.40332C1736.03 3.19189 1736.5 3.96533 1737.05 4.71729L1758.86 34.4253C1765.25 43.1362 1778.26 43.1362 1784.65 34.4253L1806.46 4.71729C1807.42 3.40869 1808.14 2.0332 1808.65 0.628418C1809.16 2.0332 1809.89 3.40869 1810.85 4.71729L1832.65 34.4253C1839.05 43.1362 1852.06 43.1362 1858.45 34.4253L1880.25 4.71729C1881.21 3.40869 1881.94 2.03369 1882.45 0.628418C1882.96 2.03369 1883.68 3.40869 1884.65 4.71729L1906.45 34.4253C1909.79 38.9761 1914.93 41.1494 1920 40.9453V2031H0V40.9448Z" fill="#EFEFEF"/>
</svg>
