<svg width="1920" height="1101" viewBox="0 0 1920 1101" fill="none" xmlns="http://www.w3.org/2000/svg">
<path fill-rule="evenodd" clip-rule="evenodd" d="M1881.45 0.627261C1880.94 2.03239 1880.21 3.40762 1879.25 4.71641L1857.45 34.4242C1851.06 43.1352 1838.05 43.1352 1831.65 34.4242L1809.85 4.71642C1808.89 3.40762 1808.16 2.03239 1807.65 0.627261C1807.14 2.03239 1806.42 3.40762 1805.46 4.71641L1783.65 34.4242C1777.26 43.1352 1764.25 43.1352 1757.86 34.4242L1736.05 4.71642C1735.09 3.40762 1734.37 2.03239 1733.86 0.627261C1733.35 2.03239 1732.62 3.40762 1731.66 4.71641L1709.86 34.4242C1703.47 43.1352 1690.45 43.1352 1684.06 34.4242L1662.26 4.71642C1661.3 3.40762 1660.57 2.03239 1660.06 0.627261C1659.55 2.03239 1658.83 3.40762 1657.87 4.71641L1636.06 34.4242C1629.67 43.1352 1616.66 43.1352 1610.27 34.4242L1588.46 4.71642C1587.5 3.40762 1586.78 2.03239 1586.27 0.627261C1585.76 2.03239 1585.03 3.40762 1584.07 4.71641L1562.27 34.4242C1555.87 43.1352 1542.86 43.1352 1536.47 34.4242L1514.67 4.71642C1513.71 3.40762 1512.98 2.03239 1512.47 0.627261C1511.96 2.03239 1511.23 3.40762 1510.27 4.71641L1488.47 34.4242C1482.08 43.1352 1469.07 43.1352 1462.67 34.4242L1440.87 4.71642C1439.91 3.40721 1439.18 2.03152 1438.67 0.625916C1438.16 2.03152 1437.44 3.4072 1436.48 4.71641L1414.67 34.4242C1408.28 43.1352 1395.27 43.1352 1388.88 34.4242L1367.07 4.71642C1366.11 3.40794 1365.39 2.03305 1364.88 0.628269C1364.37 2.03305 1363.64 3.40793 1362.68 4.71641L1340.88 34.4242C1334.49 43.1352 1321.47 43.1352 1315.08 34.4242L1293.28 4.71642C1292.32 3.40762 1291.59 2.03239 1291.08 0.627261C1290.57 2.03239 1289.85 3.40762 1288.89 4.71641L1267.08 34.4242C1260.69 43.1352 1247.68 43.1352 1241.29 34.4242L1219.48 4.71642C1218.52 3.40762 1217.8 2.03239 1217.29 0.627261C1216.78 2.03239 1216.05 3.40762 1215.09 4.71641L1193.29 34.4242C1186.89 43.1352 1173.88 43.1352 1167.49 34.4242L1145.69 4.71642C1144.73 3.40736 1144 2.03184 1143.49 0.626402C1142.98 2.03183 1142.25 3.40735 1141.29 4.71641L1119.49 34.4242C1113.1 43.1352 1100.09 43.1352 1093.69 34.4242L1071.89 4.71642C1070.93 3.40804 1070.2 2.03327 1069.69 0.628606C1069.18 2.03327 1068.46 3.40804 1067.5 4.71641L1045.7 34.4242C1039.3 43.1352 1026.29 43.1352 1019.9 34.4242L998.095 4.71642C997.134 3.40724 996.408 2.03158 995.898 0.626017C995.389 2.03158 994.663 3.40723 993.702 4.71641L971.899 34.4242C965.506 43.1352 952.494 43.1352 946.101 34.4242L924.298 4.71642C923.338 3.40818 922.612 2.03356 922.103 0.629043C921.593 2.03356 920.867 3.40817 919.907 4.71641L898.104 34.4242C891.711 43.1352 878.7 43.1352 872.306 34.4242L850.503 4.71642C849.543 3.40724 848.817 2.03158 848.307 0.626017C847.797 2.03158 847.071 3.40723 846.11 4.71641L824.307 34.4242C817.914 43.1352 804.903 43.1352 798.51 34.4242L776.706 4.71642C775.746 3.40766 775.02 2.03246 774.51 0.627362C774.001 2.03246 773.275 3.40765 772.315 4.71641L750.511 34.4242C744.118 43.1352 731.107 43.1352 724.714 34.4242L702.911 4.71642C701.95 3.40766 701.224 2.03246 700.715 0.627362C700.205 2.03246 699.479 3.40765 698.519 4.71641L676.716 34.4242C670.322 43.1352 657.311 43.1352 650.918 34.4242L629.115 4.71642C628.154 3.40766 627.428 2.03246 626.919 0.627362C626.409 2.03246 625.683 3.40765 624.723 4.71641L602.92 34.4242C596.526 43.1352 583.515 43.1352 577.122 34.4242L555.319 4.71642C554.358 3.40766 553.632 2.03246 553.123 0.627362C552.613 2.03246 551.887 3.40765 550.927 4.71641L529.124 34.4242C522.731 43.1352 509.719 43.1352 503.326 34.4242L481.523 4.71642C480.562 3.40766 479.837 2.03246 479.327 0.627364C478.817 2.03246 478.091 3.40765 477.131 4.71641L455.328 34.4242C448.935 43.1352 435.923 43.1352 429.53 34.4242L407.727 4.71642C406.766 3.40766 406.041 2.03246 405.531 0.627364C405.021 2.03246 404.296 3.40765 403.335 4.71641L381.532 34.4242C375.139 43.1352 362.127 43.1352 355.734 34.4242L333.931 4.71642C332.971 3.40766 332.245 2.03246 331.735 0.627364C331.225 2.03246 330.5 3.40765 329.539 4.71641L307.736 34.4242C301.343 43.1352 288.331 43.1352 281.938 34.4242L260.135 4.71642C259.174 3.40724 258.448 2.03158 257.939 0.626019C257.429 2.03158 256.703 3.40723 255.742 4.71641L233.939 34.4242C227.546 43.1352 214.535 43.1352 208.141 34.4242L186.338 4.71642C185.378 3.40766 184.652 2.03247 184.142 0.627378C183.633 2.03247 182.907 3.40766 181.946 4.71641L160.143 34.4242C153.75 43.1352 140.739 43.1352 134.346 34.4242L112.542 4.71642C111.582 3.40757 110.856 2.03229 110.346 0.627094C109.837 2.03222 109.111 3.40744 108.15 4.71622L86.3473 34.424C79.9541 43.135 66.9427 43.135 60.5495 34.424L38.7464 4.71623C37.7858 3.40741 37.06 2.03216 36.5504 0.627005C36.0407 2.03216 35.3149 3.40741 34.3543 4.71622L12.5512 34.424C9.431 38.6755 4.73433 40.852 0 40.9535V1101H1920V40.873C1914.62 41.4245 1909.01 39.2749 1905.45 34.4242L1883.65 4.71642C1882.69 3.40762 1881.96 2.03239 1881.45 0.627261Z" fill="#BEF941"/>
</svg>
