<svg width="520" height="642" viewBox="0 0 520 642" fill="none" xmlns="http://www.w3.org/2000/svg">
<g clip-path="url(#clip0_1007_1392)">
<path fill-rule="evenodd" clip-rule="evenodd" d="M-153.958 453L674.94 453L674.94 26.649L684.08 26.649C689.739 26.649 692.997 20.2148 689.649 15.651L680.236 2.82156C677.476 -0.940367 671.859 -0.940367 669.099 2.82157L659.686 15.6511C659.271 16.2163 658.958 16.8102 658.738 17.417C658.518 16.8102 658.204 16.2163 657.79 15.651L648.377 2.82157C645.617 -0.940364 640 -0.940364 637.24 2.82157L627.827 15.6511C627.412 16.2162 627.099 16.8101 626.879 17.4169C626.659 16.8101 626.345 16.2162 625.931 15.6511L616.518 2.82157C613.758 -0.940361 608.141 -0.940361 605.381 2.82157L595.968 15.6511C595.553 16.2163 595.24 16.8102 595.02 17.417C594.8 16.8102 594.486 16.2163 594.072 15.6511L584.659 2.82157C581.899 -0.940359 576.282 -0.940358 573.522 2.82157L564.109 15.6511C563.694 16.2165 563.381 16.8105 563.161 17.4176C562.941 16.8105 562.627 16.2165 562.212 15.6511L552.8 2.82158C550.04 -0.940356 544.422 -0.940355 541.662 2.82158L532.249 15.6511C531.835 16.2163 531.521 16.8102 531.301 17.417C531.081 16.8102 530.768 16.2163 530.353 15.6511L520.941 2.82158C518.181 -0.940353 512.563 -0.940353 509.803 2.82158L500.39 15.6511C499.976 16.2163 499.662 16.8102 499.442 17.417C499.222 16.8102 498.909 16.2163 498.494 15.6511L489.082 2.82158C486.322 -0.94035 480.704 -0.94035 477.944 2.82158L468.531 15.6511C468.117 16.2163 467.803 16.8102 467.583 17.417C467.363 16.8102 467.05 16.2163 466.635 15.6511L457.223 2.82158C454.463 -0.940347 448.845 -0.940347 446.085 2.82159L436.672 15.6511C436.258 16.2163 435.944 16.8102 435.724 17.417C435.504 16.8102 435.191 16.2163 434.776 15.6511L425.364 2.82159C422.604 -0.940345 416.986 -0.940344 414.226 2.82159L404.813 15.6511C404.399 16.2163 404.085 16.8102 403.865 17.417C403.645 16.8102 403.332 16.2163 402.917 15.6511L393.505 2.82159C390.745 -0.940342 385.127 -0.940341 382.367 2.82159L372.954 15.6511C372.54 16.2163 372.226 16.8102 372.006 17.417C371.786 16.8102 371.473 16.2163 371.058 15.6511L361.646 2.82159C358.886 -0.940339 353.268 -0.940339 350.508 2.82159L341.095 15.6511C340.681 16.2163 340.367 16.8102 340.147 17.417C339.927 16.8102 339.614 16.2163 339.199 15.6511L329.787 2.8216C327.027 -0.940336 321.409 -0.940336 318.649 2.8216L309.236 15.6511C308.822 16.2165 308.508 16.8106 308.288 17.4176C308.068 16.8106 307.755 16.2165 307.34 15.6511L297.927 2.8216C295.167 -0.940334 289.55 -0.940333 286.79 2.8216L277.377 15.6511C276.963 16.2161 276.649 16.8098 276.429 17.4164C276.209 16.8098 275.896 16.2161 275.481 15.6511L266.069 2.8216C263.309 -0.940331 257.691 -0.94033 254.931 2.8216L245.519 15.6511C245.104 16.2165 244.79 16.8106 244.57 17.4176C244.35 16.8106 244.037 16.2165 243.622 15.6511L234.209 2.8216C231.449 -0.940328 225.832 -0.940328 223.072 2.8216L213.659 15.6511C213.245 16.2161 212.931 16.8098 212.711 17.4165C212.491 16.8098 212.178 16.2161 211.763 15.6511L202.351 2.82161C199.591 -0.940325 193.973 -0.940325 191.213 2.82161L181.801 15.6511C181.386 16.2164 181.072 16.8104 180.852 17.4174C180.632 16.8104 180.319 16.2164 179.904 15.651L170.491 2.82149C167.731 -0.940445 162.114 -0.940444 159.354 2.82149L149.941 15.651C149.527 16.2162 149.213 16.8101 148.993 17.4169C148.773 16.8101 148.46 16.2162 148.045 15.651L138.632 2.82149C135.872 -0.940442 130.255 -0.940441 127.495 2.82149L118.082 15.651C117.668 16.2162 117.354 16.8101 117.134 17.4169C116.914 16.8101 116.601 16.2162 116.186 15.651L106.773 2.82149C104.013 -0.940439 98.396 -0.940438 95.636 2.82149L86.2232 15.651C85.8087 16.2161 85.4953 16.8098 85.2753 17.4165C85.0553 16.8098 84.742 16.2161 84.3275 15.651L74.9147 2.8215C72.1546 -0.940436 66.5373 -0.940436 63.7773 2.8215L54.3646 15.651C53.9498 16.2164 53.6363 16.8105 53.4163 17.4175C53.1962 16.8105 52.8828 16.2164 52.468 15.651L43.0552 2.8215C40.2952 -0.940433 34.6779 -0.940433 31.9178 2.8215L22.5051 15.651C22.0905 16.2162 21.7771 16.8101 21.5571 17.4169C21.337 16.8101 21.0238 16.2162 20.6091 15.651L11.1962 2.8215C8.43618 -0.940431 2.81889 -0.94043 0.0588397 2.8215L-9.35388 15.651C-9.76852 16.2162 -10.0819 16.8101 -10.3019 17.4169C-10.522 16.8101 -10.8352 16.2162 -11.2499 15.651L-20.6627 2.8215C-23.4228 -0.940428 -29.0401 -0.940427 -31.8001 2.8215L-41.2129 15.651C-41.6276 16.2162 -41.9409 16.8101 -42.1609 17.4169C-42.381 16.8101 -42.6942 16.2162 -43.1089 15.651L-52.5217 2.82151C-55.2818 -0.940425 -60.8991 -0.940425 -63.6591 2.82151L-73.0718 15.651C-73.4865 16.2162 -73.7999 16.8101 -74.02 17.4169C-74.24 16.8101 -74.5533 16.2162 -74.9679 15.651L-84.3807 2.82151C-87.1408 -0.940422 -92.7581 -0.940422 -95.5181 2.82151L-104.931 15.651C-105.346 16.2162 -105.659 16.8101 -105.879 17.4169C-106.099 16.8101 -106.412 16.2162 -106.827 15.651L-116.24 2.82151C-119 -0.940419 -124.617 -0.940419 -127.377 2.82151L-136.79 15.651C-137.205 16.2162 -137.518 16.8101 -137.738 17.4169C-137.958 16.8101 -138.271 16.2162 -138.686 15.651L-148.099 2.82152C-150.859 -0.940417 -156.476 -0.940416 -159.236 2.82152L-168.649 15.651C-171.997 20.2148 -168.739 26.649 -163.08 26.649L-153.958 26.649L-153.958 453Z" fill="#F580F7"/>
</g>
<rect y="34" width="520" height="608" fill="#F580F7"/>
<defs>
<clipPath id="clip0_1007_1392">
<rect width="520" height="453" fill="white"/>
</clipPath>
</defs>
</svg>
