<svg width="1920" height="978" viewBox="0 0 1920 978" fill="none" xmlns="http://www.w3.org/2000/svg">
<path fill-rule="evenodd" clip-rule="evenodd" d="M0 0.0132873C5.06516 -0.190743 10.2113 1.98263 13.5513 6.53342L35.3542 36.2412C36.3147 37.55 37.0408 38.9252 37.5503 40.3303C38.0598 38.9252 38.7856 37.55 39.7463 36.2412L61.5493 6.53342C67.9426 -2.17761 80.9538 -2.17761 87.3472 6.53342L109.15 36.2412C110.111 37.55 110.837 38.9252 111.346 40.3303C111.856 38.9252 112.582 37.55 113.542 36.2412L135.345 6.53341C141.739 -2.17761 154.75 -2.17762 161.143 6.53341L182.946 36.2412C183.906 37.55 184.633 38.9252 185.142 40.3303C185.652 38.9252 186.377 37.55 187.338 36.2412L209.141 6.53341C215.534 -2.17762 228.546 -2.17762 234.939 6.5334L256.742 36.2412C257.702 37.55 258.428 38.9252 258.938 40.3303C259.448 38.9252 260.173 37.55 261.134 36.2412L282.937 6.5334C289.33 -2.17763 302.342 -2.17763 308.735 6.5334L330.538 36.2412C331.498 37.55 332.224 38.9252 332.734 40.3303C333.243 38.9252 333.969 37.55 334.93 36.2412L356.733 6.53339C363.126 -2.17763 376.137 -2.17763 382.531 6.53339L404.334 36.2412C405.294 37.5499 406.02 38.9252 406.53 40.3303C407.039 38.9252 407.765 37.55 408.726 36.2412L430.529 6.53339C436.922 -2.17764 449.933 -2.17764 456.327 6.53338L478.13 36.2411C479.091 37.5504 479.816 38.926 480.326 40.3316C480.836 38.926 481.562 37.5504 482.523 36.2412L504.326 6.53338C510.719 -2.17765 523.73 -2.17765 530.124 6.53338L551.927 36.2411C552.887 37.5496 553.613 38.9245 554.122 40.3293C554.632 38.9245 555.357 37.5496 556.318 36.2411L578.121 6.53337C584.514 -2.17765 597.525 -2.17765 603.919 6.53337L625.722 36.2411C626.682 37.5499 627.408 38.9252 627.918 40.3303C628.427 38.9252 629.153 37.5499 630.114 36.2411L651.917 6.53337C658.31 -2.17766 671.321 -2.17766 677.715 6.53336L699.518 36.2411C700.478 37.5499 701.204 38.9252 701.714 40.3303C702.223 38.9252 702.949 37.5499 703.91 36.2411L725.713 6.53336C732.106 -2.17767 745.117 -2.17767 751.51 6.53336L773.313 36.2411C774.274 37.5502 775 38.9258 775.51 40.3313C776.02 38.9258 776.746 37.5502 777.706 36.2411L799.509 6.53335C805.903 -2.17767 818.914 -2.17767 825.307 6.53335L847.11 36.2411C848.07 37.5495 848.796 38.9243 849.306 40.3289C849.815 38.9243 850.541 37.5495 851.501 36.2411L873.304 6.53335C879.698 -2.17768 892.709 -2.17768 899.102 6.53335L920.905 36.2411C921.866 37.5503 922.592 38.926 923.102 40.3316C923.611 38.926 924.337 37.5503 925.298 36.2411L947.101 6.53334C953.494 -2.17768 966.506 -2.17769 972.899 6.53334L994.702 36.2411C995.662 37.5495 996.388 38.9242 996.897 40.3289C997.407 38.9243 998.133 37.5495 999.093 36.2411L1020.9 6.53333C1027.29 -2.17769 1040.3 -2.17769 1046.69 6.53333L1068.5 36.2411C1069.46 37.5504 1070.18 38.9262 1070.69 40.3319C1071.2 38.9262 1071.93 37.5505 1072.89 36.2413L1094.69 6.53352C1101.09 -2.17751 1114.1 -2.17751 1120.49 6.53352L1142.29 36.2413C1143.25 37.5501 1143.98 38.9254 1144.49 40.3306C1145 38.9254 1145.73 37.5501 1146.69 36.2413L1168.49 6.53351C1174.88 -2.17751 1187.89 -2.17751 1194.29 6.53351L1216.09 36.2413C1217.05 37.5501 1217.78 38.9254 1218.29 40.3306C1218.8 38.9254 1219.52 37.5501 1220.48 36.2413L1242.28 6.53351C1248.68 -2.17752 1261.69 -2.17752 1268.08 6.5335L1289.89 36.2413C1290.85 37.5501 1291.57 38.9254 1292.08 40.3306C1292.59 38.9254 1293.32 37.5501 1294.28 36.2413L1316.08 6.5335C1322.47 -2.17753 1335.49 -2.17753 1341.88 6.5335L1363.68 36.2413C1364.64 37.55 1365.37 38.9252 1365.88 40.3303C1366.39 38.9252 1367.11 37.5499 1368.07 36.2411L1389.88 6.5333C1396.27 -2.17772 1409.28 -2.17772 1415.67 6.5333L1437.48 36.2411C1438.44 37.5499 1439.16 38.9251 1439.67 40.3302C1440.18 38.9251 1440.91 37.5499 1441.87 36.2411L1463.67 6.5333C1470.07 -2.17773 1483.08 -2.17773 1489.47 6.53329L1511.27 36.2411C1512.23 37.5499 1512.96 38.9251 1513.47 40.3302C1513.98 38.9251 1514.7 37.5499 1515.67 36.2411L1537.47 6.53329C1543.86 -2.17774 1556.87 -2.17774 1563.27 6.53329L1585.07 36.2411C1586.03 37.5498 1586.76 38.9251 1587.27 40.3302C1587.77 38.9251 1588.5 37.5499 1589.46 36.2411L1611.26 6.53328C1617.66 -2.17774 1630.67 -2.17774 1637.06 6.53328L1658.86 36.241C1659.83 37.5503 1660.55 38.9259 1661.06 40.3315C1661.57 38.9259 1662.3 37.5503 1663.26 36.2411L1685.06 6.53328C1691.45 -2.17775 1704.47 -2.17775 1710.86 6.53327L1732.66 36.241C1733.62 37.5498 1734.35 38.9251 1734.86 40.3302C1735.37 38.9251 1736.09 37.5498 1737.05 36.241L1758.86 6.53327C1765.25 -2.17776 1778.26 -2.17776 1784.65 6.53327L1806.46 36.241C1807.42 37.5498 1808.14 38.9249 1808.65 40.33C1809.16 38.925 1809.89 37.5499 1810.85 36.2412L1832.65 6.53345C1839.05 -2.17757 1852.06 -2.17757 1858.45 6.53345L1880.25 36.2412C1880.84 37.0468 1881.35 37.8776 1881.76 38.725C1882.11 38.0939 1882.51 37.4735 1882.95 36.8673L1904.75 7.15949C1906.9 4.23414 1909.79 2.29118 1912.93 1.33063C1915.17 0.355535 1917.59 -0.0835705 1920 0.0133113V978H0V0.0132873ZM37.1851 51.9581C37.3162 51.6503 37.4382 51.3384 37.5503 51.0229C37.6626 51.3384 37.7844 51.6503 37.9155 51.9581H37.1851ZM111.346 51.0229C111.234 51.3384 111.112 51.6503 110.981 51.9581H111.711C111.58 51.6503 111.458 51.3384 111.346 51.0229ZM184.777 51.9581C184.908 51.6503 185.03 51.3384 185.142 51.0229C185.254 51.3384 185.376 51.6503 185.507 51.9581H184.777ZM258.938 51.0229C258.826 51.3384 258.704 51.6503 258.573 51.9581H259.303C259.172 51.6503 259.05 51.3384 258.938 51.0229ZM332.369 51.9581C332.5 51.6503 332.622 51.3384 332.734 51.0229C332.846 51.3384 332.968 51.6503 333.099 51.9581H332.369ZM406.53 51.0229C406.418 51.3384 406.296 51.6502 406.165 51.9581H406.895C406.764 51.6502 406.642 51.3384 406.53 51.0229ZM479.96 51.958C480.092 51.6498 480.214 51.3374 480.326 51.0215C480.438 51.3374 480.561 51.6498 480.692 51.958H479.96ZM554.122 51.0239C554.01 51.339 553.888 51.6506 553.757 51.958H554.487C554.356 51.6506 554.234 51.339 554.122 51.0239ZM627.552 51.958C627.684 51.6502 627.806 51.3383 627.918 51.0228C628.03 51.3383 628.152 51.6502 628.283 51.958H627.552ZM701.714 51.0228C701.602 51.3383 701.479 51.6502 701.348 51.958H702.079C701.948 51.6502 701.826 51.3383 701.714 51.0228ZM848.941 51.958C849.072 51.6507 849.194 51.3392 849.306 51.0242C849.418 51.3392 849.539 51.6507 849.67 51.958H848.941ZM775.144 51.958C775.276 51.6499 775.398 51.3376 775.51 51.0218C775.622 51.3376 775.744 51.6499 775.875 51.958H775.144ZM922.736 51.958C922.867 51.6498 922.989 51.3374 923.102 51.0215C923.214 51.3374 923.336 51.6498 923.467 51.958H922.736ZM996.897 51.0242C996.785 51.3392 996.664 51.6506 996.533 51.958H997.262C997.131 51.6506 997.01 51.3392 996.897 51.0242ZM1070.33 51.958C1070.46 51.6497 1070.58 51.3374 1070.69 51.0214C1070.81 51.3374 1070.93 51.6497 1071.06 51.958H1070.33ZM1144.49 51.0228C1144.38 51.3383 1144.26 51.6502 1144.12 51.958H1144.85C1144.72 51.6502 1144.6 51.3383 1144.49 51.0228ZM1217.92 51.958C1218.05 51.6502 1218.17 51.3383 1218.29 51.0228C1218.4 51.3383 1218.52 51.6502 1218.65 51.958H1217.92ZM1292.08 51.0228C1291.97 51.3383 1291.85 51.6502 1291.72 51.958H1292.45C1292.32 51.6502 1292.19 51.3383 1292.08 51.0228ZM1365.51 51.958C1365.64 51.6502 1365.77 51.3383 1365.88 51.0229C1365.99 51.3383 1366.11 51.6502 1366.24 51.958H1365.51ZM1439.67 51.0228C1439.56 51.3383 1439.44 51.6502 1439.31 51.958H1440.04C1439.91 51.6502 1439.79 51.3383 1439.67 51.0228ZM1513.1 51.958C1513.24 51.6501 1513.36 51.3383 1513.47 51.0228C1513.58 51.3383 1513.7 51.6501 1513.83 51.958H1513.1ZM1587.27 51.0228C1587.15 51.3382 1587.03 51.6501 1586.9 51.958H1587.63C1587.5 51.6501 1587.38 51.3382 1587.27 51.0228ZM1660.7 51.9579C1660.83 51.6497 1660.95 51.3373 1661.06 51.0214C1661.17 51.3373 1661.3 51.6497 1661.43 51.9579H1660.7ZM1734.86 51.0228C1734.75 51.3382 1734.62 51.6501 1734.49 51.9579H1735.22C1735.09 51.6501 1734.97 51.3382 1734.86 51.0228ZM1808.29 51.9579C1808.42 51.6503 1808.54 51.3386 1808.65 51.0233C1808.77 51.3386 1808.89 51.6503 1809.02 51.9579H1808.29Z" fill="#F580F7"/>
<rect y="47" width="1920" height="61" fill="#F580F7"/>
</svg>
