<svg width="834" height="488" viewBox="0 0 834 488" fill="none" xmlns="http://www.w3.org/2000/svg">
<g clip-path="url(#clip0_1009_1992)">
<path fill-rule="evenodd" clip-rule="evenodd" d="M390.548 3.37158C387.771 -0.41227 382.119 -0.412274 379.342 3.37158L369.871 16.2759C369.454 16.8442 369.139 17.4414 368.918 18.0515C368.696 17.4414 368.381 16.8442 367.964 16.2759L358.493 3.37159C355.716 -0.412267 350.064 -0.412271 347.287 3.37158L337.817 16.2759C337.399 16.8443 337.084 17.4416 336.863 18.0518C336.641 17.4416 336.326 16.8443 335.909 16.2759L326.438 3.37158C323.661 -0.412268 318.009 -0.412272 315.232 3.37158L305.762 16.2759C305.344 16.845 305.029 17.443 304.807 18.054C304.586 17.443 304.27 16.845 303.853 16.2759L294.382 3.37158C291.605 -0.412269 285.953 -0.412273 283.176 3.37158L273.705 16.2759C273.288 16.8442 272.973 17.4414 272.752 18.0515C272.53 17.4414 272.215 16.8442 271.798 16.2759L262.327 3.37159C259.55 -0.412266 253.898 -0.41227 251.121 3.37158L241.651 16.2759C241.233 16.8442 240.918 17.4414 240.697 18.0515C240.475 17.4414 240.16 16.8442 239.743 16.2759L230.272 3.37159C227.495 -0.412267 221.844 -0.412271 219.067 3.37158L209.596 16.2759C209.179 16.8442 208.864 17.4413 208.642 18.0514C208.421 17.4413 208.106 16.8442 207.689 16.2759L198.218 3.37158C195.441 -0.412268 189.789 -0.412272 187.012 3.37158L177.541 16.2759C177.124 16.8442 176.809 17.4414 176.588 18.0516C176.366 17.4414 176.051 16.8442 175.634 16.2759L166.163 3.37158C163.386 -0.412269 157.734 -0.412273 154.957 3.37158L145.486 16.2759C145.069 16.8442 144.754 17.4414 144.533 18.0515C144.311 17.4414 143.996 16.8442 143.579 16.2759L134.108 3.37159C131.331 -0.412266 125.68 -0.412271 122.902 3.37158L113.432 16.2759C113.014 16.8451 112.699 17.4431 112.477 18.0542C112.256 17.4431 111.94 16.8451 111.522 16.2759L102.052 3.37159C99.2747 -0.412267 93.6229 -0.412272 90.8459 3.37158L81.3751 16.2759C80.958 16.8442 80.6428 17.4414 80.4215 18.0515C80.2001 17.4414 79.8849 16.8442 79.4678 16.2759L69.9971 3.37158C67.22 -0.412268 61.5682 -0.412273 58.7912 3.37158L49.3205 16.2759C48.9033 16.8442 48.5881 17.4414 48.3667 18.0516C48.1454 17.4414 47.8302 16.8442 47.413 16.2759L37.9423 3.37158C35.1653 -0.412269 29.5135 -0.412274 26.7364 3.37158L17.2657 16.2759C16.848 16.845 16.5325 17.4431 16.3111 18.0541C16.0897 17.4431 15.7742 16.845 15.3565 16.2759L5.88574 3.37159C3.10869 -0.412267 -2.54312 -0.412271 -5.32016 3.37158L-14.7909 16.2759C-18.1598 20.8663 -14.8819 27.338 -9.18794 27.338H0.000605865V539H834.001V27.338L843.188 27.338C848.882 27.338 852.16 20.8663 848.791 16.2759L839.32 3.37159C836.543 -0.412267 830.892 -0.412271 828.114 3.37158L818.644 16.2759C818.227 16.8443 817.911 17.4416 817.69 18.0519C817.469 17.4416 817.153 16.8443 816.736 16.2759L807.265 3.37158C804.488 -0.412268 798.837 -0.412272 796.06 3.37158L786.589 16.2759C786.172 16.8446 785.856 17.4421 785.635 18.0527C785.413 17.4421 785.098 16.8446 784.681 16.2759L775.21 3.37158C772.433 -0.412269 766.781 -0.412273 764.004 3.37158L754.533 16.2759C754.116 16.8443 753.801 17.4415 753.58 18.0517C753.358 17.4415 753.043 16.8443 752.626 16.2759L743.155 3.37159C740.378 -0.412266 734.726 -0.41227 731.949 3.37158L722.479 16.2759C722.061 16.8445 721.746 17.4421 721.524 18.0526C721.303 17.4421 720.988 16.8445 720.57 16.2759L711.1 3.37159C708.323 -0.412267 702.671 -0.412271 699.894 3.37158L690.423 16.2759C690.006 16.8447 689.69 17.4424 689.469 18.053C689.247 17.4424 688.932 16.8447 688.515 16.2759L679.044 3.37158C676.267 -0.412268 670.615 -0.412272 667.838 3.37158L658.367 16.2759C657.95 16.8442 657.635 17.4414 657.414 18.0515C657.192 17.4414 656.877 16.8442 656.46 16.2759L646.989 3.37158C644.212 -0.412269 638.56 -0.412273 635.783 3.37158L626.313 16.2759C625.896 16.8443 625.58 17.4415 625.359 18.0517C625.138 17.4415 624.822 16.8443 624.405 16.2759L614.934 3.37159C612.157 -0.412266 606.506 -0.412271 603.729 3.37158L594.258 16.2759C593.84 16.845 593.525 17.443 593.303 18.054C593.082 17.443 592.766 16.845 592.349 16.2759L582.878 3.37159C580.101 -0.412267 574.449 -0.412272 571.672 3.37158L562.201 16.2759C561.785 16.8434 561.47 17.4396 561.249 18.0488C561.027 17.4396 560.712 16.8434 560.296 16.2759L550.825 3.37158C548.048 -0.412268 542.396 -0.412273 539.619 3.37158L530.149 16.2759C529.731 16.8451 529.415 17.4431 529.194 18.0542C528.972 17.4431 528.657 16.8451 528.239 16.2759L518.769 3.37158C515.992 -0.412269 510.34 -0.412274 507.563 3.37158L498.092 16.2759C497.675 16.8442 497.36 17.4413 497.138 18.0514C496.917 17.4413 496.602 16.8442 496.185 16.2759L486.714 3.37159C483.937 -0.412267 478.285 -0.412271 475.508 3.37158L466.037 16.2759C465.62 16.8451 465.304 17.4432 465.083 18.0543C464.861 17.4432 464.546 16.8451 464.128 16.2759L454.657 3.37158C451.88 -0.412268 446.228 -0.412272 443.451 3.37158L433.981 16.2759C433.564 16.8442 433.248 17.4414 433.027 18.0515C432.806 17.4414 432.49 16.8442 432.073 16.2759L422.603 3.37158C419.825 -0.412269 414.174 -0.412273 411.397 3.37158L401.926 16.2759C401.509 16.8442 401.194 17.4414 400.972 18.0515C400.751 17.4414 400.436 16.8442 400.019 16.2759L390.548 3.37158Z" fill="#F580F7"/>
</g>
<defs>
<clipPath id="clip0_1009_1992">
<rect width="834" height="488" fill="white"/>
</clipPath>
</defs>
</svg>
