<svg width="270" height="135" viewBox="0 0 270 135" fill="none" xmlns="http://www.w3.org/2000/svg">
<path fill-rule="evenodd" clip-rule="evenodd" d="M14 2C7.37258 2 2 7.37259 2 14V93.2C2 99.8274 7.37258 105.2 14 105.2H29.2993L60.5 131.001V105.2H256C262.627 105.2 268 99.8274 268 93.2V14C268 7.37258 262.627 2 256 2H14Z" fill="#252550"/>
<path d="M29.2993 105.2L30.2552 104.044L29.8392 103.7H29.2993V105.2ZM60.5 131.001L59.5441 132.157L62 134.187V131.001H60.5ZM60.5 105.2V103.7H59V105.2H60.5ZM3.5 14C3.5 8.20101 8.20101 3.5 14 3.5V0.5C6.54415 0.5 0.5 6.54416 0.5 14H3.5ZM3.5 93.2V14H0.5V93.2H3.5ZM14 103.7C8.20101 103.7 3.5 98.999 3.5 93.2H0.5C0.5 100.656 6.54416 106.7 14 106.7V103.7ZM29.2993 103.7H14V106.7H29.2993V103.7ZM61.4559 129.845L30.2552 104.044L28.3434 106.356L59.5441 132.157L61.4559 129.845ZM59 105.2V131.001H62V105.2H59ZM256 103.7H60.5V106.7H256V103.7ZM266.5 93.2C266.5 98.999 261.799 103.7 256 103.7V106.7C263.456 106.7 269.5 100.656 269.5 93.2H266.5ZM266.5 14V93.2H269.5V14H266.5ZM256 3.5C261.799 3.5 266.5 8.20101 266.5 14H269.5C269.5 6.54416 263.456 0.5 256 0.5V3.5ZM14 3.5H256V0.5H14V3.5Z" fill="#F580F7"/>
</svg>
