<svg width="322" height="253" viewBox="0 0 322 253" fill="none" xmlns="http://www.w3.org/2000/svg">
<path fill-rule="evenodd" clip-rule="evenodd" d="M60.3878 100.457C79.576 103.398 97.5155 90.2273 100.457 71.0391C103.398 51.851 90.2274 33.9115 71.0392 30.9701C51.8511 28.0288 33.9116 41.1995 30.9702 60.3877C28.0289 79.5759 41.1996 97.5154 60.3878 100.457ZM59.5442 105.961C81.7721 109.368 102.553 94.1107 105.961 71.8828C109.368 49.6549 94.1108 28.8735 71.8829 25.4663C49.655 22.059 28.8736 37.3161 25.4664 59.5441C22.0591 81.772 37.3163 102.553 59.5442 105.961Z" fill="#4633DC"/>
<path d="M98.4656 80.1257C90.5139 98.2273 69.3935 106.456 51.2919 98.5038C33.1902 90.5522 24.9621 69.4318 32.9137 51.3301C40.8654 33.2285 61.9858 25.0003 80.0875 32.952C98.1891 40.9037 106.417 62.024 98.4656 80.1257Z" fill="#F580F7"/>
<path fill-rule="evenodd" clip-rule="evenodd" d="M61.03 96.2595C77.9003 98.8455 93.6728 87.2658 96.2588 70.3954C98.8449 53.525 87.2651 37.7525 70.3947 35.1665C53.5244 32.5805 37.7519 44.1603 35.1659 61.0306C32.5799 77.901 44.1596 93.6735 61.03 96.2595ZM60.2882 101.099C79.8311 104.094 98.1022 90.68 101.098 71.1372C104.094 51.5943 90.6794 33.3232 71.1365 30.3275C51.5936 27.3318 33.3225 40.746 30.3268 60.2889C27.3311 79.8317 40.7453 98.1029 60.2882 101.099Z" fill="#FEDDFF"/>
<path d="M61.3649 75.6379L57.0006 85.5732L76.5058 73.6489L61.3649 75.6379Z" fill="#FEDDFF"/>
<path d="M74.458 45.8322L77.5255 71.3276L62.3846 73.3166L53.5154 60.7805" fill="#FEDDFF"/>
<path d="M74.458 45.8322L68.0134 60.5029L53.5154 60.7805M52.4957 63.1018L61.3649 75.6379L57.0006 85.5732" fill="#FEDDFF"/>
<path d="M68.0134 60.5029L62.3846 73.3166L77.5255 71.3276" fill="#FEDDFF"/>
<path d="M53.5154 60.7805L68.0134 60.5029L62.3846 73.3166" fill="#FEDDFF"/>
<path d="M206.458 231.006C205.496 232.556 204.165 233.781 203.314 234.472C203.314 234.472 203.314 234.472 203.309 234.472C196.259 235.897 186.311 229.703 185.193 228.984C182.728 227.337 180.384 225.504 178.186 223.455C174.891 220.374 172.009 216.946 169.596 213.146C168.788 211.861 168.909 210.592 169.808 209.747C171.182 208.453 172.705 208.109 173.926 208.847C174.162 208.987 174.401 209.169 174.662 209.204L174.684 209.203C174.69 209.208 174.69 209.213 174.69 209.219C174.787 209.438 174.883 209.652 174.986 209.893C176.166 212.563 180.636 219.241 187.301 224.493C187.301 224.493 187.444 224.612 187.717 224.813C189.6 226.227 197.635 231.813 206.246 231.274C206.326 231.188 206.395 231.102 206.458 231.006Z" fill="#BEF941"/>
<path d="M83.3311 217.381C82.9089 217.201 82.4866 217.02 82.0686 216.823C81.801 216.697 81.553 216.542 81.3096 216.376C81.7463 216.609 82.4227 216.955 83.3311 217.381Z" fill="#BEF941"/>
<path d="M233.067 157.132C232.941 157.103 232.803 157.129 232.655 157.166L232.649 157.167C214.734 158.707 197.993 166.421 194.108 168.317C193.946 168.393 193.803 168.193 193.923 168.066C199.278 162.332 208.185 146.012 211.684 139.412C211.756 139.277 211.827 139.148 211.894 139.02C212.257 138.364 212.604 137.709 212.934 137.044C213.086 136.748 213.166 136.591 213.166 136.591C213.746 135.424 214.288 134.243 214.763 133.03C214.974 132.508 215.264 132.041 215.503 131.539C217.374 127.662 219.094 123.715 220.659 119.703C221.845 116.666 222.916 113.589 223.904 110.491C227.124 98.4901 233.08 73.5793 229.958 63.8638C228.185 64.5494 226.489 65.4128 224.777 66.2666C219.222 69.0139 213.871 72.14 208.914 75.8741C204.228 79.4113 199.863 83.2922 195.786 87.5245C191.002 92.4911 186.636 97.8 182.675 103.447C180.639 106.355 178.818 109.399 177.153 112.534C177.001 112.819 176.877 113.124 176.742 113.43C181.239 115.677 184.861 119.662 186.514 124.826C189.77 134.99 184.164 145.866 174 149.117C163.836 152.373 152.959 146.767 149.708 136.603C146.452 126.439 152.058 115.562 162.223 112.312C164.13 111.697 166.065 111.399 167.966 111.388C167.993 110.772 167.816 110.176 167.692 109.576C167.464 108.396 167.128 107.234 166.793 106.078C165.446 105.699 164.063 105.716 162.646 106.096C161.475 106.383 160.388 106.783 159.398 107.333C159.289 107.395 159.164 107.457 159.061 107.529C158.7 107.749 158.349 107.978 158.018 108.239C157.726 108.464 157.442 108.71 157.165 108.978C157.104 109.036 157.033 109.1 156.979 109.169C156.934 109.221 156.894 109.261 156.843 109.313C156.457 109.723 156.107 110.173 155.786 110.665C155.722 110.75 155.673 110.829 155.614 110.898C155.052 111.649 154.549 111.695 153.615 111.282C152.48 110.775 152.197 109.976 152.875 108.898C153.297 108.233 153.759 107.607 154.263 107.033C154.601 106.637 154.964 106.278 155.349 105.933C155.531 105.769 155.725 105.604 155.908 105.457C156.27 105.162 156.639 104.898 157.036 104.644C157.386 104.415 157.748 104.195 158.128 104.007C158.149 104 158.169 103.982 158.18 103.976C158.206 103.969 158.216 103.963 158.237 103.945C158.294 103.914 158.335 103.889 158.393 103.869C158.498 103.824 158.596 103.769 158.685 103.725C161.031 102.616 163.423 102.151 165.874 102.441C165.848 102.303 165.821 102.159 165.795 102.021C165.798 101.983 165.768 101.936 165.771 101.898C164.888 98.48 163.905 95.0955 162.848 91.7324C158.419 78.0734 145.991 45.8671 121.683 23.8006C121.25 24.5371 120.811 25.2739 120.378 26.005C120.078 26.4896 119.795 26.9838 119.512 27.4726C119.397 27.68 119.283 27.8982 119.168 28.1003C117.733 30.7397 116.434 33.4071 115.278 36.1129C115.134 36.4302 114.995 36.7579 114.867 37.0849C114.848 37.1186 114.845 37.1457 114.831 37.1737C114.12 38.932 113.458 40.7084 112.831 42.5039C111.548 46.2317 110.441 50.0171 109.499 53.834C104.129 76.8282 106.26 99.5135 108.774 113.814C108.932 114.752 109.098 115.65 109.261 116.506C109.447 117.463 109.63 118.377 109.809 119.232C112.243 118.532 114.728 118.539 117.289 119.393C117.984 119.624 118.665 119.889 119.252 120.332C119.321 120.403 119.395 120.457 119.464 120.522C119.927 121.039 120.059 121.762 119.736 122.383C119.358 123.137 118.639 123.484 117.822 123.278C117.536 123.201 117.243 123.098 116.981 122.966C115.217 122.104 113.38 121.954 111.487 122.47C111.18 122.546 110.879 122.626 110.589 122.717C110.784 123.571 110.973 124.344 111.146 125.032C111.549 126.626 111.872 127.761 112.049 128.363C122.214 125.123 133.08 130.724 136.335 140.883C139.586 151.048 133.98 161.924 123.816 165.175C113.652 168.431 102.775 162.825 99.5245 152.66C97.0493 144.931 99.7075 136.795 105.585 131.902C105.547 131.894 105.514 131.891 105.476 131.883C99.2267 130.525 93.1608 128.41 86.916 127.041C81.3826 125.826 75.8276 125.222 70.235 125.304C67.3662 125.351 64.4832 125.576 61.5924 125.996C59.8962 126.24 58.2175 126.504 56.559 126.901C55.9385 127.042 55.3199 127.209 54.7082 127.398C54.524 127.46 54.3428 127.489 54.1594 127.485C54.1433 127.487 54.1219 127.488 54.1054 127.484C54.9095 129.561 55.8519 131.612 56.91 133.622C58.9254 137.667 61.7746 142.606 65.7195 147.953C66.6728 149.243 67.6812 150.551 68.7613 151.881C68.7617 151.887 68.767 151.886 68.767 151.886C73.6305 157.879 79.8497 164.224 87.7476 170.304L87.728 170.333C87.7391 170.337 87.7452 170.347 87.751 170.352C91.9226 173.571 96.5631 176.713 101.726 179.694L101.726 179.7C101.726 179.7 109.205 184.193 117.059 187.674C117.304 187.641 117.545 187.608 117.775 187.591L117.861 187.585C118.016 187.574 118.162 187.569 118.307 187.564C118.35 187.561 118.383 187.575 118.412 187.6C118.497 187.664 118.497 187.82 118.382 187.866C117.021 188.356 114.121 189.488 110.536 191.298C106.785 193.19 102.289 195.825 98.0623 199.227C96.9216 200.165 95.7866 201.107 94.6634 202.065C91.4154 204.827 88.3082 207.751 85.4326 210.902C84.3674 212.071 83.3869 213.293 82.3831 214.49C81.4047 215.896 81.027 216.041 80.9144 216.049C80.9144 216.049 80.888 216.056 80.8551 216.048C80.8899 216.083 80.9305 216.123 80.9756 216.152C98.3147 222.703 118.461 218.111 120.627 217.581C121.262 217.423 121.897 217.259 122.532 217.09C124.352 216.612 126.155 216.123 127.941 215.555C130.17 214.837 132.294 213.863 134.463 212.987C136.757 212.055 138.996 211.029 141.206 209.962C144.958 208.161 148.629 206.199 152.244 204.134C158.128 200.776 163.631 196.836 169.389 193.298C172.834 191.185 176.317 189.161 179.909 187.302C182.586 185.911 185.339 184.682 188.091 183.442C189.469 182.816 190.935 182.293 192.337 181.692C197.288 179.548 202.406 177.926 207.545 176.383C209.413 175.825 211.304 175.287 213.246 175.015C213.892 174.921 214.4 174.643 214.863 174.098C217.653 170.803 220.831 167.895 224.078 165.047C226.736 162.703 229.484 160.489 232.337 158.385C232.726 158.104 233.579 157.974 233.403 157.458C233.334 157.253 233.215 157.159 233.067 157.132ZM125.412 175.343C120.117 177.037 115.318 176.837 114.696 174.898C114.079 172.954 117.869 170.008 123.165 168.314C128.46 166.619 133.259 166.819 133.876 168.758C134.498 170.703 130.708 173.648 125.412 175.343ZM155.209 170.446C151.438 172.221 147.718 172.258 144.057 170.167C141.682 168.816 140.222 166.677 139.182 164.24C138.407 162.425 137.832 160.547 137.316 158.655C137.225 158.284 137.193 157.904 137.134 157.52C137.043 156.917 137.312 156.543 137.876 156.363C138.524 156.145 139.17 155.91 139.818 155.703C145.217 153.953 150.633 152.207 156.033 150.462C156.444 150.331 156.851 150.216 157.262 150.095C158.278 149.824 158.404 149.858 158.777 150.866C159.214 152.021 159.558 153.22 159.937 154.394C160.628 156.323 161.267 158.272 161.349 160.346C161.505 164.764 159.208 168.558 155.209 170.446ZM178.073 158.49C172.777 160.185 167.984 159.985 167.362 158.046C166.74 156.107 170.529 153.156 175.825 151.461C181.12 149.767 185.919 149.967 186.541 151.906C187.164 153.85 183.374 156.796 178.073 158.49Z" fill="#BEF941"/>
<path d="M117.059 187.676C114.667 187.996 111.844 188.993 109.179 190.162C109.169 190.168 109.153 190.175 109.137 190.181C108.812 190 108.525 189.831 108.228 189.674C104.315 187.677 100.424 185.608 96.7441 183.169C92.6682 180.466 88.8778 177.382 85.2025 174.172C85.0532 174.042 84.9039 173.913 84.7601 173.783C84.496 173.554 84.2319 173.324 83.9732 173.095C82.5137 171.808 81.1047 170.474 79.7413 169.099C79.6081 168.969 79.481 168.848 79.3705 168.732C78.8478 168.198 78.3301 167.658 77.8173 167.112C55.4381 144.29 52.8531 125.398 52.6223 123.199C52.6094 123.093 52.6044 123.023 52.6025 122.996C52.609 123.012 52.6171 123.049 52.6373 123.107C52.6671 123.223 52.7026 123.345 52.7377 123.461C52.7603 123.551 52.7878 123.635 52.8157 123.725C52.8222 123.74 52.8287 123.756 52.8302 123.778C52.8722 123.915 52.9207 124.067 52.9757 124.236C53.2974 125.28 53.6566 126.322 54.0529 127.355C54.0666 127.397 54.0858 127.439 54.1052 127.486C54.9094 129.563 55.8518 131.614 56.9099 133.625C58.9253 137.669 61.7745 142.608 65.7193 147.955C66.6727 149.245 67.6811 150.554 68.7612 151.884C68.7615 151.889 68.7669 151.889 68.7669 151.889C73.6303 157.882 79.8496 164.226 87.7474 170.306L87.7279 170.335C87.739 170.339 87.7451 170.35 87.7508 170.355C91.9225 173.573 96.563 176.715 101.726 179.697L101.726 179.702C101.726 179.702 109.205 184.196 117.059 187.676Z" fill="#98D517"/>
<path d="M229.958 63.863C228.185 64.5487 226.49 65.4121 224.777 66.2659C219.222 69.0131 213.872 72.1393 208.914 75.8734C204.228 79.4106 199.863 83.2915 195.787 87.5238C191.003 92.4904 186.636 97.7993 182.676 103.446C180.64 106.354 178.818 109.398 177.154 112.533C177.001 112.818 176.878 113.124 176.743 113.429C174.984 112.552 173.087 111.937 171.12 111.628C171.83 110.323 172.536 109.023 173.381 107.794C173.386 107.788 173.386 107.788 173.391 107.782C174.57 106.476 175.409 104.924 176.396 103.486C182.041 95.2251 188.587 87.7308 196.183 81.2345C202.071 76.1845 208.386 71.7563 215.368 68.3048C219.459 66.2699 223.705 64.5904 228.127 63.4159C228.127 63.4159 228.164 63.4079 228.222 63.393C228.525 63.3339 229.474 63.1806 229.857 63.6546C229.886 63.6849 229.911 63.7209 229.93 63.7627C229.935 63.7677 229.935 63.7677 229.936 63.773C229.943 63.8048 229.951 63.8313 229.958 63.863Z" fill="#FCF7D3"/>
<path d="M159.937 154.397C159.558 153.222 159.215 152.023 158.778 150.869C158.405 149.861 158.278 149.827 157.263 150.098C156.851 150.218 156.444 150.333 156.033 150.465C150.634 152.21 145.218 153.955 139.818 155.706C139.17 155.913 138.524 156.147 137.877 156.365C137.313 156.545 137.043 156.92 137.134 157.523C137.193 157.906 137.226 158.287 137.317 158.657C137.833 160.55 138.407 162.428 139.182 164.243C140.222 166.68 141.682 168.818 144.057 170.17C147.718 172.261 151.439 172.224 155.209 170.449C159.209 168.561 161.505 164.767 161.349 160.348C161.268 158.274 160.629 156.326 159.937 154.397ZM158.315 162.702C158.094 163.914 157.503 164.931 156.729 165.88C153.86 169.429 148.016 170.068 144.622 167.188C144.422 167.019 144.233 166.86 144.053 166.673C143.663 166.264 143.656 165.866 144.08 165.459C144.726 164.837 145.377 164.214 146.147 163.75C147.468 162.924 148.888 162.35 150.18 161.887C152.467 161.299 154.587 160.799 156.788 160.838C158.298 160.855 158.579 161.18 158.315 162.702Z" fill="#543EFA"/>
<path d="M144.621 167.19C148.017 170.067 153.862 169.428 156.73 165.88C157.503 164.933 158.096 163.914 158.318 162.703C158.582 161.18 158.297 160.857 156.787 160.835C154.587 160.801 152.465 161.298 150.18 161.887C148.89 162.352 147.467 162.924 146.149 163.747C145.379 164.214 144.723 164.838 144.08 165.458C143.654 165.867 143.664 166.265 144.053 166.672C144.231 166.861 144.424 167.019 144.621 167.19Z" fill="#F580F7"/>
<path d="M121.683 23.8002C121.25 24.5366 120.812 25.2735 120.378 26.0046C120.079 26.4891 119.796 26.9833 119.512 27.4721C119.398 27.6796 119.284 27.8978 119.169 28.0999C117.733 30.7392 116.435 33.4066 115.279 36.1124C115.134 36.4297 114.996 36.7575 114.868 37.0844C114.849 37.1181 114.845 37.1453 114.831 37.1732C114.12 38.9315 113.459 40.7079 112.831 42.5035C111.548 46.2313 110.442 50.0166 109.499 53.8335C104.13 76.8278 106.261 99.513 108.775 113.814C108.932 114.751 109.098 115.65 109.261 116.506C109.447 117.463 109.63 118.377 109.809 119.231C109.043 119.447 108.282 119.738 107.526 120.093C107.438 120.137 107.339 120.193 107.235 120.238C107.177 120.258 107.136 120.288 107.078 120.313C107.059 120.336 107.048 120.337 107.021 120.344C107.011 120.351 106.991 120.368 106.97 120.375C106.59 120.564 106.233 120.783 105.878 121.013C105.718 121.115 105.569 121.218 105.42 121.325C105.42 121.32 105.42 121.32 105.415 121.32C105.212 120.747 105.009 120.153 104.803 119.531C99.7779 104.384 93.6893 74.8767 106.765 42.0592L106.775 42.0424C107.415 40.2836 108.079 38.5447 108.819 36.8167C111.057 31.5774 113.575 26.496 116.766 21.7713C116.863 21.6244 116.961 21.4881 117.048 21.3473C117.383 20.747 117.816 20.6302 118.428 20.9696C118.433 20.9692 118.433 20.9692 118.433 20.9692C119.538 21.8933 120.623 22.8351 121.683 23.8002Z" fill="#FCF4D0"/>
<path d="M112.05 128.365C112.05 128.37 112.045 128.37 112.039 128.371C109.61 129.146 107.444 130.366 105.591 131.903L105.586 131.904C105.548 131.895 105.515 131.892 105.477 131.884C99.2273 130.526 93.1615 128.411 86.9166 127.042C81.3832 125.827 75.8282 125.223 70.2356 125.306C67.3669 125.352 64.4839 125.578 61.5931 125.997C59.8968 126.241 58.2181 126.505 56.5596 126.903C55.9392 127.043 55.3206 127.211 54.7088 127.4C54.5246 127.461 54.3434 127.49 54.16 127.487C54.1439 127.488 54.1225 127.49 54.106 127.485C54.0865 127.438 54.0674 127.397 54.0536 127.354C53.6573 126.321 53.2982 125.279 52.9765 124.235C52.9215 124.067 52.873 123.914 52.831 123.777C52.8294 123.755 52.8229 123.74 52.8165 123.724C52.7886 123.634 52.7611 123.55 52.7385 123.46C52.7034 123.344 52.6679 123.222 52.6381 123.106C52.6178 123.048 52.6098 123.011 52.6033 122.995L52.6026 122.985C52.6082 122.682 52.8399 122.607 53.4715 122.395C56.1253 121.518 58.8176 120.805 61.5434 120.262C61.5434 120.262 61.5434 120.262 61.5488 120.262C64.2482 119.726 66.9866 119.36 69.7593 119.175C76.0388 118.748 82.1641 119.263 88.2049 120.566C88.2156 120.565 88.2163 120.576 88.2324 120.575C88.6743 120.651 95.4052 121.884 102.093 124.714C102.098 124.714 102.098 124.714 102.098 124.714C101.971 124.901 101.844 125.082 101.723 125.274C101.039 126.346 101.322 127.151 102.457 127.652C103.391 128.066 103.894 128.019 104.461 127.274C104.515 127.2 104.564 127.121 104.628 127.035C104.822 126.736 105.034 126.463 105.252 126.194C106.163 126.652 107.05 127.155 107.896 127.688C107.907 127.698 107.907 127.698 107.924 127.708C107.907 127.687 107.9 127.672 107.893 127.651C107.546 126.851 107.138 125.883 106.692 124.751C106.748 124.703 106.803 124.656 106.859 124.609C107.191 124.349 107.547 124.119 107.903 123.905C108.011 123.827 108.131 123.765 108.239 123.704C108.97 123.296 109.756 122.977 110.589 122.718C110.784 123.572 110.974 124.346 111.146 125.034C111.55 126.627 111.872 127.763 112.05 128.365Z" fill="#FCF4D0"/>
<path d="M168.141 106.596C168.405 106.732 168.696 106.833 168.981 106.911C169.797 107.116 170.515 106.769 170.896 106.013C171.215 105.392 171.087 104.669 170.625 104.156C170.552 104.089 170.482 104.033 170.409 103.966C169.825 103.518 169.145 103.256 168.45 103.026C167.583 102.736 166.726 102.545 165.877 102.444C163.424 102.151 161.035 102.62 158.685 103.727C158.595 103.769 158.497 103.826 158.395 103.872C158.336 103.891 158.292 103.918 158.238 103.948C158.218 103.967 158.206 103.971 158.183 103.979C158.171 103.982 158.151 104.002 158.128 104.009C157.747 104.196 157.389 104.414 157.035 104.644C156.638 104.901 156.268 105.162 155.909 105.458C155.724 105.608 155.531 105.773 155.35 105.935C154.967 106.277 154.604 106.64 154.263 107.034C153.76 107.61 153.3 108.236 152.879 108.902C152.198 109.975 152.481 110.778 153.615 111.284C154.55 111.697 155.054 111.652 155.617 110.902C155.673 110.832 155.724 110.751 155.788 110.666C156.11 110.174 156.459 109.726 156.846 109.317C156.894 109.263 156.933 109.224 156.981 109.17C157.036 109.101 157.107 109.039 157.166 108.981C157.443 108.712 157.727 108.465 158.018 108.242C158.349 107.981 158.703 107.751 159.061 107.533C159.167 107.46 159.289 107.395 159.399 107.334C160.389 106.784 161.478 106.383 162.645 106.101C164.062 105.715 165.447 105.703 166.794 106.081C167.247 106.208 167.697 106.379 168.141 106.596Z" fill="#F580F7"/>
<path d="M256.062 157.554C255.949 161.517 252.616 239.943 178.233 206.198C178.233 206.198 178.233 206.198 178.216 206.188C177.009 205.578 175.773 205.024 174.537 204.449C174.419 204.393 174.305 204.449 174.242 204.545C174.236 204.546 174.231 204.546 174.221 204.552C172.773 205.651 174.639 209.108 174.639 209.108C174.652 209.134 174.665 209.165 174.684 209.202L174.662 209.203C174.401 209.168 174.162 208.985 173.926 208.846C172.704 208.108 171.182 208.452 169.808 209.746C168.909 210.591 168.788 211.86 169.596 213.145C172.009 216.945 174.891 220.373 178.186 223.454C180.383 225.503 182.728 227.336 185.193 228.983C186.311 229.702 196.259 235.896 203.309 234.471C203.314 234.471 203.314 234.471 203.314 234.471C203.314 234.471 199.106 239.434 189.493 236.002C189.438 235.979 189.383 235.962 189.328 235.944C189.277 235.921 189.228 235.908 189.173 235.89C189.134 235.872 189.095 235.858 189.057 235.845C188.824 235.759 188.591 235.667 188.364 235.57C188.314 235.552 188.264 235.529 188.214 235.511C188.108 235.464 188.003 235.423 187.903 235.377C186.391 234.724 185.156 234.024 184.158 233.313C179.462 230.234 175.953 226.015 172.781 221.465C170.263 217.855 168.205 213.976 166.36 209.984C165.339 207.809 164.26 205.655 163.133 203.514C163.002 203.26 162.609 203.406 162.682 203.681C162.778 204.057 162.875 204.438 162.956 204.815C163.5 207.411 163.81 210.035 164.268 212.632C164.553 214.304 164.112 215.844 163.372 217.335C161.494 221.18 159.063 224.601 156.043 227.627C152.626 231.037 148.767 233.842 144.351 235.787C141.252 237.153 137.971 237.994 134.545 238.015C133.253 238.026 133.106 237.934 133.025 236.716C132.642 230.369 134.58 224.854 138.957 220.229C139.332 219.82 139.784 219.497 140.199 219.118C140.365 218.96 140.6 218.847 140.737 218.659C140.886 218.471 140.677 218.189 140.447 218.286C140.379 218.318 140.312 218.355 140.25 218.403C138.863 219.363 137.278 219.874 135.698 220.4C131.287 221.87 126.815 222.795 122.291 223.276L122.291 223.282C104.261 225.941 89.1714 220.115 83.3313 217.381C82.4228 216.955 81.7464 216.609 81.3097 216.376C80.9793 216.2 80.783 216.09 80.7435 216.066C80.8159 216.098 80.8982 216.12 80.9759 216.152C98.315 222.702 118.461 218.11 120.627 217.58C121.263 217.422 121.898 217.259 122.532 217.09C124.352 216.611 126.155 216.122 127.942 215.554C130.17 214.837 132.294 213.862 134.463 212.987C136.757 212.054 138.997 211.028 141.206 209.962C144.958 208.161 148.629 206.199 152.244 204.133C158.128 200.775 163.631 196.835 169.389 193.298C172.834 191.185 176.318 189.16 179.909 187.301C182.586 185.91 185.339 184.681 188.091 183.441C189.469 182.816 190.936 182.292 192.337 181.692C197.289 179.548 202.406 177.925 207.545 176.382C209.413 175.824 211.304 175.286 213.247 175.015C213.892 174.92 214.4 174.642 214.863 174.097C217.653 170.802 220.831 167.894 224.079 165.046C226.737 162.703 229.484 160.488 232.337 158.384C232.727 158.104 233.58 157.973 233.403 157.458C233.335 157.252 233.215 157.158 233.067 157.131C232.942 157.102 232.803 157.128 232.655 157.166L232.65 157.166C214.735 158.707 197.994 166.42 194.108 168.317C193.946 168.393 193.803 168.193 193.923 168.066C199.278 162.331 208.185 146.011 211.685 139.411C211.756 139.277 211.828 139.148 211.894 139.019C212.257 138.363 212.604 137.708 212.934 137.043C213.086 136.747 213.166 136.591 213.166 136.591C213.747 135.423 214.288 134.243 214.763 133.029C214.974 132.508 215.264 132.04 215.504 131.538C217.374 127.661 219.094 123.714 220.659 119.702C221.846 116.666 222.916 113.589 223.904 110.491C227.124 98.4895 233.08 73.5786 229.958 63.8631C229.951 63.8313 229.943 63.8049 229.936 63.7731C229.948 63.7992 229.961 63.8306 229.974 63.862C230.262 64.6499 230.684 65.9025 231.138 67.6001C231.144 67.605 231.145 67.6158 231.145 67.6265C233.101 74.8703 235.691 90.0872 231.125 110.729C230.878 111.884 230.62 113.033 230.335 114.185C229.886 115.99 229.37 117.767 228.815 119.525C228.754 119.723 228.703 119.92 228.637 120.125L228.631 120.12C226.536 126.62 223.765 132.846 220.518 138.9C217.318 144.859 213.564 150.448 209.591 155.918C208.383 157.577 207.197 159.25 205.639 160.616C205.545 160.66 205.44 160.77 205.379 160.898C205.342 160.987 205.35 161.099 205.435 161.163C205.561 161.262 205.708 161.203 205.812 161.158C208.867 159.703 212.065 158.599 215.305 157.707C219.782 156.48 224.287 155.338 228.924 154.773C232.7 154.301 236.457 153.853 240.274 153.965C245.496 154.119 250.555 155.028 255.371 157.075C255.55 157.159 255.744 157.242 255.928 157.326C256.017 157.363 256.061 157.462 256.062 157.554Z" fill="#98D517"/>
<path d="M206.802 230.378C206.785 230.433 206.753 230.511 206.715 230.583C206.668 230.684 206.6 230.785 206.527 230.904C206.503 230.938 206.483 230.966 206.459 231.005C206.396 231.102 206.326 231.187 206.246 231.274C197.636 231.812 189.601 226.226 187.717 224.813C187.444 224.611 187.301 224.492 187.301 224.492C180.636 219.241 176.166 212.562 174.986 209.892C174.883 209.652 174.787 209.438 174.691 209.218C174.69 209.213 174.69 209.207 174.684 209.202C174.666 209.166 174.653 209.135 174.64 209.109C174.64 209.109 172.774 205.652 174.221 204.553C174.231 204.547 174.237 204.546 174.242 204.546C174.258 204.539 174.274 204.544 174.275 204.56C174.553 205.057 177.444 210.128 183.474 215.931C186.998 219.211 190.908 222.077 195.108 224.636C198.548 226.72 202.109 228.549 205.998 229.675C206.296 229.762 206.517 229.848 206.647 229.931C206.801 230.055 206.842 230.181 206.802 230.378Z" fill="#DCFF93"/>
<path d="M178.076 158.492C183.372 156.797 187.162 153.85 186.541 151.909C185.92 149.968 181.123 149.769 175.826 151.464C170.53 153.158 166.74 156.106 167.361 158.047C167.982 159.987 172.779 160.187 178.076 158.492Z" fill="#F580F7"/>
<path d="M125.413 175.342C130.709 173.647 134.499 170.7 133.879 168.759C133.257 166.819 128.46 166.619 123.164 168.314C117.867 170.009 114.078 172.956 114.699 174.897C115.32 176.837 120.116 177.037 125.413 175.342Z" fill="#F580F7"/>
<path d="M186.514 124.827C184.862 119.664 181.239 115.679 176.743 113.432C174.984 112.554 173.086 111.939 171.119 111.631C170.084 111.467 169.033 111.379 167.966 111.39C166.065 111.4 164.13 111.699 162.223 112.313C152.059 115.564 146.453 126.44 149.709 136.604C152.96 146.769 163.836 152.375 174 149.119C184.164 145.868 189.77 134.991 186.514 124.827ZM173.135 146.405C164.404 149.199 155.06 144.384 152.266 135.659C149.472 126.927 154.287 117.583 163.018 114.79C171.743 111.996 181.088 116.81 183.881 125.541C186.675 134.273 181.86 143.611 173.135 146.405Z" fill="#543EFA"/>
<path d="M183.881 125.541C181.087 116.81 171.743 111.996 163.018 114.789C154.287 117.583 149.472 126.927 152.266 135.658C155.06 144.384 164.404 149.198 173.135 146.405C181.86 143.611 186.675 134.272 183.881 125.541ZM168.348 142.184C162.252 144.134 155.731 140.775 153.781 134.678C151.831 128.587 155.19 122.062 161.287 120.111C167.378 118.161 173.904 121.521 175.854 127.617C177.804 133.714 174.445 140.234 168.348 142.184Z" fill="#F580F7"/>
<path d="M175.854 127.617C173.904 121.521 167.378 118.162 161.287 120.111C155.191 122.062 151.831 128.587 153.781 134.678C155.732 140.775 162.252 144.134 168.348 142.184C174.445 140.234 177.804 133.714 175.854 127.617ZM161.974 129.751C160.256 130.304 158.411 129.356 157.864 127.633C157.311 125.915 158.259 124.076 159.982 123.523C161.7 122.976 163.539 123.923 164.092 125.641C164.639 127.359 163.692 129.204 161.974 129.751Z" fill="#543EFA"/>
<path d="M160.243 124.658C158.523 125.208 157.574 127.049 158.125 128.769C158.675 130.489 160.516 131.437 162.236 130.887C163.956 130.336 164.904 128.495 164.354 126.775C163.803 125.056 161.963 124.107 160.243 124.658Z" fill="#FEFEFE"/>
<path d="M136.336 140.886C133.08 130.727 122.215 125.126 112.049 128.366C112.05 128.371 112.044 128.371 112.039 128.372C109.61 129.147 107.444 130.367 105.591 131.904L105.586 131.904C99.7079 136.797 97.0497 144.933 99.5249 152.663C102.776 162.827 113.652 168.433 123.816 165.177C133.981 161.926 139.586 151.05 136.336 140.886ZM122.951 162.463C114.22 165.257 104.876 160.448 102.082 151.717C99.2937 142.986 104.103 133.647 112.834 130.848C121.565 128.054 130.904 132.869 133.697 141.6C136.491 150.331 131.682 159.669 122.951 162.463Z" fill="#543EFA"/>
<path d="M133.697 141.6C130.903 132.868 121.564 128.054 112.833 130.848C104.103 133.647 99.2933 142.985 102.082 151.717C104.876 160.448 114.219 165.257 122.95 162.463C131.681 159.669 136.491 150.331 133.697 141.6ZM118.174 158.236C112.083 160.192 105.563 156.827 103.607 150.736C101.657 144.639 105.017 138.119 111.113 136.169C117.21 134.219 123.73 137.578 125.68 143.675C127.63 149.766 124.271 156.286 118.174 158.236Z" fill="#F580F7"/>
<path d="M125.68 143.675C123.73 137.578 117.21 134.219 111.113 136.169C105.017 138.119 101.657 144.64 103.608 150.736C105.563 156.827 112.083 160.192 118.174 158.236C124.271 156.286 127.63 149.766 125.68 143.675ZM111.789 145.81C110.072 146.362 108.232 145.414 107.679 143.691C107.127 141.974 108.08 140.134 109.797 139.581C111.515 139.034 113.36 139.981 113.907 141.699C114.46 143.422 113.512 145.262 111.789 145.81Z" fill="#543EFA"/>
<path d="M110.311 139.778C108.287 140.435 107.175 142.639 107.825 144.701C108.475 146.763 110.642 147.902 112.665 147.245C114.689 146.588 115.802 144.384 115.152 142.322C114.501 140.26 112.334 139.121 110.311 139.778Z" fill="#FEFEFE"/>
<path d="M118.428 20.9644C118.428 20.9644 118.428 20.9644 118.434 20.9699C118.434 20.9699 118.434 20.9699 118.428 20.9704L118.428 20.9644Z" fill="#98D517"/>
<path d="M173.391 107.783C173.386 107.788 173.386 107.788 173.381 107.794C172.536 109.023 171.831 110.323 171.12 111.629C170.085 111.465 169.033 111.377 167.967 111.388C167.993 110.772 167.817 110.176 167.693 109.575C167.464 108.395 167.129 107.234 166.794 106.077C167.245 106.207 167.699 106.374 168.14 106.596C168.403 106.729 168.696 106.832 168.981 106.909C169.799 107.115 170.518 106.768 170.895 106.008C171.212 105.388 171.086 104.669 170.624 104.152C170.549 104.088 170.481 104.033 170.411 103.963C169.824 103.514 169.143 103.255 168.448 103.024C167.582 102.735 166.728 102.542 165.874 102.44C165.848 102.302 165.822 102.158 165.796 102.02C165.799 101.982 165.769 101.936 165.771 101.898C164.889 98.4796 163.906 95.0951 162.849 91.732C158.419 78.073 145.992 45.8667 121.683 23.8002C120.624 22.8351 119.539 21.8934 118.434 20.9692C118.909 21.135 142.742 29.9151 161.258 70.7329C161.905 72.1097 162.536 73.493 163.151 74.8828C165.705 80.5972 167.776 86.4912 169.498 92.4907C169.512 92.5328 169.525 92.5696 169.539 92.6117L169.534 92.6175C169.67 93.0928 169.811 93.5678 169.942 94.0435C171.192 98.4652 172.26 102.905 173.158 107.373C173.192 107.554 173.234 107.691 173.391 107.783Z" fill="#98D517"/>
<path d="M118.382 187.866C117.021 188.355 114.122 189.487 110.537 191.297C106.786 193.19 102.289 195.825 98.0629 199.227C96.9221 200.164 95.7871 201.107 94.664 202.064C91.416 204.826 88.3088 207.751 85.4331 210.901C84.368 212.07 83.3875 213.293 82.3836 214.49C81.4053 215.895 81.0276 216.041 80.915 216.049C80.915 216.049 80.8886 216.056 80.8556 216.047C80.7844 216.031 80.6826 215.963 80.7161 215.675L80.71 215.664C80.7089 215.648 80.7196 215.647 80.7135 215.637L80.7123 215.621C80.7717 215.164 81.1849 214.073 82.9052 211.5C83.7794 210.07 84.7826 208.711 85.8368 207.387C85.8475 207.386 85.8467 207.375 85.8571 207.369C86.2389 206.9 86.6202 206.426 87.0131 205.962C90.7553 201.5 95.0907 197.885 99.9629 195.003C99.9629 195.003 102.27 193.563 105.421 191.955C106.576 191.362 107.836 190.75 109.138 190.179C109.154 190.172 109.169 190.166 109.18 190.159C111.845 188.99 114.668 187.994 117.059 187.674C117.305 187.64 117.545 187.607 117.776 187.591L117.861 187.585C118.017 187.574 118.162 187.569 118.307 187.564C118.35 187.561 118.383 187.575 118.412 187.6C118.497 187.664 118.498 187.82 118.382 187.866Z" fill="#DCFF93"/>
<path d="M119.736 122.386C119.358 123.14 118.639 123.487 117.822 123.281C117.536 123.204 117.243 123.101 116.981 122.968C115.217 122.107 113.38 121.957 111.487 122.473C111.18 122.548 110.879 122.629 110.589 122.72C109.756 122.978 108.97 123.297 108.239 123.705C108.13 123.766 108.011 123.829 107.903 123.906C107.546 124.12 107.191 124.35 106.859 124.61C106.803 124.657 106.747 124.704 106.691 124.752C106.462 124.935 106.233 125.134 106.006 125.35C105.951 125.407 105.88 125.472 105.82 125.541C105.776 125.598 105.735 125.633 105.685 125.69C105.534 125.846 105.391 126.023 105.252 126.195C105.034 126.464 104.822 126.737 104.627 127.037C104.563 127.122 104.515 127.201 104.461 127.275C103.894 128.021 103.391 128.067 102.456 127.653C101.321 127.152 101.038 126.347 101.722 125.275C101.843 125.083 101.971 124.902 102.098 124.715C102.416 124.262 102.745 123.813 103.104 123.405C103.443 123.009 103.811 122.649 104.19 122.304C104.373 122.146 104.566 121.976 104.749 121.828C104.969 121.651 105.189 121.485 105.42 121.328C105.569 121.221 105.718 121.119 105.877 121.016C106.233 120.786 106.589 120.567 106.969 120.378C106.99 120.371 107.011 120.354 107.021 120.348C107.047 120.34 107.058 120.34 107.078 120.317C107.136 120.291 107.177 120.261 107.234 120.241C107.339 120.196 107.437 120.14 107.526 120.096C108.282 119.741 109.043 119.45 109.809 119.235C112.244 118.534 114.728 118.542 117.289 119.396C117.984 119.627 118.665 119.891 119.252 120.335C119.321 120.405 119.395 120.459 119.464 120.524C119.927 121.041 120.059 121.765 119.736 122.386Z" fill="#F580F7"/>
<path d="M117.768 20.784C117.962 20.7703 118.18 20.8329 118.428 20.9701L118.427 20.9648C118.427 20.9648 118.427 20.9648 118.433 20.9697C118.908 21.1355 142.741 29.9157 161.257 70.7334C161.904 72.1102 162.535 73.4935 163.151 74.8833C165.704 80.5977 167.775 86.4918 169.498 92.4912C169.511 92.5333 169.525 92.5701 169.538 92.6122L169.533 92.618C169.669 93.0933 169.811 93.5683 169.941 94.044C171.191 98.4657 172.259 102.906 173.157 107.374C173.191 107.555 173.233 107.692 173.391 107.783C174.57 106.477 175.409 104.925 176.396 103.486C182.041 95.2259 188.586 87.7316 196.183 81.2353C202.071 76.1853 208.386 71.7571 215.368 68.3056C219.459 66.2707 223.705 64.5913 228.127 63.4167C228.127 63.4167 228.164 63.4087 228.222 63.3938C228.322 63.3742 228.494 63.3442 228.692 63.3302C229.092 63.302 229.6 63.3386 229.857 63.6554C229.886 63.6857 229.91 63.7217 229.929 63.7635C229.935 63.7685 229.935 63.7685 229.935 63.7738C229.948 63.7999 229.961 63.8313 229.974 63.8627C230.261 64.6507 230.684 65.9032 231.138 67.6008C231.144 67.6058 231.145 67.6165 231.145 67.6272C233.101 74.8711 235.691 90.088 231.125 110.73C230.878 111.884 230.62 113.034 230.335 114.186C229.886 115.99 229.37 117.767 228.815 119.525C228.754 119.724 228.703 119.921 228.637 120.125L228.631 120.12C226.536 126.621 223.765 132.847 220.517 138.901C217.318 144.86 213.563 150.449 209.591 155.919C208.382 157.577 207.197 159.251 205.639 160.616C205.545 160.661 205.44 160.771 205.379 160.899C205.342 160.988 205.35 161.1 205.435 161.164C205.492 161.209 205.554 161.222 205.614 161.217C205.686 161.212 205.755 161.184 205.812 161.159C208.867 159.704 212.065 158.6 215.305 157.708C219.782 156.481 224.287 155.338 228.924 154.774C231.095 154.502 233.261 154.239 235.434 154.085C237.041 153.972 238.652 153.918 240.274 153.966C245.495 154.12 250.555 155.029 255.371 157.075C255.549 157.16 255.744 157.243 255.928 157.327C256.016 157.364 256.061 157.463 256.062 157.555C255.971 160.73 253.806 211.728 214.677 214.493C204.976 215.178 193.01 212.903 178.232 206.198C178.232 206.198 178.232 206.198 178.216 206.189C177.009 205.579 175.773 205.025 174.536 204.45C174.499 204.432 174.462 204.425 174.427 204.428C174.352 204.433 174.285 204.48 174.241 204.546C174.245 204.544 174.249 204.543 174.253 204.543C174.264 204.542 174.274 204.548 174.275 204.56C174.552 205.057 177.443 210.128 183.473 215.931C186.997 219.212 190.907 222.077 195.107 224.636C198.547 226.721 202.109 228.549 205.998 229.675C206.295 229.762 206.517 229.848 206.646 229.931C206.8 230.055 206.842 230.181 206.802 230.378C206.784 230.433 206.752 230.511 206.714 230.583C206.667 230.684 206.599 230.786 206.526 230.904C206.502 230.938 206.482 230.966 206.458 231.006C205.495 232.555 204.165 233.781 203.314 234.472C203.314 234.472 201.286 236.864 196.83 237.178C194.867 237.317 192.433 237.053 189.493 236.003C189.438 235.98 189.383 235.962 189.327 235.945C189.277 235.921 189.228 235.909 189.173 235.891C189.134 235.872 189.095 235.859 189.056 235.845C188.824 235.759 188.591 235.668 188.363 235.571C188.314 235.553 188.264 235.53 188.214 235.512C188.108 235.465 188.003 235.424 187.903 235.377C186.391 234.724 185.156 234.025 184.157 233.314C179.462 230.235 175.952 226.016 172.781 221.466C170.262 217.856 168.205 213.976 166.36 209.985C165.339 207.81 164.26 205.655 163.133 203.515C163.082 203.416 162.992 203.378 162.904 203.384C162.767 203.393 162.637 203.514 162.682 203.682C162.778 204.057 162.875 204.439 162.956 204.815C163.5 207.412 163.81 210.036 164.268 212.633C164.553 214.305 164.112 215.844 163.372 217.335C161.493 221.181 159.062 224.602 156.043 227.628C152.626 231.038 148.766 233.843 144.351 235.787C141.675 236.968 138.862 237.756 135.938 237.962C135.477 237.995 135.012 238.013 134.545 238.016C133.253 238.026 133.106 237.934 133.025 236.717C132.641 230.37 134.58 224.855 138.957 220.23C139.332 219.821 139.783 219.498 140.198 219.118C140.365 218.961 140.6 218.847 140.737 218.66C140.868 218.493 140.721 218.254 140.526 218.268C140.5 218.27 140.474 218.276 140.447 218.287C140.379 218.319 140.312 218.356 140.25 218.403C138.863 219.364 137.277 219.874 135.698 220.401C131.287 221.871 126.815 222.796 122.29 223.277L122.291 223.283C120.679 223.52 119.087 223.69 117.526 223.801C101.633 224.924 88.6491 219.871 83.3311 217.382C82.9088 217.201 82.4866 217.021 82.0686 216.824C81.801 216.698 81.5529 216.543 81.3095 216.377C80.9792 216.201 80.7828 216.091 80.7434 216.067C80.8157 216.099 80.8981 216.12 80.9757 216.153C80.9306 216.123 80.89 216.083 80.8552 216.048C80.784 216.031 80.6822 215.963 80.7157 215.675L80.7096 215.665C80.7085 215.649 80.7192 215.648 80.7131 215.638L80.7119 215.622C80.7712 215.165 81.1845 214.074 82.9048 211.501C83.779 210.07 84.7822 208.712 85.8364 207.387C85.8471 207.386 85.8463 207.376 85.8566 207.37C86.2385 206.901 86.6198 206.427 87.0127 205.962C90.7548 201.5 95.0903 197.886 99.9625 195.003C99.9625 195.003 102.269 193.563 105.421 191.956C106.575 191.362 107.836 190.751 109.137 190.179C108.812 189.997 108.525 189.829 108.229 189.672C104.316 187.675 100.425 185.606 96.7444 183.166C92.6685 180.464 88.8781 177.38 85.2027 174.17C85.0535 174.04 84.9042 173.911 84.7603 173.781C84.4963 173.551 84.2322 173.322 83.9735 173.093C82.514 171.806 81.105 170.472 79.7416 169.097C79.6084 168.967 79.4813 168.846 79.3708 168.73C78.8481 168.196 78.3303 167.656 77.8176 167.11C55.4383 144.288 52.8533 125.396 52.6226 123.197C52.6096 123.09 52.6047 123.021 52.6028 122.994L52.6021 122.983C52.6077 122.681 52.8394 122.605 53.471 122.394C56.1248 121.517 58.8171 120.804 61.5429 120.261C61.5429 120.261 61.5429 120.261 61.5483 120.26C64.1682 119.741 66.8251 119.381 69.514 119.191C69.5957 119.185 69.6771 119.179 69.7588 119.174C76.0384 118.746 82.1636 119.262 88.2044 120.565C88.2151 120.564 88.2158 120.575 88.2319 120.573C88.6738 120.65 95.4047 121.882 102.092 124.713C102.098 124.713 102.098 124.713 102.098 124.713C102.416 124.259 102.745 123.81 103.104 123.402C103.443 123.006 103.811 122.646 104.19 122.302C104.373 122.143 104.566 121.973 104.75 121.826C104.969 121.649 105.189 121.482 105.42 121.326C105.42 121.32 105.42 121.32 105.414 121.321C105.212 120.748 105.008 120.153 104.803 119.532C99.7776 104.385 93.6891 74.8772 106.765 42.0597L106.774 42.0429C107.415 40.2841 108.079 38.5453 108.819 36.8172C111.057 31.5779 113.575 26.4966 116.765 21.7719C116.863 21.6249 116.961 21.4887 117.048 21.3478C117.247 20.9902 117.482 20.8042 117.768 20.784ZM117.389 15.4224C115.351 15.5664 113.571 16.6946 112.47 18.5289L112.431 18.5864C112.388 18.6493 112.345 18.7131 112.301 18.7783C109.286 23.2453 106.609 28.3068 103.876 34.706C103.212 36.257 102.544 37.9583 101.782 40.0439C101.779 40.0527 101.775 40.0615 101.772 40.0703C88.9842 72.1643 93.7367 101.306 98.5933 117.693C93.9936 116.208 90.2375 115.476 89.3423 115.312C89.3407 115.312 89.339 115.311 89.3374 115.311C82.6562 113.87 75.9463 113.365 69.3937 113.811L69.1352 113.829C66.2864 114.03 63.4097 114.415 60.5829 114.972C60.5529 114.978 60.523 114.983 60.4932 114.989C57.5756 115.57 54.6454 116.345 51.7841 117.29C51.7771 117.293 51.7576 117.299 51.7506 117.302C48.0758 118.533 47.2629 121.016 47.2281 122.883C47.2251 123.043 47.2292 123.203 47.2405 123.362C47.2453 123.43 47.2553 123.576 47.2811 123.797C47.457 125.438 48.3061 131.245 51.9989 139.594C56.7313 150.293 64.1133 160.803 73.9391 170.832C74.4561 171.381 74.9844 171.932 75.5103 172.47C75.6269 172.591 75.7538 172.716 75.8877 172.847L75.9579 172.915C77.4153 174.383 78.9158 175.799 80.4185 177.124C80.668 177.345 80.9342 177.577 81.2012 177.809C81.3574 177.949 81.5183 178.089 81.6794 178.229C86.2694 182.238 90.0035 185.146 93.7742 187.646C95.0638 188.501 96.3782 189.313 97.6998 190.088C97.4446 190.242 97.2666 190.351 97.1778 190.406C91.7229 193.64 86.9174 197.712 82.8944 202.508C82.5711 202.89 82.24 203.297 81.9106 203.703L81.8106 203.826C81.7489 203.896 81.689 203.967 81.6307 204.04C80.2917 205.723 79.2554 207.176 78.3766 208.603C76.4601 211.481 75.591 213.318 75.3817 214.929C75.3627 215.076 75.3497 215.223 75.3428 215.371C75.3813 214.628 75.5757 213.89 75.9275 213.202C75.5801 213.881 75.3804 214.634 75.3418 215.395C75.3388 215.466 75.3372 215.536 75.337 215.607C75.3365 215.624 75.3361 215.642 75.3358 215.66C75.3355 215.582 75.337 215.505 75.3402 215.427C75.3359 215.522 75.3342 215.618 75.335 215.713C75.3316 216.047 75.3555 216.375 75.4049 216.694C75.5922 218.278 76.4799 219.758 77.9353 220.65C77.9925 220.685 78.1307 220.769 78.5438 220.993C78.861 221.199 79.2781 221.45 79.7702 221.683C80.2549 221.911 80.7036 222.104 81.1373 222.289C86.5135 224.795 100.676 230.38 117.905 229.162C119.633 229.04 121.372 228.851 123.075 228.6C123.086 228.598 123.096 228.597 123.107 228.595C124.953 228.392 126.777 228.121 128.576 227.782C127.769 230.686 127.463 233.777 127.66 237.041C127.661 237.052 127.661 237.062 127.662 237.072C127.72 237.948 127.874 240.274 129.886 241.953C131.637 243.415 133.631 243.398 134.589 243.391C135.154 243.387 135.739 243.365 136.317 243.324C139.687 243.086 143.12 242.205 146.52 240.705C151.301 238.6 155.783 235.479 159.84 231.433C162.578 228.688 164.926 225.61 166.848 222.251C167.347 223.036 167.854 223.798 168.372 224.541C171.257 228.68 175.312 233.917 181.127 237.754C182.458 238.692 184.002 239.544 185.719 240.289C185.814 240.332 185.911 240.373 186.008 240.414L186.057 240.435C186.127 240.466 186.196 240.494 186.267 240.522C186.291 240.531 186.314 240.541 186.338 240.55C186.596 240.659 186.871 240.767 187.156 240.873C187.265 240.917 187.376 240.958 187.488 240.995C187.533 241.012 187.58 241.028 187.626 241.043C187.646 241.051 187.666 241.058 187.686 241.065C191.018 242.255 194.222 242.751 197.209 242.54C202.656 242.155 205.808 239.589 206.981 238.414C208.172 237.414 209.737 235.885 210.972 233.925C211.019 233.855 211.065 233.784 211.109 233.712L211.134 233.672C211.22 233.534 211.372 233.291 211.528 232.975C211.685 232.662 211.82 232.332 211.922 232.014C211.981 231.828 212.03 231.639 212.069 231.448C212.513 229.264 211.744 227.131 210.012 225.74C209.857 225.616 209.695 225.5 209.528 225.394C208.957 225.031 208.314 224.752 207.505 224.516C204.553 223.661 201.593 222.281 197.893 220.039C196.6 219.251 195.366 218.452 194.185 217.636C201.675 219.562 208.654 220.307 215.056 219.854C233.346 218.562 247.156 207.612 254.993 188.189C260.82 173.749 261.389 159.307 261.435 157.708C261.437 157.636 261.438 157.564 261.437 157.491C261.411 155.284 260.116 153.31 258.124 152.421C258.046 152.386 257.968 152.351 257.89 152.316C257.815 152.283 257.74 152.25 257.669 152.217C257.605 152.186 257.539 152.157 257.473 152.129C252.313 149.936 246.738 148.779 240.432 148.594C238.755 148.544 236.996 148.586 235.055 148.724C232.795 148.883 230.64 149.143 228.258 149.44C225.226 149.809 222.271 150.405 219.491 151.069C221.71 147.684 223.597 144.528 225.253 141.444C228.834 134.767 231.585 128.418 233.659 122.04C233.691 121.957 233.72 121.873 233.748 121.789C233.805 121.611 233.856 121.437 233.906 121.264C233.919 121.217 233.933 121.171 233.947 121.124C234.585 119.1 235.11 117.255 235.55 115.484C235.82 114.394 236.082 113.248 236.377 111.872C241.154 90.2595 238.453 74.1557 236.377 66.3865C236.349 66.2631 236.316 66.1412 236.279 66.0208C235.889 64.5805 235.467 63.2356 235.024 62.021C234.997 61.9475 234.968 61.8745 234.938 61.8021C234.883 61.6689 234.826 61.5397 234.773 61.4309C234.756 61.3968 234.739 61.3631 234.722 61.3294C234.5 60.8894 234.225 60.4821 233.901 60.1143C233.065 59.153 231.316 57.7565 228.313 57.9687C227.945 57.9947 227.568 58.0451 227.192 58.1185C227.114 58.1337 227.036 58.1507 226.959 58.1693C226.87 58.1871 226.853 58.1937 226.747 58.2219C222.226 59.4229 217.592 61.1964 212.974 63.493C206.051 66.9154 199.41 71.3862 192.684 77.1554C186.588 82.3682 180.93 88.3924 175.81 95.1152C175.584 94.2714 175.354 93.431 175.117 92.5951C175.026 92.2618 174.929 91.9287 174.833 91.5957L174.769 91.3736C174.735 91.2296 174.694 91.0864 174.648 90.9443L174.63 90.8919C172.728 84.2839 170.578 78.3291 168.058 72.6903C167.441 71.2979 166.793 69.876 166.137 68.4799C147.644 27.7349 123.855 17.3053 120.555 16.0254C119.529 15.549 118.467 15.3463 117.389 15.4224Z" fill="#4633DC"/>
<path d="M180.049 117.127C169.533 126.98 154.947 129.419 148.968 129.406L151.1 123.837L154.391 118.14L164.453 112.526L173.664 113.667C175.927 114.541 180.373 116.457 180.049 117.127Z" fill="#543EFA"/>
<path d="M130.412 133.079C119.895 142.932 105.309 145.371 99.3302 145.358L101.463 139.789L104.753 134.093L114.815 128.478L124.026 129.619C126.29 130.493 130.735 132.409 130.412 133.079Z" fill="#543EFA"/>
<path fill-rule="evenodd" clip-rule="evenodd" d="M261.352 202.757C280.468 202.757 295.965 187.26 295.965 168.144C295.965 149.028 280.468 133.531 261.352 133.531C242.236 133.531 226.739 149.028 226.739 168.144C226.739 187.26 242.236 202.757 261.352 202.757ZM261.352 208.24C283.497 208.24 301.448 190.289 301.448 168.144C301.448 146 283.497 128.048 261.352 128.048C239.208 128.048 221.256 146 221.256 168.144C221.256 190.289 239.208 208.24 261.352 208.24Z" fill="#4633DC"/>
<path d="M295.382 177.284C290.343 196.09 271.013 207.251 252.207 202.212C233.401 197.172 222.24 177.842 227.279 159.036C232.318 140.23 251.649 129.069 270.455 134.108C289.261 139.148 300.421 158.478 295.382 177.284Z" fill="#543EFA"/>
<path fill-rule="evenodd" clip-rule="evenodd" d="M261.352 198.576C278.159 198.576 291.784 184.951 291.784 168.144C291.784 151.337 278.159 137.712 261.352 137.712C244.545 137.712 230.92 151.337 230.92 168.144C230.92 184.951 244.545 198.576 261.352 198.576ZM261.352 203.397C280.822 203.397 296.605 187.614 296.605 168.144C296.605 148.675 280.822 132.892 261.352 132.892C241.883 132.892 226.1 148.675 226.1 168.144C226.1 187.614 241.883 203.397 261.352 203.397Z" fill="#BEB6FF"/>
<path d="M273.426 163.624L246.126 156.309L254.914 151.14L282.214 158.455L273.426 163.624Z" fill="#BEB6FF"/>
<path d="M267.68 185.066L240.38 177.751L249.133 172.709L276.433 180.024" fill="#BEB6FF"/>
<path d="M250.159 168.881L277.459 176.196L272.399 167.453L245.099 160.138" fill="#BEB6FF"/>
</svg>
