<svg width="391" height="309" viewBox="0 0 391 309" fill="none" xmlns="http://www.w3.org/2000/svg">
<path fill-rule="evenodd" clip-rule="evenodd" d="M81.9436 127.212C107.99 126.167 128.258 104.206 127.214 78.1599C126.169 52.1137 104.208 31.8457 78.1619 32.89C52.1157 33.9343 31.8476 55.8955 32.8919 81.9417C33.9362 107.988 55.8974 128.256 81.9436 127.212ZM82.2431 134.683C112.415 133.473 135.894 108.033 134.685 77.8604C133.475 47.6881 108.035 24.2092 77.8623 25.419C47.69 26.6287 24.2112 52.0689 25.4209 82.2412C26.6306 112.414 52.0708 135.892 82.2431 134.683Z" fill="#4633DC"/>
<path d="M126.916 90.6449C121.078 116.544 95.3495 132.806 69.4505 126.968C43.5514 121.129 27.2892 95.4008 33.1277 69.5018C38.9662 43.6027 64.6945 27.3405 90.5936 33.179C116.493 39.0175 132.755 64.7459 126.916 90.6449Z" fill="#F580F7"/>
<path fill-rule="evenodd" clip-rule="evenodd" d="M81.7146 121.516C104.615 120.598 122.434 101.29 121.516 78.3896C120.598 55.4897 101.29 37.6699 78.3897 38.5881C55.4898 39.5062 37.67 58.8146 38.5881 81.7146C39.5063 104.615 58.8147 122.434 81.7146 121.516ZM81.978 128.085C108.506 127.021 129.148 104.654 128.085 78.1263C127.021 51.5986 104.654 30.9559 78.1264 32.0195C51.5987 33.0831 30.956 55.4502 32.0196 81.9779C33.0832 108.506 55.4503 129.148 81.978 128.085Z" fill="#FEDDFF"/>
<path d="M76.8664 94.2484L73.6619 108.463L96.3134 87.7435L76.8664 94.2484Z" fill="#FEDDFF"/>
<path d="M86.4799 51.6036L97.0622 84.4223L77.6151 90.9271L62.7095 76.678" fill="#FEDDFF"/>
<path d="M86.4799 51.6036L81.748 72.5939L62.7095 76.678M61.9607 79.9993L76.8664 94.2484L73.6619 108.463" fill="#FEDDFF"/>
<path d="M81.748 72.5939L77.6151 90.9271L97.0622 84.4223" fill="#FEDDFF"/>
<path d="M62.7095 76.678L81.748 72.5939L77.6151 90.9271" fill="#FEDDFF"/>
<path d="M237.607 294.904C236.312 296.693 234.601 298.059 233.514 298.821C233.514 298.821 233.514 298.821 233.508 298.821C224.874 299.94 213.391 291.612 212.102 290.649C209.266 288.45 206.592 286.036 204.113 283.375C200.398 279.374 197.21 274.989 194.62 270.193C193.755 268.573 194.009 267.051 195.167 266.108C196.937 264.663 198.804 264.377 200.216 265.372C200.489 265.561 200.762 265.802 201.075 265.867H201.101C201.107 265.873 201.107 265.88 201.107 265.886C201.205 266.16 201.302 266.426 201.406 266.726C202.603 270.05 207.431 278.495 215.03 285.405C215.03 285.405 215.193 285.561 215.505 285.828C217.659 287.695 226.884 295.125 237.327 295.21C237.431 295.112 237.522 295.014 237.607 294.904Z" fill="#BEF941"/>
<path d="M90.0974 267.949C89.6029 267.696 89.1085 267.442 88.6205 267.169C88.3082 266.993 88.0219 266.785 87.7422 266.563C88.2496 266.882 89.0369 267.357 90.0974 267.949Z" fill="#BEF941"/>
<path d="M276.034 207.976C275.885 207.93 275.715 207.95 275.533 207.982H275.527C253.764 208.314 232.892 216.2 228.038 218.158C227.837 218.236 227.681 217.982 227.837 217.839C234.792 211.372 246.939 192.426 251.727 184.756C251.825 184.599 251.922 184.45 252.014 184.3C252.508 183.539 252.983 182.778 253.438 182.003C253.647 181.659 253.757 181.476 253.757 181.476C254.558 180.117 255.312 178.737 255.989 177.312C256.288 176.701 256.678 176.161 257.01 175.575C259.6 171.054 262.014 166.434 264.245 161.724C265.937 158.158 267.492 154.534 268.949 150.878C273.861 136.662 283.178 107.092 280.237 95.0943C278.038 95.771 275.917 96.6688 273.777 97.5536C266.835 100.397 260.107 103.715 253.803 107.801C247.843 111.672 242.241 115.986 236.958 120.748C230.758 126.337 225.033 132.375 219.769 138.855C217.063 142.192 214.603 145.712 212.326 149.356C212.118 149.687 211.942 150.045 211.754 150.403C216.991 153.5 221.025 158.62 222.58 164.996C225.644 177.547 217.947 190.201 205.397 193.259C192.847 196.323 180.192 188.627 177.134 176.076C174.07 163.526 181.767 150.872 194.317 147.814C196.672 147.235 199.034 147.039 201.331 147.189C201.415 146.447 201.253 145.712 201.155 144.977C200.979 143.533 200.674 142.101 200.368 140.676C198.774 140.104 197.102 140.006 195.358 140.345C193.92 140.592 192.573 140.982 191.331 141.561C191.194 141.626 191.038 141.691 190.908 141.769C190.452 142.004 190.01 142.251 189.587 142.537C189.216 142.784 188.852 143.058 188.494 143.357C188.416 143.422 188.325 143.494 188.253 143.572C188.195 143.63 188.143 143.676 188.078 143.734C187.577 144.196 187.115 144.71 186.685 145.276C186.601 145.374 186.536 145.465 186.458 145.543C185.716 146.402 185.104 146.415 184.011 145.836C182.684 145.127 182.411 144.138 183.322 142.895C183.888 142.127 184.499 141.412 185.156 140.761C185.599 140.312 186.067 139.909 186.562 139.525C186.796 139.343 187.043 139.16 187.277 138.998C187.739 138.672 188.208 138.386 188.709 138.113C189.151 137.866 189.607 137.632 190.082 137.436C190.108 137.43 190.134 137.41 190.147 137.404C190.179 137.397 190.192 137.391 190.218 137.371C190.29 137.339 190.342 137.313 190.413 137.293C190.544 137.248 190.667 137.189 190.778 137.144C193.706 136.005 196.633 135.647 199.568 136.207C199.548 136.038 199.529 135.862 199.509 135.693C199.515 135.647 199.483 135.589 199.489 135.543C198.715 131.34 197.817 127.17 196.828 123.019C192.645 106.148 180.387 66.2005 152.918 37.4824C152.333 38.3347 151.741 39.187 151.155 40.0328C150.752 40.5923 150.368 41.1649 149.984 41.7309C149.828 41.9716 149.672 42.2254 149.516 42.4596C147.557 45.524 145.762 48.6339 144.135 51.8025C143.934 52.1733 143.738 52.5572 143.556 52.941C143.53 52.9801 143.524 53.0126 143.504 53.0451C142.496 55.1075 141.546 57.196 140.635 59.3105C138.768 63.7022 137.109 68.1784 135.645 72.7067C127.2 100.013 127.837 127.586 129.653 145.068C129.763 146.213 129.887 147.313 130.01 148.36C130.153 149.531 130.297 150.65 130.44 151.698C133.439 151.06 136.438 151.281 139.457 152.531C140.277 152.869 141.077 153.246 141.747 153.832C141.826 153.923 141.91 153.994 141.988 154.079C142.502 154.743 142.6 155.627 142.157 156.35C141.637 157.228 140.739 157.586 139.77 157.267C139.431 157.15 139.086 157 138.781 156.818C136.725 155.627 134.519 155.289 132.19 155.751C131.813 155.816 131.442 155.888 131.084 155.972C131.247 157.02 131.409 157.97 131.559 158.816C131.91 160.774 132.203 162.173 132.366 162.914C144.916 159.87 157.557 167.56 160.622 180.104C163.68 192.654 155.983 205.308 143.433 208.366C130.882 211.431 118.228 203.734 115.17 191.184C112.841 181.639 116.744 172.043 124.259 166.636C124.213 166.623 124.174 166.616 124.129 166.603C116.699 164.43 109.555 161.359 102.132 159.173C95.5538 157.235 88.898 156.031 82.1382 155.654C78.6704 155.465 75.1701 155.491 71.6437 155.751C69.5748 155.901 67.5253 156.076 65.4889 156.415C64.7277 156.532 63.9665 156.681 63.2118 156.857C62.9841 156.916 62.7628 156.935 62.5416 156.916C62.5221 156.916 62.4961 156.916 62.4766 156.909C63.2703 159.486 64.2332 162.043 65.3393 164.56C67.4277 169.616 70.4466 175.823 74.7537 182.615C75.7947 184.255 76.9007 185.92 78.0913 187.618C78.0913 187.625 78.0978 187.625 78.0978 187.625C83.4589 195.276 90.427 203.467 99.4445 211.483L99.4185 211.515C99.4315 211.522 99.438 211.535 99.4445 211.541C104.207 215.783 109.542 219.973 115.521 224.014V224.02C115.521 224.02 124.168 230.084 133.355 234.957C133.654 234.937 133.947 234.918 134.226 234.918H134.33C134.519 234.918 134.695 234.924 134.87 234.931C134.923 234.931 134.962 234.95 134.994 234.983C135.092 235.068 135.079 235.256 134.935 235.302C133.25 235.777 129.653 236.896 125.17 238.776C120.479 240.741 114.825 243.539 109.431 247.286C107.974 248.321 106.523 249.362 105.085 250.422C100.928 253.48 96.9266 256.746 93.1856 260.305C91.7998 261.626 90.5116 263.018 89.1973 264.378C87.8961 265.991 87.4277 266.134 87.291 266.134C87.291 266.134 87.2585 266.141 87.2195 266.128C87.2585 266.173 87.304 266.225 87.3561 266.264C107.733 275.653 132.45 271.827 135.111 271.372C135.892 271.235 136.673 271.092 137.453 270.942C139.691 270.52 141.91 270.084 144.116 269.55C146.868 268.873 149.516 267.878 152.209 267.006C155.059 266.076 157.85 265.028 160.609 263.929C165.293 262.075 169.893 260.019 174.434 257.833C181.825 254.28 188.806 249.993 196.061 246.213C200.4 243.955 204.779 241.808 209.275 239.869C212.625 238.418 216.054 237.169 219.483 235.907C221.2 235.269 223.016 234.762 224.759 234.157C230.921 231.99 237.238 230.468 243.575 229.043C245.878 228.529 248.208 228.041 250.576 227.878C251.363 227.82 252.001 227.527 252.606 226.909C256.256 223.168 260.341 219.928 264.505 216.766C267.915 214.163 271.421 211.724 275.045 209.427C275.54 209.121 276.581 209.036 276.412 208.399C276.347 208.145 276.21 208.022 276.034 207.976ZM144.493 220.78C137.954 222.374 132.177 221.723 131.591 219.329C131.012 216.928 135.84 213.695 142.379 212.101C148.917 210.507 154.695 211.157 155.274 213.552C155.859 215.953 151.032 219.186 144.493 220.78ZM180.888 217.41C176.184 219.232 171.689 218.958 167.447 216.122C164.695 214.287 163.114 211.58 162.066 208.549C161.285 206.291 160.752 203.975 160.29 201.645C160.212 201.19 160.205 200.728 160.166 200.26C160.108 199.524 160.466 199.095 161.162 198.926C161.962 198.718 162.762 198.49 163.563 198.295C170.231 196.642 176.92 194.996 183.588 193.35C184.096 193.227 184.597 193.122 185.104 193.012C186.354 192.771 186.503 192.823 186.868 194.072C187.297 195.504 187.609 196.981 187.967 198.431C188.637 200.819 189.242 203.226 189.164 205.738C188.976 211.086 185.879 215.471 180.888 217.41ZM209.515 204.925C202.977 206.519 197.206 205.868 196.62 203.474C196.035 201.079 200.862 197.839 207.401 196.245C213.94 194.651 219.717 195.302 220.303 197.696C220.888 200.097 216.061 203.331 209.515 204.925Z" fill="#BEF941"/>
<path d="M133.356 234.96C130.441 235.142 126.948 236.105 123.629 237.289C123.617 237.295 123.597 237.302 123.577 237.309C123.2 237.061 122.868 236.834 122.523 236.619C117.969 233.873 113.447 231.043 109.212 227.784C104.521 224.173 100.207 220.126 96.0435 215.936C95.8743 215.767 95.7051 215.598 95.5425 215.428C95.2432 215.129 94.9439 214.83 94.6511 214.53C92.9986 212.852 91.4111 211.121 89.8821 209.345C89.7325 209.176 89.5893 209.02 89.4658 208.87C88.8802 208.18 88.3011 207.484 87.7286 206.782C62.6539 177.315 61.1445 154.284 61.0534 151.61C61.0469 151.479 61.0469 151.395 61.0469 151.362C61.0534 151.382 61.0599 151.427 61.0794 151.499C61.1054 151.642 61.138 151.792 61.1705 151.935C61.19 152.045 61.216 152.15 61.2421 152.26C61.2486 152.28 61.2551 152.299 61.2551 152.325C61.2941 152.494 61.3397 152.683 61.3917 152.891C61.691 154.179 62.0358 155.468 62.4262 156.749C62.4392 156.801 62.4587 156.853 62.4782 156.912C63.272 159.488 64.2349 162.045 65.341 164.563C67.4294 169.619 70.4483 175.825 74.7553 182.618C75.7963 184.257 76.9024 185.923 78.093 187.621C78.093 187.628 78.0995 187.628 78.0995 187.628C83.4606 195.279 90.4287 203.47 99.4462 211.486L99.4202 211.518C99.4331 211.525 99.4397 211.538 99.4462 211.544C104.209 215.786 109.544 219.976 115.523 224.016V224.023C115.523 224.023 124.17 230.087 133.356 234.96Z" fill="#98D517"/>
<path d="M280.241 95.0922C278.042 95.7688 275.921 96.6666 273.78 97.5515C266.838 100.395 260.111 103.713 253.807 107.799C247.847 111.67 242.245 115.983 236.962 120.746C230.762 126.335 225.036 132.372 219.773 138.852C217.066 142.19 214.607 145.71 212.33 149.353C212.122 149.685 211.946 150.043 211.757 150.401C209.708 149.191 207.47 148.286 205.121 147.746C206.091 146.23 207.053 144.721 208.179 143.309C208.186 143.303 208.186 143.303 208.192 143.296C209.727 141.819 210.873 140.017 212.187 138.365C219.708 128.872 228.25 120.382 237.977 113.186C245.518 107.59 253.52 102.782 262.245 99.2106C267.359 97.1025 272.629 95.437 278.068 94.396C278.068 94.396 278.114 94.3895 278.185 94.3765C278.556 94.3309 279.714 94.2268 280.137 94.8319C280.17 94.8709 280.196 94.9165 280.215 94.9685C280.222 94.975 280.222 94.975 280.222 94.9816C280.228 95.0206 280.235 95.0531 280.241 95.0922Z" fill="#FCF7D3"/>
<path d="M187.971 198.436C187.613 196.985 187.301 195.508 186.871 194.076C186.507 192.827 186.358 192.775 185.108 193.016C184.601 193.126 184.1 193.231 183.592 193.354C176.924 195 170.235 196.646 163.566 198.299C162.766 198.494 161.966 198.722 161.166 198.93C160.47 199.099 160.112 199.529 160.17 200.264C160.209 200.732 160.216 201.194 160.294 201.65C160.756 203.979 161.289 206.295 162.07 208.553C163.118 211.584 164.699 214.291 167.451 216.126C171.693 218.962 176.188 219.236 180.892 217.414C185.883 215.475 188.979 211.09 189.168 205.742C189.246 203.231 188.641 200.823 187.971 198.436ZM185.304 208.325C184.933 209.769 184.132 210.947 183.117 212.027C179.35 216.067 172.239 216.34 168.388 212.573C168.16 212.352 167.945 212.144 167.743 211.903C167.307 211.376 167.334 210.895 167.88 210.439C168.713 209.743 169.552 209.047 170.522 208.553C172.187 207.668 173.95 207.095 175.551 206.646C178.361 206.132 180.964 205.709 183.618 205.944C185.44 206.093 185.752 206.51 185.304 208.325Z" fill="#543EFA"/>
<path d="M168.383 212.574C172.237 216.339 179.35 216.065 183.115 212.026C184.129 210.948 184.932 209.769 185.303 208.326C185.752 206.509 185.436 206.095 183.614 205.939C180.961 205.71 178.357 206.129 175.547 206.646C173.95 207.097 172.182 207.666 170.521 208.547C169.551 209.045 168.707 209.743 167.877 210.437C167.328 210.894 167.306 211.376 167.741 211.9C167.94 212.144 168.159 212.352 168.383 212.574Z" fill="#F580F7"/>
<path d="M152.92 37.4824C152.334 38.3347 151.742 39.187 151.156 40.0328C150.753 40.5923 150.369 41.1648 149.985 41.7308C149.829 41.9716 149.673 42.2253 149.517 42.4595C147.558 45.5239 145.763 48.6339 144.136 51.8024C143.935 52.1732 143.739 52.5571 143.557 52.941C143.531 52.98 143.525 53.0125 143.505 53.045C142.497 55.1075 141.547 57.196 140.636 59.3105C138.769 63.7021 137.11 68.1783 135.646 72.7066C127.201 100.013 127.838 127.586 129.654 145.068C129.764 146.213 129.888 147.313 130.011 148.36C130.155 149.531 130.298 150.65 130.441 151.698C129.497 151.893 128.554 152.179 127.611 152.544C127.5 152.589 127.376 152.648 127.246 152.693C127.175 152.713 127.123 152.745 127.051 152.771C127.025 152.797 127.012 152.797 126.98 152.804C126.967 152.81 126.94 152.83 126.914 152.836C126.44 153.031 125.991 153.266 125.542 153.513C125.34 153.624 125.151 153.734 124.963 153.851C124.963 153.845 124.963 153.845 124.956 153.845C124.761 153.136 124.566 152.4 124.371 151.633C119.595 132.914 114.761 96.7663 133.349 58.2565L133.362 58.2369C134.286 56.168 135.236 54.125 136.277 52.1016C139.426 45.9664 142.9 40.0458 147.155 34.6131C147.285 34.444 147.415 34.2878 147.532 34.1252C147.988 33.429 148.521 33.3249 149.231 33.7869C149.237 33.7869 149.237 33.7869 149.237 33.7869C150.493 34.997 151.722 36.2267 152.92 37.4824Z" fill="#FCF4D0"/>
<path d="M132.367 162.916C132.367 162.923 132.361 162.923 132.354 162.923C129.355 163.652 126.635 164.94 124.267 166.638H124.261C124.215 166.625 124.176 166.618 124.13 166.605C116.7 164.432 109.557 161.361 102.133 159.175C95.5555 157.237 88.8997 156.033 82.1398 155.656C78.672 155.467 75.1717 155.493 71.6454 155.753C69.5765 155.903 67.527 156.078 65.4906 156.417C64.7294 156.534 63.9682 156.683 63.2134 156.859C62.9857 156.918 62.7645 156.937 62.5433 156.918C62.5238 156.918 62.4978 156.918 62.4782 156.911C62.4587 156.853 62.4392 156.801 62.4262 156.749C62.0358 155.467 61.691 154.179 61.3917 152.89C61.3397 152.682 61.2941 152.494 61.2551 152.324C61.2551 152.298 61.2486 152.279 61.2421 152.259C61.216 152.149 61.19 152.045 61.1705 151.934C61.138 151.791 61.1054 151.641 61.0794 151.498C61.0599 151.427 61.0534 151.381 61.0469 151.361V151.348C61.0794 150.984 61.3657 150.913 62.1464 150.711C65.4255 149.878 68.7371 149.247 72.0748 148.824C72.0748 148.824 72.0748 148.824 72.0813 148.824C75.3864 148.408 78.7241 148.199 82.0878 148.212C89.7065 148.232 97.0584 149.377 104.241 151.466C104.254 151.466 104.254 151.479 104.274 151.479C104.801 151.609 112.823 153.671 120.656 157.659C120.663 157.659 120.663 157.659 120.663 157.659C120.494 157.874 120.324 158.082 120.162 158.303C119.244 159.54 119.518 160.535 120.845 161.238C121.938 161.817 122.549 161.804 123.298 160.951C123.369 160.867 123.434 160.776 123.519 160.678C123.779 160.333 124.059 160.021 124.345 159.715C125.406 160.346 126.434 161.03 127.41 161.745C127.423 161.758 127.423 161.758 127.442 161.771C127.423 161.745 127.416 161.726 127.41 161.7C127.058 160.704 126.648 159.501 126.206 158.095C126.277 158.043 126.349 157.991 126.421 157.939C126.844 157.653 127.292 157.406 127.741 157.178C127.878 157.093 128.028 157.028 128.164 156.963C129.082 156.534 130.058 156.215 131.086 155.974C131.248 157.022 131.411 157.972 131.56 158.817C131.912 160.776 132.205 162.175 132.367 162.916Z" fill="#FCF4D0"/>
<path d="M201.954 141.416C202.26 141.603 202.604 141.75 202.94 141.868C203.909 142.185 204.805 141.828 205.329 140.947C205.767 140.225 205.675 139.341 205.16 138.682C205.078 138.595 204.998 138.522 204.916 138.435C204.249 137.844 203.451 137.469 202.63 137.131C201.609 136.708 200.59 136.404 199.573 136.209C196.636 135.647 193.712 136.009 190.781 137.146C190.668 137.189 190.544 137.249 190.417 137.296C190.345 137.314 190.29 137.342 190.221 137.374C190.196 137.396 190.181 137.4 190.152 137.407C190.138 137.41 190.112 137.431 190.083 137.439C189.607 137.632 189.157 137.865 188.71 138.112C188.208 138.388 187.74 138.671 187.281 138.998C187.045 139.163 186.797 139.347 186.565 139.526C186.073 139.908 185.604 140.314 185.159 140.761C184.503 141.413 183.894 142.13 183.328 142.899C182.415 144.136 182.688 145.13 184.014 145.837C185.108 146.416 185.72 146.405 186.464 145.547C186.537 145.468 186.606 145.374 186.69 145.277C187.121 144.711 187.58 144.198 188.083 143.738C188.145 143.677 188.196 143.634 188.258 143.572C188.331 143.493 188.422 143.425 188.498 143.36C188.855 143.058 189.219 142.785 189.59 142.54C190.012 142.253 190.458 142.005 190.909 141.773C191.044 141.694 191.196 141.626 191.334 141.562C192.577 140.982 193.926 140.591 195.359 140.349C197.103 140.005 198.776 140.108 200.37 140.679C200.907 140.872 201.435 141.117 201.954 141.416Z" fill="#F580F7"/>
<path d="M303.767 210.447C303.292 215.222 292.576 309.633 205.641 262.542C205.641 262.542 205.641 262.542 205.621 262.529C204.216 261.689 202.772 260.915 201.327 260.115C201.191 260.037 201.048 260.095 200.963 260.206C200.957 260.206 200.95 260.206 200.937 260.212C199.096 261.416 201.054 265.749 201.054 265.749C201.067 265.782 201.08 265.821 201.1 265.866H201.074C200.761 265.801 200.488 265.561 200.215 265.372C198.803 264.376 196.936 264.663 195.166 266.107C194.008 267.05 193.754 268.573 194.62 270.193C197.209 274.988 200.397 279.373 204.112 283.374C206.591 286.035 209.265 288.449 212.102 290.648C213.39 291.611 224.873 299.939 233.507 298.82C233.513 298.82 233.513 298.82 233.513 298.82C233.513 298.82 228.009 304.454 216.695 299.49C216.63 299.458 216.565 299.431 216.5 299.405C216.441 299.373 216.383 299.353 216.318 299.327C216.272 299.301 216.226 299.282 216.181 299.262C215.908 299.139 215.634 299.009 215.368 298.872C215.309 298.846 215.251 298.813 215.192 298.787C215.068 298.722 214.945 298.664 214.828 298.599C213.058 297.681 211.627 296.731 210.482 295.788C205.075 291.67 201.197 286.276 197.755 280.512C195.023 275.938 192.869 271.078 190.983 266.1C189.935 263.387 188.816 260.694 187.638 258.013C187.502 257.695 187.014 257.838 187.079 258.176C187.163 258.638 187.248 259.106 187.313 259.568C187.749 262.75 187.899 265.944 188.231 269.119C188.432 271.162 187.769 272.984 186.747 274.721C184.151 279.204 180.924 283.127 177.02 286.523C172.603 290.349 167.704 293.407 162.206 295.378C158.348 296.764 154.314 297.499 150.176 297.232C148.615 297.135 148.445 297.011 148.452 295.534C148.53 287.838 151.341 281.344 157.02 276.133C157.508 275.671 158.081 275.32 158.615 274.897C158.829 274.721 159.122 274.604 159.304 274.389C159.499 274.175 159.272 273.817 158.985 273.914C158.901 273.947 158.816 273.986 158.738 274.038C156.981 275.079 155.023 275.56 153.071 276.061C147.619 277.46 142.141 278.195 136.637 278.391V278.397C114.639 280.069 96.9167 271.748 90.0983 267.948C89.0378 267.356 88.2505 266.881 87.7431 266.562C87.3592 266.322 87.1315 266.172 87.0859 266.14C87.1705 266.185 87.2681 266.218 87.3592 266.263C107.736 275.652 132.453 271.826 135.114 271.37C135.895 271.234 136.676 271.091 137.457 270.941C139.695 270.518 141.913 270.082 144.119 269.549C146.871 268.872 149.519 267.877 152.212 267.005C155.062 266.074 157.853 265.027 160.612 263.927C165.296 262.073 169.896 260.017 174.437 257.831C181.828 254.279 188.81 249.991 196.064 246.211C200.403 243.954 204.782 241.807 209.278 239.868C212.629 238.417 216.057 237.168 219.486 235.905C221.204 235.268 223.019 234.76 224.762 234.155C230.924 231.989 237.241 230.466 243.578 229.042C245.881 228.528 248.211 228.04 250.579 227.877C251.366 227.818 252.004 227.526 252.609 226.907C256.259 223.166 260.345 219.926 264.509 216.764C267.918 214.162 271.425 211.722 275.049 209.425C275.543 209.12 276.584 209.035 276.415 208.397C276.35 208.144 276.213 208.02 276.037 207.975C275.888 207.929 275.719 207.949 275.536 207.981H275.53C253.767 208.313 232.895 216.198 228.042 218.157C227.84 218.235 227.684 217.981 227.84 217.838C234.795 211.371 246.942 192.425 251.73 184.754C251.828 184.598 251.926 184.448 252.017 184.299C252.511 183.538 252.986 182.776 253.442 182.002C253.65 181.657 253.76 181.475 253.76 181.475C254.561 180.115 255.315 178.736 255.992 177.311C256.291 176.7 256.682 176.16 257.013 175.574C259.603 171.052 262.017 166.433 264.248 161.722C265.94 158.157 267.495 154.533 268.952 150.877C273.864 136.661 283.181 107.09 280.24 95.093C280.234 95.054 280.227 95.0215 280.221 94.9824C280.234 95.0149 280.247 95.054 280.26 95.093C280.54 96.0689 280.943 97.6174 281.346 99.7058C281.353 99.7124 281.353 99.7254 281.353 99.7384C283.097 108.652 284.925 127.246 277.651 151.781C277.254 153.154 276.844 154.52 276.402 155.886C275.706 158.027 274.931 160.128 274.112 162.204C274.021 162.438 273.942 162.672 273.845 162.913L273.838 162.907C270.754 170.577 266.877 177.858 262.44 184.891C258.067 191.813 253.058 198.241 247.794 204.507C246.194 206.407 244.619 208.326 242.622 209.842C242.505 209.887 242.368 210.011 242.284 210.161C242.232 210.265 242.232 210.401 242.329 210.486C242.472 210.616 242.654 210.558 242.785 210.512C246.597 209.016 250.553 207.955 254.541 207.155C260.052 206.055 265.589 205.06 271.236 204.774C275.836 204.526 280.41 204.305 285.009 204.767C291.301 205.398 297.332 206.927 302.973 209.809C303.181 209.926 303.409 210.044 303.623 210.161C303.728 210.213 303.773 210.336 303.767 210.447Z" fill="#98D517"/>
<path d="M238.075 294.176C238.049 294.241 238.003 294.332 237.951 294.417C237.886 294.534 237.795 294.651 237.697 294.788C237.665 294.827 237.639 294.859 237.606 294.905C237.522 295.015 237.43 295.113 237.326 295.211C226.884 295.126 217.658 287.696 215.505 285.829C215.192 285.562 215.03 285.406 215.03 285.406C207.431 278.496 202.603 270.051 201.406 266.727C201.302 266.427 201.204 266.161 201.107 265.887C201.107 265.881 201.107 265.874 201.1 265.868C201.081 265.822 201.068 265.783 201.055 265.751C201.055 265.751 199.096 261.418 200.937 260.214C200.95 260.208 200.957 260.208 200.964 260.208C200.983 260.201 201.003 260.208 201.003 260.227C201.295 260.852 204.353 267.221 211.139 274.742C215.114 279.004 219.591 282.797 224.444 286.245C228.419 289.056 232.564 291.567 237.164 293.259C237.515 293.389 237.775 293.512 237.925 293.623C238.101 293.786 238.14 293.942 238.075 294.176Z" fill="#DCFF93"/>
<path d="M209.522 204.926C216.061 203.332 220.889 200.097 220.305 197.701C219.72 195.304 213.945 194.654 207.405 196.248C200.866 197.843 196.038 201.079 196.622 203.475C197.207 205.871 202.982 206.521 209.522 204.926Z" fill="#F580F7"/>
<path d="M144.494 220.777C151.033 219.183 155.861 215.948 155.277 213.552C154.693 211.155 148.917 210.506 142.378 212.1C135.838 213.694 131.011 216.93 131.595 219.326C132.179 221.722 137.954 222.372 144.494 220.777Z" fill="#F580F7"/>
<path d="M222.583 164.997C221.028 158.621 216.994 153.501 211.757 150.404C209.707 149.194 207.469 148.289 205.12 147.749C203.884 147.463 202.622 147.268 201.334 147.19C199.037 147.04 196.675 147.235 194.32 147.814C181.77 150.872 174.073 163.527 177.137 176.077C180.195 188.628 192.85 196.324 205.4 193.26C217.95 190.202 225.647 177.548 222.583 164.997ZM204.587 189.909C193.806 192.538 182.934 185.928 180.306 175.153C177.677 164.373 184.288 153.501 195.068 150.872C205.843 148.244 216.714 154.854 219.343 165.635C221.971 176.416 215.361 187.281 204.587 189.909Z" fill="#543EFA"/>
<path d="M219.344 165.635C216.715 154.854 205.843 148.244 195.069 150.872C184.289 153.501 177.678 164.373 180.307 175.153C182.935 185.927 193.807 192.538 204.588 189.909C215.362 187.281 221.972 176.415 219.344 165.635ZM199.168 184.405C191.641 186.24 184.054 181.627 182.22 174.099C180.385 166.578 184.998 158.985 192.525 157.151C200.046 155.316 207.639 159.929 209.474 167.456C211.309 174.984 206.696 182.57 199.168 184.405Z" fill="#F580F7"/>
<path d="M209.473 167.457C207.638 159.93 200.046 155.317 192.525 157.151C184.997 158.986 180.384 166.579 182.219 174.1C184.053 181.628 191.64 186.24 199.167 184.406C206.695 182.571 211.308 174.985 209.473 167.457ZM192.531 168.849C190.41 169.37 188.263 168.069 187.749 165.941C187.229 163.82 188.53 161.68 190.657 161.159C192.778 160.645 194.919 161.946 195.439 164.067C195.953 166.188 194.652 168.335 192.531 168.849Z" fill="#543EFA"/>
<path d="M190.873 162.552C188.749 163.07 187.447 165.211 187.965 167.335C188.483 169.459 190.625 170.761 192.749 170.243C194.872 169.725 196.174 167.583 195.656 165.46C195.138 163.336 192.997 162.034 190.873 162.552Z" fill="#FEFEFE"/>
<path d="M160.623 180.106C157.559 167.562 144.917 159.872 132.367 162.917C132.367 162.923 132.36 162.923 132.354 162.923C129.354 163.652 126.635 164.94 124.267 166.638H124.26C116.746 172.045 112.842 181.641 115.171 191.186C118.229 203.736 130.883 211.433 143.434 208.368C155.984 205.311 163.681 192.656 160.623 180.106ZM142.62 205.018C131.84 207.646 120.968 201.043 118.339 190.262C115.718 179.481 122.321 168.616 133.102 165.981C143.883 163.352 154.748 169.963 157.376 180.743C160.005 191.524 153.401 202.389 142.62 205.018Z" fill="#543EFA"/>
<path d="M157.377 180.743C154.748 169.962 143.883 163.352 133.102 165.981C122.322 168.616 115.718 179.481 118.34 190.262C120.968 201.042 131.84 207.646 142.621 205.018C153.402 202.389 160.005 191.524 157.377 180.743ZM137.214 199.507C129.693 201.348 122.107 196.729 120.266 189.208C118.431 181.68 123.044 174.094 130.571 172.259C138.099 170.424 145.685 175.037 147.52 182.565C149.355 190.086 144.742 197.672 137.214 199.507Z" fill="#F580F7"/>
<path d="M147.52 182.565C145.685 175.037 138.099 170.424 130.571 172.259C123.044 174.094 118.431 181.68 120.266 189.207C122.107 196.728 129.693 201.348 137.214 199.507C144.742 197.672 149.355 190.086 147.52 182.565ZM130.565 183.957C128.444 184.477 126.303 183.176 125.783 181.049C125.262 178.928 126.57 176.787 128.691 176.267C130.812 175.753 132.959 177.054 133.473 179.175C133.994 181.302 132.692 183.443 130.565 183.957Z" fill="#543EFA"/>
<path d="M129.293 176.548C126.794 177.169 125.263 179.736 125.872 182.281C126.481 184.826 129.001 186.386 131.5 185.765C133.999 185.145 135.531 182.579 134.922 180.034C134.312 177.488 131.792 175.928 129.293 176.548Z" fill="#FEFEFE"/>
<path d="M149.23 33.7793C149.23 33.7793 149.23 33.7793 149.238 33.7863C149.238 33.7863 149.238 33.7863 149.23 33.7863V33.7793Z" fill="#98D517"/>
<path d="M208.19 143.299C208.184 143.305 208.184 143.305 208.177 143.312C207.052 144.723 206.089 146.233 205.12 147.749C203.883 147.462 202.621 147.267 201.333 147.189C201.418 146.448 201.255 145.712 201.157 144.977C200.982 143.533 200.676 142.101 200.37 140.677C200.904 140.872 201.437 141.112 201.951 141.418C202.257 141.6 202.602 141.75 202.94 141.867C203.909 142.186 204.807 141.828 205.328 140.943C205.764 140.221 205.673 139.343 205.159 138.679C205.074 138.595 204.996 138.523 204.918 138.432C204.248 137.84 203.447 137.469 202.628 137.131C201.606 136.708 200.591 136.402 199.57 136.207C199.55 136.038 199.531 135.862 199.511 135.693C199.518 135.647 199.485 135.589 199.492 135.543C198.718 131.34 197.82 127.17 196.831 123.019C192.647 106.148 180.39 66.2007 152.921 37.4826C151.724 36.2269 150.494 34.9972 149.238 33.7871C149.798 34.0278 177.826 46.6628 196.701 97.5278C197.364 99.2454 198.008 100.97 198.633 102.7C201.229 109.818 203.226 117.111 204.794 124.502C204.807 124.554 204.82 124.6 204.833 124.652L204.827 124.658C204.95 125.244 205.081 125.83 205.198 126.415C206.33 131.861 207.241 137.313 207.943 142.785C207.969 143.006 208.008 143.175 208.19 143.299Z" fill="#98D517"/>
<path d="M134.938 235.3C133.253 235.775 129.655 236.894 125.172 238.774C120.481 240.739 114.828 243.537 109.434 247.284C107.977 248.319 106.526 249.36 105.088 250.42C100.93 253.478 96.9291 256.744 93.1881 260.303C91.8023 261.624 90.514 263.016 89.1998 264.376C87.8986 265.989 87.4301 266.133 87.2935 266.133C87.2935 266.133 87.261 266.139 87.2219 266.126C87.1374 266.1 87.0203 266.009 87.0853 265.664L87.0788 265.651C87.0788 265.632 87.0918 265.632 87.0853 265.619V265.599C87.1959 265.052 87.788 263.771 90.0846 260.811C91.2622 259.158 92.5895 257.603 93.9753 256.094C93.9883 256.094 93.9883 256.081 94.0013 256.074C94.5023 255.541 95.0033 255 95.5173 254.473C100.416 249.405 105.96 245.41 112.088 242.346C112.088 242.346 114.997 240.804 118.939 239.132C120.384 238.514 121.958 237.883 123.578 237.304C123.598 237.297 123.617 237.291 123.63 237.284C126.948 236.1 130.442 235.137 133.357 234.955C133.656 234.936 133.949 234.916 134.229 234.916H134.333C134.522 234.916 134.697 234.923 134.873 234.929C134.925 234.929 134.964 234.949 134.997 234.981C135.094 235.066 135.081 235.254 134.938 235.3Z" fill="#DCFF93"/>
<path d="M142.16 156.352C141.64 157.231 140.742 157.588 139.773 157.27C139.434 157.152 139.09 157.003 138.784 156.821C136.728 155.63 134.522 155.292 132.193 155.754C131.816 155.819 131.445 155.89 131.087 155.975C130.059 156.216 129.083 156.534 128.166 156.964C128.029 157.029 127.879 157.094 127.743 157.178C127.294 157.406 126.845 157.653 126.422 157.94C126.351 157.992 126.279 158.044 126.207 158.096C125.915 158.298 125.622 158.519 125.329 158.759C125.258 158.825 125.166 158.896 125.088 158.974C125.03 159.039 124.978 159.078 124.913 159.143C124.718 159.319 124.529 159.521 124.347 159.716C124.06 160.022 123.781 160.334 123.52 160.679C123.436 160.776 123.371 160.867 123.299 160.952C122.551 161.804 121.939 161.817 120.846 161.238C119.519 160.536 119.246 159.54 120.163 158.304C120.326 158.083 120.495 157.875 120.664 157.66C121.087 157.139 121.523 156.625 121.991 156.164C122.434 155.715 122.909 155.311 123.397 154.927C123.631 154.752 123.878 154.563 124.112 154.4C124.392 154.205 124.672 154.023 124.965 153.854C125.153 153.737 125.342 153.626 125.544 153.516C125.993 153.268 126.442 153.034 126.917 152.839C126.943 152.832 126.969 152.813 126.982 152.806C127.014 152.8 127.027 152.8 127.053 152.774C127.125 152.748 127.177 152.715 127.248 152.696C127.379 152.65 127.502 152.592 127.613 152.546C128.556 152.182 129.5 151.896 130.443 151.7C133.442 151.063 136.442 151.284 139.46 152.533C140.28 152.871 141.08 153.249 141.751 153.834C141.829 153.925 141.913 153.997 141.991 154.082C142.505 154.745 142.603 155.63 142.16 156.352Z" fill="#F580F7"/>
<path d="M148.449 33.5062C148.685 33.5062 148.943 33.6004 149.23 33.7872V33.7807C149.23 33.7807 149.23 33.7807 149.236 33.7872C149.796 34.0279 177.824 46.6628 196.698 97.5279C197.362 99.2455 198.006 100.97 198.631 102.7C201.227 109.818 203.224 117.111 204.792 124.502C204.805 124.554 204.818 124.6 204.831 124.652L204.825 124.659C204.948 125.244 205.078 125.83 205.195 126.415C206.327 131.861 207.238 137.313 207.941 142.785C207.967 143.006 208.006 143.175 208.188 143.299C209.724 141.822 210.869 140.02 212.183 138.367C219.704 128.874 228.247 120.384 237.973 113.188C245.514 107.593 253.517 102.785 262.241 99.213C267.355 97.105 272.625 95.4394 278.064 94.3984C278.064 94.3984 278.11 94.3919 278.181 94.3789C278.304 94.3638 278.514 94.3423 278.754 94.3423C279.239 94.3423 279.85 94.4298 280.133 94.8343C280.166 94.8734 280.192 94.9189 280.211 94.971C280.218 94.9775 280.218 94.9775 280.218 94.984C280.231 95.0165 280.244 95.0555 280.257 95.0946C280.537 96.0705 280.94 97.619 281.343 99.7074C281.35 99.7139 281.35 99.7269 281.35 99.74C283.093 108.653 284.922 127.248 277.648 151.783C277.251 153.155 276.841 154.522 276.399 155.888C275.703 158.029 274.928 160.13 274.108 162.205C274.017 162.44 273.939 162.674 273.842 162.915L273.835 162.908C270.751 170.579 266.874 177.859 262.436 184.892C258.064 191.815 253.055 198.243 247.791 204.508C246.191 206.408 244.616 208.328 242.619 209.843C242.502 209.889 242.365 210.013 242.28 210.162C242.228 210.266 242.228 210.403 242.326 210.488C242.391 210.547 242.465 210.567 242.537 210.567C242.624 210.567 242.711 210.538 242.781 210.514C246.594 209.017 250.55 207.957 254.538 207.156C260.049 206.057 265.585 205.061 271.233 204.775C273.878 204.633 276.515 204.499 279.152 204.499C281.102 204.499 283.051 204.572 285.006 204.769C291.298 205.4 297.329 206.929 302.97 209.811C303.178 209.928 303.406 210.045 303.62 210.162C303.724 210.214 303.77 210.338 303.763 210.449C303.383 214.275 296.417 275.668 248.935 275.668C237.163 275.668 222.909 271.899 205.638 262.543C205.638 262.543 205.638 262.543 205.618 262.53C204.213 261.691 202.769 260.917 201.324 260.116C201.281 260.092 201.237 260.081 201.195 260.081C201.103 260.081 201.018 260.132 200.96 260.208C200.965 260.206 200.97 260.205 200.974 260.205C200.988 260.205 200.999 260.212 200.999 260.227C201.292 260.852 204.35 267.221 211.135 274.742C215.111 279.004 219.587 282.797 224.441 286.245C228.416 289.056 232.56 291.567 237.16 293.259C237.511 293.389 237.772 293.512 237.921 293.623C238.097 293.786 238.136 293.942 238.071 294.176C238.045 294.241 237.999 294.332 237.947 294.417C237.882 294.534 237.791 294.651 237.694 294.788C237.661 294.827 237.635 294.859 237.602 294.905C236.308 296.694 234.597 298.06 233.51 298.822C233.51 298.822 230.857 301.537 225.45 301.537C223.068 301.537 220.152 301.01 216.692 299.492C216.627 299.459 216.562 299.433 216.497 299.407C216.438 299.375 216.379 299.355 216.314 299.329C216.269 299.303 216.223 299.283 216.178 299.264C215.904 299.14 215.631 299.01 215.364 298.874C215.306 298.848 215.247 298.815 215.189 298.789C215.065 298.724 214.942 298.665 214.825 298.6C213.055 297.683 211.623 296.733 210.478 295.79C205.072 291.671 201.194 286.278 197.752 280.513C195.02 275.939 192.866 271.079 190.979 266.102C189.932 263.389 188.813 260.695 187.635 258.015C187.582 257.891 187.476 257.837 187.37 257.837C187.203 257.837 187.036 257.971 187.076 258.178C187.16 258.64 187.245 259.108 187.31 259.57C187.746 262.751 187.896 265.946 188.227 269.121C188.429 271.164 187.765 272.986 186.744 274.723C184.148 279.205 180.921 283.129 177.017 286.525C172.6 290.35 167.701 293.408 162.203 295.38C158.871 296.577 155.408 297.288 151.86 297.288C151.299 297.288 150.737 297.27 150.173 297.234C148.611 297.136 148.442 297.013 148.449 295.536C148.527 287.839 151.337 281.346 157.017 276.135C157.505 275.673 158.078 275.321 158.611 274.898C158.826 274.723 159.119 274.606 159.301 274.391C159.474 274.201 159.316 273.9 159.079 273.899C159.048 273.899 159.015 273.905 158.982 273.916C158.898 273.949 158.813 273.988 158.735 274.04C156.978 275.081 155.02 275.562 153.068 276.063C147.616 277.462 142.138 278.197 136.634 278.392V278.399C134.667 278.548 132.73 278.618 130.837 278.618C111.551 278.618 96.3039 271.41 90.0951 267.95C89.6007 267.696 89.1062 267.442 88.6183 267.169C88.306 266.993 88.0197 266.785 87.7399 266.564C87.3561 266.323 87.1283 266.174 87.0828 266.141C87.1674 266.187 87.265 266.219 87.3561 266.265C87.3041 266.226 87.2585 266.174 87.2194 266.128C87.1349 266.102 87.0178 266.011 87.0828 265.666L87.0763 265.653C87.0763 265.634 87.0893 265.634 87.0828 265.621V265.601C87.1934 265.055 87.7855 263.773 90.0821 260.813C91.2597 259.16 92.587 257.605 93.9729 256.096C93.9858 256.096 93.9858 256.083 93.9988 256.076C94.4999 255.543 95.0008 255.003 95.5148 254.476C100.414 249.407 105.957 245.413 112.086 242.348C112.086 242.348 114.994 240.806 118.937 239.134C120.381 238.516 121.956 237.885 123.576 237.306C123.198 237.059 122.867 236.831 122.522 236.616C117.968 233.871 113.446 231.04 109.21 227.781C104.519 224.17 100.206 220.123 96.0418 215.933C95.8726 215.764 95.7034 215.595 95.5408 215.426C95.2415 215.126 94.9422 214.827 94.6495 214.528C92.9969 212.849 91.4094 211.119 89.8805 209.342C89.7308 209.173 89.5877 209.017 89.4641 208.868C88.8785 208.178 88.2995 207.482 87.7269 206.779C62.6522 177.313 61.1428 154.281 61.0517 151.607C61.0452 151.477 61.0452 151.392 61.0452 151.36V151.347C61.0778 150.982 61.3641 150.911 62.1447 150.709C65.4238 149.876 68.7355 149.245 72.0731 148.822C72.0731 148.822 72.0731 148.822 72.0796 148.822C75.2873 148.418 78.5261 148.21 81.7891 148.21C81.8882 148.21 81.9869 148.21 82.0861 148.211C89.7048 148.23 97.0567 149.375 104.24 151.464C104.253 151.464 104.253 151.477 104.272 151.477C104.799 151.607 112.821 153.669 120.655 157.658C120.661 157.658 120.661 157.658 120.661 157.658C121.084 157.137 121.52 156.623 121.988 156.161C122.431 155.712 122.906 155.309 123.394 154.925C123.628 154.749 123.875 154.561 124.109 154.398C124.389 154.203 124.669 154.021 124.962 153.852C124.962 153.845 124.962 153.845 124.955 153.845C124.76 153.136 124.565 152.401 124.37 151.633C119.594 132.915 114.76 96.7667 133.348 58.2568L133.361 58.2373C134.285 56.1683 135.235 54.1254 136.276 52.102C139.425 45.9667 142.899 40.0461 147.154 34.6134C147.284 34.4443 147.414 34.2881 147.531 34.1255C147.803 33.7108 148.102 33.5062 148.449 33.5062ZM148.449 27C145.976 27 143.73 28.2103 142.244 30.3312L142.192 30.3973C142.135 30.4697 142.077 30.543 142.019 30.618C137.998 35.7545 134.334 41.6376 130.488 49.1311C129.553 50.9471 128.602 52.9444 127.504 55.3976C127.499 55.408 127.494 55.4183 127.489 55.4286C109.31 93.0896 112.563 128.682 117.029 148.883C111.601 146.698 107.129 145.494 106.062 145.219C106.06 145.218 106.058 145.218 106.056 145.217C98.1116 142.907 90.0527 141.725 82.1028 141.705L81.7891 141.704C78.3322 141.704 74.8259 141.923 71.3652 142.355C71.3284 142.359 71.2918 142.363 71.2553 142.368C67.6829 142.82 64.0788 143.505 60.5432 144.403C60.5346 144.405 60.5105 144.412 60.5019 144.414C55.9596 145.587 54.7662 148.516 54.5649 150.767C54.5477 150.96 54.5391 151.153 54.5391 151.347C54.5391 151.429 54.5387 151.606 54.551 151.875C54.6234 153.872 55.1532 160.956 58.8997 171.352C63.701 184.674 71.7178 197.994 82.7263 210.942C83.3036 211.65 83.8945 212.36 84.4836 213.054C84.6141 213.21 84.7566 213.372 84.9072 213.541L84.9861 213.629C86.6206 215.526 88.3117 217.364 90.013 219.092C90.2953 219.381 90.5971 219.683 90.8997 219.986C91.0763 220.168 91.2587 220.351 91.4412 220.534C96.6413 225.766 100.902 229.596 105.242 232.937C106.726 234.079 108.244 235.171 109.773 236.22C109.452 236.384 109.228 236.5 109.116 236.559C102.253 239.999 96.1037 244.505 90.8368 249.954C90.4139 250.387 89.9794 250.851 89.547 251.312L89.4157 251.452C89.3354 251.531 89.2569 251.612 89.1803 251.695C87.42 253.613 86.0447 255.279 84.8618 256.928C82.3023 260.239 81.096 262.383 80.7059 264.311C80.6705 264.486 80.6422 264.662 80.6213 264.84C80.7311 263.947 81.0288 263.072 81.5123 262.272C81.0349 263.062 80.7296 263.954 80.6179 264.869C80.6083 264.954 80.6004 265.039 80.5941 265.125C80.592 265.146 80.59 265.167 80.5881 265.189C80.5945 265.095 80.6029 265.001 80.6134 264.908C80.6001 265.023 80.5898 265.138 80.5826 265.253C80.55 265.656 80.5509 266.054 80.5833 266.444C80.6744 268.372 81.62 270.235 83.3012 271.435C83.3673 271.483 83.5269 271.597 84.0067 271.901C84.3721 272.178 84.8543 272.517 85.4285 272.84C85.9943 273.157 86.5197 273.428 87.0275 273.688C93.3053 277.173 109.93 285.124 130.837 285.124C132.933 285.124 135.05 285.044 137.127 284.886C137.14 284.885 137.153 284.884 137.166 284.883C139.412 284.796 141.638 284.623 143.838 284.367C142.617 287.806 141.983 291.512 141.943 295.47C141.943 295.482 141.943 295.495 141.943 295.507C141.938 296.569 141.926 299.391 144.212 301.591C146.201 303.505 148.61 303.655 149.767 303.727C150.45 303.772 151.158 303.794 151.86 303.794C155.949 303.794 160.169 303.023 164.402 301.503C170.355 299.368 176.034 295.983 181.276 291.443C184.817 288.362 187.915 284.847 190.522 280.954C191.057 281.946 191.605 282.909 192.167 283.85C195.298 289.093 199.747 295.763 206.44 300.892C207.968 302.138 209.76 303.298 211.77 304.345C211.88 304.405 211.993 304.463 212.108 304.521L212.164 304.549C212.246 304.593 212.328 304.633 212.411 304.672C212.438 304.686 212.466 304.699 212.494 304.713C212.796 304.866 213.119 305.02 213.454 305.173C213.582 305.235 213.712 305.294 213.844 305.348C213.898 305.372 213.953 305.395 214.007 305.418C214.031 305.429 214.054 305.439 214.078 305.45C218 307.17 221.826 308.043 225.45 308.043C232.06 308.043 236.086 305.213 237.602 303.894C239.124 302.789 241.146 301.076 242.804 298.815C242.867 298.734 242.928 298.653 242.988 298.569L243.021 298.523C243.137 298.364 243.341 298.084 243.556 297.715C243.772 297.351 243.963 296.964 244.113 296.588C244.201 296.369 244.276 296.145 244.34 295.917C245.062 293.319 244.315 290.677 242.342 288.85C242.166 288.687 241.981 288.533 241.788 288.39C241.129 287.904 240.377 287.512 239.42 287.158C235.929 285.874 232.472 283.956 228.197 280.933C226.703 279.871 225.281 278.8 223.925 277.714C232.804 280.679 241.167 282.174 248.935 282.174C271.13 282.174 288.739 270.131 299.859 247.347C308.127 230.408 310.046 213.019 310.238 211.092C310.246 211.005 310.253 210.918 310.258 210.831C310.415 208.163 309.02 205.669 306.69 204.426C306.6 204.377 306.508 204.328 306.417 204.279C306.329 204.233 306.242 204.187 306.159 204.14C306.084 204.098 306.007 204.057 305.93 204.017C299.886 200.929 293.254 199.057 285.656 198.295C283.634 198.092 281.507 197.993 279.152 197.993C276.41 197.993 273.785 198.122 270.884 198.278C267.191 198.466 263.572 198.933 260.159 199.497C263.126 195.6 265.674 191.95 267.937 188.367C272.83 180.611 276.694 173.179 279.743 165.655C279.788 165.558 279.831 165.459 279.871 165.359C279.956 165.15 280.032 164.944 280.107 164.74C280.127 164.684 280.147 164.629 280.168 164.574C281.112 162.184 281.903 160.001 282.586 157.9C283.004 156.608 283.419 155.246 283.892 153.609C291.503 127.921 289.617 108.246 287.773 98.6882C287.749 98.5368 287.72 98.3868 287.686 98.2383C287.337 96.4658 286.942 94.806 286.511 93.3017C286.485 93.2105 286.457 93.12 286.427 93.03C286.371 92.8645 286.313 92.7035 286.259 92.5676C286.242 92.5251 286.224 92.483 286.206 92.4408C285.976 91.8906 285.678 91.3754 285.318 90.9036C284.391 89.6715 282.398 87.8361 278.754 87.8361C278.307 87.8361 277.847 87.8648 277.387 87.9214C277.292 87.9331 277.197 87.9469 277.102 87.9629C276.993 87.9768 276.972 87.9832 276.841 88.0082C271.28 89.0726 265.533 90.8187 259.762 93.1978C251.111 96.7395 242.711 101.571 234.096 107.963C226.291 113.737 218.945 120.529 212.19 128.209C211.99 127.171 211.783 126.137 211.569 125.107C211.486 124.697 211.399 124.287 211.31 123.876L211.252 123.603C211.223 123.426 211.187 123.249 211.143 123.074L211.126 123.009C209.393 114.868 207.305 107.495 204.743 100.471C204.117 98.737 203.455 96.9649 202.783 95.2232C183.93 44.448 156.096 29.8252 152.22 27.9982C151.023 27.3354 149.757 27 148.449 27Z" fill="#4633DC"/>
<path d="M215.43 155.148C201.891 166.148 184.071 167.848 176.853 167.323L179.903 160.78L184.362 154.183L196.991 148.262L208.015 150.425C210.673 151.674 215.878 154.367 215.43 155.148Z" fill="#543EFA"/>
<path d="M154.133 170.174C140.594 181.174 122.774 182.874 115.556 182.349L118.606 175.806L123.065 169.209L135.694 163.289L146.718 165.452C149.377 166.7 154.581 169.393 154.133 170.174Z" fill="#543EFA"/>
<path fill-rule="evenodd" clip-rule="evenodd" d="M310.019 186.072C335.452 186.072 356.07 165.454 356.07 140.021C356.07 114.587 335.452 93.9691 310.019 93.9691C284.585 93.9691 263.967 114.587 263.967 140.021C263.967 165.454 284.585 186.072 310.019 186.072ZM310.019 193.367C339.481 193.367 363.365 169.483 363.365 140.021C363.365 110.558 339.481 86.6738 310.019 86.6738C280.556 86.6738 256.672 110.558 256.672 140.021C256.672 169.483 280.556 193.367 310.019 193.367Z" fill="#4633DC"/>
<path d="M355.298 152.182C348.594 177.203 322.875 192.051 297.854 185.347C272.833 178.643 257.984 152.924 264.689 127.903C271.393 102.882 297.112 88.0336 322.133 94.738C347.154 101.442 362.002 127.161 355.298 152.182Z" fill="#543EFA"/>
<path fill-rule="evenodd" clip-rule="evenodd" d="M310.02 180.509C332.381 180.509 350.509 162.381 350.509 140.02C350.509 117.659 332.381 99.5312 310.02 99.5312C287.659 99.5312 269.531 117.659 269.531 140.02C269.531 162.381 287.659 180.509 310.02 180.509ZM310.02 186.923C335.924 186.923 356.923 165.924 356.923 140.02C356.923 114.116 335.924 93.1172 310.02 93.1172C284.116 93.1172 263.117 114.116 263.117 140.02C263.117 165.924 284.116 186.923 310.02 186.923Z" fill="#BEB6FF"/>
<path d="M326.081 134.004L289.759 124.272L301.451 117.394L337.773 127.126L326.081 134.004Z" fill="#BEB6FF"/>
<path d="M318.439 162.531L282.117 152.799L293.763 146.091L330.085 155.824" fill="#BEB6FF"/>
<path d="M295.127 140.999L331.448 150.731L324.716 139.099L288.395 129.366" fill="#BEB6FF"/>
</svg>
