<svg width="259" height="243" viewBox="0 0 259 243" fill="none" xmlns="http://www.w3.org/2000/svg">
<path d="M136.655 23.2654C148.525 24.5996 159.011 30.5449 167.8 38.4362C170.092 40.4919 172.32 42.6499 174.33 44.9883C185.995 57.3987 195.931 75.069 201.962 91.0094C207.251 105.631 214.879 130.934 207.901 145.887C207.688 146.357 207.456 146.809 207.202 147.255C206.948 147.702 206.686 148.133 206.401 148.559C206.116 148.985 205.823 149.397 205.508 149.802C205.193 150.208 204.87 150.599 204.528 150.973C204.202 149.36 204.439 148.321 203.787 146.499C201.999 141.511 196.477 137.106 192.431 133.922C190.092 132.081 187.71 130.313 185.273 128.613C182.836 126.913 180.358 125.274 177.837 123.707C175.315 122.141 172.739 120.643 170.13 119.22C167.521 117.797 164.879 116.449 162.194 115.173C163.387 114.277 165.883 109.287 166.629 107.656C173.707 92.2498 171.522 73.393 165.766 57.936C161.459 46.3427 154.351 33.718 143.749 26.7934C141.489 25.3222 139.085 24.3755 136.655 23.2654Z" fill="#4633DC" stroke="#4633DC" stroke-width="0.519426" stroke-linejoin="round"/>
<path d="M118.117 122.191L118.938 122.523C121.638 123.744 123.624 125.164 125.73 127.24C126.252 127.875 126.762 128.507 127.207 129.205L127.993 130.452C128.786 131.977 129.356 133.488 129.88 135.12L130.363 137.471C130.699 140.358 130.257 142.541 129.555 145.323C129.36 146.121 129.053 147.021 128.973 147.839C128.639 149.319 128.223 150.836 128.024 152.353C125.466 164.835 125.9 177.43 127.171 190.038C127.785 196.157 129.326 204.496 128.323 210.519C127.794 213.673 126.301 216.275 123.598 218.041C116.847 222.453 105.558 220.618 98.0468 219.003C95.2703 218.41 92.5765 217.516 89.8203 216.892C93.5737 214.49 96.5856 211.117 98.9322 207.37C105.279 197.257 106.704 184.572 107.515 172.907C107.909 167.268 108.141 161.562 109.058 155.983C110.956 144.508 114.512 133.198 118.117 122.191Z" fill="#ED56F0"/>
<path d="M116.828 121.813C117.255 121.918 117.707 122.018 118.116 122.19C114.511 133.198 110.955 144.507 109.078 155.952C108.161 161.531 107.928 167.237 107.534 172.875C106.724 184.541 105.287 197.223 98.9516 207.339C96.5938 211.083 93.5931 214.459 89.8397 216.861C86.9913 216.224 84.1241 215.174 81.3969 214.139C75.0297 211.722 66.0082 207.654 63.1135 201.102C60.2856 194.701 65.2262 188.318 68.9837 183.494C70.8568 181.08 72.7989 178.721 74.664 176.293C77.5678 172.483 80.2668 168.544 82.756 164.452C86.8752 157.652 89.947 150.253 92.8027 142.854L94.4624 138.331C95.6903 135.032 96.7692 131.621 98.5083 128.559C98.9444 127.887 99.4272 127.264 99.9242 126.632C101.104 125.48 102.298 124.536 103.737 123.707C104.598 123.235 105.479 122.865 106.386 122.489C109.938 121.304 113.146 121.283 116.828 121.813Z" fill="#F580F7"/>
<path d="M184.728 102.325C184.868 102.339 185.005 102.365 185.13 102.387C185.256 102.41 185.404 102.438 185.538 102.475C185.672 102.512 185.809 102.537 185.943 102.574C186.077 102.611 186.211 102.647 186.341 102.695C186.472 102.743 186.603 102.791 186.734 102.839C186.865 102.887 186.993 102.946 187.112 102.991C187.24 103.05 187.357 103.106 187.484 103.165C187.612 103.224 187.726 103.291 187.85 103.361C187.975 103.431 188.089 103.498 188.202 103.565C188.316 103.632 188.438 103.714 188.548 103.792C188.659 103.87 188.769 103.949 188.88 104.027C188.99 104.105 189.097 104.195 189.205 104.284C189.312 104.373 189.42 104.463 189.516 104.549C189.624 104.639 189.717 104.736 189.81 104.834C189.903 104.931 190.008 105.032 190.101 105.129C190.194 105.227 190.284 105.336 190.374 105.444C190.476 105.556 190.563 105.676 190.65 105.796C190.737 105.916 190.824 106.035 190.911 106.155C190.998 106.275 191.082 106.406 191.155 106.534C191.228 106.662 191.312 106.793 191.385 106.921C191.458 107.049 191.528 107.188 191.587 107.324C191.656 107.463 191.715 107.599 191.774 107.735C191.832 107.871 191.891 108.007 191.936 108.151C191.98 108.296 192.039 108.432 192.083 108.576C192.128 108.72 192.172 108.864 192.205 109.005C192.239 109.146 192.28 109.301 192.302 109.439C192.333 109.592 192.355 109.73 192.385 109.882C192.404 110.031 192.423 110.18 192.442 110.33C192.461 110.479 192.469 110.625 192.474 110.782C192.482 110.928 192.487 111.086 192.484 111.229C192.48 111.372 192.485 111.529 192.468 111.68C192.462 111.834 192.447 111.974 192.43 112.126C192.194 114.604 191.083 116.951 189.136 118.54C187.112 120.193 184.745 120.731 182.183 120.449C179.727 119.956 177.5 119.022 175.921 116.993C175.83 116.885 175.743 116.765 175.667 116.648C175.58 116.528 175.504 116.411 175.428 116.295C175.352 116.178 175.28 116.05 175.207 115.922C175.134 115.794 175.072 115.669 174.999 115.541C174.937 115.416 174.879 115.28 174.817 115.155C174.758 115.019 174.708 114.897 174.652 114.75C174.605 114.617 174.557 114.484 174.513 114.34C174.465 114.207 174.432 114.066 174.387 113.922C174.354 113.781 174.321 113.64 174.287 113.499C174.254 113.358 174.232 113.22 174.21 113.081C174.188 112.943 174.169 112.794 174.146 112.656C174.127 112.507 174.116 112.372 174.108 112.226C174.1 112.08 174.092 111.934 174.093 111.802C174.085 111.656 174.088 111.513 174.091 111.37C174.094 111.226 174.098 111.083 174.112 110.943C174.126 110.803 174.141 110.663 174.158 110.512C174.467 108.03 175.704 105.706 177.697 104.165C179.759 102.595 182.186 102.012 184.728 102.325Z" fill="#B0EE2C"/>
<path d="M174.333 44.9791C185.999 57.3895 195.934 75.0598 201.966 91.0002C198.65 91.2791 195.241 90.2367 192.234 88.9087C183.905 85.2462 177.727 77.9386 174.461 69.546C171.447 61.8102 170.934 52.6966 174.333 44.9791Z" fill="#B0EE2C"/>
<path d="M27.8752 99.4119C28.9748 98.0699 29.9802 97.4218 31.6044 96.8353C36.4772 95.076 41.9758 94.3159 47.1078 93.7552C71.8596 91.0268 103.228 94.7066 127.202 101.602C139.332 105.094 150.781 109.804 162.178 115.183C164.863 116.459 167.505 117.807 170.114 119.23C172.723 120.653 175.288 122.148 177.821 123.717C180.342 125.284 182.834 126.915 185.257 128.623C187.694 130.323 190.077 132.091 192.415 133.932C196.458 137.127 201.983 141.521 203.771 146.509C204.423 148.331 204.186 149.37 204.512 150.983C203.622 151.998 202.649 152.835 201.469 153.508C196.251 156.48 187.673 157.272 181.732 157.634C164.77 158.683 144.706 155.775 128.019 152.365C128.215 150.859 128.631 149.342 128.968 147.85C129.048 147.033 129.355 146.133 129.55 145.335C130.252 142.552 130.683 140.367 130.358 137.483L129.875 135.131C129.351 133.5 128.781 131.989 127.988 130.463L127.202 129.216C126.757 128.519 126.244 127.898 125.725 127.252C123.619 125.175 121.633 123.755 118.933 122.535L118.112 122.202C117.703 122.03 117.262 121.933 116.824 121.825C113.131 121.293 109.934 121.316 106.363 122.485C105.456 122.86 104.575 123.23 103.714 123.702C102.286 124.534 101.08 125.475 99.9008 126.628C99.4038 127.259 98.9211 127.883 98.4849 128.555C96.7459 131.617 95.6639 135.039 94.439 138.326L92.7793 142.85C89.1737 141.561 85.5406 140.374 81.9707 138.999C66.8369 133.16 45.8734 123.599 34.4829 112.067C31.9667 109.518 28.8571 106.027 28.059 102.461C27.8432 101.454 27.8688 100.442 27.8752 99.4119Z" fill="#F580F7"/>
<path d="M95.3233 100.566C104.012 101.604 112.774 103.466 121.262 105.588C119.706 110.956 118.066 116.372 116.826 121.815C113.133 121.282 109.936 121.306 106.365 122.474C105.158 121.363 104.324 119.24 103.596 117.781C101.861 114.354 100.207 110.89 98.6357 107.388C97.5894 105.122 96.6194 102.709 95.3233 100.566Z" fill="#543EFA"/>
<path d="M121.263 105.588C122.987 106.036 124.76 106.438 126.445 107.032C133.128 108.864 139.902 111.153 146.329 113.79C139.5 119.404 133.679 123.266 125.742 127.233C123.636 125.156 121.65 123.736 118.95 122.516L118.129 122.183C117.721 122.011 117.279 121.914 116.841 121.806C118.067 116.372 119.718 110.958 121.263 105.588Z" fill="#543EFA"/>
<path d="M121.263 105.588C122.987 106.036 124.76 106.438 126.445 107.032C125.443 106.793 124.461 106.524 123.468 106.252C122.141 111.706 120.567 117.141 118.947 122.527L118.126 122.194C117.718 122.022 117.276 121.925 116.838 121.817C118.067 116.372 119.718 110.958 121.263 105.588Z" fill="#F580F7"/>
<path d="M92.4047 100.185C93.3878 100.274 94.3556 100.42 95.3235 100.565C96.6195 102.708 97.5926 105.11 98.6358 107.387C100.218 110.892 101.872 114.356 103.597 117.78C104.324 119.239 105.161 121.351 106.365 122.473C105.458 122.848 104.577 123.219 103.716 123.69C102.288 124.523 101.083 125.464 99.903 126.616C99.1135 125.908 96.7219 125.048 95.6835 124.548C94.1482 123.803 92.6363 123.017 91.1447 122.2C81.142 116.591 71.8476 110.061 63.458 102.243C62.1881 101.055 60.4526 99.728 59.5138 98.2951C61.8732 98.0901 64.3702 98.2586 66.7465 98.2982C75.3448 98.4837 83.8938 99.1115 92.4047 100.185Z" fill="#543EFA"/>
<path d="M92.4047 100.184C93.3878 100.274 94.3556 100.419 95.3235 100.564C96.6195 102.707 97.5926 105.109 98.6358 107.386C100.218 110.891 101.872 114.355 103.597 117.779C104.324 119.238 105.161 121.35 106.365 122.472C105.458 122.848 104.577 123.218 103.716 123.69C101.89 119.758 99.8751 115.907 98.0242 111.981C96.2776 108.287 94.6619 104.509 92.8473 100.845C92.7268 100.584 92.6246 100.388 92.4047 100.184Z" fill="#F580F7"/>
<path d="M146.318 113.786C147.116 114.113 147.935 114.409 148.707 114.789C151.161 115.989 153.74 116.996 156.22 118.144C161.821 120.819 167.308 123.69 172.692 126.761C175.3 128.232 178.057 129.683 180.496 131.42C175.064 132.594 169.735 133.784 164.197 134.426C158.682 135.073 153.039 135.134 147.485 135.219C144.681 135.254 141.87 135.311 139.067 135.251C137.336 135.22 131.058 134.843 129.87 135.105C129.346 133.474 128.776 131.962 127.983 130.437L127.197 129.19C126.753 128.493 126.239 127.872 125.72 127.226C133.679 123.266 139.486 119.411 146.318 113.786Z" fill="#4633DC"/>
<path d="M146.319 113.787C147.117 114.114 147.935 114.41 148.707 114.79C151.161 115.99 153.74 116.997 156.221 118.145C150.185 123.052 135.634 128.612 127.995 130.441L127.209 129.194C126.764 128.497 126.251 127.876 125.732 127.23C133.68 123.267 139.487 119.412 146.319 113.787Z" fill="#543EFA"/>
<path d="M146.319 113.787C147.117 114.114 147.935 114.41 148.707 114.79C144.877 118.742 138.42 123.174 133.593 125.858C131.513 127.015 129.186 127.889 127.206 129.205C126.761 128.508 126.248 127.887 125.729 127.241C133.68 123.267 139.487 119.412 146.319 113.787Z" fill="#F580F7"/>
<path d="M180.504 131.434C181.165 131.867 181.844 132.281 182.467 132.763C186.062 135.404 194.353 141.743 195.116 146.223C195.257 147.066 195.147 147.863 194.612 148.544C192.447 151.322 185.07 152.023 181.669 152.35C168.255 153.628 154.284 152.125 141.03 150.016C138.569 149.629 136.12 149.198 133.666 148.741C132.115 148.448 130.547 148.042 128.983 147.842C129.063 147.024 129.369 146.124 129.564 145.326C130.267 142.543 130.698 140.358 130.373 137.474L129.89 135.122C131.077 134.86 137.348 135.223 139.087 135.268C141.889 135.329 144.7 135.271 147.505 135.236C153.055 135.162 158.701 135.09 164.217 134.443C169.747 133.787 175.064 132.594 180.504 131.434Z" fill="#4633DC"/>
<path d="M180.504 131.434C181.165 131.867 181.843 132.281 182.466 132.764C181 133.693 178.673 134.087 176.996 134.515C164.634 137.688 153.842 137.717 141.246 137.588C139.211 137.57 137.172 137.527 135.135 137.472C133.601 137.424 131.871 137.213 130.361 137.471L129.878 135.12C131.066 134.857 137.336 135.22 139.075 135.265C141.878 135.326 144.688 135.268 147.493 135.233C153.043 135.159 158.689 135.087 164.205 134.44C169.746 133.787 175.064 132.594 180.504 131.434Z" fill="#F580F7"/>
<path d="M56.5266 98.3879C57.5252 98.2897 58.5328 98.29 59.5261 98.2983C60.4761 99.7343 62.2004 101.059 63.4703 102.246C71.8599 110.064 81.1543 116.594 91.1571 122.203C92.6486 123.02 94.1605 123.806 95.6958 124.551C96.7342 125.052 99.1258 125.911 99.9153 126.619C99.4183 127.251 98.9356 127.874 98.4994 128.546C96.7604 131.608 95.6784 135.031 94.4535 138.318C90.587 137.15 86.7615 135.658 83.006 134.172C78.2312 132.336 73.5387 130.33 68.9206 128.14C64.3025 125.951 59.781 123.584 55.3419 121.047C50.6707 118.352 46.0342 115.485 42.0674 111.795C40.1539 110.023 37.2372 107.184 37.1942 104.365C37.18 103.498 37.5199 102.739 38.1285 102.138C41.3705 98.8881 51.9857 98.4988 56.5266 98.3879Z" fill="#543EFA"/>
<path d="M56.5254 98.3885C57.524 98.2903 58.5316 98.2906 59.5249 98.299C60.4749 99.735 62.1992 101.059 63.4691 102.247C71.8587 110.065 81.1531 116.595 91.1558 122.204C92.6474 123.021 94.1593 123.807 95.6946 124.552C96.733 125.052 99.1246 125.912 99.9141 126.62C99.4171 127.251 98.9343 127.875 98.4982 128.547C92.4144 125.884 86.7112 122.401 81.1981 118.707C72.3088 112.755 63.8943 106.166 56.5254 98.3885Z" fill="#F580F7"/>
<path d="M136.653 23.2668C139.084 24.3769 141.485 25.3348 143.745 26.8059C154.349 33.7194 161.454 46.3552 165.762 57.9485C171.518 73.4056 173.703 92.2624 166.625 107.669C165.878 109.299 163.383 114.289 162.19 115.186C150.792 109.807 139.343 105.097 127.213 101.604C103.24 94.7092 71.8712 91.0294 47.1194 93.7578C41.9874 94.3185 36.4888 95.0786 31.616 96.8379C29.9806 97.4213 28.9864 98.0725 27.8868 99.4145C27.8175 98.8797 27.7623 98.3368 27.7661 97.798C27.854 89.2929 34.9103 79.6989 39.8937 73.1595C41.7069 70.7894 43.6544 68.1923 45.7869 66.1017C46.7136 65.0841 47.5632 63.9975 48.498 62.9941C50.9335 60.4108 53.4704 57.9392 56.1309 55.5854C57.2879 54.559 58.4644 53.418 59.8473 52.7054C60.1668 51.9773 61.7916 50.9951 62.4315 50.4987C66.9158 47.0494 71.5712 43.8509 76.3978 40.9033C78.3871 39.6852 80.3806 38.4082 82.4833 37.3891C96.8991 29.3924 112.778 23.8481 129.312 22.8738C131.743 23.1083 134.19 22.9754 136.653 23.2668Z" fill="#543EFA"/>
<path d="M95.8898 71.1486C96.1109 71.1733 96.3402 71.2121 96.5553 71.2591C96.7815 71.3091 96.9935 71.3672 97.2166 71.4283C97.4367 71.5007 97.6457 71.5699 97.8627 71.6534C98.0686 71.7338 98.2826 71.8285 98.4823 71.9312C98.6821 72.034 98.8788 72.1478 99.0755 72.2617C99.2691 72.3868 99.4516 72.5088 99.6422 72.645C99.8216 72.7782 99.998 72.9225 100.171 73.0779C100.345 73.2334 100.507 73.3858 100.666 73.5494C100.759 73.6469 100.841 73.7414 100.931 73.8501C101.013 73.9445 101.104 74.0532 101.183 74.1589C101.262 74.2645 101.341 74.3701 101.42 74.4758C101.499 74.5814 101.563 74.6951 101.639 74.8119C101.704 74.9256 101.769 75.0394 101.834 75.1531C101.899 75.2668 101.96 75.3917 102.014 75.5024C102.076 75.6273 102.129 75.7379 102.18 75.8597C102.23 75.9816 102.281 76.1034 102.332 76.2252C102.382 76.3471 102.419 76.477 102.458 76.5958C102.494 76.7257 102.534 76.8445 102.57 76.9744C102.607 77.1043 102.632 77.2312 102.657 77.358C102.682 77.4849 102.707 77.6118 102.729 77.7498C102.755 77.8767 102.766 78.0116 102.78 78.1354C102.791 78.2704 102.805 78.3942 102.816 78.5292C102.827 78.6642 102.827 78.7961 102.826 78.928C102.826 79.0599 102.826 79.1918 102.826 79.3237C102.762 81.3936 101.785 83.4288 100.252 84.8201C98.541 86.3785 96.4348 86.9288 94.161 86.8214C92.0762 86.5498 90.1352 85.6219 88.7654 84.0109C87.3926 82.411 86.7924 80.3991 86.9828 78.304C86.9941 78.1752 87.0054 78.0463 87.031 77.9094C87.0535 77.7836 87.0679 77.6436 87.0903 77.5178C87.1128 77.392 87.1384 77.255 87.172 77.1323C87.2057 77.0096 87.2424 76.8757 87.276 76.7529C87.3096 76.6302 87.3575 76.4994 87.3911 76.3766C87.4359 76.2569 87.4838 76.1261 87.5286 76.0064C87.5734 75.8868 87.6293 75.7701 87.6884 75.6424C87.7443 75.5258 87.8003 75.4091 87.8562 75.2925C87.9122 75.1759 87.9793 75.0623 88.0464 74.9488C88.1135 74.8352 88.1806 74.7217 88.2589 74.6112C88.3372 74.5007 88.4043 74.3871 88.4795 74.2878C88.5578 74.1773 88.633 74.0779 88.7224 73.9705C88.8088 73.8742 88.8871 73.7637 88.9735 73.6674C89.0598 73.5711 89.1462 73.4748 89.2437 73.3816C89.3413 73.2884 89.4276 73.1921 89.5221 73.11C89.6196 73.0168 89.7141 72.9347 89.8197 72.8557C91.5557 71.4242 93.6881 70.953 95.8898 71.1486Z" fill="#BEF941"/>
<path d="M59.8259 52.6991C63.7346 52.6188 67.1244 53.6439 69.9863 56.4197C70.1373 56.5691 70.2852 56.7296 70.4332 56.8901C70.5811 57.0506 70.7179 57.2081 70.8628 57.3797C70.9965 57.5483 71.1302 57.7169 71.264 57.8856C71.3977 58.0542 71.5172 58.2309 71.6479 58.4106C71.7674 58.5873 71.8838 58.7752 72.0033 58.9519C72.1198 59.1398 72.2251 59.3246 72.3304 59.5094C72.4357 59.6942 72.5379 59.8902 72.629 60.0831C72.72 60.276 72.8111 60.4689 72.8991 60.673C72.9871 60.877 73.064 61.078 73.1409 61.279C73.2177 61.4801 73.2915 61.6922 73.3572 61.8902C73.4199 62.0993 73.4825 62.3084 73.534 62.5144C73.5855 62.7205 73.6339 62.9377 73.6854 63.1437C73.7338 63.3609 73.7742 63.5639 73.8114 63.7781C73.8487 63.9922 73.8748 64.2033 73.8979 64.4256C73.924 64.6366 73.947 64.8589 73.9589 65.0781C73.9708 65.2973 73.9858 65.5053 73.9865 65.7214C74.0237 69.1745 72.6756 72.8236 70.2261 75.2832C67.6241 77.9048 64.2394 79.2683 60.554 79.2778C60.3013 79.2805 60.0629 79.2752 59.8163 79.2556C59.5667 79.2471 59.3202 79.2275 59.0767 79.1968C58.8302 79.1772 58.5897 79.1353 58.3351 79.1015C58.0946 79.0596 57.8431 79.0146 57.6026 78.9727C57.3653 78.9196 57.1167 78.8635 56.8794 78.8104C56.6451 78.7462 56.3996 78.6789 56.1683 78.6035C55.9371 78.5282 55.6947 78.4497 55.4665 78.3632C55.2383 78.2766 54.9989 78.187 54.7738 78.0894C54.5486 77.9917 54.3235 77.894 54.1014 77.7851C53.8794 77.6762 53.6573 77.5674 53.4383 77.4474C53.2192 77.3274 53.0002 77.2073 52.7954 77.0792C52.5794 76.9481 52.3746 76.8199 52.1729 76.6807C51.9712 76.5414 51.7694 76.4021 51.5707 76.2517C51.372 76.1013 51.1733 75.9509 50.9889 75.7923C50.8044 75.6338 50.6088 75.4722 50.4274 75.3025C50.2459 75.1328 50.0645 74.9632 49.8973 74.7854C47.6962 72.5746 46.0567 69.2342 45.7877 66.1015C46.7144 65.0839 47.5641 63.9972 48.4989 62.9939C50.9344 60.4105 53.4713 57.9389 56.1317 55.5852C57.2665 54.5527 58.4429 53.4117 59.8259 52.6991Z" fill="#DCFF93"/>
<path d="M82.4684 37.3961C96.8842 29.3995 112.763 23.8552 129.297 22.8808C130.467 29.7275 128.95 36.4012 124.931 42.0895C124.812 42.2608 124.694 42.4321 124.563 42.6004C124.444 42.7718 124.314 42.94 124.187 43.0971C124.057 43.2654 123.93 43.4225 123.8 43.5908C123.673 43.7479 123.532 43.9131 123.405 44.0702C123.267 44.2243 123.125 44.3895 122.987 44.5436C122.849 44.6976 122.711 44.8517 122.561 45.0027C122.423 45.1567 122.274 45.3077 122.128 45.4476C121.978 45.5986 121.832 45.7384 121.683 45.8894C121.533 46.0404 121.376 46.1772 121.229 46.317C121.072 46.4538 120.926 46.5937 120.757 46.7274C120.6 46.8642 120.442 47.001 120.274 47.1347C120.116 47.2715 119.951 47.394 119.782 47.5278C119.616 47.6503 119.448 47.784 119.282 47.9066C119.117 48.0292 118.951 48.1517 118.774 48.2713C118.609 48.3938 118.432 48.5133 118.259 48.6217C118.082 48.7412 117.908 48.8495 117.735 48.9579C117.561 49.0662 117.384 49.1857 117.199 49.291C117.026 49.3994 116.841 49.5047 116.656 49.61C116.471 49.7153 116.29 49.8094 116.105 49.9147C115.923 50.0088 115.738 50.1141 115.545 50.2052C115.364 50.2993 115.171 50.3904 114.978 50.4815C114.785 50.5726 114.595 50.6525 114.413 50.7466C114.223 50.8265 114.03 50.9176 113.841 50.9975C113.651 51.0774 113.45 51.1543 113.26 51.2342C113.059 51.3111 112.872 51.3798 112.671 51.4567C112.473 51.5224 112.272 51.5993 112.077 51.6538C111.879 51.7195 111.681 51.7852 111.486 51.8398C111.288 51.9055 111.082 51.9569 110.888 52.0115C110.682 52.063 110.487 52.1175 110.281 52.169C110.075 52.2205 109.872 52.2608 109.665 52.3123C109.462 52.3526 109.256 52.4041 109.053 52.4444C108.85 52.4848 108.647 52.5251 108.433 52.5624C101.905 53.6641 95.7459 52.3717 90.3343 48.5252C86.7193 45.9148 83.4176 41.8549 82.4684 37.3961Z" fill="#BEF941"/>
<path d="M147.837 57.4383C147.87 57.4475 147.907 57.4455 147.94 57.4547C152.861 58.4077 157.301 61.772 160.109 65.8404C160.204 65.9745 160.296 66.1197 160.391 66.2538C160.484 66.399 160.568 66.53 160.66 66.6752C160.752 66.8204 160.833 66.9626 160.914 67.1048C160.995 67.2469 161.076 67.3891 161.154 67.5424C161.235 67.6846 161.313 67.8379 161.394 67.98C161.472 68.1334 161.542 68.2725 161.62 68.4258C161.697 68.5791 161.764 68.7294 161.831 68.8796C161.898 69.0299 161.965 69.1801 162.028 69.3416C162.095 69.4918 162.159 69.6532 162.214 69.8004C162.278 69.9618 162.334 70.109 162.397 70.2705C162.45 70.4288 162.514 70.5902 162.566 70.7486C162.619 70.907 162.671 71.0653 162.724 71.2237C162.777 71.382 162.818 71.5373 162.867 71.7069C162.92 71.8652 162.958 72.0317 163 72.187C163.038 72.3534 163.08 72.5087 163.118 72.6752C163.156 72.8416 163.198 72.9969 163.225 73.1603C163.263 73.3268 163.29 73.4902 163.318 73.6536C163.345 73.817 163.372 73.9804 163.399 74.1438C163.426 74.3072 163.453 74.4706 163.466 74.6421C163.494 74.8055 163.507 74.977 163.523 75.1373C163.539 75.2977 163.552 75.4692 163.568 75.6295C163.581 75.801 163.597 75.9614 163.598 76.1298C163.611 76.3013 163.616 76.4586 163.618 76.627C163.62 76.7955 163.622 76.9639 163.627 77.1212C163.628 77.2896 163.63 77.4581 163.621 77.6235C163.623 77.7919 163.613 77.9573 163.604 78.1227C163.595 78.2881 163.585 78.4534 163.576 78.6188C163.567 78.7842 163.557 78.9496 163.537 79.1119C163.528 79.2773 163.507 79.4396 163.483 79.6131C163.463 79.7754 163.439 79.9489 163.419 80.1112C163.398 80.2736 163.375 80.447 163.343 80.6063C163.323 80.7686 163.288 80.9391 163.256 81.0983C163.225 81.2576 163.19 81.428 163.158 81.5873C163.127 81.7465 163.081 81.9139 163.049 82.0732C163.006 82.2294 162.972 82.3998 162.929 82.556C162.886 82.7122 162.84 82.8796 162.797 83.0358C162.754 83.192 162.697 83.3563 162.655 83.5125C162.601 83.6657 162.555 83.833 162.501 83.9862C162.447 84.1393 162.39 84.3036 162.336 84.4568C162.282 84.6099 162.214 84.7712 162.16 84.9243C162.094 85.0744 162.026 85.2357 161.961 85.3858C161.896 85.5359 161.831 85.686 161.752 85.8441C161.686 85.9942 161.61 86.1413 161.534 86.2883C161.458 86.4353 161.381 86.5824 161.305 86.7294C161.229 86.8764 161.152 87.0235 161.065 87.1674C160.989 87.3145 160.901 87.4585 160.814 87.6024C160.726 87.7464 160.639 87.8904 160.554 88.0232C160.467 88.1672 160.383 88.3 160.284 88.4409C160.197 88.5849 160.101 88.7146 160.002 88.8556C159.904 88.9965 159.808 89.1262 159.713 89.256C159.617 89.3857 159.519 89.5267 159.412 89.6534C159.316 89.7831 159.207 89.921 159.1 90.0477C158.993 90.1744 158.886 90.3011 158.78 90.4278C158.673 90.5545 158.566 90.6812 158.448 90.8048C158.342 90.9315 158.224 91.0552 158.109 91.1676C157.991 91.2913 157.876 91.4038 157.759 91.5274C157.641 91.651 157.526 91.7635 157.4 91.873C157.285 91.9854 157.156 92.106 157.03 92.2155C156.904 92.3249 156.789 92.4374 156.663 92.5468C156.537 92.6562 156.412 92.7656 156.286 92.8751C156.16 92.9845 156.026 93.0797 155.9 93.1891C155.762 93.2955 155.64 93.3938 155.505 93.489C155.371 93.5842 155.234 93.6906 155.1 93.7858C154.966 93.881 154.832 93.9762 154.687 94.0683C149.99 97.2434 144.503 98.0908 138.984 97.0457C133.916 96.0164 129.337 92.8062 126.439 88.5448C123.345 83.99 122.41 78.5156 123.452 73.139C124.434 68.0699 127.559 63.2764 131.839 60.395C136.651 57.2394 142.293 56.3506 147.837 57.4383Z" fill="#DCFF93"/>
<path d="M79.4122 170.93C83.9818 187.985 73.8611 205.514 56.8068 210.084C39.7524 214.654 22.2227 204.533 17.6531 187.479C13.0834 170.424 23.2042 152.895 40.2585 148.325C57.3128 143.755 74.8425 153.876 79.4122 170.93Z" fill="#FFC412"/>
<path fill-rule="evenodd" clip-rule="evenodd" d="M62.3399 203.081C75.5394 195.46 80.0618 178.582 72.4411 165.383C64.8204 152.183 47.9423 147.661 34.7428 155.282C21.5434 162.902 17.0209 179.78 24.6416 192.98C32.2623 206.179 49.1404 210.702 62.3399 203.081ZM64.5258 206.867C79.8163 198.039 85.0552 178.487 76.2272 163.197C67.3993 147.906 47.8474 142.668 32.5569 151.496C17.2665 160.324 12.0276 179.875 20.8555 195.166C29.6835 210.456 49.2353 215.695 64.5258 206.867Z" fill="#FFE8A1"/>
<path fill-rule="evenodd" clip-rule="evenodd" d="M41.7518 167.453L44.6026 166.689L43.8327 163.816L49.5342 162.288L50.3041 165.162L52.9102 164.463L58.6518 167.809L60.4444 174.499L59.2255 176.629L61.3464 177.865L63.1391 184.555L59.8392 190.323L57.2331 191.021L58.003 193.895L52.3015 195.422L51.5316 192.549L48.6809 193.313L49.4508 196.186L43.7493 197.714L42.9794 194.841L40.1286 195.604L38.5888 189.858L41.4396 189.094L37.5901 174.728L34.7394 175.491L33.1996 169.745L36.0503 168.981L35.2804 166.108L40.9819 164.58L41.7518 167.453ZM47.1411 187.566L55.9379 185.209L56.7998 183.703L56.2827 181.773L54.7831 180.899L45.9862 183.256L47.1411 187.566ZM44.4464 177.51L43.2916 173.2L52.0884 170.843L53.5881 171.717L54.1052 173.646L53.2433 175.153L44.4464 177.51Z" fill="#FFE8A2"/>
<path d="M237.076 66.3028C229.958 80.2068 212.916 85.708 199.012 78.5901C185.108 71.4721 179.607 54.4305 186.725 40.5265C193.843 26.6225 210.885 21.1213 224.789 28.2392C238.693 35.3571 244.194 52.3988 237.076 66.3028Z" fill="#F580F7"/>
<path fill-rule="evenodd" clip-rule="evenodd" d="M206.798 77.2769C219.982 80.1056 232.962 71.7109 235.791 58.527C238.62 45.3431 230.225 32.3623 217.041 29.5336C203.857 26.7049 190.876 35.0996 188.048 48.2835C185.219 61.4674 193.614 74.4482 206.798 77.2769ZM205.986 81.0585C221.259 84.3353 236.296 74.6109 239.573 59.3384C242.849 44.0659 233.125 29.0287 217.853 25.752C202.58 22.4752 187.543 32.1996 184.266 47.4721C180.989 62.7446 190.714 77.7818 205.986 81.0585Z" fill="#FEDDFF"/>
<path d="M226.986 47.8156C227.388 48.0212 227.404 48.2682 226.981 48.5561L214.21 56.6739L217.725 58.4734C218.021 58.6249 218.087 58.8266 217.95 59.0931L217.387 60.194C217.25 60.4605 217.044 60.5322 216.749 60.3807L212.564 58.2386L211.52 60.2791L215.704 62.4213C216 62.5727 216.066 62.7745 215.926 63.048L215.362 64.1489C215.225 64.4153 215.02 64.4871 214.724 64.3356L210.54 62.1935L209.247 64.7179C209.096 65.0124 208.88 65.1051 208.605 64.9645L204.421 62.8224C204.153 62.6853 204.102 62.4555 204.253 62.161L205.545 59.6366L201.389 57.5089C201.121 57.3719 201.056 57.1701 201.196 56.8966L201.763 55.7887C201.899 55.5222 202.105 55.4505 202.372 55.5876L206.529 57.7153L207.573 55.6747L203.417 53.547C203.149 53.41 203.084 53.2082 203.224 52.9347L203.787 51.8338C203.924 51.5674 204.126 51.5026 204.394 51.6397L207.93 53.45L207.017 38.3359C207.007 37.8174 207.206 37.6892 207.614 37.8983L212.313 40.3037C212.58 40.4408 212.759 40.7002 212.819 41.1029L212.953 51.3488L221.368 45.488C221.642 45.283 222.017 45.2626 222.312 45.4317L226.983 47.8226L226.986 47.8156Z" fill="#FEDDFF"/>
</svg>
