<svg width="271" height="243" viewBox="0 0 271 243" fill="none" xmlns="http://www.w3.org/2000/svg">
<path d="M142.711 23.2659C154.581 24.6001 165.068 30.5454 173.857 38.4367C176.149 40.4923 178.376 42.6504 180.386 44.9888C192.052 57.3991 201.987 75.0695 208.019 91.0099C213.308 105.631 220.935 130.934 213.958 145.888C213.745 146.357 213.513 146.81 213.259 147.256C213.004 147.702 212.742 148.134 212.457 148.56C212.173 148.986 211.88 149.397 211.565 149.803C211.25 150.208 210.927 150.599 210.584 150.973C210.259 149.361 210.495 148.322 209.843 146.5C208.056 141.511 202.533 137.106 198.488 133.922C196.149 132.082 193.767 130.313 191.33 128.613C188.893 126.914 186.415 125.275 183.893 123.708C181.372 122.141 178.795 120.643 176.186 119.22C173.577 117.797 170.936 116.45 168.25 115.174C169.444 114.277 171.939 109.287 172.686 107.656C179.764 92.2503 177.579 73.3935 171.823 57.9365C167.515 46.3432 160.407 33.7185 149.805 26.7939C147.546 25.3227 145.142 24.376 142.711 23.2659Z" fill="#4633DC" stroke="#4633DC" stroke-width="0.519426" stroke-linejoin="round"/>
<path d="M124.173 122.191L124.993 122.524C127.694 123.744 129.68 125.164 131.786 127.241C132.307 127.876 132.818 128.507 133.263 129.205L134.048 130.452C134.842 131.977 135.411 133.489 135.936 135.12L136.419 137.472C136.755 140.359 136.313 142.541 135.61 145.323C135.416 146.122 135.109 147.021 135.029 147.839C134.695 149.319 134.279 150.837 134.079 152.353C131.522 164.836 131.956 177.431 133.227 190.039C133.841 196.157 135.382 204.497 134.378 210.52C133.85 213.674 132.357 216.276 129.654 218.042C122.902 222.453 111.613 220.618 104.102 219.004C101.326 218.411 98.6321 217.516 95.876 216.893C99.6294 214.491 102.641 211.118 104.988 207.37C111.335 197.258 112.76 184.573 113.571 172.907C113.964 167.269 114.197 161.563 115.114 155.984C117.012 144.508 120.568 133.199 124.173 122.191Z" fill="#ED56F0"/>
<path d="M122.886 121.813C123.313 121.918 123.765 122.018 124.174 122.19C120.569 133.198 117.013 144.507 115.135 155.953C114.218 161.531 113.986 167.238 113.592 172.876C112.781 184.542 111.345 197.224 105.009 207.339C102.651 211.083 99.6507 214.459 95.8973 216.861C93.0489 216.225 90.1817 215.175 87.4545 214.139C81.0873 211.722 72.0658 207.654 69.1711 201.103C66.3432 194.701 71.2838 188.318 75.0413 183.494C76.9144 181.08 78.8565 178.722 80.7216 176.294C83.6254 172.483 86.3245 168.545 88.8136 164.453C92.9328 157.652 96.0046 150.253 98.8603 142.855L100.52 138.331C101.748 135.033 102.827 131.622 104.566 128.56C105.002 127.888 105.485 127.264 105.982 126.633C107.161 125.48 108.356 124.536 109.795 123.707C110.656 123.235 111.537 122.865 112.444 122.49C115.995 121.304 119.204 121.284 122.886 121.813Z" fill="#F580F7"/>
<path d="M190.786 102.325C190.926 102.34 191.063 102.365 191.189 102.388C191.315 102.41 191.463 102.439 191.597 102.476C191.731 102.512 191.868 102.538 192.001 102.575C192.135 102.611 192.269 102.648 192.4 102.696C192.531 102.744 192.662 102.792 192.793 102.839C192.923 102.887 193.051 102.946 193.171 102.991C193.299 103.05 193.415 103.106 193.543 103.165C193.671 103.224 193.784 103.291 193.909 103.361C194.034 103.432 194.147 103.499 194.261 103.566C194.374 103.633 194.496 103.714 194.607 103.792C194.717 103.871 194.828 103.949 194.938 104.027C195.049 104.106 195.156 104.195 195.264 104.284C195.371 104.374 195.478 104.463 195.575 104.55C195.682 104.639 195.775 104.737 195.869 104.834C195.962 104.932 196.066 105.032 196.159 105.13C196.253 105.227 196.343 105.336 196.433 105.445C196.534 105.556 196.621 105.676 196.709 105.796C196.796 105.916 196.883 106.036 196.97 106.156C197.057 106.276 197.141 106.407 197.214 106.534C197.287 106.662 197.371 106.793 197.444 106.921C197.517 107.049 197.587 107.188 197.645 107.324C197.715 107.464 197.774 107.6 197.832 107.736C197.891 107.872 197.95 108.008 197.994 108.152C198.039 108.296 198.097 108.432 198.142 108.576C198.186 108.72 198.231 108.864 198.264 109.006C198.297 109.147 198.339 109.302 198.361 109.44C198.391 109.592 198.413 109.73 198.444 109.882C198.463 110.032 198.482 110.181 198.501 110.33C198.52 110.479 198.528 110.625 198.533 110.783C198.541 110.929 198.545 111.086 198.542 111.229C198.539 111.372 198.544 111.529 198.526 111.681C198.52 111.835 198.506 111.975 198.488 112.126C198.253 114.605 197.142 116.951 195.195 118.541C193.17 120.193 190.803 120.732 188.242 120.45C185.786 119.956 183.559 119.022 181.979 116.994C181.889 116.885 181.802 116.765 181.726 116.648C181.639 116.529 181.563 116.412 181.487 116.295C181.411 116.178 181.338 116.05 181.265 115.922C181.192 115.794 181.131 115.67 181.058 115.542C180.996 115.417 180.937 115.281 180.876 115.156C180.817 115.02 180.766 114.898 180.711 114.751C180.663 114.618 180.616 114.485 180.571 114.341C180.524 114.208 180.49 114.066 180.446 113.922C180.413 113.781 180.379 113.64 180.346 113.499C180.313 113.358 180.29 113.22 180.268 113.082C180.246 112.944 180.227 112.795 180.205 112.657C180.186 112.508 180.175 112.373 180.167 112.226C180.159 112.08 180.151 111.934 180.151 111.802C180.143 111.656 180.147 111.513 180.15 111.37C180.153 111.227 180.156 111.084 180.171 110.944C180.185 110.804 180.199 110.664 180.217 110.513C180.525 108.03 181.762 105.706 183.756 104.165C185.818 102.595 188.245 102.013 190.786 102.325Z" fill="#B0EE2C"/>
<path d="M180.389 44.9796C192.054 57.39 201.99 75.0603 208.021 91.0007C204.706 91.2796 201.297 90.2372 198.29 88.9092C189.961 85.2467 183.783 77.9391 180.517 69.5465C177.503 61.8107 176.99 52.6971 180.389 44.9796Z" fill="#B0EE2C"/>
<path d="M33.9328 99.4124C35.0324 98.0704 36.0378 97.4222 37.662 96.8358C42.5348 95.0765 48.0334 94.3164 53.1654 93.7557C77.9172 91.0273 109.286 94.7071 133.259 101.602C145.389 105.095 156.838 109.804 168.236 115.184C170.921 116.46 173.562 117.807 176.171 119.23C178.78 120.653 181.346 122.148 183.878 123.718C186.4 125.285 188.892 126.916 191.315 128.623C193.752 130.323 196.134 132.092 198.473 133.932C202.515 137.128 208.041 141.521 209.828 146.51C210.481 148.332 210.244 149.371 210.57 150.983C209.679 151.999 208.706 152.836 207.526 153.508C202.309 156.48 193.731 157.272 187.789 157.635C170.827 158.684 150.764 155.775 134.076 152.365C134.273 150.86 134.689 149.342 135.026 147.851C135.106 147.033 135.412 146.134 135.607 145.335C136.31 142.553 136.741 140.368 136.416 137.484L135.933 135.132C135.408 133.501 134.839 131.989 134.045 130.464L133.26 129.217C132.815 128.519 132.301 127.899 131.783 127.253C129.677 125.176 127.691 123.756 124.99 122.536L124.17 122.203C123.761 122.031 123.32 121.934 122.882 121.826C119.189 121.293 115.991 121.317 112.42 122.485C111.514 122.861 110.632 123.231 109.771 123.703C108.344 124.535 107.138 125.476 105.958 126.628C105.461 127.26 104.979 127.883 104.543 128.555C102.804 131.617 101.722 135.04 100.497 138.327L98.8369 142.85C95.2314 141.562 91.5982 140.374 88.0283 139C72.8945 133.16 51.931 123.599 40.5406 112.068C38.0243 109.519 34.9147 106.027 34.1166 102.462C33.9008 101.455 33.9264 100.442 33.9328 99.4124Z" fill="#F580F7"/>
<path d="M101.382 100.566C110.07 101.604 118.833 103.466 127.32 105.589C125.765 110.957 124.124 116.373 122.885 121.815C119.192 121.283 115.994 121.306 112.423 122.475C111.216 121.364 110.383 119.24 109.655 117.781C107.919 114.354 106.266 110.89 104.694 107.388C103.648 105.122 102.678 102.709 101.382 100.566Z" fill="#543EFA"/>
<path d="M127.32 105.588C129.045 106.037 130.818 106.439 132.502 107.033C139.186 108.865 145.96 111.153 152.387 113.79C145.558 119.404 139.737 123.267 131.8 127.233C129.694 125.156 127.708 123.736 125.007 122.516L124.187 122.183C123.778 122.011 123.337 121.915 122.899 121.806C124.124 116.372 125.776 110.959 127.32 105.588Z" fill="#543EFA"/>
<path d="M127.32 105.588C129.045 106.037 130.818 106.439 132.502 107.033C131.5 106.794 130.518 106.525 129.525 106.253C128.198 111.707 126.625 117.142 125.004 122.528L124.184 122.195C123.775 122.023 123.334 121.926 122.896 121.818C124.124 116.372 125.776 110.959 127.32 105.588Z" fill="#F580F7"/>
<path d="M98.4633 100.185C99.4464 100.275 100.414 100.42 101.382 100.565C102.678 102.708 103.651 105.11 104.694 107.387C106.277 110.892 107.931 114.356 109.655 117.78C110.383 119.239 111.219 121.352 112.423 122.474C111.517 122.849 110.636 123.219 109.774 123.691C108.347 124.523 107.141 125.464 105.962 126.616C105.172 125.908 102.781 125.049 101.742 124.548C100.207 123.803 98.6949 123.017 97.2033 122.2C87.2006 116.592 77.9062 110.061 69.5166 102.244C68.2467 101.056 66.5112 99.7285 65.5724 98.2955C67.9318 98.0905 70.4288 98.2591 72.8051 98.2987C81.4034 98.4842 89.9524 99.112 98.4633 100.185Z" fill="#543EFA"/>
<path d="M98.4633 100.184C99.4464 100.274 100.414 100.419 101.382 100.565C102.678 102.707 103.651 105.109 104.694 107.387C106.277 110.891 107.931 114.356 109.655 117.779C110.383 119.238 111.219 121.351 112.423 122.473C111.517 122.848 110.636 123.218 109.774 123.69C107.949 119.759 105.934 115.908 104.083 111.981C102.336 108.288 100.721 104.51 98.9058 100.846C98.7854 100.585 98.6832 100.389 98.4633 100.184Z" fill="#F580F7"/>
<path d="M152.376 113.787C153.174 114.114 153.993 114.41 154.764 114.789C157.218 115.99 159.797 116.997 162.278 118.144C167.879 120.819 173.365 123.691 178.749 126.762C181.357 128.232 184.114 129.684 186.554 131.42C181.121 132.594 175.793 133.785 170.255 134.426C164.739 135.074 159.096 135.134 153.543 135.22C150.738 135.255 147.927 135.312 145.125 135.252C143.394 135.221 137.115 134.844 135.928 135.106C135.403 133.475 134.834 131.963 134.041 130.438L133.255 129.191C132.81 128.493 132.296 127.873 131.778 127.227C139.737 123.266 145.544 119.412 152.376 113.787Z" fill="#4633DC"/>
<path d="M152.376 113.788C153.175 114.114 153.993 114.411 154.765 114.79C157.219 115.991 159.798 116.997 162.278 118.145C156.243 123.053 141.691 128.613 134.052 130.442L133.266 129.195C132.822 128.497 132.308 127.876 131.789 127.23C139.738 123.267 145.544 119.413 152.376 113.788Z" fill="#543EFA"/>
<path d="M152.376 113.788C153.175 114.114 153.993 114.411 154.765 114.79C150.934 118.743 144.477 123.175 139.651 125.858C137.57 127.016 135.244 127.889 133.263 129.206C132.819 128.508 132.305 127.888 131.786 127.242C139.738 123.267 145.544 119.413 152.376 113.788Z" fill="#F580F7"/>
<path d="M186.562 131.434C187.223 131.867 187.901 132.281 188.525 132.764C192.119 135.405 200.41 141.744 201.174 146.224C201.315 147.066 201.204 147.864 200.67 148.545C198.505 151.322 191.127 152.023 187.726 152.351C174.313 153.628 160.341 152.126 147.088 150.017C144.627 149.63 142.178 149.199 139.724 148.742C138.173 148.449 136.605 148.043 135.04 147.842C135.12 147.024 135.427 146.125 135.622 145.326C136.325 142.544 136.756 140.359 136.43 137.475L135.947 135.123C137.135 134.861 143.405 135.224 145.144 135.269C147.947 135.329 150.758 135.272 153.562 135.237C159.113 135.163 164.759 135.091 170.274 134.443C175.804 133.788 181.122 132.594 186.562 131.434Z" fill="#4633DC"/>
<path d="M186.562 131.434C187.223 131.867 187.902 132.281 188.525 132.764C187.059 133.694 184.731 134.087 183.055 134.516C170.693 137.689 159.9 137.718 147.304 137.588C145.27 137.57 143.23 137.527 141.194 137.473C139.66 137.424 137.93 137.214 136.42 137.472L135.937 135.12C137.124 134.858 143.395 135.221 145.134 135.266C147.936 135.326 150.747 135.269 153.552 135.234C159.102 135.16 164.748 135.088 170.264 134.44C175.805 133.788 181.122 132.594 186.562 131.434Z" fill="#F580F7"/>
<path d="M62.5842 98.3884C63.5828 98.2902 64.5904 98.2905 65.5837 98.2988C66.5337 99.7348 68.258 101.059 69.5279 102.247C77.9175 110.065 87.2119 116.595 97.2147 122.204C98.7062 123.02 100.218 123.807 101.753 124.551C102.792 125.052 105.183 125.911 105.973 126.62C105.476 127.251 104.993 127.875 104.557 128.547C102.818 131.609 101.736 135.031 100.511 138.318C96.6446 137.15 92.8191 135.658 89.0636 134.173C84.2888 132.336 79.5964 130.33 74.9782 128.141C70.3601 125.951 65.8386 123.584 61.3996 121.048C56.7283 118.352 52.0918 115.486 48.125 111.795C46.2115 110.023 43.2948 107.184 43.2518 104.366C43.2377 103.498 43.5775 102.739 44.1861 102.139C47.4281 98.8885 58.0433 98.4993 62.5842 98.3884Z" fill="#543EFA"/>
<path d="M62.584 98.389C63.5826 98.2908 64.5901 98.2911 65.5835 98.2995C66.5335 99.7355 68.2578 101.06 69.5277 102.248C77.9173 110.065 87.2117 116.596 97.2144 122.204C98.706 123.021 100.218 123.807 101.753 124.552C102.792 125.053 105.183 125.912 105.973 126.62C105.476 127.252 104.993 127.875 104.557 128.547C98.473 125.884 92.7698 122.402 87.2567 118.707C78.3674 112.756 69.9529 106.167 62.584 98.389Z" fill="#F580F7"/>
<path d="M142.711 23.2672C145.142 24.3774 147.542 25.3353 149.802 26.8064C160.407 33.7198 167.512 46.3557 171.82 57.949C177.576 73.4061 179.761 92.2628 172.683 107.669C171.936 109.3 169.441 114.29 168.247 115.186C156.85 109.807 145.401 105.097 133.271 101.605C109.297 94.7097 77.9288 91.0299 53.177 93.7583C48.045 94.319 42.5464 95.079 37.6736 96.8384C36.0382 97.4218 35.044 98.073 33.9444 99.415C33.8751 98.8802 33.82 98.3372 33.8237 97.7985C33.9117 89.2934 40.9679 79.6994 45.9513 73.16C47.7645 70.7899 49.712 68.1928 51.8445 66.1022C52.7712 65.0846 53.6208 63.9979 54.5556 62.9946C56.9912 60.4113 59.528 57.9397 62.1885 55.5859C63.3455 54.5595 64.522 53.4185 65.9049 52.7059C66.2245 51.9778 67.8492 50.9956 68.4891 50.4992C72.9734 47.0499 77.6288 43.8514 82.4554 40.9038C84.4447 39.6857 86.4382 38.4087 88.5409 37.3896C102.957 29.3929 118.836 23.8486 135.369 22.8743C137.8 23.1088 140.248 22.9759 142.711 23.2672Z" fill="#543EFA"/>
<path d="M101.947 71.1491C102.169 71.1737 102.398 71.2126 102.613 71.2595C102.839 71.3096 103.051 71.3677 103.274 71.4288C103.494 71.5012 103.703 71.5704 103.92 71.6539C104.126 71.7343 104.34 71.829 104.54 71.9317C104.74 72.0344 104.936 72.1483 105.133 72.2622C105.327 72.3873 105.509 72.5093 105.7 72.6455C105.879 72.7786 106.056 72.923 106.229 73.0784C106.402 73.2339 106.564 73.3863 106.724 73.5499C106.817 73.6474 106.899 73.7419 106.989 73.8506C107.071 73.945 107.161 74.0537 107.24 74.1593C107.319 74.265 107.398 74.3706 107.477 74.4762C107.556 74.5819 107.621 74.6956 107.697 74.8124C107.762 74.9261 107.827 75.0398 107.891 75.1536C107.956 75.2673 108.018 75.3922 108.072 75.5029C108.133 75.6277 108.187 75.7384 108.238 75.8602C108.288 75.9821 108.339 76.1039 108.389 76.2257C108.44 76.3475 108.476 76.4775 108.516 76.5962C108.552 76.7262 108.591 76.8449 108.628 76.9749C108.664 77.1048 108.689 77.2317 108.715 77.3585C108.74 77.4854 108.765 77.6123 108.787 77.7503C108.812 77.8772 108.823 78.0121 108.837 78.1359C108.848 78.2709 108.862 78.3947 108.873 78.5297C108.884 78.6647 108.884 78.7966 108.884 78.9285C108.884 79.0604 108.884 79.1923 108.884 79.3242C108.82 81.3941 107.842 83.4293 106.309 84.8205C104.599 86.379 102.492 86.9293 100.219 86.8219C98.1338 86.5503 96.1929 85.6224 94.8231 84.0114C93.4502 82.4115 92.85 80.3996 93.0404 78.3045C93.0517 78.1757 93.0631 78.0468 93.0886 77.9099C93.1111 77.7841 93.1255 77.6441 93.148 77.5183C93.1704 77.3925 93.196 77.2555 93.2296 77.1328C93.2633 77.0101 93.3 76.8762 93.3336 76.7534C93.3673 76.6307 93.4151 76.4998 93.4488 76.3771C93.4936 76.2574 93.5414 76.1266 93.5862 76.0069C93.631 75.8873 93.687 75.7706 93.746 75.6429C93.8019 75.5262 93.8579 75.4096 93.9139 75.293C93.9698 75.1764 94.0369 75.0628 94.104 74.9493C94.1712 74.8357 94.2383 74.7221 94.3165 74.6116C94.3948 74.5011 94.4619 74.3876 94.5371 74.2882C94.6154 74.1777 94.6906 74.0784 94.7801 73.971C94.8664 73.8747 94.9447 73.7642 95.0311 73.6679C95.1174 73.5716 95.2038 73.4753 95.3013 73.3821C95.3989 73.2889 95.4852 73.1926 95.5797 73.1105C95.6772 73.0173 95.7717 72.9352 95.8773 72.8562C97.6133 71.4246 99.7458 70.9535 101.947 71.1491Z" fill="#BEF941"/>
<path d="M65.8825 52.6996C69.7912 52.6193 73.181 53.6444 76.0429 56.4202C76.1939 56.5696 76.3419 56.7301 76.4898 56.8906C76.6378 57.0511 76.7745 57.2085 76.9194 57.3802C77.0531 57.5488 77.1869 57.7174 77.3206 57.886C77.4543 58.0546 77.5738 58.2314 77.7045 58.4111C77.824 58.5878 77.9405 58.7757 78.06 58.9524C78.1764 59.1403 78.2817 59.3251 78.387 59.5099C78.4923 59.6947 78.5945 59.8907 78.6856 60.0836C78.7767 60.2765 78.8678 60.4694 78.9558 60.6735C79.0438 60.8775 79.1206 61.0785 79.1975 61.2795C79.2744 61.4805 79.3482 61.6927 79.4139 61.8907C79.4765 62.0998 79.5392 62.3089 79.5906 62.5149C79.6421 62.721 79.6906 62.9382 79.742 63.1442C79.7905 63.3614 79.8308 63.5644 79.8681 63.7786C79.9053 63.9927 79.9315 64.2038 79.9545 64.426C79.9806 64.6371 80.0037 64.8594 80.0156 65.0786C80.0275 65.2978 80.0424 65.5058 80.0432 65.7219C80.0804 69.175 78.7323 72.8241 76.2827 75.2836C73.6807 77.9053 70.296 79.2688 66.6106 79.2783C66.358 79.281 66.1195 79.2757 65.873 79.2561C65.6234 79.2476 65.3768 79.228 65.1333 79.1973C64.8868 79.1777 64.6464 79.1358 64.3917 79.102C64.1513 79.0601 63.8997 79.0151 63.6593 78.9732C63.4219 78.9201 63.1734 78.864 62.936 78.8109C62.7017 78.7467 62.4562 78.6794 62.225 78.604C61.9937 78.5287 61.7513 78.4502 61.5231 78.3637C61.2949 78.2771 61.0556 78.1875 60.8304 78.0898C60.6053 77.9921 60.3801 77.8944 60.1581 77.7856C59.936 77.6767 59.7139 77.5679 59.4949 77.4479C59.2759 77.3278 59.0569 77.2078 58.852 77.0797C58.6361 76.9486 58.4313 76.8204 58.2295 76.6812C58.0278 76.5419 57.826 76.4026 57.6274 76.2522C57.4287 76.1018 57.23 75.9513 57.0455 75.7928C56.861 75.6343 56.6654 75.4727 56.484 75.303C56.3026 75.1333 56.1212 74.9636 55.954 74.7859C53.7529 72.5751 52.1133 69.2347 51.8444 66.102C52.7711 65.0844 53.6208 63.9977 54.5556 62.9944C56.9911 60.411 59.5279 57.9394 62.1884 55.5857C63.3231 54.5532 64.4996 53.4121 65.8825 52.6996Z" fill="#DCFF93"/>
<path d="M88.527 37.3966C102.943 29.4 118.822 23.8556 135.355 22.8813C136.526 29.7279 135.008 36.4017 130.99 42.09C130.871 42.2613 130.752 42.4326 130.622 42.6009C130.503 42.7722 130.373 42.9405 130.246 43.0976C130.116 43.2659 129.989 43.423 129.859 43.5913C129.732 43.7484 129.59 43.9136 129.463 44.0707C129.325 44.2248 129.184 44.39 129.046 44.5441C128.908 44.6981 128.769 44.8522 128.62 45.0032C128.482 45.1572 128.332 45.3082 128.186 45.4481C128.037 45.5991 127.891 45.7389 127.741 45.8899C127.592 46.0409 127.434 46.1777 127.288 46.3175C127.131 46.4543 126.984 46.5942 126.816 46.7279C126.658 46.8647 126.501 47.0014 126.332 47.1352C126.175 47.2719 126.009 47.3945 125.841 47.5282C125.675 47.6508 125.506 47.7845 125.341 47.9071C125.175 48.0297 125.01 48.1522 124.833 48.2717C124.667 48.3943 124.491 48.5138 124.317 48.6222C124.14 48.7417 123.967 48.85 123.793 48.9584C123.619 49.0667 123.443 49.1862 123.258 49.2915C123.084 49.3999 122.899 49.5052 122.715 49.6105C122.53 49.7157 122.348 49.8099 122.163 49.9152C121.982 50.0093 121.797 50.1146 121.604 50.2057C121.422 50.2998 121.229 50.3909 121.036 50.482C120.843 50.573 120.654 50.653 120.472 50.7471C120.282 50.827 120.089 50.9181 119.899 50.998C119.709 51.0779 119.508 51.1548 119.318 51.2347C119.117 51.3116 118.931 51.3803 118.73 51.4572C118.532 51.5229 118.331 51.5997 118.136 51.6543C117.938 51.72 117.74 51.7857 117.545 51.8402C117.347 51.9059 117.141 51.9574 116.946 52.012C116.74 52.0635 116.545 52.118 116.339 52.1695C116.133 52.221 115.93 52.2613 115.724 52.3128C115.521 52.3531 115.315 52.4046 115.112 52.4449C114.909 52.4853 114.706 52.5256 114.492 52.5629C107.964 53.6646 101.804 52.3721 96.3929 48.5256C92.7779 45.9153 89.4762 41.8554 88.527 37.3966Z" fill="#BEF941"/>
<path d="M153.893 57.4388C153.927 57.448 153.963 57.446 153.997 57.4552C158.918 58.4082 163.358 61.7725 166.166 65.8409C166.261 65.975 166.353 66.1202 166.448 66.2543C166.54 66.3995 166.624 66.5305 166.716 66.6757C166.809 66.8209 166.89 66.9631 166.971 67.1052C167.052 67.2474 167.133 67.3896 167.211 67.5429C167.292 67.685 167.369 67.8384 167.45 67.9805C167.528 68.1338 167.598 68.2729 167.676 68.4263C167.754 68.5796 167.821 68.7298 167.888 68.8801C167.954 69.0304 168.021 69.1806 168.085 69.342C168.152 69.4923 168.215 69.6537 168.271 69.8009C168.335 69.9623 168.39 70.1095 168.454 70.271C168.507 70.4293 168.57 70.5907 168.623 70.7491C168.676 70.9074 168.728 71.0658 168.781 71.2242C168.833 71.3825 168.875 71.5378 168.924 71.7073C168.977 71.8657 169.015 72.0322 169.056 72.1875C169.095 72.3539 169.136 72.5092 169.175 72.6757C169.213 72.8421 169.254 72.9974 169.281 73.1608C169.32 73.3273 169.347 73.4907 169.374 73.6541C169.401 73.8175 169.429 73.9809 169.456 74.1443C169.483 74.3077 169.51 74.4711 169.523 74.6426C169.55 74.806 169.563 74.9775 169.579 75.1378C169.595 75.2982 169.608 75.4697 169.624 75.63C169.637 75.8015 169.653 75.9619 169.655 76.1303C169.668 76.3018 169.673 76.4591 169.675 76.6275C169.677 76.796 169.678 76.9644 169.683 77.1217C169.685 77.2901 169.687 77.4586 169.678 77.624C169.679 77.7924 169.67 77.9578 169.661 78.1232C169.651 78.2885 169.642 78.4539 169.633 78.6193C169.623 78.7847 169.614 78.9501 169.593 79.1124C169.584 79.2778 169.564 79.4401 169.54 79.6136C169.52 79.7759 169.496 79.9494 169.476 80.1117C169.455 80.274 169.431 80.4475 169.4 80.6068C169.379 80.7691 169.345 80.9395 169.313 81.0988C169.281 81.2581 169.247 81.4285 169.215 81.5878C169.183 81.747 169.137 81.9144 169.106 82.0737C169.063 82.2299 169.028 82.4003 168.985 82.5565C168.943 82.7127 168.897 82.8801 168.854 83.0363C168.811 83.1925 168.754 83.3568 168.711 83.513C168.657 83.6662 168.611 83.8335 168.557 83.9867C168.503 84.1398 168.446 84.3041 168.392 84.4573C168.338 84.6104 168.27 84.7717 168.216 84.9248C168.151 85.0749 168.083 85.2362 168.018 85.3863C167.953 85.5363 167.888 85.6864 167.808 85.8446C167.743 85.9947 167.667 86.1418 167.59 86.2888C167.514 86.4358 167.438 86.5829 167.362 86.7299C167.285 86.8769 167.209 87.024 167.122 87.1679C167.045 87.315 166.958 87.4589 166.87 87.6029C166.783 87.7469 166.695 87.8909 166.611 88.0237C166.524 88.1677 166.439 88.3005 166.341 88.4414C166.253 88.5854 166.158 88.7151 166.059 88.856C165.96 88.997 165.865 89.1267 165.769 89.2565C165.674 89.3862 165.575 89.5271 165.468 89.6538C165.373 89.7836 165.263 89.9215 165.156 90.0482C165.05 90.1749 164.943 90.3016 164.836 90.4283C164.73 90.555 164.623 90.6817 164.505 90.8053C164.398 90.932 164.281 91.0556 164.166 91.1681C164.048 91.2918 163.933 91.4043 163.815 91.5279C163.697 91.6515 163.583 91.764 163.457 91.8735C163.342 91.9859 163.213 92.1065 163.087 92.2159C162.961 92.3254 162.846 92.4379 162.72 92.5473C162.594 92.6567 162.468 92.7661 162.342 92.8756C162.216 92.985 162.082 93.0802 161.956 93.1896C161.819 93.296 161.696 93.3943 161.562 93.4895C161.428 93.5847 161.291 93.691 161.157 93.7863C161.023 93.8815 160.889 93.9767 160.744 94.0688C156.047 97.2439 150.56 98.0913 145.04 97.0462C139.972 96.0169 135.394 92.8067 132.495 88.5453C129.401 83.9905 128.467 78.516 129.509 73.1395C130.49 68.0703 133.615 63.2769 137.896 60.3955C142.708 57.2399 148.35 56.3511 153.893 57.4388Z" fill="#DCFF93"/>
<path d="M210.443 90.1109L210.449 90.1288C213.113 97.494 216.403 107.641 218.138 117.886C219.857 128.032 220.14 138.755 216.311 146.975L216.304 146.988L216.298 147.002C216.076 147.464 215.819 147.996 215.514 148.532C215.236 149.019 214.941 149.506 214.615 149.993C214.303 150.46 213.974 150.923 213.615 151.386L213.608 151.395L213.6 151.404C213.285 151.802 212.919 152.257 212.518 152.696C211.471 153.886 210.285 154.913 208.826 155.744C205.828 157.452 202.027 158.454 198.383 159.086C194.7 159.725 190.956 160.021 187.965 160.205C171.548 161.223 152.388 158.6 136.161 155.403C134.218 166.69 134.65 178.132 135.825 189.761C135.959 191.082 136.136 192.509 136.325 194.03C136.35 194.234 136.375 194.438 136.401 194.645C136.616 196.384 136.839 198.223 137.01 200.067C137.35 203.716 137.511 207.578 136.953 210.928L136.953 210.932C136.322 214.691 134.484 217.978 131.088 220.197L210.443 90.1109ZM210.443 90.1109L210.436 90.0931C204.326 73.9406 194.249 55.9728 182.312 43.2559C180.212 40.8184 177.909 38.5919 175.586 36.5076L175.585 36.5069C166.532 28.3923 155.566 22.1017 142.999 20.6883C141.647 20.5357 140.32 20.4953 139.099 20.4642C138.999 20.4616 138.901 20.4592 138.803 20.4567C137.665 20.4282 136.625 20.4021 135.589 20.311L135.4 20.2944L135.211 20.3054C118.225 21.294 101.988 26.9882 87.338 35.1041M210.443 90.1109L87.338 35.1041M87.338 35.1041C85.3548 36.0706 83.4701 37.2376 81.7233 38.3192C81.5119 38.4501 81.3026 38.5797 81.0953 38.7076C76.1842 41.6874 71.4548 44.9361 66.9075 48.4535C66.81 48.5269 66.6722 48.6231 66.4579 48.7727C66.4282 48.7934 66.397 48.8152 66.3643 48.838C66.1145 49.0125 65.8043 49.2306 65.4967 49.4644C65.1947 49.694 64.8464 49.9754 64.5292 50.2865C64.4076 50.4058 64.2535 50.5646 64.0949 50.7594C62.8343 51.5199 61.7363 52.5109 60.8877 53.2768C60.7375 53.4123 60.5952 53.5408 60.4611 53.6597L60.4584 53.6621C57.7541 56.0676 55.1514 58.5886 52.6621 61.2286L52.6569 61.2342L52.6516 61.2398C52.1383 61.7907 51.6566 62.3557 51.2134 62.8776L51.1277 62.9786C50.7231 63.4552 50.3504 63.8942 49.9677 64.3168C47.8187 66.4341 45.8716 68.9892 44.1722 71.2191C44.0752 71.3464 43.979 71.4727 43.8836 71.5977C41.3856 74.8629 38.272 79.023 35.7749 83.479C33.2999 87.8956 31.2668 92.8829 31.2222 97.7866L31.2222 97.7921C31.2177 98.4348 31.276 99.0489 31.3415 99.5811C31.3345 100.525 31.3254 101.777 31.6118 103.051C32.1208 105.324 33.3218 107.42 34.613 109.194C35.9187 110.988 37.4315 112.607 38.7202 113.912L38.7208 113.913C50.5451 125.885 72.0003 135.61 87.1159 141.443L87.1178 141.444C89.4923 142.358 91.9341 143.205 94.328 144.036C94.7077 144.168 95.0862 144.299 95.4631 144.43C92.8962 150.937 90.1306 157.282 86.5926 163.117C84.1522 167.128 81.5027 171.001 78.6577 174.727C77.5769 176.134 76.5076 177.476 75.4222 178.838C74.6248 179.838 73.8187 180.85 72.9929 181.906L72.9901 181.91L72.9506 181.961C71.1117 184.321 68.7566 187.344 67.2665 190.651C65.7389 194.04 64.9758 198.048 66.7918 202.161L87.338 35.1041ZM86.5278 216.578C89.2478 217.611 92.2802 218.726 95.3166 219.405M86.5278 216.578L104.117 218.983L103.574 221.523C103.574 221.523 103.573 221.523 103.572 221.523C102.104 221.209 100.672 220.822 99.3086 220.448L98.9743 220.356C97.7164 220.011 96.5202 219.683 95.3166 219.405M86.5278 216.578C83.2885 215.349 79.25 213.655 75.6193 211.38M86.5278 216.578L75.6193 211.38M95.3166 219.405C95.3194 219.405 95.3222 219.406 95.325 219.407L95.8911 216.873L95.3077 219.403C95.3107 219.403 95.3136 219.404 95.3166 219.405ZM75.6193 211.38C72.0303 209.131 68.5415 206.133 66.7924 202.162L75.6193 211.38Z" stroke="#4633DC" stroke-width="5.19426"/>
<path fill-rule="evenodd" clip-rule="evenodd" d="M70.2942 206.366C85.3071 197.699 90.4509 178.502 81.7832 163.489C73.1155 148.476 53.9185 143.332 38.9055 152C23.8926 160.667 18.7488 179.864 27.4165 194.877C36.0842 209.89 55.2812 215.034 70.2942 206.366ZM72.7804 210.673C90.1716 200.632 96.1303 178.394 86.0895 161.003C76.0487 143.611 53.8106 137.653 36.4193 147.693C19.0281 157.734 13.0694 179.972 23.1102 197.364C33.1511 214.755 55.3892 220.714 72.7804 210.673Z" fill="#4633DC"/>
<path d="M85.4707 170.931C90.0404 187.985 79.9197 205.515 62.8653 210.085C45.811 214.654 28.2813 204.533 23.7116 187.479C19.142 170.425 29.2627 152.895 46.317 148.325C63.3714 143.756 80.9011 153.877 85.4707 170.931Z" fill="#FFC412"/>
<path fill-rule="evenodd" clip-rule="evenodd" d="M68.3995 203.082C81.5989 195.461 86.1214 178.583 78.5007 165.383C70.88 152.184 54.0019 147.661 40.8024 155.282C27.6029 162.903 23.0805 179.781 30.7012 192.98C38.3219 206.18 55.2 210.702 68.3995 203.082ZM70.5854 206.868C85.8758 198.04 91.1147 178.488 82.2868 163.197C73.4588 147.907 53.907 142.668 38.6165 151.496C23.326 160.324 18.0871 179.876 26.9151 195.166C35.7431 210.457 55.2949 215.696 70.5854 206.868Z" fill="#FFE8A1"/>
<path fill-rule="evenodd" clip-rule="evenodd" d="M47.8104 167.454L50.6612 166.69L49.8913 163.817L55.5928 162.289L56.3626 165.162L58.9688 164.464L64.7104 167.809L66.503 174.499L65.2841 176.63L67.405 177.866L69.1977 184.556L65.8978 190.323L63.2917 191.022L64.0616 193.895L58.3601 195.423L57.5902 192.549L54.7395 193.313L55.5093 196.187L49.8079 197.714L49.038 194.841L46.1872 195.605L44.6474 189.858L47.4982 189.094L43.6487 174.728L40.798 175.492L39.2582 169.745L42.1089 168.981L41.339 166.108L47.0405 164.581L47.8104 167.454ZM53.1997 187.567L61.9965 185.21L62.8584 183.703L62.3413 181.773L60.8417 180.9L52.0448 183.257L53.1997 187.567ZM50.505 177.51L49.3502 173.2L58.147 170.843L59.6467 171.717L60.1638 173.647L59.3019 175.153L50.505 177.51Z" fill="#FFE8A2"/>
<path fill-rule="evenodd" clip-rule="evenodd" d="M212.151 80.5573C227.147 83.7746 241.911 74.2267 245.128 59.2314C248.345 44.2361 238.798 29.4719 223.802 26.2546C208.807 23.0373 194.043 32.5852 190.825 47.5805C187.608 62.5758 197.156 77.34 212.151 80.5573ZM211.229 84.8585C228.599 88.5855 245.702 77.525 249.429 60.1542C253.156 42.7834 242.096 25.6803 224.725 21.9534C207.354 18.2264 190.251 29.2869 186.524 46.6577C182.797 64.0285 193.858 81.1316 211.229 84.8585Z" fill="#4633DC"/>
<path d="M243.133 66.3033C236.015 80.2073 218.973 85.7085 205.069 78.5905C191.165 71.4726 185.664 54.431 192.782 40.527C199.9 26.623 216.941 21.1218 230.845 28.2397C244.749 35.3576 250.251 52.3993 243.133 66.3033Z" fill="#F580F7"/>
<path fill-rule="evenodd" clip-rule="evenodd" d="M212.855 77.2774C226.039 80.106 239.02 71.7114 241.849 58.5275C244.677 45.3435 236.283 32.3628 223.099 29.5341C209.915 26.7054 196.934 35.1 194.105 48.284C191.277 61.4679 199.671 74.4487 212.855 77.2774ZM212.044 81.059C227.316 84.3358 242.354 74.6113 245.63 59.3389C248.907 44.0664 239.183 29.0292 223.91 25.7525C208.638 22.4757 193.6 32.2001 190.324 47.4726C187.047 62.7451 196.771 77.7823 212.044 81.059Z" fill="#FEDDFF"/>
<path d="M233.042 47.8161C233.444 48.0217 233.459 48.2687 233.036 48.5566L220.266 56.6743L223.781 58.4739C224.077 58.6253 224.142 58.8271 224.006 59.0936L223.442 60.1945C223.306 60.4609 223.1 60.5327 222.804 60.3812L218.62 58.2391L217.575 60.2796L221.76 62.4218C222.056 62.5732 222.121 62.775 221.981 63.0485L221.418 64.1494C221.281 64.4158 221.076 64.4876 220.78 64.3361L216.595 62.194L215.303 64.7184C215.152 65.0129 214.936 65.1056 214.661 64.965L210.477 62.8229C210.209 62.6858 210.158 62.456 210.308 62.1615L211.601 59.6371L207.445 57.5094C207.177 57.3724 207.111 57.1706 207.251 56.8971L207.818 55.7892C207.955 55.5227 208.16 55.451 208.428 55.588L212.584 57.7158L213.629 55.6752L209.473 53.5475C209.205 53.4104 209.139 53.2087 209.279 52.9352L209.843 51.8343C209.979 51.5678 210.181 51.5031 210.449 51.6402L213.985 53.4505L213.072 38.3364C213.062 37.8179 213.261 37.6897 213.67 37.8988L218.368 40.3042C218.636 40.4413 218.814 40.7007 218.875 41.1034L219.009 51.3493L227.423 45.4885C227.697 45.2835 228.072 45.2631 228.368 45.4322L233.038 47.8231L233.042 47.8161Z" fill="#FEDDFF"/>
</svg>
