<svg width="605" height="504" viewBox="0 0 605 504" fill="none" xmlns="http://www.w3.org/2000/svg">
<path d="M307.92 46.1677C331.507 48.8177 352.345 60.6258 369.81 76.299C374.363 80.3818 378.79 84.668 382.784 89.3124C405.964 113.961 425.707 149.057 437.692 180.717C448.202 209.757 463.359 260.012 449.493 289.712C449.07 290.645 448.61 291.543 448.104 292.429C447.599 293.315 447.078 294.173 446.512 295.019C445.947 295.864 445.365 296.682 444.739 297.487C444.113 298.293 443.47 299.07 442.79 299.812C442.143 296.609 442.613 294.546 441.317 290.927C437.765 281.019 426.792 272.271 418.753 265.947C414.106 262.291 409.372 258.778 404.529 255.402C399.687 252.027 394.763 248.772 389.752 245.66C384.742 242.548 379.622 239.573 374.438 236.747C369.254 233.92 364.005 231.243 358.669 228.709C361.04 226.929 365.999 217.018 367.483 213.779C381.547 183.18 377.206 145.728 365.768 115.028C357.208 92.0024 343.084 66.928 322.017 53.1748C317.527 50.2529 312.751 48.3725 307.92 46.1677Z" fill="#4633DC" stroke="#4633DC" stroke-linejoin="round"/>
<path d="M271.085 242.645L272.715 243.306C278.082 245.729 282.028 248.55 286.213 252.674C287.249 253.935 288.264 255.19 289.147 256.576L290.709 259.052C292.286 262.081 293.417 265.084 294.459 268.324L295.419 272.994C296.087 278.729 295.209 283.063 293.812 288.589C293.425 290.174 292.816 291.961 292.657 293.585C291.994 296.525 291.167 299.539 290.77 302.551C285.688 327.343 286.551 352.358 289.076 377.4C290.296 389.552 293.358 406.116 291.365 418.078C290.314 424.342 287.348 429.51 281.976 433.018C268.561 441.779 246.128 438.135 231.204 434.928C225.687 433.75 220.334 431.974 214.857 430.735C222.315 425.965 228.3 419.265 232.963 411.823C245.574 391.738 248.407 366.544 250.017 343.374C250.8 332.176 251.262 320.842 253.085 309.762C256.856 286.97 263.922 264.508 271.085 242.645Z" fill="#ED56F0"/>
<path d="M268.521 241.897C269.37 242.106 270.269 242.305 271.081 242.646C263.917 264.509 256.852 286.971 253.121 309.703C251.298 320.783 250.836 332.117 250.054 343.315C248.443 366.485 245.588 391.673 232.999 411.763C228.314 419.2 222.351 425.905 214.893 430.676C209.233 429.412 203.536 427.326 198.117 425.27C185.465 420.469 167.538 412.389 161.786 399.377C156.167 386.663 165.984 373.985 173.451 364.404C177.173 359.61 181.032 354.926 184.738 350.104C190.508 342.535 195.871 334.713 200.817 326.585C209.003 313.079 215.106 298.383 220.781 283.688L224.079 274.704C226.519 268.154 228.663 261.379 232.118 255.297C232.985 253.962 233.944 252.724 234.932 251.469C237.276 249.181 239.649 247.306 242.508 245.659C244.219 244.722 245.971 243.987 247.772 243.241C254.83 240.886 261.206 240.846 268.521 241.897Z" fill="#F580F7"/>
<path d="M403.448 203.192C403.726 203.22 403.998 203.271 404.248 203.316C404.498 203.36 404.792 203.417 405.059 203.49C405.325 203.563 405.597 203.614 405.863 203.687C406.129 203.759 406.395 203.832 406.655 203.927C406.915 204.022 407.175 204.118 407.435 204.213C407.695 204.308 407.949 204.425 408.186 204.514C408.44 204.631 408.672 204.742 408.926 204.859C409.18 204.977 409.406 205.11 409.653 205.249C409.901 205.389 410.127 205.522 410.352 205.655C410.578 205.789 410.82 205.95 411.039 206.106C411.259 206.261 411.479 206.416 411.698 206.572C411.918 206.727 412.131 206.905 412.345 207.083C412.558 207.26 412.772 207.438 412.963 207.609C413.177 207.787 413.362 207.981 413.547 208.174C413.732 208.368 413.94 208.568 414.125 208.762C414.31 208.955 414.489 209.171 414.669 209.387C414.87 209.609 415.043 209.847 415.216 210.085C415.389 210.323 415.562 210.561 415.735 210.799C415.909 211.037 416.076 211.297 416.22 211.552C416.365 211.806 416.532 212.066 416.677 212.32C416.822 212.574 416.961 212.85 417.077 213.121C417.216 213.397 417.333 213.667 417.449 213.937C417.566 214.207 417.683 214.478 417.771 214.764C417.859 215.05 417.976 215.32 418.064 215.607C418.153 215.893 418.241 216.179 418.307 216.459C418.373 216.74 418.455 217.048 418.499 217.322C418.56 217.625 418.604 217.899 418.664 218.201C418.702 218.497 418.74 218.794 418.778 219.09C418.815 219.386 418.831 219.677 418.841 219.989C418.857 220.279 418.866 220.592 418.86 220.876C418.853 221.16 418.863 221.472 418.829 221.772C418.816 222.079 418.787 222.357 418.753 222.657C418.285 227.58 416.077 232.241 412.208 235.398C408.185 238.68 403.482 239.75 398.391 239.189C393.511 238.209 389.086 236.354 385.948 232.325C385.769 232.109 385.595 231.871 385.444 231.639C385.271 231.401 385.12 231.169 384.97 230.937C384.819 230.705 384.674 230.451 384.529 230.197C384.384 229.943 384.261 229.695 384.117 229.441C383.994 229.193 383.877 228.923 383.755 228.675C383.638 228.404 383.537 228.162 383.427 227.87C383.333 227.606 383.238 227.342 383.15 227.055C383.055 226.791 382.989 226.511 382.901 226.225C382.835 225.945 382.768 225.664 382.702 225.384C382.636 225.104 382.592 224.83 382.548 224.556C382.504 224.282 382.466 223.985 382.422 223.711C382.384 223.415 382.362 223.147 382.347 222.857C382.331 222.566 382.315 222.276 382.315 222.014C382.3 221.724 382.306 221.44 382.312 221.156C382.319 220.871 382.325 220.587 382.354 220.309C382.382 220.031 382.411 219.753 382.446 219.453C383.059 214.522 385.517 209.906 389.478 206.846C393.575 203.727 398.398 202.571 403.448 203.192Z" fill="#B0EE2C"/>
<path d="M382.792 89.2914C405.972 113.94 425.715 149.036 437.7 180.696C431.112 181.25 424.338 179.179 418.363 176.542C401.812 169.267 389.536 154.754 383.046 138.085C377.057 122.72 376.038 104.619 382.792 89.2914Z" fill="#B0EE2C"/>
<path d="M91.7704 197.402C93.9554 194.736 95.9531 193.449 99.1807 192.284C108.863 188.79 119.789 187.28 129.987 186.167C179.171 180.748 241.503 188.056 289.14 201.75C313.244 208.688 335.994 218.042 358.641 228.725C363.977 231.259 369.226 233.936 374.41 236.763C379.595 239.589 384.692 242.558 389.725 245.676C394.735 248.788 399.687 252.027 404.502 255.418C409.345 258.794 414.078 262.307 418.725 265.963C426.758 272.309 437.738 281.035 441.29 290.943C442.586 294.562 442.115 296.625 442.762 299.828C440.994 301.846 439.06 303.508 436.715 304.843C426.348 310.747 409.302 312.319 397.496 313.04C363.791 315.123 323.923 309.346 290.764 302.573C291.155 299.583 291.981 296.569 292.65 293.607C292.81 291.983 293.419 290.196 293.806 288.611C295.202 283.084 296.059 278.744 295.413 273.016L294.453 268.345C293.411 265.105 292.279 262.103 290.702 259.074L289.141 256.597C288.258 255.212 287.237 253.979 286.206 252.696C282.022 248.571 278.075 245.751 272.709 243.328L271.079 242.667C270.267 242.325 269.39 242.132 268.519 241.918C261.181 240.86 254.828 240.907 247.732 243.227C245.93 243.973 244.179 244.708 242.468 245.645C239.631 247.298 237.235 249.167 234.891 251.456C233.904 252.71 232.945 253.948 232.078 255.283C228.622 261.365 226.472 268.162 224.038 274.69L220.74 283.675C213.576 281.116 206.356 278.757 199.263 276.027C169.191 264.429 127.534 245.44 104.901 222.537C99.9006 217.474 93.7215 210.54 92.1356 203.458C91.7067 201.458 91.7577 199.447 91.7704 197.402Z" fill="#F580F7"/>
<path d="M225.798 199.694C243.063 201.755 260.475 205.454 277.34 209.669C274.249 220.33 270.989 231.088 268.526 241.897C261.188 240.839 254.834 240.886 247.738 243.206C245.339 241.001 243.683 236.782 242.237 233.885C238.788 227.078 235.502 220.198 232.38 213.243C230.301 208.742 228.373 203.949 225.798 199.694Z" fill="#543EFA"/>
<path d="M277.34 209.668C280.767 210.56 284.29 211.358 287.638 212.537C300.918 216.176 314.379 220.721 327.15 225.959C313.58 237.109 302.013 244.781 286.242 252.658C282.057 248.534 278.111 245.713 272.745 243.29L271.114 242.629C270.302 242.287 269.425 242.095 268.555 241.88C270.99 231.087 274.272 220.336 277.34 209.668Z" fill="#543EFA"/>
<path d="M277.34 209.668C280.767 210.56 284.29 211.358 287.638 212.537C285.646 212.063 283.695 211.529 281.722 210.988C279.085 221.821 275.958 232.615 272.739 243.312L271.108 242.651C270.296 242.31 269.419 242.117 268.549 241.902C270.99 231.087 274.272 220.336 277.34 209.668Z" fill="#F580F7"/>
<path d="M219.995 198.939C221.949 199.117 223.872 199.406 225.795 199.694C228.371 203.95 230.304 208.721 232.377 213.244C235.522 220.205 238.808 227.085 242.235 233.885C243.681 236.783 245.343 240.979 247.735 243.207C245.934 243.952 244.183 244.688 242.472 245.625C239.635 247.277 237.239 249.147 234.895 251.435C233.326 250.028 228.574 248.321 226.511 247.327C223.46 245.848 220.456 244.286 217.492 242.664C197.615 231.525 179.147 218.555 162.476 203.027C159.952 200.668 156.504 198.032 154.638 195.186C159.327 194.779 164.288 195.114 169.01 195.192C186.096 195.561 203.083 196.808 219.995 198.939Z" fill="#543EFA"/>
<path d="M219.998 198.938C221.952 199.116 223.875 199.405 225.798 199.693C228.374 203.949 230.307 208.72 232.38 213.243C235.525 220.204 238.81 227.084 242.238 233.884C243.684 236.782 245.346 240.978 247.738 243.206C245.937 243.951 244.186 244.687 242.475 245.624C238.847 237.816 234.843 230.166 231.165 222.368C227.694 215.032 224.484 207.529 220.878 200.251C220.638 199.733 220.435 199.344 219.998 198.938Z" fill="#F580F7"/>
<path d="M327.125 225.954C328.711 226.603 330.337 227.192 331.871 227.945C336.747 230.33 341.872 232.329 346.801 234.609C357.93 239.921 368.833 245.624 379.531 251.724C384.713 254.645 390.192 257.528 395.039 260.976C384.245 263.308 373.656 265.673 362.652 266.947C351.692 268.233 340.479 268.353 329.444 268.523C323.871 268.592 318.285 268.706 312.717 268.586C309.277 268.525 296.801 267.776 294.441 268.297C293.399 265.057 292.268 262.054 290.691 259.025L289.129 256.549C288.246 255.163 287.225 253.93 286.195 252.647C302.01 244.781 313.549 237.126 327.125 225.954Z" fill="#4633DC"/>
<path d="M327.126 225.954C328.712 226.603 330.338 227.191 331.872 227.945C336.748 230.329 341.873 232.329 346.802 234.609C334.809 244.355 305.893 255.399 290.714 259.031L289.153 256.554C288.269 255.169 287.249 253.936 286.218 252.653C302.011 244.781 313.55 237.126 327.126 225.954Z" fill="#543EFA"/>
<path d="M327.126 225.954C328.712 226.603 330.338 227.191 331.872 227.945C324.26 235.795 311.43 244.598 301.84 249.928C297.705 252.226 293.082 253.962 289.147 256.577C288.263 255.191 287.243 253.958 286.212 252.675C302.011 244.781 313.55 237.126 327.126 225.954Z" fill="#F580F7"/>
<path d="M395.057 261.004C396.371 261.864 397.719 262.686 398.957 263.645C406.1 268.89 422.576 281.48 424.092 290.378C424.373 292.051 424.153 293.635 423.091 294.988C418.789 300.504 404.129 301.896 397.371 302.546C370.717 305.084 342.955 302.1 316.619 297.911C311.729 297.143 306.863 296.286 301.986 295.379C298.904 294.797 295.788 293.991 292.679 293.592C292.839 291.968 293.448 290.181 293.835 288.595C295.231 283.069 296.088 278.729 295.442 273.001L294.482 268.33C296.842 267.809 309.301 268.53 312.757 268.619C318.326 268.739 323.911 268.626 329.484 268.556C340.514 268.409 351.732 268.266 362.692 266.98C373.681 265.678 384.247 263.308 395.057 261.004Z" fill="#4633DC"/>
<path d="M395.056 261.004C396.37 261.864 397.717 262.686 398.956 263.645C396.042 265.491 391.418 266.273 388.086 267.124C363.522 273.426 342.076 273.484 317.047 273.226C313.004 273.191 308.951 273.105 304.905 272.997C301.856 272.9 298.419 272.483 295.418 272.995L294.459 268.324C296.818 267.803 309.278 268.525 312.734 268.614C318.303 268.734 323.888 268.62 329.461 268.55C340.49 268.403 351.709 268.26 362.669 266.974C373.679 265.678 384.246 263.308 395.056 261.004Z" fill="#F580F7"/>
<path d="M148.701 195.369C150.686 195.174 152.688 195.175 154.662 195.192C156.549 198.044 159.976 200.674 162.499 203.033C179.17 218.56 197.639 231.53 217.515 242.67C220.479 244.292 223.483 245.854 226.534 247.333C228.597 248.327 233.35 250.034 234.919 251.441C233.931 252.695 232.972 253.933 232.105 255.268C228.649 261.35 226.499 268.147 224.066 274.676C216.382 272.356 208.781 269.392 201.318 266.442C191.83 262.795 182.506 258.811 173.329 254.462C164.153 250.113 155.168 245.412 146.347 240.375C137.065 235.02 127.852 229.327 119.97 221.998C116.168 218.478 110.372 212.84 110.286 207.241C110.258 205.518 110.934 204.011 112.143 202.818C118.585 196.363 139.678 195.59 148.701 195.369Z" fill="#543EFA"/>
<path d="M148.702 195.369C150.686 195.174 152.689 195.175 154.663 195.191C156.55 198.044 159.977 200.674 162.5 203.033C179.171 218.56 197.639 231.53 217.516 242.67C220.48 244.292 223.484 245.854 226.535 247.333C228.598 248.327 233.35 250.034 234.919 251.441C233.932 252.695 232.972 253.933 232.106 255.268C220.017 249.979 208.684 243.062 197.729 235.724C180.065 223.904 163.345 210.817 148.702 195.369Z" fill="#F580F7"/>
<path d="M307.92 46.1687C312.751 48.3736 317.521 50.2761 322.011 53.198C343.084 66.929 357.202 92.0257 365.762 115.052C377.2 145.751 381.541 183.204 367.477 213.802C365.993 217.041 361.034 226.952 358.663 228.733C336.016 218.049 313.266 208.695 289.162 201.758C241.525 188.063 179.193 180.755 130.009 186.174C119.811 187.287 108.885 188.797 99.2023 192.291C95.9526 193.45 93.977 194.743 91.792 197.409C91.6542 196.346 91.5447 195.268 91.5521 194.198C91.7269 177.306 105.748 158.251 115.651 145.263C119.254 140.555 123.123 135.397 127.361 131.245C129.202 129.224 130.891 127.066 132.748 125.073C137.588 119.942 142.629 115.033 147.915 110.358C150.214 108.32 152.552 106.053 155.3 104.638C155.935 103.192 159.164 101.241 160.435 100.255C169.346 93.4043 178.597 87.0518 188.187 81.1974C192.14 78.778 196.102 76.2417 200.28 74.2177C228.925 58.3352 260.478 47.3234 293.332 45.3883C298.162 45.854 303.026 45.5901 307.92 46.1687Z" fill="#543EFA"/>
<path d="M226.921 141.271C227.361 141.32 227.816 141.397 228.244 141.49C228.693 141.589 229.114 141.705 229.558 141.826C229.995 141.97 230.41 142.107 230.842 142.273C231.251 142.433 231.676 142.621 232.073 142.825C232.47 143.029 232.861 143.255 233.252 143.481C233.636 143.73 233.999 143.972 234.378 144.243C234.734 144.507 235.085 144.794 235.429 145.103C235.774 145.411 236.096 145.714 236.412 146.039C236.597 146.233 236.76 146.42 236.939 146.636C237.103 146.824 237.282 147.04 237.439 147.249C237.596 147.459 237.753 147.669 237.91 147.879C238.067 148.089 238.195 148.314 238.346 148.546C238.475 148.772 238.604 148.998 238.733 149.224C238.861 149.45 238.984 149.698 239.091 149.918C239.213 150.166 239.32 150.386 239.42 150.628C239.521 150.87 239.621 151.112 239.722 151.354C239.822 151.595 239.895 151.854 239.973 152.089C240.045 152.347 240.124 152.583 240.196 152.841C240.268 153.099 240.318 153.351 240.368 153.603C240.418 153.855 240.468 154.107 240.512 154.382C240.563 154.634 240.584 154.902 240.612 155.147C240.634 155.416 240.662 155.661 240.684 155.93C240.706 156.198 240.705 156.46 240.705 156.722C240.705 156.984 240.704 157.246 240.704 157.508C240.578 161.619 238.635 165.661 235.589 168.424C232.19 171.519 228.004 172.612 223.486 172.399C219.343 171.86 215.487 170.017 212.765 166.817C210.037 163.639 208.844 159.643 209.222 155.482C209.245 155.226 209.267 154.97 209.318 154.698C209.363 154.449 209.391 154.171 209.436 153.921C209.481 153.671 209.532 153.399 209.598 153.155C209.665 152.911 209.738 152.645 209.805 152.402C209.872 152.158 209.967 151.898 210.034 151.654C210.123 151.417 210.218 151.157 210.307 150.919C210.396 150.681 210.507 150.45 210.624 150.196C210.736 149.964 210.847 149.733 210.958 149.501C211.069 149.269 211.203 149.044 211.336 148.818C211.469 148.593 211.603 148.367 211.758 148.148C211.914 147.928 212.047 147.703 212.197 147.505C212.352 147.286 212.502 147.089 212.679 146.875C212.851 146.684 213.006 146.465 213.178 146.273C213.35 146.082 213.521 145.891 213.715 145.706C213.909 145.52 214.081 145.329 214.268 145.166C214.462 144.981 214.65 144.818 214.86 144.661C218.309 141.818 222.547 140.882 226.921 141.271Z" fill="#BEF941"/>
<path d="M155.256 104.626C163.023 104.467 169.759 106.503 175.446 112.016C175.746 112.312 176.04 112.631 176.334 112.95C176.628 113.269 176.9 113.582 177.188 113.923C177.453 114.257 177.719 114.592 177.985 114.927C178.25 115.262 178.488 115.613 178.748 115.97C178.985 116.321 179.216 116.694 179.454 117.045C179.685 117.418 179.894 117.785 180.104 118.152C180.313 118.519 180.516 118.909 180.697 119.292C180.878 119.675 181.059 120.058 181.234 120.463C181.409 120.869 181.562 121.268 181.714 121.667C181.867 122.066 182.014 122.488 182.144 122.881C182.269 123.296 182.393 123.712 182.495 124.121C182.598 124.53 182.694 124.961 182.796 125.371C182.893 125.802 182.973 126.205 183.047 126.631C183.121 127.056 183.173 127.475 183.218 127.917C183.27 128.336 183.316 128.777 183.34 129.213C183.363 129.648 183.393 130.061 183.395 130.49C183.469 137.349 180.79 144.596 175.922 149.481C170.752 154.688 164.026 157.396 156.703 157.415C156.201 157.421 155.727 157.41 155.237 157.371C154.741 157.354 154.251 157.315 153.768 157.254C153.278 157.215 152.8 157.132 152.294 157.065C151.816 156.982 151.316 156.892 150.838 156.809C150.367 156.704 149.873 156.592 149.401 156.487C148.936 156.359 148.448 156.226 147.988 156.076C147.529 155.926 147.047 155.77 146.594 155.599C146.14 155.427 145.665 155.249 145.217 155.055C144.77 154.861 144.323 154.667 143.881 154.45C143.44 154.234 142.999 154.018 142.564 153.78C142.128 153.541 141.693 153.303 141.286 153.049C140.857 152.788 140.45 152.534 140.049 152.257C139.648 151.98 139.247 151.704 138.853 151.405C138.458 151.106 138.063 150.807 137.696 150.493C137.33 150.178 136.941 149.857 136.581 149.52C136.22 149.183 135.86 148.846 135.527 148.493C131.154 144.102 127.896 137.467 127.361 131.245C129.203 129.224 130.891 127.066 132.749 125.073C137.588 119.942 142.629 115.033 147.916 110.358C150.171 108.308 152.508 106.041 155.256 104.626Z" fill="#DCFF93"/>
<path d="M200.25 74.2323C228.895 58.3499 260.448 47.3381 293.301 45.403C295.627 59.0013 292.612 72.2562 284.627 83.554C284.391 83.8943 284.154 84.2346 283.896 84.5688C283.66 84.9091 283.401 85.2433 283.149 85.5554C282.89 85.8896 282.638 86.2016 282.379 86.5358C282.127 86.8479 281.846 87.176 281.594 87.4881C281.319 87.7941 281.038 88.1222 280.764 88.4282C280.489 88.7341 280.214 89.0401 279.918 89.34C279.643 89.646 279.346 89.9459 279.056 90.2237C278.759 90.5236 278.468 90.8013 278.171 91.1012C277.875 91.4011 277.562 91.6728 277.271 91.9505C276.958 92.2222 276.667 92.4999 276.332 92.7655C276.02 93.0372 275.707 93.3089 275.372 93.5745C275.059 93.8461 274.73 94.0896 274.395 94.3552C274.066 94.5986 273.731 94.8642 273.402 95.1076C273.073 95.3511 272.744 95.5945 272.393 95.8319C272.064 96.0753 271.713 96.3126 271.368 96.5278C271.016 96.7652 270.671 96.9804 270.326 97.1956C269.981 97.4108 269.63 97.6482 269.263 97.8573C268.918 98.0725 268.551 98.2816 268.183 98.4907C267.816 98.6999 267.455 98.8868 267.088 99.0959C266.727 99.2829 266.359 99.492 265.976 99.6729C265.615 99.8599 265.232 100.041 264.848 100.222C264.465 100.403 264.088 100.561 263.727 100.748C263.349 100.907 262.966 101.088 262.589 101.247C262.211 101.405 261.812 101.558 261.435 101.717C261.035 101.869 260.664 102.006 260.265 102.159C259.871 102.289 259.472 102.442 259.085 102.55C258.691 102.681 258.298 102.811 257.911 102.919C257.517 103.05 257.108 103.152 256.721 103.26C256.311 103.363 255.924 103.471 255.515 103.573C255.105 103.676 254.702 103.756 254.292 103.858C253.889 103.938 253.48 104.04 253.076 104.12C252.673 104.2 252.27 104.281 251.844 104.355C238.873 106.543 226.633 103.976 215.88 96.3361C208.696 91.1516 202.136 83.088 200.25 74.2323Z" fill="#BEF941"/>
<path d="M330.143 114.037C330.209 114.055 330.282 114.051 330.348 114.069C340.127 115.962 348.95 122.644 354.529 130.725C354.718 130.991 354.901 131.279 355.09 131.546C355.273 131.834 355.44 132.094 355.623 132.383C355.806 132.671 355.967 132.953 356.128 133.236C356.289 133.518 356.45 133.8 356.605 134.105C356.766 134.387 356.921 134.692 357.082 134.974C357.237 135.279 357.375 135.555 357.53 135.86C357.685 136.164 357.818 136.462 357.951 136.761C358.083 137.059 358.216 137.358 358.342 137.678C358.475 137.977 358.602 138.297 358.712 138.59C358.839 138.91 358.949 139.203 359.076 139.523C359.181 139.838 359.307 140.158 359.412 140.473C359.516 140.787 359.62 141.102 359.725 141.417C359.829 141.731 359.912 142.039 360.01 142.376C360.114 142.691 360.191 143.021 360.273 143.33C360.349 143.66 360.431 143.969 360.508 144.299C360.584 144.63 360.666 144.938 360.72 145.263C360.796 145.594 360.85 145.918 360.904 146.243C360.958 146.567 361.012 146.892 361.066 147.216C361.12 147.541 361.174 147.865 361.2 148.206C361.254 148.531 361.28 148.871 361.312 149.19C361.344 149.508 361.37 149.849 361.401 150.167C361.427 150.508 361.459 150.826 361.463 151.161C361.488 151.501 361.498 151.814 361.502 152.148C361.505 152.483 361.509 152.817 361.519 153.13C361.522 153.464 361.526 153.799 361.507 154.127C361.511 154.462 361.492 154.79 361.474 155.119C361.455 155.447 361.437 155.776 361.418 156.104C361.399 156.433 361.381 156.761 361.34 157.084C361.322 157.412 361.281 157.735 361.234 158.079C361.193 158.401 361.146 158.746 361.106 159.068C361.065 159.391 361.018 159.735 360.955 160.052C360.915 160.374 360.846 160.713 360.783 161.029C360.72 161.345 360.651 161.684 360.588 162C360.525 162.316 360.434 162.649 360.371 162.965C360.286 163.275 360.217 163.614 360.132 163.924C360.047 164.234 359.955 164.567 359.87 164.877C359.785 165.187 359.672 165.514 359.587 165.824C359.48 166.128 359.388 166.46 359.281 166.765C359.174 167.069 359.061 167.395 358.953 167.699C358.846 168.004 358.711 168.324 358.603 168.628C358.474 168.926 358.338 169.246 358.209 169.544C358.08 169.843 357.95 170.141 357.793 170.455C357.663 170.753 357.512 171.045 357.36 171.337C357.208 171.629 357.057 171.921 356.905 172.213C356.754 172.505 356.602 172.797 356.428 173.083C356.277 173.375 356.103 173.661 355.929 173.947C355.755 174.233 355.582 174.519 355.414 174.783C355.24 175.069 355.072 175.332 354.876 175.612C354.703 175.898 354.513 176.156 354.317 176.436C354.121 176.716 353.931 176.973 353.741 177.231C353.551 177.489 353.355 177.769 353.143 178.02C352.954 178.278 352.735 178.552 352.523 178.804C352.311 179.055 352.099 179.307 351.887 179.559C351.675 179.81 351.463 180.062 351.229 180.307C351.017 180.559 350.783 180.805 350.555 181.028C350.321 181.274 350.092 181.497 349.858 181.743C349.624 181.988 349.396 182.212 349.146 182.429C348.917 182.652 348.661 182.892 348.411 183.109C348.16 183.326 347.932 183.55 347.682 183.767C347.432 183.985 347.181 184.202 346.931 184.419C346.681 184.637 346.414 184.826 346.164 185.043C345.892 185.254 345.648 185.449 345.381 185.639C345.115 185.828 344.842 186.039 344.576 186.228C344.309 186.417 344.043 186.606 343.755 186.789C334.421 193.095 323.519 194.778 312.551 192.703C302.48 190.658 293.383 184.282 287.623 175.819C281.475 166.772 279.618 155.899 281.688 145.221C283.639 135.153 289.849 125.632 298.355 119.909C307.916 113.642 319.127 111.877 330.143 114.037Z" fill="#DCFF93"/>
<path d="M549.211 172.048C530.721 208.149 486.452 222.432 450.334 203.951C414.215 185.47 399.925 141.222 418.415 105.121C436.905 69.0198 481.174 54.7362 517.292 73.2176C553.411 91.6989 567.701 135.947 549.211 172.048Z" fill="#F580F7"/>
<path fill-rule="evenodd" clip-rule="evenodd" d="M470.555 200.539C504.803 207.883 538.523 186.087 545.871 151.856C553.219 117.624 531.412 83.9202 497.164 76.5757C462.917 69.2312 429.197 91.0274 421.849 125.259C414.501 159.49 436.307 193.194 470.555 200.539ZM468.447 210.357C508.12 218.865 547.182 193.616 555.694 153.962C564.206 114.308 538.945 75.2648 499.272 66.7568C459.599 58.2489 420.537 83.4979 412.025 123.152C403.513 162.806 428.774 201.85 468.447 210.357Z" fill="#FEDDFF"/>
<path d="M522.998 124.046C524.041 124.58 524.082 125.222 522.983 125.969L489.808 147.046L498.94 151.719C499.708 152.112 499.879 152.636 499.524 153.328L498.06 156.186C497.706 156.878 497.172 157.064 496.403 156.671L485.533 151.109L482.82 156.407L493.69 161.969C494.458 162.363 494.629 162.886 494.265 163.596L492.801 166.455C492.447 167.147 491.912 167.333 491.144 166.94L480.274 161.378L476.917 167.932C476.525 168.697 475.963 168.938 475.25 168.573L464.38 163.011C463.684 162.655 463.551 162.058 463.943 161.293L467.3 154.739L456.503 149.215C455.808 148.859 455.638 148.335 456.001 147.625L457.475 144.748C457.829 144.056 458.363 143.87 459.058 144.226L469.855 149.75L472.569 144.452L461.772 138.928C461.077 138.572 460.906 138.048 461.27 137.338L462.734 134.479C463.088 133.788 463.613 133.62 464.309 133.975L473.495 138.676L471.123 99.4328C471.096 98.0865 471.613 97.7536 472.675 98.2967L484.88 104.542C485.576 104.898 486.039 105.572 486.196 106.617L486.543 133.22L508.402 118.003C509.114 117.471 510.088 117.418 510.856 117.857L522.988 124.065L522.998 124.046Z" fill="#FEDDFF"/>
<path d="M179.957 350.596C199.44 384.326 187.878 427.457 154.132 446.931C120.385 466.405 77.2341 454.849 57.7506 421.118C38.2671 387.388 49.8295 344.257 83.5758 324.783C117.322 305.309 160.473 316.866 179.957 350.596Z" fill="#543EFA"/>
<path fill-rule="evenodd" clip-rule="evenodd" d="M161.931 428.851C185.717 405.077 185.717 366.531 161.931 342.757C138.145 318.982 99.581 318.982 75.7952 342.757C52.0095 366.531 52.0095 405.077 75.7952 428.851C99.581 452.626 138.145 452.626 161.931 428.851ZM168.754 435.671C196.307 408.13 196.307 363.478 168.754 335.937C141.2 308.396 96.5264 308.396 68.9726 335.937C41.4188 363.478 41.4188 408.13 68.9726 435.671C96.5264 463.211 141.2 463.211 168.754 435.671Z" fill="#BEB6FF"/>
<path d="M114.53 398.894C115.215 399.406 115.829 399.901 116.477 400.342C118.71 401.859 121.143 402.833 123.819 403.107C125.914 403.322 128.024 403.088 130.009 402.422C132.668 401.544 135.052 400.197 137.022 398.184C138.908 396.257 140.121 393.923 140.908 391.347C141.039 390.914 141.158 390.474 141.279 390.036C141.546 389.072 142.452 388.488 143.415 388.736C145.443 389.257 147.462 389.82 149.485 390.362C149.914 390.477 150.347 390.566 150.775 390.683C151.861 390.981 152.43 391.881 152.186 392.977C151.403 396.501 150.03 399.761 147.975 402.71C145.884 405.711 143.267 408.155 140.224 410.151C137.18 412.147 133.936 413.654 130.414 414.572C127.159 415.422 123.852 415.698 120.49 415.327C116.131 414.845 112.122 413.344 108.438 410.922C106.36 409.564 104.448 407.96 102.744 406.145C102.529 405.915 102.387 405.887 102.115 406.047C99.5514 407.544 96.9778 409.023 94.4066 410.506C93.7347 410.894 93.3421 410.685 93.2636 409.898C93.0309 407.553 92.8004 405.201 92.5566 402.854C92.5152 402.457 92.6382 402.204 92.9789 402.01C94.3937 401.206 95.7998 400.387 97.2087 399.574L97.5463 399.379L96.3841 397.367L91.2315 400.34C90.7173 400.637 90.263 400.411 90.2043 399.824C89.9673 397.454 89.7453 395.083 89.4915 392.714C89.4393 392.228 89.5987 391.95 90.007 391.724C90.9984 391.178 91.9649 390.587 92.9574 390.042C93.2284 389.893 93.2545 389.747 93.1754 389.47C92.1285 385.832 91.6911 382.134 92.0145 378.374C92.5525 372.111 94.9864 366.708 99.1439 362.099C101.055 359.98 103.238 358.187 105.619 356.627C108.345 354.842 111.257 353.488 114.436 352.724C118.244 351.809 122.086 351.743 125.951 352.483C126.489 352.586 127.024 352.716 127.551 352.858C128.469 353.108 129.017 354.077 128.78 355.08C128.488 356.334 128.156 357.574 127.841 358.82C127.545 359.992 127.237 361.16 126.955 362.334C126.649 363.612 125.81 364.158 124.53 363.858C122.504 363.384 120.467 363.258 118.415 363.572C115.951 363.951 113.75 364.954 111.718 366.352C109.863 367.618 108.293 369.167 107.105 371.09C105.215 374.148 104.622 377.507 104.991 381.084C105.052 381.679 105.153 382.271 105.242 382.903C105.364 382.85 105.445 382.824 105.516 382.783C109.734 380.349 113.952 377.915 118.17 375.481C119.148 374.916 120.125 374.352 121.102 373.789C121.697 373.445 122.101 373.66 122.172 374.362C122.412 376.732 122.644 379.103 122.891 381.473C122.932 381.865 122.82 382.124 122.475 382.321C120.594 383.394 118.723 384.486 116.843 385.561C116.021 386.031 115.177 386.463 114.357 386.939C112.344 388.11 110.34 389.296 108.332 390.477C108.275 390.51 108.226 390.549 108.145 390.605L109.297 392.6L109.692 392.372C114.5 389.597 119.309 386.823 124.117 384.048C124.264 383.954 124.428 383.89 124.601 383.861C124.953 383.825 125.198 384.089 125.241 384.52C125.38 385.894 125.516 387.267 125.65 388.64C125.75 389.637 125.833 390.636 125.957 391.63C126.014 392.083 125.869 392.356 125.483 392.578C121.945 394.607 118.411 396.644 114.882 398.688L114.53 398.894Z" fill="#BEB6FF"/>
</svg>
