<svg width="1560" height="581" viewBox="0 0 1560 581" fill="none" xmlns="http://www.w3.org/2000/svg">
<path d="M1923.34 1030.2C1911.39 1030.2 1900.58 1035.06 1892.59 1042.84L1639.09 759.305L1801.39 544.71L1533.52 631.958L1663.38 370.863L1425.22 503.881L1501 226.828L1292.7 411.53L1308.92 112.685L1127.57 349.071L1112.56 47.5528L965.109 286.532L887.872 0L805.471 294.795L668.673 10.6933L624.123 319.179L445.52 69.2634L464.405 368.028L242.543 134.395L323.007 449.524L58.3704 281.104L203.884 561.56L-101.832 433.322L82.9052 679.591C82.9052 679.591 -206.751 628.96 -214.821 631.958C-222.892 634.955 45.0539 895.159 45.0539 895.159C45.0539 949.921 67.3289 999.742 103.243 1035.87C139.158 1071.92 188.792 1094.44 243.431 1094.44H276.359C281.04 1094.44 284.914 1098.33 284.914 1103.03V1229H385.393V1103.03C385.393 1098.33 389.267 1094.44 393.948 1094.44H492.572C497.253 1094.44 501.046 1098.33 501.046 1103.03V1229H601.526V1103.03C601.526 1098.33 605.4 1094.44 610.08 1094.44H1031.45C1036.13 1094.44 1040 1098.33 1040 1103.03V1229H1140.48V1103.03C1140.48 1098.33 1144.2 1094.44 1148.96 1094.44H1247.66C1252.34 1094.44 1256.22 1098.33 1256.22 1103.03V1229H1356.7V1103.03C1356.7 1098.33 1360.57 1094.44 1365.25 1094.44H1961.92C1965.14 1088.37 1967 1081.48 1967 1074.19C1967 1049.89 1947.39 1030.2 1923.34 1030.2ZM1465.81 970.66C1417.63 970.66 1378.41 931.451 1378.41 883.088C1378.41 834.725 1417.63 795.355 1465.81 795.355C1513.83 795.355 1553.06 834.725 1553.06 883.088C1553.06 931.451 1513.83 970.66 1465.81 970.66Z" fill="#282844" fill-opacity="0.26"/>
</svg>
